<svg id="visual" viewBox="0 0 1920 1080" width="1920" height="1080" xmlns="http://www.w3.org/2000/svg" xmlns:xlink="http://www.w3.org/1999/xlink" version="1.1"><rect x="0" y="0" width="1920" height="1080" fill="#001122"></rect><defs><linearGradient id="grad1_0" x1="43.8%" y1="0%" x2="100%" y2="100%"><stop offset="14.444444444444446%" stop-color="#3ceefa" stop-opacity="1"></stop><stop offset="85.55555555555554%" stop-color="#3ceefa" stop-opacity="1"></stop></linearGradient></defs><defs><linearGradient id="grad1_1" x1="43.8%" y1="0%" x2="100%" y2="100%"><stop offset="14.444444444444446%" stop-color="#3ceefa" stop-opacity="1"></stop><stop offset="85.55555555555554%" stop-color="#23c4db" stop-opacity="1"></stop></linearGradient></defs><defs><linearGradient id="grad1_2" x1="43.8%" y1="0%" x2="100%" y2="100%"><stop offset="14.444444444444446%" stop-color="#189cb8" stop-opacity="1"></stop><stop offset="85.55555555555554%" stop-color="#23c4db" stop-opacity="1"></stop></linearGradient></defs><defs><linearGradient id="grad1_3" x1="43.8%" y1="0%" x2="100%" y2="100%"><stop offset="14.444444444444446%" stop-color="#189cb8" stop-opacity="1"></stop><stop offset="85.55555555555554%" stop-color="#157593" stop-opacity="1"></stop></linearGradient></defs><defs><linearGradient id="grad1_4" x1="43.8%" y1="0%" x2="100%" y2="100%"><stop offset="14.444444444444446%" stop-color="#12516d" stop-opacity="1"></stop><stop offset="85.55555555555554%" stop-color="#157593" stop-opacity="1"></stop></linearGradient></defs><defs><linearGradient id="grad1_5" x1="43.8%" y1="0%" x2="100%" y2="100%"><stop offset="14.444444444444446%" stop-color="#12516d" stop-opacity="1"></stop><stop offset="85.55555555555554%" stop-color="#0b2f46" stop-opacity="1"></stop></linearGradient></defs><defs><linearGradient id="grad1_6" x1="43.8%" y1="0%" x2="100%" y2="100%"><stop offset="14.444444444444446%" stop-color="#001122" stop-opacity="1"></stop><stop offset="85.55555555555554%" stop-color="#0b2f46" stop-opacity="1"></stop></linearGradient></defs><defs><linearGradient id="grad2_0" x1="0%" y1="0%" x2="56.3%" y2="100%"><stop offset="14.444444444444446%" stop-color="#3ceefa" stop-opacity="1"></stop><stop offset="85.55555555555554%" stop-color="#3ceefa" stop-opacity="1"></stop></linearGradient></defs><defs><linearGradient id="grad2_1" x1="0%" y1="0%" x2="56.3%" y2="100%"><stop offset="14.444444444444446%" stop-color="#23c4db" stop-opacity="1"></stop><stop offset="85.55555555555554%" stop-color="#3ceefa" stop-opacity="1"></stop></linearGradient></defs><defs><linearGradient id="grad2_2" x1="0%" y1="0%" x2="56.3%" y2="100%"><stop offset="14.444444444444446%" stop-color="#23c4db" stop-opacity="1"></stop><stop offset="85.55555555555554%" stop-color="#189cb8" stop-opacity="1"></stop></linearGradient></defs><defs><linearGradient id="grad2_3" x1="0%" y1="0%" x2="56.3%" y2="100%"><stop offset="14.444444444444446%" stop-color="#157593" stop-opacity="1"></stop><stop offset="85.55555555555554%" stop-color="#189cb8" stop-opacity="1"></stop></linearGradient></defs><defs><linearGradient id="grad2_4" x1="0%" y1="0%" x2="56.3%" y2="100%"><stop offset="14.444444444444446%" stop-color="#157593" stop-opacity="1"></stop><stop offset="85.55555555555554%" stop-color="#12516d" stop-opacity="1"></stop></linearGradient></defs><defs><linearGradient id="grad2_5" x1="0%" y1="0%" x2="56.3%" y2="100%"><stop offset="14.444444444444446%" stop-color="#0b2f46" stop-opacity="1"></stop><stop offset="85.55555555555554%" stop-color="#12516d" stop-opacity="1"></stop></linearGradient></defs><defs><linearGradient id="grad2_6" x1="0%" y1="0%" x2="56.3%" y2="100%"><stop offset="14.444444444444446%" stop-color="#0b2f46" stop-opacity="1"></stop><stop offset="85.55555555555554%" stop-color="#001122" stop-opacity="1"></stop></linearGradient></defs><g transform="translate(1920, 0)"><path d="M0 918C-101.9 917.6 -203.9 917.2 -283.7 873.1C-363.5 829 -421.1 741.2 -490.2 674.7C-559.3 608.3 -639.8 563.2 -679.6 493.7C-719.3 424.3 -718.4 330.5 -751.3 244.1C-784.3 157.8 -851.1 78.9 -918 0L0 0Z" fill="#062034"></path><path d="M0 786.9C-87.4 786.5 -174.8 786.2 -243.2 748.3C-311.6 710.5 -361 635.3 -420.2 578.3C-479.4 521.4 -548.4 482.7 -582.5 423.2C-616.6 363.7 -615.8 283.3 -644 209.2C-672.2 135.2 -729.5 67.6 -786.9 0L0 0Z" fill="#0f4059"></path><path d="M0 655.7C-72.8 655.4 -145.6 655.1 -202.6 623.6C-259.6 592.1 -300.8 529.4 -350.2 481.9C-399.5 434.5 -457 402.3 -485.4 352.7C-513.8 303.1 -513.1 236.1 -536.7 174.4C-560.2 112.7 -608 56.3 -655.7 0L0 0Z" fill="#146280"></path><path d="M0 524.6C-58.3 524.3 -116.5 524.1 -162.1 498.9C-207.7 473.7 -240.6 423.5 -280.1 385.6C-319.6 347.6 -365.6 321.8 -388.3 282.1C-411.1 242.5 -410.5 188.8 -429.3 139.5C-448.2 90.2 -486.4 45.1 -524.6 0L0 0Z" fill="#1688a6"></path><path d="M0 393.4C-43.7 393.3 -87.4 393.1 -121.6 374.2C-155.8 355.3 -180.5 317.6 -210.1 289.2C-239.7 260.7 -274.2 241.4 -291.2 211.6C-308.3 181.8 -307.9 141.6 -322 104.6C-336.1 67.6 -364.8 33.8 -393.4 0L0 0Z" fill="#1cb0ca"></path><path d="M0 262.3C-29.1 262.2 -58.3 262.1 -81.1 249.4C-103.9 236.8 -120.3 211.8 -140.1 192.8C-159.8 173.8 -182.8 160.9 -194.2 141.1C-205.5 121.2 -205.3 94.4 -214.7 69.7C-224.1 45.1 -243.2 22.5 -262.3 0L0 0Z" fill="#2ed9eb"></path><path d="M0 131.1C-14.6 131.1 -29.1 131 -40.5 124.7C-51.9 118.4 -60.2 105.9 -70 96.4C-79.9 86.9 -91.4 80.5 -97.1 70.5C-102.8 60.6 -102.6 47.2 -107.3 34.9C-112 22.5 -121.6 11.3 -131.1 0L0 0Z" fill="#3ceefa"></path></g><g transform="translate(0, 1080)"><path d="M0 -918C90.4 -899.9 180.8 -881.8 279 -858.8C377.2 -835.8 483.2 -807.9 532.5 -733C581.8 -658 574.5 -536 632.7 -459.6C690.8 -383.3 814.6 -352.7 873.1 -283.7C931.6 -214.7 924.8 -107.3 918 0L0 0Z" fill="#062034"></path><path d="M0 -786.9C77.5 -771.3 155 -755.8 239.2 -736.1C323.4 -716.4 414.2 -692.5 456.5 -628.3C498.7 -564 492.4 -459.4 542.3 -394C592.1 -328.6 698.2 -302.3 748.3 -243.2C798.5 -184 792.7 -92 786.9 0L0 0Z" fill="#0f4059"></path><path d="M0 -655.7C64.6 -642.8 129.2 -629.9 199.3 -613.4C269.5 -597 345.2 -577.1 380.4 -523.5C415.6 -470 410.3 -382.8 451.9 -328.3C493.5 -273.8 581.8 -251.9 623.6 -202.6C665.4 -153.3 660.6 -76.7 655.7 0L0 0Z" fill="#146280"></path><path d="M0 -524.6C51.7 -514.2 103.3 -503.9 159.5 -490.7C215.6 -477.6 276.1 -461.7 304.3 -418.8C332.5 -376 328.3 -306.3 361.5 -262.7C394.8 -219 465.5 -201.5 498.9 -162.1C532.3 -122.7 528.4 -61.3 524.6 0L0 0Z" fill="#1688a6"></path><path d="M0 -393.4C38.8 -385.7 77.5 -377.9 119.6 -368.1C161.7 -358.2 207.1 -346.3 228.2 -314.1C249.4 -282 246.2 -229.7 271.1 -197C296.1 -164.3 349.1 -151.1 374.2 -121.6C399.2 -92 396.3 -46 393.4 0L0 0Z" fill="#1cb0ca"></path><path d="M0 -262.3C25.8 -257.1 51.7 -251.9 79.7 -245.4C107.8 -238.8 138.1 -230.8 152.2 -209.4C166.2 -188 164.1 -153.1 180.8 -131.3C197.4 -109.5 232.7 -100.8 249.4 -81.1C266.2 -61.3 264.2 -30.7 262.3 0L0 0Z" fill="#2ed9eb"></path><path d="M0 -131.1C12.9 -128.6 25.8 -126 39.9 -122.7C53.9 -119.4 69 -115.4 76.1 -104.7C83.1 -94 82.1 -76.6 90.4 -65.7C98.7 -54.8 116.4 -50.4 124.7 -40.5C133.1 -30.7 132.1 -15.3 131.1 0L0 0Z" fill="#3ceefa"></path></g></svg>