<svg width="340" height="340" viewBox="0 0 340 340" fill="none" xmlns="http://www.w3.org/2000/svg">
<g clip-path="url(#clip0_154_831)">
<path d="M92.7053 205.08H78.9743V153.063L70.1557 157.973L63.7422 147.148L82.4837 135.12H92.7053V205.08Z" fill="#213543"/>
<path d="M151.932 169.898C151.932 179.386 150.062 187.404 146.32 193.953C141.711 201.904 134.999 205.882 126.18 205.882C117.361 205.882 110.547 201.94 105.937 194.055C102.129 187.573 100.223 179.591 100.223 170.098C100.223 160.606 102.129 152.592 105.937 146.043C110.547 138.092 117.294 134.114 126.18 134.114C135.065 134.114 141.711 138.056 146.32 145.941C150.062 152.423 151.932 160.409 151.932 169.898ZM137.502 170.098C137.502 164.619 136.865 160.009 135.6 156.267C133.662 150.721 130.522 147.946 126.18 147.946C121.837 147.946 118.497 150.685 116.56 156.164C115.223 159.906 114.555 164.552 114.555 170.098C114.555 175.644 115.223 180.188 116.56 183.93C118.497 189.409 121.704 192.149 126.18 192.149C133.729 192.149 137.502 184.799 137.502 170.098Z" fill="#213543"/>
<path d="M206.145 169.898C206.145 179.386 204.274 187.404 200.533 193.953C195.923 201.904 189.211 205.882 180.392 205.882C171.574 205.882 164.759 201.94 160.15 194.055C156.342 187.573 154.436 179.591 154.436 170.098C154.436 160.606 156.342 152.592 160.15 146.043C164.759 138.092 171.507 134.114 180.392 134.114C189.278 134.114 195.927 138.056 200.533 145.941C204.274 152.423 206.145 160.409 206.145 169.898ZM191.714 170.098C191.714 164.619 191.078 160.009 189.808 156.267C187.871 150.721 184.731 147.946 180.388 147.946C176.046 147.946 172.705 150.685 170.768 156.164C169.432 159.906 168.764 164.552 168.764 170.098C168.764 175.644 169.432 180.188 170.768 183.93C172.705 189.409 175.912 192.149 180.388 192.149C187.938 192.149 191.71 184.799 191.71 170.098H191.714Z" fill="#213543"/>
<path d="M243.242 165.224C243.242 169.627 242.327 173.215 240.492 175.994C238.291 179.296 235.068 180.947 230.824 180.947C226.58 180.947 223.357 179.296 221.157 175.994C219.27 173.215 218.327 169.627 218.327 165.224C218.327 160.822 219.27 157.234 221.157 154.455C223.357 151.153 226.58 149.502 230.824 149.502C235.068 149.502 238.291 151.153 240.492 154.455C242.327 157.234 243.242 160.822 243.242 165.224ZM234.754 165.224C234.754 160.299 233.445 157.835 230.824 157.835C228.203 157.835 226.816 160.299 226.816 165.224C226.816 170.149 228.152 172.614 230.824 172.614C233.496 172.614 234.754 170.149 234.754 165.224ZM265.014 150.21L239.941 205.08H229.488L254.639 150.21H265.014ZM276.253 190.144C276.253 194.495 275.31 198.084 273.424 200.914C271.223 204.215 268.001 205.866 263.756 205.866C259.512 205.866 256.29 204.215 254.089 200.914C252.254 198.084 251.338 194.495 251.338 190.144C251.338 185.793 252.254 182.126 254.089 179.296C256.29 175.994 259.512 174.343 263.756 174.343C268.001 174.343 271.223 175.994 273.424 179.296C275.31 182.126 276.253 185.742 276.253 190.144ZM267.765 190.144C267.765 185.219 266.429 182.755 263.756 182.755C261.084 182.755 259.748 185.219 259.748 190.144C259.748 195.069 261.084 197.455 263.756 197.455C266.429 197.455 267.765 195.018 267.765 190.144Z" fill="#213543"/>
<path d="M317.223 255.014C312.075 263.932 306.148 272.328 299.542 280.114C299.306 280.393 299.071 280.668 298.831 280.944C298.674 281.124 298.516 281.305 298.359 281.486C295.754 284.481 293.034 287.398 290.205 290.228C284.593 295.84 278.647 301.017 272.395 305.749L246.124 269.58C246.733 269.113 247.338 268.641 247.939 268.161C248.147 267.996 248.356 267.831 248.564 267.662C248.973 267.332 249.381 266.998 249.786 266.664C257.304 260.477 264.059 253.442 269.974 245.612C271.353 243.784 272.674 241.925 273.947 240.034C273.998 239.96 274.045 239.885 274.096 239.81C274.58 239.087 275.059 238.364 275.527 237.633C275.672 237.405 275.814 237.177 275.959 236.949C276.332 236.359 276.702 235.77 277.063 235.176C277.28 234.819 277.492 234.461 277.708 234.099C277.991 233.624 278.274 233.152 278.549 232.673C278.828 232.193 279.095 231.71 279.366 231.226C279.571 230.864 279.775 230.503 279.971 230.137C280.305 229.524 280.632 228.907 280.958 228.29C281.084 228.054 281.209 227.818 281.331 227.579C281.732 226.804 282.121 226.026 282.506 225.244C282.546 225.165 282.585 225.091 282.62 225.012C283.618 222.964 284.573 220.889 285.465 218.782C286.464 216.424 287.383 214.042 288.232 211.636L330.714 225.444C329.397 229.273 327.951 233.038 326.375 236.745C323.707 242.971 320.657 249.067 317.223 255.01V255.014Z" fill="#61849D"/>
<path d="M234.982 327.12C234.287 327.407 233.591 327.686 232.896 327.965C232.609 328.079 232.326 328.193 232.039 328.303C231.611 328.472 231.182 328.633 230.754 328.798C230.204 329.01 229.65 329.218 229.099 329.423C228.942 329.482 228.781 329.541 228.62 329.6C214.347 334.831 199.405 338.149 184.232 339.438C180.53 339.744 176.805 339.929 173.063 339.992V295.306C177.709 295.196 182.342 294.822 186.932 294.193C197.881 292.719 208.542 289.803 218.78 285.472C223.798 283.349 228.64 280.912 233.297 278.18C233.505 278.059 233.709 277.937 233.917 277.815C234.373 277.544 234.833 277.272 235.285 276.997C235.937 276.6 236.586 276.195 237.23 275.787C237.458 275.641 237.686 275.492 237.914 275.346C238.519 274.957 239.121 274.56 239.718 274.163C239.852 274.073 239.985 273.986 240.119 273.896C240.472 273.66 240.822 273.42 241.172 273.177L267.439 309.338C263.427 312.132 259.281 314.77 255.001 317.242C248.552 320.968 241.883 324.25 235.049 327.088C235.026 327.096 235.006 327.108 234.982 327.116V327.12Z" fill="#54748B"/>
<path d="M157.022 339.544C156.664 339.517 156.31 339.489 155.953 339.458C139.785 338.098 123.877 334.438 108.755 328.613C108.633 328.566 108.507 328.519 108.386 328.472C107.796 328.244 107.207 328.008 106.621 327.772C106.236 327.615 105.847 327.462 105.462 327.304C105.132 327.171 104.806 327.033 104.475 326.896C103.823 326.624 103.175 326.349 102.526 326.07C102.459 326.039 102.389 326.011 102.322 325.98C96.4035 323.409 90.6188 320.497 84.9991 317.254C80.7194 314.782 76.5734 312.144 72.561 309.35L98.8322 273.185C99.1387 273.393 99.4413 273.605 99.7478 273.814C100.007 273.99 100.267 274.163 100.53 274.336C100.954 274.619 101.383 274.898 101.811 275.177C103.336 276.168 104.884 277.123 106.452 278.047C106.452 278.047 106.456 278.047 106.46 278.051C111.196 280.837 116.12 283.325 121.225 285.487C131.485 289.827 142.171 292.747 153.143 294.217C153.504 294.268 153.866 294.311 154.228 294.359C154.283 294.366 154.334 294.37 154.389 294.378C158.55 294.901 162.74 295.215 166.941 295.318V340.004C163.738 339.949 160.551 339.807 157.379 339.575C157.261 339.568 157.143 339.56 157.026 339.548L157.022 339.544Z" fill="#486579"/>
<path d="M49.7912 290.228C47.0128 287.449 44.3405 284.587 41.7782 281.647C41.5425 281.372 41.3027 281.101 41.0669 280.826C40.8862 280.613 40.7015 280.401 40.5207 280.189C33.891 272.383 27.9412 263.964 22.7774 255.014C19.3427 249.063 16.2892 242.959 13.6168 236.729C12.0449 233.03 10.5987 229.269 9.28613 225.448L51.7719 211.64C52.6207 214.042 53.5403 216.424 54.5385 218.786C55.4306 220.897 56.3816 222.972 57.3837 225.016C57.423 225.094 57.4623 225.169 57.4977 225.248C57.8828 226.03 58.2719 226.808 58.6727 227.582C58.7946 227.818 58.9203 228.054 59.0461 228.294C59.3722 228.911 59.6984 229.528 60.0325 230.141C60.2329 230.507 60.4372 230.868 60.6377 231.23C60.9088 231.713 61.18 232.197 61.4551 232.676C61.7302 233.156 62.0131 233.628 62.2961 234.103C62.5083 234.461 62.7205 234.823 62.9366 235.176C63.2982 235.77 63.6676 236.359 64.0409 236.949C64.1863 237.177 64.3278 237.405 64.4732 237.633C64.9409 238.364 65.4203 239.091 65.9037 239.814C65.9508 239.889 66.0019 239.96 66.0491 240.034C67.3224 241.925 68.6428 243.788 70.0222 245.612C76.0152 253.544 82.8728 260.658 90.5086 266.908C90.7719 267.124 91.0352 267.34 91.3024 267.556C91.5932 267.788 91.884 268.02 92.1748 268.252C92.7368 268.7 93.3027 269.14 93.8725 269.576L67.5974 305.745C61.345 301.013 55.3992 295.836 49.7873 290.224L49.7912 290.228Z" fill="#3B5567"/>
<path d="M22.7773 84.9862C27.9333 76.056 33.8674 67.6525 40.4814 59.8622C40.6975 59.6067 40.9137 59.3512 41.1337 59.0997C41.3184 58.8835 41.5031 58.6712 41.6878 58.459C44.2815 55.4836 46.9814 52.5868 49.7951 49.7725C55.407 44.1597 61.3529 38.9831 67.6053 34.2508L93.8764 70.4196C93.2712 70.8834 92.67 71.3512 92.0765 71.8268C91.8565 71.9997 91.6364 72.1766 91.4203 72.3495C91.0273 72.664 90.6382 72.9863 90.2492 73.3047C82.7195 79.4992 75.9484 86.5427 70.0261 94.3842C68.6467 96.2119 67.3263 98.075 66.053 99.9616C66.0019 100.036 65.9547 100.107 65.9076 100.182C65.4242 100.905 64.9448 101.632 64.4771 102.363C64.3317 102.591 64.1902 102.819 64.0448 103.047C63.6715 103.637 63.3021 104.226 62.9405 104.82C62.7244 105.177 62.5122 105.535 62.3 105.893C62.017 106.368 61.7341 106.844 61.459 107.32C61.18 107.799 60.9127 108.283 60.6416 108.766C60.4372 109.128 60.2329 109.489 60.0364 109.855C59.7023 110.468 59.3761 111.085 59.05 111.702C58.9242 111.938 58.7985 112.174 58.6766 112.414C58.2758 113.188 57.8867 113.966 57.5016 114.748C57.4623 114.827 57.423 114.902 57.3876 114.98C56.3895 117.028 55.4345 119.103 54.5424 121.21C53.5442 123.568 52.6246 125.95 51.7758 128.356L9.29004 114.548C10.6026 110.731 12.0449 106.97 13.6168 103.271C16.2891 97.0373 19.3426 90.9331 22.7773 84.9784V84.9862Z" fill="#1B2E3C"/>
<path d="M105.202 12.8057C105.768 12.5738 106.334 12.3458 106.904 12.1179C107.317 11.9528 107.729 11.7877 108.146 11.6266C108.445 11.5086 108.739 11.3947 109.038 11.2807C109.718 11.0213 110.398 10.7618 111.082 10.5103C111.109 10.4985 111.137 10.4906 111.164 10.4788C125.551 5.18439 140.618 1.83557 155.917 0.546352C156.299 0.514908 156.68 0.483463 157.061 0.455949C157.151 0.448088 157.238 0.444158 157.328 0.436297C160.515 0.204395 163.722 0.0589644 166.941 0.00393677V44.6903C162.712 44.7925 158.499 45.1069 154.314 45.6376C154.31 45.6376 154.302 45.6376 154.298 45.6376C153.897 45.6887 153.497 45.7398 153.1 45.7948C142.143 47.2687 131.474 50.1852 121.224 54.5206C116.186 56.651 111.325 59.1036 106.645 61.8471C106.487 61.9375 106.33 62.0319 106.177 62.1223C105.678 62.4171 105.183 62.7119 104.688 63.0145C104.055 63.3997 103.43 63.7928 102.805 64.1858C102.546 64.3509 102.29 64.5199 102.031 64.685C101.461 65.0505 100.899 65.4239 100.337 65.7973C100.18 65.9035 100.019 66.0096 99.8617 66.1157C99.5199 66.3476 99.178 66.5795 98.8361 66.8153L72.5688 30.6543C76.5812 27.8597 80.7272 25.2223 85.0069 22.75C91.3968 19.0632 97.999 15.8047 104.766 12.9865C104.916 12.9236 105.061 12.8647 105.21 12.8018L105.202 12.8057Z" fill="#000F1D"/>
<path d="M182.959 0.452013C183.328 0.479526 183.698 0.510971 184.067 0.542415C200.203 1.89845 216.088 5.54993 231.182 11.3632C231.343 11.4261 231.505 11.489 231.67 11.5519C232.22 11.7641 232.77 11.9842 233.316 12.2043C233.745 12.3773 234.173 12.5502 234.597 12.7232C234.884 12.8411 235.171 12.9629 235.458 13.0809C236.15 13.3717 236.845 13.6626 237.533 13.9613C237.56 13.9731 237.584 13.9849 237.612 13.9967C243.553 16.5751 249.358 19.4955 254.997 22.7539C259.277 25.2262 263.423 27.8636 267.435 30.6582L241.164 66.8232C240.85 66.607 240.531 66.3869 240.217 66.1747C239.989 66.0214 239.757 65.8681 239.525 65.7108C239.058 65.4003 238.59 65.0898 238.118 64.7872C237.784 64.571 237.454 64.3548 237.12 64.1426C236.979 64.0522 236.837 63.9657 236.696 63.8792C235.686 63.2425 234.668 62.6254 233.638 62.0201C233.583 61.9886 233.532 61.9572 233.477 61.9257C228.761 59.1508 223.857 56.6785 218.776 54.5284C208.531 50.1931 197.861 47.2766 186.901 45.8026C186.5 45.7476 186.103 45.6965 185.702 45.6454C185.698 45.6454 185.69 45.6454 185.686 45.6454C181.501 45.1148 177.288 44.7964 173.06 44.6982V0C176.27 0.0550276 179.465 0.196527 182.648 0.43236C182.751 0.440221 182.853 0.448082 182.959 0.455943V0.452013Z" fill="#84B2D2"/>
<path d="M290.209 49.7686C292.995 52.5553 295.671 55.4246 298.241 58.3725C298.469 58.6319 298.697 58.8953 298.921 59.1586C299.11 59.3787 299.299 59.5989 299.487 59.8229C306.117 67.625 312.059 76.0443 317.223 84.9862C320.657 90.9332 323.707 97.0294 326.375 103.259C327.951 106.962 329.397 110.731 330.71 114.556L288.224 128.364C287.375 125.962 286.456 123.58 285.458 121.218C284.566 119.107 283.615 117.032 282.612 114.988C282.573 114.909 282.534 114.835 282.498 114.756C282.113 113.974 281.724 113.196 281.323 112.421C281.202 112.186 281.076 111.95 280.95 111.71C280.624 111.093 280.298 110.476 279.964 109.863C279.763 109.497 279.559 109.136 279.358 108.774C279.087 108.29 278.816 107.807 278.541 107.327C278.266 106.848 277.983 106.376 277.7 105.901C277.488 105.543 277.276 105.181 277.056 104.824C276.694 104.23 276.325 103.641 275.951 103.051C275.806 102.823 275.664 102.595 275.519 102.367C275.051 101.636 274.572 100.909 274.089 100.19C274.037 100.115 273.99 100.04 273.939 99.9655C272.666 98.075 271.345 96.2158 269.966 94.3881C263.993 86.4798 257.159 79.3852 249.554 73.1553C249.256 72.9077 248.957 72.664 248.654 72.4203C248.383 72.2041 248.116 71.9879 247.841 71.7718C247.267 71.3197 246.693 70.8677 246.112 70.4236L272.387 34.2547C278.639 38.9871 284.585 44.1636 290.197 49.7764L290.209 49.7686Z" fill="#79A3C1"/>
<path d="M340 170C340 176.863 339.595 183.667 338.793 190.392C337.827 198.316 336.298 206.2 334.207 214.006C333.704 215.889 333.166 217.76 332.6 219.619L290.122 205.815C290.315 205.171 290.499 204.53 290.68 203.885C290.7 203.818 290.716 203.748 290.735 203.681C290.849 203.272 290.963 202.859 291.073 202.447C291.183 202.034 291.293 201.621 291.399 201.205C291.415 201.138 291.435 201.071 291.45 201.004C292.747 195.918 293.726 190.741 294.378 185.49C294.909 181.23 295.215 176.961 295.306 172.7C295.306 172.63 295.306 172.559 295.31 172.484C295.317 172.107 295.321 171.729 295.325 171.348C295.325 171.171 295.325 170.998 295.329 170.821C295.329 170.546 295.329 170.271 295.329 169.992C295.329 169.717 295.329 169.442 295.329 169.163C295.329 168.986 295.329 168.813 295.325 168.636C295.321 168.259 295.317 167.881 295.31 167.5C295.31 167.429 295.31 167.359 295.306 167.284C295.215 163.023 294.909 158.759 294.378 154.498C293.726 149.243 292.747 144.066 291.45 138.98C291.435 138.921 291.419 138.862 291.403 138.803C291.293 138.379 291.183 137.958 291.073 137.538C290.967 137.137 290.857 136.736 290.743 136.335C290.719 136.256 290.7 136.178 290.676 136.099C290.495 135.454 290.307 134.81 290.118 134.169L332.596 120.365C333.162 122.224 333.7 124.095 334.203 125.978C336.294 133.788 337.823 141.669 338.79 149.593C339.591 156.318 339.996 163.118 339.996 169.984L340 170Z" fill="#6D94AF"/>
<path d="M49.3198 136.111C49.2962 136.189 49.2766 136.268 49.253 136.347C49.143 136.748 49.0329 137.149 48.9229 137.549C48.8089 137.97 48.6989 138.394 48.5928 138.815C48.5771 138.874 48.5613 138.933 48.5456 138.992C47.2488 144.078 46.2702 149.255 45.6179 154.51C45.0873 158.77 44.7808 163.035 44.6904 167.296C44.6904 167.367 44.6904 167.441 44.6865 167.512C44.6786 167.889 44.6747 168.267 44.6708 168.644C44.6708 168.821 44.6708 168.994 44.6669 169.171C44.6669 169.446 44.6669 169.721 44.6669 170C44.6669 170.275 44.6669 170.55 44.6669 170.829C44.6669 171.006 44.6669 171.179 44.6708 171.356C44.6747 171.733 44.6786 172.111 44.6865 172.488C44.6865 172.559 44.6865 172.633 44.6904 172.704C44.7808 176.965 45.0873 181.23 45.6179 185.49C46.2702 190.745 47.2488 195.922 48.5456 201.004C48.5613 201.071 48.581 201.138 48.5967 201.205C48.7028 201.617 48.8089 202.034 48.9229 202.447C49.0329 202.859 49.1469 203.268 49.2609 203.681C49.2805 203.748 49.2962 203.818 49.3159 203.885C49.4967 204.53 49.6853 205.174 49.8739 205.815L7.39603 219.619C6.83013 217.76 6.29174 215.889 5.78871 214.006C3.69802 206.196 2.16931 198.316 1.20256 190.392C0.40087 183.667 -0.00390625 176.867 -0.00390625 170C-0.00390625 163.133 0.40087 156.333 1.20256 149.608C2.16931 141.684 3.69802 133.8 5.78871 125.994C6.29174 124.111 6.83013 122.24 7.39603 120.381L49.8739 134.185C49.6814 134.826 49.4967 135.47 49.3159 136.115L49.3198 136.111Z" fill="#2D4353"/>
</g>
<defs>
<clipPath id="clip0_154_831">
<rect width="340" height="340" fill="white"/>
</clipPath>
</defs>
</svg>
