<svg width="746" height="752" viewBox="0 0 746 752" fill="none" xmlns="http://www.w3.org/2000/svg">
<g clip-path="url(#clip0_102_29)">
<g style="mix-blend-mode:hard-light" opacity="0.4">
<path d="M404.49 509.307C416.469 486.788 334.556 447.708 357.737 437.343C381.635 426.663 409.126 433.375 435.123 436.104C496.967 442.596 561.05 424.201 610.198 385.827C631.529 369.173 649.965 348.818 664.729 326.079C706.954 261.045 719.509 176.911 664.076 115.234C624.558 71.2772 558.11 44.7118 499.487 51.9726C436.352 59.7822 378.772 105.856 313.101 91.4442C285.439 85.3753 260.624 70.9008 232.557 66.9332C203.417 62.8089 173.281 65.5846 145.463 75.3231C93.9814 93.3574 49.6409 133.833 37.63 188.234C22.9899 254.616 58.6957 322.832 102.958 369.957C116.105 383.961 130.605 396.679 146.225 407.829C160.321 417.881 272.168 469.146 277.52 487.18H371.195L371.133 531.811L404.474 509.307H404.49Z" fill="#EBECEC"/>
</g>
<g style="mix-blend-mode:hard-light" opacity="0.2">
<path d="M572.828 432.262C590.424 424.734 612.299 422.539 627.468 434.253C632.835 438.409 637.16 444.494 637.518 451.3C637.783 456.192 635.994 460.991 633.629 465.272C621.509 487.211 595.636 497.232 571.179 501.984C543.594 507.347 515.123 508.178 487.274 504.399C474.283 502.642 438.297 495.256 438.142 476.328C438.048 463.798 452.331 466.495 462.101 466.715C481.035 467.17 498.678 467.75 516.928 461.258C536.826 454.185 553.474 440.51 572.828 432.246V432.262Z" fill="#EBECEC"/>
</g>
<g style="mix-blend-mode:hard-light" opacity="0.2">
<path d="M351.265 23.839C344.202 25.3288 337.403 27.8536 330.386 29.5629C309.383 34.691 286.637 32.1975 267.205 22.6785C263.596 20.9065 259.348 18.8835 255.77 20.734C253.996 21.6592 252.783 23.3999 252.005 25.2504C249.516 31.2252 251.242 38.3292 254.976 43.5984C258.71 48.8675 264.156 52.6312 269.663 55.9558C281.814 63.3263 295.054 69.3169 309.119 71.136C323.183 72.9551 338.197 70.2735 349.554 61.6954C352.432 59.5156 355.077 56.9751 358.267 55.2971C366.341 51.016 376.298 53.0233 384.731 56.5203C387.485 57.6651 390.223 58.9667 393.163 59.4058C409.281 61.8052 414.711 42.2654 404.552 33.0757C391.95 21.6749 366.761 20.5771 351.265 23.839Z" fill="#EBECEC"/>
</g>
<g style="mix-blend-mode:hard-light" opacity="0.2">
<path d="M424.559 49.0087C421.775 45.292 418.912 41.45 417.652 36.9649C416.391 32.4798 417.061 27.1166 420.514 23.9959C423.05 21.7063 426.613 20.9692 430.02 20.734C434.346 20.436 439.044 20.8908 442.374 23.6979C447.368 27.9007 447.305 36.2592 443.385 41.497C439.464 46.7348 432.759 49.1969 426.271 49.6517" fill="#EBECEC"/>
</g>
<g style="mix-blend-mode:hard-light" opacity="0.2">
<path d="M666.597 364.06C673.52 359.513 682.046 356.345 690.011 358.587C698.506 360.987 704.512 369.33 705.912 378.112C707.312 386.893 704.745 395.926 700.622 403.783C694.492 415.435 684.006 425.597 671.077 427.588C624.839 434.724 643.913 378.99 666.597 364.06Z" fill="#EBECEC"/>
</g>
<g style="mix-blend-mode:hard-light" opacity="0.2">
<path d="M143.565 446.14C136.968 442.894 129.391 442.533 122.204 441.012C111.577 438.77 101.511 433.846 93.1723 426.82C88.6604 423.009 84.6153 418.587 79.5901 415.513C74.5648 412.44 68.1082 410.903 62.7873 413.428C55.9885 416.658 53.4369 425.675 55.4284 432.983C57.4198 440.291 62.8962 446.093 68.6994 450.923C82.6239 462.528 100.796 470.541 118.579 467.358C122.593 466.637 151.406 466.543 151.686 466.292C158.672 459.94 149.088 448.869 143.565 446.14Z" fill="#EBECEC"/>
</g>
<g style="mix-blend-mode:hard-light" opacity="0.2">
<path d="M97.1396 414.29C93.8257 412.095 90.2785 409.099 90.3252 405.1C90.403 399.549 97.7619 396.726 102.912 398.686C108.077 400.647 111.562 405.383 115.389 409.382C120.197 414.4 126.28 417.881 131.507 422.068C123.962 433.218 104.919 419.418 97.1396 414.274V414.29Z" fill="#EBECEC"/>
</g>
<g style="mix-blend-mode:hard-light" opacity="0.2">
<path d="M505.306 79.4631C453.015 84.9362 408.986 114.418 359.184 128.328C323.012 138.443 286.404 138.788 249.936 130.837C212.176 122.604 173.514 118.7 142.849 145.406C101.823 181.13 84.1954 245.442 93.1102 296.126C98.7577 328.211 118.625 359.952 149.695 375.32C179.349 389.983 201.861 397.495 204.444 433.25C209.345 417.364 228.108 409.617 244.957 405.1C283.339 394.813 323.447 390.375 363.229 391.99C396.446 393.339 431.358 397.761 465.322 395.973C502.365 394.029 534.368 382.503 566.216 365.001C598.623 347.202 625.476 327.082 640.599 293.491C677.58 211.302 620.124 71.9201 511.825 78.9143C509.631 79.0554 507.453 79.2436 505.29 79.4631H505.306Z" fill="#EBECEC"/>
</g>
<path d="M285.962 252C309.58 195.97 283.664 131.25 228.077 107.444C172.49 83.6375 108.281 109.76 84.6628 165.79C61.0446 221.82 86.9605 286.54 142.548 310.346C198.135 334.153 262.343 308.03 285.962 252Z" fill="#B8D8FF"/>
<path d="M186.785 208.275L271.344 231.03C264.296 257.642 245.284 279.44 220.002 289.885C175.584 308.248 124.04 286.513 105.821 241.741C87.6027 196.969 109.166 145.014 153.584 126.65C198.003 108.287 249.547 130.022 267.765 174.794L186.785 208.275Z" fill="#5985FF"/>
<path d="M211.274 208.275L270.083 186.415C270.083 186.415 278.485 200.528 270.083 217.465L211.274 208.275Z" fill="#5985FF"/>
<path d="M276.176 366.422C293.509 334.695 282.043 294.811 250.566 277.34C219.089 259.868 179.521 271.426 162.188 303.153C144.855 334.881 156.32 374.765 187.797 392.236C219.274 409.707 258.843 398.15 276.176 366.422Z" fill="#B49CE2"/>
<path d="M218.415 335.362L166.342 336.005C166.14 319.618 173.576 304.061 186.396 293.978C208.924 276.273 241.907 280.381 259.473 303.089C277.038 325.796 272.961 359.042 250.433 376.747C227.905 394.452 194.922 390.344 177.357 367.636L218.415 335.362Z" fill="#7E5AB6"/>
<path d="M204.397 339.314L174.183 361.347C174.183 361.347 167.12 354.62 169.236 343.564L204.382 339.314H204.397Z" fill="#7E5AB6"/>
<path d="M637.752 133.441H485.796C480.726 133.441 476.617 137.583 476.617 142.693V144.606C476.617 149.716 480.726 153.859 485.796 153.859H637.752C642.821 153.859 646.931 149.716 646.931 144.606V142.693C646.931 137.583 642.821 133.441 637.752 133.441Z" fill="white"/>
<path d="M637.752 173.838H485.796C480.726 173.838 476.617 177.98 476.617 183.09V185.003C476.617 190.113 480.726 194.256 485.796 194.256H637.752C642.821 194.256 646.931 190.113 646.931 185.003V183.09C646.931 177.98 642.821 173.838 637.752 173.838Z" fill="white"/>
<path d="M637.752 214.234H485.796C480.726 214.234 476.617 218.377 476.617 223.487V225.4C476.617 230.51 480.726 234.652 485.796 234.652H637.752C642.821 234.652 646.931 230.51 646.931 225.4V223.487C646.931 218.377 642.821 214.234 637.752 214.234Z" fill="white"/>
<path d="M637.752 254.631H485.796C480.726 254.631 476.617 258.774 476.617 263.884V265.797C476.617 270.907 480.726 275.049 485.796 275.049H637.752C642.821 275.049 646.931 270.907 646.931 265.797V263.884C646.931 258.774 642.821 254.631 637.752 254.631Z" fill="white"/>
<path d="M637.752 295.028H485.796C480.726 295.028 476.617 299.171 476.617 304.281V306.194C476.617 311.304 480.726 315.446 485.796 315.446H637.752C642.821 315.446 646.931 311.304 646.931 306.194V304.281C646.931 299.171 642.821 295.028 637.752 295.028Z" fill="white"/>
<path d="M364.676 219.799C381.035 212.806 388.673 193.77 381.735 177.281C374.798 160.791 355.913 153.093 339.553 160.085C323.194 167.078 315.556 186.114 322.494 202.603C329.431 219.093 348.316 226.791 364.676 219.799Z" fill="#82848D"/>
<path d="M370.352 210.621C381.684 200.462 382.7 182.967 372.621 171.544C362.542 160.122 345.185 159.098 333.853 169.257C322.521 179.416 321.505 196.911 331.584 208.334C341.662 219.756 359.019 220.78 370.352 210.621Z" fill="#B8D8FF"/>
<path opacity="0.5" d="M353.832 165.056L368.177 203.775C368.177 203.775 380.81 174.731 353.832 165.056Z" fill="white"/>
<path d="M358.593 221.715L359.791 227.611L378.834 218.312L374.058 213.654L358.593 221.715Z" fill="#403A89"/>
<path d="M359.791 227.611L365.314 252.938C368.037 265.468 381.961 271.835 393.116 265.656C404.598 259.289 406.419 243.419 396.71 234.574L378.85 218.312L359.807 227.611H359.791Z" fill="#7E5AB6"/>
<path opacity="0.5" d="M379.892 228.709C379.892 228.709 395.015 241.992 383.004 258.332C383.004 258.332 408.114 244.062 379.892 228.709Z" fill="white"/>
<path d="M444.411 150.942C443.587 150.942 442.778 150.628 442.155 150.001L432.572 140.341C431.327 139.086 431.327 137.048 432.572 135.793C433.816 134.538 435.839 134.538 437.084 135.793L444.411 143.179L458.118 129.363C459.363 128.109 461.385 128.109 462.63 129.363C463.875 130.618 463.875 132.657 462.63 133.911L446.667 150.001C446.045 150.628 445.22 150.942 444.411 150.942Z" fill="#E9A326"/>
<path d="M444.411 191.009C443.587 191.009 442.778 190.696 442.155 190.068L432.572 180.408C431.327 179.154 431.327 177.115 432.572 175.861C433.816 174.606 435.839 174.606 437.084 175.861L444.411 183.247L458.118 169.431C459.363 168.176 461.385 168.176 462.63 169.431C463.875 170.685 463.875 172.724 462.63 173.979L446.667 190.068C446.045 190.696 445.22 191.009 444.411 191.009Z" fill="#E9A326"/>
<path d="M444.411 231.077C443.587 231.077 442.778 230.763 442.155 230.136L432.572 220.476C431.327 219.221 431.327 217.183 432.572 215.928C433.816 214.674 435.839 214.674 437.084 215.928L444.411 223.314L458.118 209.498C459.363 208.244 461.385 208.244 462.63 209.498C463.875 210.753 463.875 212.792 462.63 214.046L446.667 230.136C446.045 230.763 445.22 231.077 444.411 231.077Z" fill="#E9A326"/>
<path d="M444.411 271.145C443.587 271.145 442.778 270.831 442.155 270.204L432.572 260.543C431.327 259.289 431.327 257.25 432.572 255.996C433.816 254.741 435.839 254.741 437.084 255.996L444.411 263.382L458.118 249.566C459.363 248.311 461.385 248.311 462.63 249.566C463.875 250.821 463.875 252.859 462.63 254.114L446.667 270.204C446.045 270.831 445.22 271.145 444.411 271.145Z" fill="#E9A326"/>
<path d="M444.411 311.212C443.587 311.212 442.778 310.898 442.155 310.271L432.572 300.611C431.327 299.356 431.327 297.318 432.572 296.063C433.816 294.809 435.839 294.809 437.084 296.063L444.411 303.449L458.118 289.634C459.363 288.379 461.385 288.379 462.63 289.634C463.875 290.888 463.875 292.927 462.63 294.181L446.667 310.271C446.045 310.898 445.22 311.212 444.411 311.212Z" fill="#E9A326"/>
<g style="mix-blend-mode:multiply">
<path d="M368.053 771.981C510.516 771.981 626.005 745.084 626.005 711.904C626.005 678.723 510.516 651.826 368.053 651.826C225.589 651.826 110.1 678.723 110.1 711.904C110.1 745.084 225.589 771.981 368.053 771.981Z" fill="#EDEDEF"/>
</g>
<path d="M383.657 536.453C380.328 542.883 374.836 548.387 367.99 550.645C359.604 553.405 350.487 551.037 341.993 548.654C328.177 544.765 313.708 540.421 303.673 530.086C300.577 526.903 297.886 522.104 300.017 518.183C303.471 519.626 306.909 521.069 310.363 522.512C324.972 528.628 340.204 534.853 355.995 534.038C358.671 533.897 361.611 533.411 363.354 531.372C364.287 530.274 364.77 528.847 365.174 527.452C366.699 522.182 367.508 516.709 367.586 511.221C367.601 510.06 386.349 511.817 388.122 514.937C391.063 520.097 386.006 531.952 383.657 536.469V536.453Z" fill="#F2D7D1"/>
<path d="M371.88 469.287C362.452 480.092 356.991 493.908 353.864 507.943C366.948 513.792 381.277 516.803 395.59 516.678C403.432 502.094 408.55 486.02 410.604 469.553C411.148 465.178 412.315 457.384 409.53 453.495C407.01 449.967 401.565 451.833 397.815 452.789C387.765 455.361 378.694 461.462 371.864 469.271L371.88 469.287Z" fill="#BA664D"/>
<path d="M433.474 446.172H459.83C474.019 446.172 485.532 457.776 485.532 472.078V580.394H407.788V472.078C407.788 457.776 419.301 446.172 433.49 446.172H433.474Z" fill="#7A67B7"/>
<path d="M485.532 580.378L450.386 615.804H369.204L407.788 580.378H485.532Z" fill="#7A67B7"/>
<path d="M450.37 615.804H369.204V626.64H450.37V615.804Z" fill="#897BC6"/>
<path d="M450.355 626.64H439.013V694.904H450.355V626.64Z" fill="#7A67B7"/>
<path d="M380.546 626.64H369.204V694.904H380.546V626.64Z" stroke="#E18969" stroke-width="0.8" stroke-miterlimit="10"/>
<path d="M485.532 658.569H474.19V602.02L485.532 590.305V658.569Z" fill="#7A67B7"/>
<path d="M485.532 580.378V590.305L450.355 626.64L450.386 615.804L485.532 580.378Z" fill="#897BC6"/>
<path d="M423.766 445.795C416.64 445.638 408.535 446.658 404.287 452.429C402.343 455.063 401.518 458.341 400.771 461.54C397.084 477.473 394.75 493.672 392.837 509.903C391.405 522.088 390.021 534.258 388.387 546.427C387.982 549.469 387.594 552.715 388.869 555.507C389.958 557.906 392.183 559.647 394.595 560.713C414.758 569.558 442.265 563.912 461.977 556.291C475.326 551.131 475.792 542.193 475.917 529.145C476.15 504.65 469.009 478.759 456.407 457.839C448.923 445.419 436.944 446.093 423.782 445.827L423.766 445.795Z" fill="#BA664D"/>
<path d="M388.154 556.228C381.977 564.179 376.065 572.459 370.449 581.006C368.302 584.267 366.17 587.655 364.988 591.575C363.712 595.825 363.619 600.451 363.541 604.983C363.043 637.398 363.914 700.581 364.039 700.424H387.702C388.729 671.82 393.832 643.451 398.453 615.396C399.807 607.21 401.378 598.82 405.299 591.983C409.437 584.754 415.878 579.845 419.939 572.553C420.328 571.847 420.717 571.048 420.686 570.201C420.654 569.401 420.266 568.711 419.877 568.068C412.642 556.385 396.384 545.611 388.138 556.244L388.154 556.228Z" fill="#4F7DDB"/>
<path d="M364.085 701.02C358.515 703.341 353.63 708.077 350.519 714.193C350.736 714.648 350.923 714.93 351.312 714.679H386.178C386.582 709.849 387.485 705.003 387.889 700.173C380.188 700.361 371.382 697.993 364.101 701.02H364.085Z" fill="#7E5AB6"/>
<path d="M415.396 568.836C411.366 574.059 407.259 579.187 403.058 584.205C400.382 587.404 397.629 590.603 395.668 594.524C391.234 603.415 391.514 614.55 391.934 624.978C393.008 651.465 394.081 677.936 395.17 704.423C404.132 705.286 410.915 707.215 419.908 707.136C420.763 686.075 426.24 663.509 427.096 642.464C427.313 636.943 427.547 631.345 428.916 626.06C431.358 616.541 437.379 608.794 444.458 603.87C452.58 598.225 462.988 594.963 467.002 584.613C468.791 580.002 468.931 574.733 468.947 569.636C468.978 564.053 468.9 558.455 468.713 552.872C449.639 551.414 428.527 551.821 415.396 568.852V568.836Z" fill="#5985FF"/>
<path d="M396.913 701.02C391.343 703.341 386.458 708.077 383.346 714.193C383.564 714.648 383.751 714.93 384.14 714.679H419.005C419.41 709.849 420.312 705.003 420.717 700.173C413.015 700.362 404.21 697.994 396.928 701.02H396.913Z" fill="#7E5AB6"/>
<path d="M204.537 580.378H455.022L499.674 535.387H274.922L204.537 580.378Z" fill="#7A67B7"/>
<path d="M204.537 580.378V590.305H455.473L455.022 580.378H204.537Z" fill="#694DA0"/>
<path d="M499.674 535.387V545.282L455.473 590.305L454.509 580.378L499.674 535.387Z" fill="#694DA0"/>
<path d="M214.619 590.305H204.537V714.773H214.619V590.305Z" fill="#694DA0"/>
<path d="M455.396 589.584H445.314V714.052H455.396V589.584Z" fill="#694DA0"/>
<path d="M287.617 590.305H277.536V667.304H287.617V590.305Z" fill="#694DA0"/>
<path d="M499.674 667.288H489.608V555.538L499.674 545.282V667.288Z" fill="#694DA0"/>
<path d="M371.211 487.18H277.536V557.89H371.211V487.18Z" fill="white"/>
<path d="M371.195 557.875L404.536 535.387H371.195V557.875Z" fill="#EDEDEF"/>
<path d="M326.729 537.281C334.813 535.963 340.306 528.289 338.998 520.141C337.69 511.993 330.077 506.457 321.993 507.775C313.91 509.093 308.417 516.767 309.725 524.915C311.032 533.063 318.646 538.6 326.729 537.281Z" fill="#EDEDEF"/>
<path d="M481.642 530.494C480.444 537.645 476.928 544.592 471.109 548.873C463.984 554.111 454.587 554.722 445.765 555.099C431.436 555.71 416.345 556.103 403.618 549.406C399.698 547.336 395.668 543.62 396.477 539.244C400.195 539.542 403.914 539.84 407.648 540.123C423.424 541.377 439.806 542.538 454.587 536.814C457.091 535.841 459.736 534.477 460.763 531.968C461.323 530.635 461.339 529.129 461.292 527.671C461.121 522.182 460.203 516.725 458.585 511.487C458.243 510.374 476.601 506.202 479.262 508.602C483.649 512.585 482.482 525.444 481.642 530.478V530.494Z" fill="#F2D7D1"/>
<path d="M478.919 466.574C488.348 477.379 493.809 491.195 496.936 505.23C483.851 511.079 469.522 514.09 455.209 513.965C447.368 499.381 442.249 483.307 440.195 466.84C439.651 462.465 438.484 454.671 441.269 450.782C443.789 447.254 449.235 449.12 452.984 450.076C463.035 452.648 472.105 458.749 478.935 466.558L478.919 466.574Z" fill="#BA664D"/>
<path d="M377.325 370.224C375.116 373.721 373.451 377.641 372.471 381.718C368.052 400.114 375.334 421.394 392.868 429.894C404.272 435.414 418.336 434.018 427.935 425.503C451.786 404.332 429.445 347.689 396.166 355.639C388.356 357.505 381.557 363.574 377.325 370.239V370.224Z" fill="#F2D7D1"/>
<path d="M405.221 355.435C394.501 348.52 378.881 350.825 370.573 360.548C369.375 361.943 368.301 363.48 366.87 364.625C363.463 367.322 358.687 367.275 354.719 369.016C347.796 372.043 344.218 381.138 347.22 388.132C350.223 395.111 359.247 398.734 366.17 395.723C365.345 397.401 365.703 400.929 366.606 402.576C367.508 404.222 369.002 405.461 370.62 406.371C374.291 408.441 378.772 408.958 382.817 407.766C385.244 407.045 387.842 405.132 387.547 402.591C390.643 407.045 396.602 407.594 401.378 405.053C406.154 402.497 409.25 397.62 411.475 392.665C414.276 386.423 416.065 379.539 415.365 372.717C414.664 365.895 410.977 359.136 405.252 355.451L405.221 355.435Z" fill="#875329"/>
<path d="M400.444 352.738C404.878 357.004 411.74 357.6 417.745 356.392C423.75 355.185 429.367 352.456 435.294 350.919C440.522 349.555 445.952 349.131 451.366 349.069C460.172 348.974 469.18 349.868 477.161 353.616C485.143 357.364 491.988 364.343 493.886 372.999C495.8 381.656 491.755 391.771 483.649 395.268C487.539 396.177 490.199 400.898 490.806 404.865C491.412 408.833 489.421 413.083 485.983 415.137C488.628 420.281 490.837 426.052 489.514 431.681C487.865 438.707 480.46 442.957 473.35 443.835C465.259 444.839 456.811 442.471 450.401 437.39C443.991 432.309 439.729 424.577 438.795 416.423C432.012 415.858 425.991 411.31 422.163 405.634C418.336 399.957 416.314 393.26 414.524 386.643C404.443 382.706 397.084 372.529 396.43 361.661C396.244 358.54 397.348 353.256 400.413 352.754L400.444 352.738Z" fill="#875329"/>
<path d="M431.645 411.358C439.244 410.112 444.402 402.893 443.166 395.233C441.929 387.574 434.767 382.374 427.168 383.621C419.569 384.867 414.411 392.086 415.647 399.745C416.884 407.405 424.046 412.604 431.645 411.358Z" fill="#5985FF"/>
<path d="M432.012 384.682C431.312 377.092 426.769 370.475 422.101 364.5C419.783 361.536 417.341 358.572 414.276 356.408C411.195 354.244 407.352 352.942 403.665 353.632C415.551 362.931 423.502 375.979 426.955 390.736C428.558 391.143 430.316 390.877 431.732 389.999C431.747 387.803 432.214 386.862 432.027 384.667L432.012 384.682Z" fill="#5985FF"/>
<path d="M408.379 433.438C409.764 438.707 409.033 444.509 406.372 449.277C405.159 451.456 405.221 455.534 406.683 457.557C407.897 459.219 409.499 460.599 411.304 461.571C412.875 462.418 414.587 462.951 416.345 463.249C422.07 464.206 428.2 462.387 432.494 458.466C436.788 454.53 439.184 448.571 438.795 442.722C438.204 433.971 436.041 425.942 434.999 417.238C429.258 417.521 422.739 417.473 417.449 419.716C412.16 421.959 406.917 427.855 408.395 433.453L408.379 433.438Z" fill="#F2D7D1"/>
<g style="mix-blend-mode:multiply">
<path d="M408.379 433.438C408.379 433.438 420.857 433.751 427.92 425.487C427.92 425.487 421.868 443.819 407.772 446.172C407.772 446.172 410.65 439.225 408.363 433.438H408.379Z" fill="#E4E9F2"/>
</g>
<path d="M408.659 138.098H307.283L316.944 129.583C317.598 129.018 317.66 128.015 317.084 127.372C316.524 126.713 315.528 126.65 314.891 127.231L300.857 139.619L314.844 153.31C315.14 153.608 315.544 153.749 315.933 153.749C316.322 153.749 316.742 153.592 317.053 153.278C317.644 152.651 317.644 151.663 317.022 151.067L307.003 141.25H408.675C409.53 141.25 410.23 140.545 410.23 139.682C410.23 138.82 409.53 138.114 408.675 138.114L408.659 138.098Z" fill="#E18969"/>
<path d="M305.462 286.482H406.839L397.177 277.966C396.524 277.402 396.461 276.398 397.037 275.755C397.597 275.096 398.593 275.034 399.231 275.614L413.264 288.003L399.277 301.693C398.982 301.991 398.577 302.132 398.188 302.132C397.799 302.132 397.379 301.975 397.068 301.662C396.477 301.034 396.477 300.046 397.099 299.451L407.119 289.634H305.447C304.591 289.634 303.891 288.928 303.891 288.065C303.891 287.203 304.591 286.497 305.447 286.497L305.462 286.482Z" fill="#E18969"/>
</g>
<defs>
<clipPath id="clip0_102_29">
<rect width="746" height="752" fill="white"/>
</clipPath>
</defs>
</svg>
