<svg width="778" height="745" viewBox="0 0 778 745" fill="none" xmlns="http://www.w3.org/2000/svg">
<g clip-path="url(#clip0_5_484)">
<path d="M130.474 87.0085C133.248 63.7446 128.625 32.6028 117.991 19.0475H137.853C148.487 32.6028 153.111 63.7446 150.337 87.0085H130.474Z" fill="#FE8205"/>
<path d="M206.077 87.0085C208.851 63.7446 204.228 32.6028 193.594 19.0475H213.456C224.09 32.6028 228.714 63.7446 225.94 87.0085H206.077Z" fill="#FE8205"/>
<path d="M281.662 87.0085C284.436 63.7446 279.812 32.6028 269.178 19.0475H289.041C299.675 32.6028 304.298 63.7446 301.524 87.0085H281.662Z" fill="#FE8205"/>
<path d="M357.264 87.0085C360.039 63.7446 355.415 32.6028 344.781 19.0475H364.644C375.278 32.6028 379.901 63.7446 377.127 87.0085H357.264Z" fill="#FE8205"/>
<path d="M432.849 87.0085C435.623 63.7446 431 32.6028 420.366 19.0475H440.228C450.862 32.6028 455.485 63.7446 452.711 87.0085H432.849Z" fill="#FE8205"/>
<path d="M163.43 744.001H553.189L474.46 55.3304H84.7019L163.43 744.001Z" fill="#D0DEF5"/>
<path d="M389.758 744.001H0L78.7284 55.3304H468.487L389.758 744.001Z" fill="white"/>
<path d="M150.466 233.823H90.1391L97.0373 173.499H157.364L150.466 233.823ZM98.3874 226.426H143.919L149.116 180.896H103.584L98.3874 226.426Z" fill="#BFC6DE"/>
<path d="M417.998 186.222H184.976L185.826 178.825H418.849L417.998 186.222Z" fill="#212A45"/>
<path d="M415.576 207.359H182.553L183.404 199.962H416.426L415.576 207.359Z" fill="#212A45"/>
<path d="M333.019 228.515H180.149L180.981 221.118H333.87L333.019 228.515Z" fill="#212A45"/>
<path d="M139.259 331.816H78.9318L85.83 271.492H146.157L139.259 331.816ZM87.1801 324.419H132.712L137.909 278.89H92.3769L87.1801 324.419Z" fill="#BFC6DE"/>
<path d="M406.791 284.215H173.768L174.619 276.818H407.642L406.791 284.215Z" fill="#212A45"/>
<path d="M404.368 305.371H171.346L172.196 297.974H405.219L404.368 305.371Z" fill="#212A45"/>
<path d="M321.812 326.508H168.941L169.774 319.111H322.662L321.812 326.508Z" fill="#212A45"/>
<path d="M128.07 429.828H67.743L74.6413 369.504H134.968L128.07 429.828ZM75.9913 422.431H121.523L126.72 376.901H81.1881L75.9913 422.431Z" fill="#BFC6DE"/>
<path d="M395.584 382.209H162.58L163.412 374.812H396.435L395.584 382.209Z" fill="#212A45"/>
<path d="M393.18 403.364H160.157L160.989 395.967H394.012L393.18 403.364Z" fill="#212A45"/>
<path d="M310.623 424.52H157.734L158.585 417.123H311.455L310.623 424.52Z" fill="#212A45"/>
<path d="M116.863 527.821H56.5358L63.434 467.497H123.761L116.863 527.821ZM64.784 520.424H110.316L115.513 474.894H69.9808L64.784 520.424Z" fill="#BFC6DE"/>
<path d="M384.395 480.22H151.372L152.205 472.823H385.227L384.395 480.22Z" fill="#212A45"/>
<path d="M381.972 501.358H148.95L149.8 493.961H382.805L381.972 501.358Z" fill="#212A45"/>
<path d="M299.416 522.513H146.527L147.378 515.116H300.266L299.416 522.513Z" fill="#212A45"/>
<path d="M105.655 625.833H45.3285L52.2267 565.509H112.554L105.655 625.833ZM53.5768 618.436H99.1087L104.305 572.906H58.7735L53.5768 618.436Z" fill="#BFC6DE"/>
<path d="M373.188 578.214H140.165L141.016 570.817H374.02L373.188 578.214Z" fill="#212A45"/>
<path d="M370.765 599.369H137.742L138.593 591.972H371.616L370.765 599.369Z" fill="#212A45"/>
<path d="M288.208 620.507H135.338L136.17 613.11H289.059L288.208 620.507Z" fill="#212A45"/>
<path d="M120.691 217.882L106.969 202.385L112.794 197.151L121.893 207.415L158.307 174.757L162.931 179.972L120.691 217.882Z" fill="#72CC45"/>
<path d="M109.558 315.246L95.8352 299.749L101.661 294.516L110.76 304.779L147.174 272.121L151.798 277.355L109.558 315.246Z" fill="#72CC45"/>
<path d="M98.4428 412.629L84.7019 397.132L90.546 391.899L99.6265 402.162L136.041 369.486L140.664 374.719L98.4428 412.629Z" fill="#72CC45"/>
<path d="M87.3095 509.994L73.5871 494.497L79.4127 489.263L88.4932 499.527L124.908 466.869L129.531 472.102L87.3095 509.994Z" fill="#72CC45"/>
<path d="M76.1762 607.358L62.4538 591.861L68.2794 586.646L77.3783 596.91L113.774 564.233L118.416 569.467L76.1762 607.358Z" fill="#72CC45"/>
<path d="M120.709 72.2513H110.26C106.062 72.2513 102.659 75.6541 102.659 79.8518V90.3187C102.659 94.5164 106.062 97.9192 110.26 97.9192H120.709C124.907 97.9192 128.31 94.5164 128.31 90.3187V79.8518C128.31 75.6541 124.907 72.2513 120.709 72.2513Z" fill="#B6C2D6"/>
<path d="M125.425 87.0085C122.651 63.7446 127.275 32.6028 137.909 19.0475H118.046C107.412 32.6028 102.789 63.7446 105.563 87.0085H125.425Z" fill="#FED905"/>
<path d="M196.294 72.2513H185.845C181.647 72.2513 178.244 75.6541 178.244 79.8518V90.3187C178.244 94.5164 181.647 97.9192 185.845 97.9192H196.294C200.492 97.9192 203.895 94.5164 203.895 90.3187V79.8518C203.895 75.6541 200.492 72.2513 196.294 72.2513Z" fill="#B6C2D6"/>
<path d="M201.01 87.0085C198.236 63.7446 202.859 32.6028 213.493 19.0475H193.631C182.997 32.6028 178.373 63.7446 181.147 87.0085H201.01Z" fill="#FED905"/>
<path d="M271.897 72.2513H261.448C257.25 72.2513 253.847 75.6541 253.847 79.8518V90.3187C253.847 94.5164 257.25 97.9192 261.448 97.9192H271.897C276.095 97.9192 279.498 94.5164 279.498 90.3187V79.8518C279.498 75.6541 276.095 72.2513 271.897 72.2513Z" fill="#B6C2D6"/>
<path d="M276.613 87.0085C273.839 63.7446 278.462 32.6028 289.096 19.0475H269.234C258.6 32.6028 253.976 63.7446 256.75 87.0085H276.613Z" fill="#FED905"/>
<path d="M347.481 72.2513H337.032C332.834 72.2513 329.431 75.6541 329.431 79.8518V90.3187C329.431 94.5164 332.834 97.9192 337.032 97.9192H347.481C351.679 97.9192 355.082 94.5164 355.082 90.3187V79.8518C355.082 75.6541 351.679 72.2513 347.481 72.2513Z" fill="#B6C2D6"/>
<path d="M352.197 87.0085C349.423 63.7446 354.047 32.6028 364.681 19.0475H344.818C334.184 32.6028 329.561 63.7446 332.335 87.0085H352.197Z" fill="#FED905"/>
<path d="M423.084 72.2513H412.635C408.437 72.2513 405.034 75.6541 405.034 79.8518V90.3187C405.034 94.5164 408.437 97.9192 412.635 97.9192H423.084C427.282 97.9192 430.685 94.5164 430.685 90.3187V79.8518C430.685 75.6541 427.282 72.2513 423.084 72.2513Z" fill="#B6C2D6"/>
<path d="M427.8 87.0085C425.026 63.7446 429.649 32.6028 440.283 19.0475H420.421C409.787 32.6028 405.164 63.7446 407.938 87.0085H427.8Z" fill="#FED905"/>
<g style="mix-blend-mode:multiply">
<path d="M777.704 228.663C776.299 224.169 766.072 210.022 763.408 206.509C760.745 202.995 749.039 183.707 744.027 174.831C739.015 165.954 725.681 142.376 724.368 140.305C723.221 138.474 720.743 135.626 718.172 135.016C718.191 134.96 718.246 134.905 718.228 134.831C718.228 134.59 717.987 134.424 717.766 134.443C717.71 134.443 717.655 134.479 717.599 134.479C716.6 133.61 715.213 132.723 713.789 132.223C711.515 131.41 683.071 121.498 675.969 118.113C675.563 117.91 675.137 117.707 674.749 117.503C674.416 117.337 674.102 117.152 673.769 116.967C667.758 113.583 663.135 109.015 660.231 108.627C659.547 107.388 658.363 103.504 657.753 102.635C657.143 101.766 653.222 99.9535 653.203 99.935C653.203 99.4357 653.185 98.9364 653.166 98.4556C658.641 84.9743 667.296 68.4788 669.644 56.9208C670.791 58.2523 673.325 60.0091 673.325 60.0091C674.323 50.3374 673.121 31.2158 667.111 20.1571C661.1 9.11695 648.783 2.55202 627.09 3.47666C605.378 4.4013 587.865 17.4387 587.18 19.2695C586.792 20.3421 586.736 22.2468 586.755 23.6523C584.166 27.5358 574.919 43.2916 581.78 62.6905C581.78 62.6905 583.389 58.6406 583.999 56.1811C584.184 58.2153 585.368 60.1755 586.644 61.7289C586.57 61.7659 586.441 61.8214 586.385 61.8584C585.941 62.0618 585.701 62.1912 585.701 62.1912L585.608 62.2467L585.534 62.3207C585.534 62.3207 585.479 62.3577 585.386 62.4316C585.275 62.5426 585.201 62.5241 584.906 62.9309C584.85 63.0049 584.776 63.1159 584.721 63.2083C584.721 63.2083 583.112 64.2994 582.834 64.5953C582.557 64.8912 582.353 65.3165 582.427 65.6864C582.501 66.0562 582.649 66.8144 582.723 67.1288C582.779 67.3507 583.5 67.5171 583.925 67.5911C583.925 67.9425 583.944 68.2754 583.999 68.6637C584.184 69.8102 584.369 71.0863 584.647 72.5287C584.813 73.2499 584.924 73.9896 585.22 74.7663L585.423 75.3581C585.479 75.506 585.423 75.469 585.59 75.7464L585.756 75.9868C585.941 76.3012 586.256 76.6526 586.607 76.9855C587.976 78.2245 589.566 78.9827 591.434 79.4635C591.545 79.5005 591.656 79.5005 591.767 79.519C592.729 84.8819 593.413 88.5989 595.484 92.5009C598.665 98.4925 606.987 106.167 609.188 108.793C609.632 109.311 610.002 109.755 610.353 110.143L609.281 118.15L609.558 116.079C609.558 116.079 606.395 118.076 605.915 118.872C605.434 119.667 604.546 123.68 603.88 124.993C601.753 125.307 598.388 129.228 595.965 131.78C595.761 131.983 595.577 132.186 595.392 132.371C595.392 132.371 595.373 132.39 595.355 132.408C595.17 132.593 594.985 132.778 594.8 132.945C594.707 133.037 594.596 133.13 594.504 133.222C592.155 135.293 573.384 149.496 570.554 152.029C569.204 153.231 568.742 154.415 568.631 155.617C568.631 155.617 566.153 158.446 566.597 161.516C567.04 164.586 567.022 225.63 567.151 228.867C567.281 232.084 566.005 233.009 565.302 234.544C564.599 236.079 563.971 239.149 563.971 239.149C563.971 239.149 560.845 241.238 560.42 241.719C559.976 242.2 559.957 244.678 559.957 244.678C559.957 244.678 548.935 257.734 548.121 258.936C547.308 260.138 547.4 261.525 548.565 262.468C539.633 273.619 510.246 310.29 508.581 311.862C506.64 313.711 504.716 314.932 502.201 315.857C501.887 315.968 501.498 316.079 501.054 316.208C500.943 316.245 500.814 316.263 500.685 316.3C500.592 316.319 500.5 316.337 500.407 316.374C500.259 316.411 500.13 316.43 499.982 316.467C499.889 316.485 499.797 316.504 499.704 316.522C499.556 316.559 499.408 316.578 499.26 316.615C499.149 316.633 499.057 316.652 498.946 316.67C498.798 316.707 498.632 316.726 498.465 316.763C498.373 316.763 498.262 316.8 498.169 316.818C498.003 316.855 497.855 316.874 497.688 316.911C497.596 316.911 497.485 316.948 497.393 316.966C497.226 317.003 497.06 317.022 496.893 317.059C496.819 317.059 496.745 317.077 496.671 317.096C496.486 317.133 496.301 317.151 496.135 317.188C496.135 317.188 496.135 317.188 496.098 317.188C495.691 317.262 495.284 317.318 494.896 317.373C494.84 317.373 494.785 317.373 494.711 317.392C494.563 317.41 494.415 317.429 494.267 317.466C494.193 317.466 494.119 317.484 494.064 317.503C493.934 317.503 493.823 317.539 493.694 317.558C493.601 317.558 493.527 317.576 493.435 317.595C493.324 317.595 493.231 317.632 493.139 317.632C493.084 317.632 493.028 317.632 492.973 317.65C492.862 317.65 492.751 317.687 492.677 317.687C492.677 317.687 492.64 317.687 492.621 317.687C492.288 317.724 492.103 317.761 492.103 317.761L473.665 230.993C472.999 227.887 469.911 226.037 466.748 226.869L465.158 227.295L454.746 178.307C454.191 175.681 451.879 173.98 449.272 174.017C448.809 171.872 448.18 168.876 447.829 167.193C447.237 164.382 442.54 159.685 439.932 158.132C437.343 156.578 424.083 142.006 422.252 133.462C420.44 124.919 419.681 121.405 419.422 120.111C419.145 118.816 418.072 115.543 416.408 115.987C416.242 116.024 416.001 116.098 415.687 116.172L409.343 86.3243C408.899 84.2716 407.309 83.8833 405.792 85.4736L391.941 100.009C390.424 101.599 389.536 104.595 389.98 106.648L393.254 122.071C392.865 122.182 392.532 122.256 392.347 122.311C390.683 122.755 391.034 126.213 391.312 127.508C391.589 128.802 392.329 132.316 394.141 140.859C395.954 149.403 389.962 169.024 388.26 171.705C386.559 174.368 384.247 180.915 384.839 183.726C385.19 185.409 385.838 188.423 386.281 190.55C383.933 191.826 382.564 194.489 383.119 197.115L393.531 246.102L391.941 246.527C388.778 247.359 386.744 250.54 387.391 253.647L484.521 710.899C485.187 714.006 488.275 715.855 491.456 715.023L493.047 714.598L498.613 740.821C499.279 743.927 502.367 745.777 505.53 744.945L508.544 744.149H569.26C569.26 744.149 575.196 739.212 576.065 739.212C576.565 739.212 578.081 740.858 579.265 742.263C579.413 742.873 579.801 743.872 580.763 744.094C580.8 744.131 580.818 744.149 580.818 744.149H646.675C646.675 744.149 652.612 739.212 653.481 739.212C654.35 739.212 658.234 744.149 658.234 744.149H696.978C696.978 744.149 698.606 742.152 698.828 741.117C699.031 740.081 697.459 728.338 697.459 728.338C697.996 723.937 698.606 717.908 698.606 713.266C698.606 709.993 698.199 704.945 697.681 700.026C697.626 699.434 697.552 698.824 697.496 698.232C697.348 696.937 697.219 695.661 697.071 694.441C697.885 693.941 698.291 692.813 698.347 691.704C698.421 690.483 698.92 681.496 698.976 680.423C699.031 679.351 698.569 678.26 698.569 678.26C699.457 676.114 699.845 673.71 699.771 672.989C699.623 671.602 697.256 668.384 697.515 663.78C697.774 659.175 705.504 586.924 700.918 557.243C696.331 527.562 695.166 519.499 695.869 515.135C696.572 510.771 697.034 506.628 696.257 504.095C695.48 501.561 691.893 495.348 692.614 490.521C693.354 485.694 702.12 398.704 702.527 383.059C702.656 378.473 701.99 371.945 701.029 365.029C703.377 362.015 704.912 356.874 704.968 355.912C705.042 354.525 698.772 313.564 697.755 308.977C696.96 305.353 695.628 301.987 695.092 298.03C695.037 297.586 694.963 297.142 694.926 296.661C694.87 296.032 694.833 295.385 694.833 294.701C694.833 294.516 694.833 294.257 694.87 293.943C694.87 293.906 694.87 293.85 694.87 293.813C694.889 293.517 694.926 293.203 694.963 292.815C694.963 292.778 694.963 292.759 694.963 292.722C695.055 291.872 695.203 290.817 695.369 289.597C695.591 287.988 695.887 286.083 696.239 283.957C702.138 280.314 712.828 273.305 716.989 270.771C722.74 268.219 732.598 265.723 740.494 263.134C740.439 263.152 740.384 263.171 740.384 263.171C740.384 263.171 745.95 267.48 747.485 267.812C749.002 268.145 754.032 265.076 756.714 264.077C759.414 263.097 765.72 260.674 766.016 259.25C766.072 258.991 765.979 257.66 765.757 255.681C768.753 256.069 772.341 256.143 772.507 255.422C772.785 254.22 772.785 248.524 774.042 245.769C775.3 243.032 779.147 233.268 777.741 228.774L777.704 228.663ZM648.746 689.485C648.321 688.874 647.452 688.764 646.823 689.226C646.194 689.688 646.028 690.557 646.453 691.168L646.749 691.593C645.528 692.425 643.809 693.683 641.83 695.162L641.571 694.792C641.145 694.182 640.276 694.071 639.647 694.533C639.019 694.996 638.852 695.865 639.278 696.475L639.573 696.882C638.001 698.065 636.355 699.323 634.728 700.543L634.414 700.081C633.988 699.471 633.119 699.36 632.49 699.822C631.843 700.284 631.695 701.154 632.12 701.764L632.453 702.245C630.659 703.576 628.958 704.815 627.534 705.795L627.238 705.37C626.813 704.76 625.943 704.649 625.315 705.111C624.686 705.573 624.519 706.443 624.945 707.053L625.167 707.386C623.613 708.403 622.263 709.383 621.08 710.289C621.08 709.845 621.043 709.401 621.006 708.921C621.006 708.884 621.006 708.847 621.006 708.791C620.913 707.201 620.765 705.481 620.617 703.687C620.617 703.687 620.617 703.687 620.617 703.669C620.358 700.71 620.025 697.603 619.711 694.811C620.599 694.385 621.098 693.257 621.228 692.129C621.375 690.909 622.504 681.958 622.633 680.886C622.763 679.813 622.393 678.685 622.393 678.685C622.393 678.685 622.337 678.685 622.245 678.685C623.373 676.558 624.02 674.025 624.002 673.285C623.965 671.898 621.893 668.458 622.541 663.872C623.188 659.286 636.984 587.59 634.95 557.502C632.916 527.396 632.435 519.24 633.507 514.913C634.58 510.604 635.394 506.48 634.821 503.891C634.562 502.652 633.729 500.507 633.064 498.103C632.99 497.881 632.934 497.641 632.879 497.4C632.768 496.938 632.657 496.476 632.546 496.013C632.509 495.865 632.49 495.717 632.453 495.569C632.361 495.033 632.268 494.478 632.213 493.942C632.213 493.85 632.213 493.776 632.194 493.683C632.139 493.091 632.12 492.5 632.139 491.926C632.139 491.889 632.139 491.852 632.139 491.797C632.157 491.187 632.231 490.595 632.361 490.022C632.398 489.911 632.435 489.744 632.472 489.541C632.472 489.504 632.472 489.485 632.472 489.448C632.509 489.245 632.564 488.986 632.62 488.69C632.62 488.653 632.62 488.616 632.638 488.579C632.768 487.95 632.916 487.174 633.101 486.231C633.101 486.157 633.119 486.101 633.138 486.027C633.23 485.546 633.341 485.029 633.434 484.474C633.47 484.307 633.507 484.122 633.544 483.938C636.208 501.543 638.63 516.448 640.091 523.087C644.696 544.021 650.466 585.666 651.41 622.948C652.334 660.229 652.445 666.443 651.853 668.736C651.262 671.029 648.062 674.487 649.283 677.483C649.542 678.093 649.819 678.629 650.133 679.11C650.133 679.11 649.542 680.257 649.468 681.403C649.412 682.55 649.061 688.69 649.024 689.3C649.024 689.411 649.042 689.559 649.098 689.762C649.061 689.799 649.024 689.836 649.005 689.855L648.746 689.503V689.485ZM653.425 106.093C653.333 104.04 653.259 102.043 653.203 100.138L653.425 106.093ZM586.404 64.4104C586.404 64.4104 586.441 64.3919 586.422 64.3549C586.33 64.3364 586.607 64.1515 586.662 64.096C586.662 64.096 586.663 64.096 586.681 64.096C586.755 64.0775 586.903 64.0035 587.236 63.8741C587.458 63.8001 587.717 63.6891 588.013 63.5597C588.124 64.0035 588.253 64.4473 588.382 64.8912L586.219 64.8357C586.219 64.8357 586.237 64.7432 586.256 64.7247C586.293 64.6138 586.348 64.5213 586.385 64.4289L586.404 64.4104ZM587.772 75.8944L587.439 75.5615C587.328 75.4321 587.236 75.2286 587.125 75.0807L586.977 74.8403C587.051 74.9512 586.958 74.7293 586.94 74.6739L586.792 74.1745C586.57 73.5273 586.478 72.7876 586.367 72.1218C586.163 70.7534 586.034 69.4404 585.923 68.3123C585.923 68.1644 585.923 68.0349 585.923 67.887L589.492 68.4048L589.381 67.998C589.492 68.3678 589.603 68.7192 589.732 69.089C590.509 72.5287 591.046 75.4505 591.489 77.9841C590.047 77.5402 588.678 76.7635 587.791 75.8759L587.772 75.8944ZM507.638 343.448C511.411 340.618 513.76 338.695 515.387 335.699C517.015 332.704 517.902 329.264 519.4 327.341C520.676 325.713 557.997 296.31 569.001 287.655C569.001 287.655 570.369 288.081 571.553 287.655C572.071 287.47 574.734 284.918 577.545 282.126C578.063 290.059 578.377 295.219 578.322 295.958C578.1 299.879 572.866 310.919 571.997 314.137C571.664 315.339 570.832 320.332 569.852 326.582H569.741C569.741 326.582 569.741 326.915 569.704 327.47C568.076 337.771 566.097 351.011 565.247 356.467C563.823 365.436 566.967 367.082 567.651 367.082H568.871C568.816 373.203 568.834 378.455 568.964 381.377C569.5 392.324 574.752 496.938 577.545 518.297C580.338 539.638 582.538 581.82 580.282 619.231C578.044 656.623 577.619 662.855 576.842 665.111C576.066 667.367 572.589 670.548 573.55 673.655C573.902 674.764 574.327 675.671 574.919 676.392C574.678 676.355 574.42 676.336 574.179 676.299C574.179 676.299 573.513 677.391 573.365 678.537C573.217 679.684 572.459 685.805 572.385 686.415C572.348 686.711 572.478 687.395 573.069 688.19C572.589 688.764 572.089 689.318 571.571 689.818L571.313 689.466C571.183 689.281 571.017 689.17 570.832 689.078C570.832 688.763 570.795 688.468 570.739 688.172L499.002 350.438C499.501 349.939 500.019 349.421 500.537 348.866C502.09 347.257 503.847 346.259 507.62 343.411L507.638 343.448ZM707.076 248.95C705.8 249.375 704.117 249.468 702.249 249.394C703.821 240.813 705.023 234.433 705.06 234.156C705.597 231.382 706.151 228.608 706.669 225.852C706.706 225.612 706.762 225.39 706.799 225.15C707.316 222.394 707.834 219.639 708.334 216.939C708.556 215.737 708.777 214.535 708.999 213.314C708.999 213.296 708.999 213.277 708.999 213.259C711.718 216.051 718.357 222.616 723.351 225.519C721.205 226.463 721.039 230.309 722.167 232.343C717.766 238.353 710.886 247.692 707.058 248.95H707.076ZM745.136 261.358C745.136 261.358 745.321 261.284 745.395 261.247C745.395 261.247 745.284 261.303 745.136 261.358Z" fill="#DFE5F0"/>
</g>
<path d="M378.717 121.313C380.789 120.758 382.028 118.613 381.473 116.541L372.577 83.199C372.023 81.1278 370.414 80.7395 368.971 82.3299L355.914 96.9207C354.49 98.511 353.769 101.525 354.324 103.597L359.354 122.422C359.909 124.493 362.054 125.732 364.126 125.178L378.717 121.276V121.313Z" fill="#75BD51"/>
<path d="M407.161 155.358C404.479 153.804 390.406 139.158 388.112 130.578C385.819 121.997 384.876 118.465 384.525 117.17C384.173 115.876 382.916 112.584 381.27 113.028C379.624 113.472 369.415 116.19 369.415 116.19C369.415 116.19 359.206 118.909 357.56 119.352C355.915 119.796 356.469 123.273 356.821 124.567C357.172 125.862 358.115 129.394 360.409 137.975C362.702 146.555 357.801 166.269 356.247 168.95C354.694 171.631 352.752 178.196 353.51 181.026C354.269 183.855 356.007 190.365 356.007 190.365L387.04 182.08L418.072 173.795C418.072 173.795 416.334 167.286 415.576 164.456C414.817 161.627 409.861 156.911 407.18 155.358H407.161Z" fill="#C6D5F2"/>
<path d="M437.435 229.292C438.268 232.417 436.418 235.616 433.293 236.449L374.001 252.278C370.876 253.111 367.677 251.261 366.844 248.136L352.53 194.489C351.698 191.363 353.547 188.164 356.673 187.332L415.964 171.502C419.09 170.67 422.289 172.519 423.121 175.644L437.435 229.292Z" fill="#D0DEF5"/>
<path d="M568.908 721.81C569.741 724.935 567.891 728.135 564.766 728.967L505.474 744.797C502.349 745.629 499.15 743.78 498.317 740.654L484.003 687.007C483.171 683.881 485.02 680.682 488.146 679.85L547.437 664.02C550.562 663.188 553.762 665.037 554.594 668.163L568.908 721.81Z" fill="#2C385E"/>
<path d="M567.577 687.894C568.409 691.02 566.56 694.219 563.434 695.051L489.699 714.727C486.574 715.56 483.374 713.71 482.542 710.585L359.928 251.243C359.095 248.118 360.945 244.918 364.07 244.086L437.805 224.41C440.931 223.578 444.13 225.427 444.963 228.552L567.577 687.894Z" fill="#75BD51"/>
<path d="M532.124 658.38C532.956 661.505 531.107 664.704 527.981 665.537L505.752 671.473C502.626 672.305 499.427 670.456 498.595 667.33L392.625 270.309C391.793 267.184 393.642 263.984 396.767 263.152L418.997 257.216C422.123 256.384 425.322 258.233 426.154 261.358L532.143 658.38H532.124Z" fill="#64A145"/>
<path d="M472.611 332.149L473.221 334.405C473.221 334.405 471.686 339.121 470.447 340.896C469.208 342.671 466.434 345.593 466.138 349.828C465.824 354.063 466.526 355.524 467.377 356.152C468.228 356.763 470.225 356.467 471.002 355.838C471.779 355.228 473.166 351.603 474.386 350.9C475.625 350.198 477.012 348.663 478.473 347.054C479.934 345.445 481.636 344.428 485.261 341.58C488.885 338.732 491.123 336.809 492.584 333.795C494.045 330.78 494.748 327.322 496.135 325.399C497.522 323.476 546.438 283.124 546.438 283.124L524.042 257.013C524.042 257.013 486.278 307.979 484.428 309.828C482.579 311.677 480.73 312.916 478.27 313.841C475.81 314.766 468.265 315.727 468.265 315.727L472.648 332.13L472.611 332.149Z" fill="#FFD2BA"/>
<path d="M521.638 260.23C521.638 260.23 528.333 265.223 534.658 271.936C540.983 278.649 543.516 285.547 543.516 285.547C543.516 285.547 544.903 285.991 546.068 285.547C547.215 285.103 558.552 272.713 558.792 272.399C559.033 272.084 561.751 272.935 563.083 272.01C564.414 271.086 576.066 261.118 576.14 254.054C576.214 246.971 570.998 166.065 570.998 166.065L535.767 152.898C535.767 152.898 533.437 155.746 534.066 158.834C534.676 161.923 538.079 223.245 538.375 226.481C538.689 229.717 537.45 230.642 536.84 232.177C536.23 233.712 535.767 236.8 535.767 236.8C535.767 236.8 532.771 238.89 532.346 239.389C531.939 239.87 532.05 242.366 532.05 242.366C532.05 242.366 521.768 255.478 521.009 256.698C520.251 257.919 520.436 259.306 521.657 260.249L521.638 260.23Z" fill="#154747"/>
<path d="M468.228 315.727L472.611 332.13L473.221 334.386L477.105 314.174C474.016 314.987 468.228 315.709 468.228 315.709V315.727Z" fill="#FFB1A4"/>
<path d="M523.154 734.089H567.762L577.36 685.731C577.36 685.731 576.787 681.884 575.159 681.533C573.532 681.181 570.776 688.357 566.948 690.89C563.12 693.424 551.469 703.262 546.253 706.72C541.038 710.178 538.042 713.414 536.544 714.228C535.046 715.042 533.659 716.891 532.956 718.5C532.253 720.109 523.136 734.071 523.136 734.071L523.154 734.089Z" fill="#663733"/>
<path d="M577.434 684.788C574.346 684.788 571.886 689.096 569.426 691.722C566.966 694.348 545.625 709.753 542.259 711.75C538.911 713.747 538.449 715.763 539.207 718.537C539.984 721.311 542.684 727.931 542.259 734.108H618.583C618.583 734.108 619.822 721.311 619.36 712.989C618.897 704.667 615.124 684.788 615.124 684.788H577.452H577.434Z" fill="#854842"/>
<path d="M564.821 734.089H618.601C618.601 734.089 619.84 721.292 619.378 712.971C619.249 710.53 618.823 707.09 618.287 703.447C607.597 708.791 573.143 713.303 564.821 734.071V734.089Z" fill="#663733"/>
<path d="M617.418 697.88C610.741 699.156 589.252 705.481 585.997 734.089H587.864C591.082 706.498 611.407 700.784 617.695 699.674C617.603 699.064 617.51 698.472 617.399 697.88H617.418Z" fill="#663733"/>
<path d="M541.186 734.089C541.186 734.089 541.001 729.392 539.706 724.196C538.412 718.999 536.673 717.372 535.989 716.447C535.305 715.523 533.215 714.82 531.717 715.744C530.219 716.669 525.096 719.092 520.713 720.59C516.33 722.088 503.163 724.177 502.238 734.071H541.186V734.089Z" fill="#854842"/>
<path d="M576.657 699.545C576.657 700.821 575.64 701.838 574.364 701.838C573.088 701.838 572.071 700.821 572.071 699.545C572.071 698.269 573.088 697.252 574.364 697.252C575.64 697.252 576.657 698.269 576.657 699.545Z" fill="#4A2825"/>
<path d="M575.381 698.565C575.843 699.175 575.733 700.044 575.122 700.506C574.512 700.969 573.643 700.858 573.18 700.248L566.023 690.89C565.561 690.28 565.672 689.411 566.282 688.948C566.892 688.486 567.762 688.597 568.224 689.207L575.381 698.565Z" fill="#BD8255"/>
<path d="M569.149 704.057C569.149 705.333 568.132 706.35 566.856 706.35C565.579 706.35 564.562 705.333 564.562 704.057C564.562 702.781 565.579 701.764 566.856 701.764C568.132 701.764 569.149 702.781 569.149 704.057Z" fill="#4A2825"/>
<path d="M567.891 703.077C568.353 703.687 568.242 704.556 567.632 705.019C567.022 705.481 566.153 705.37 565.69 704.76L559.162 696.216C558.7 695.606 558.811 694.737 559.421 694.274C560.031 693.812 560.9 693.923 561.363 694.533L567.891 703.077Z" fill="#BD8255"/>
<path d="M561.64 708.588C561.64 709.864 560.623 710.881 559.347 710.881C558.071 710.881 557.054 709.864 557.054 708.588C557.054 707.312 558.071 706.295 559.347 706.295C560.623 706.295 561.64 707.312 561.64 708.588Z" fill="#4A2825"/>
<path d="M560.383 707.608C560.845 708.218 560.734 709.087 560.124 709.549C559.513 710.012 558.644 709.901 558.182 709.29L552.264 701.542C551.801 700.932 551.912 700.063 552.523 699.6C553.133 699.138 554.002 699.249 554.465 699.859L560.383 707.608Z" fill="#BD8255"/>
<path d="M554.132 713.1C554.132 714.376 553.115 715.393 551.838 715.393C550.562 715.393 549.545 714.376 549.545 713.1C549.545 711.824 550.581 710.807 551.838 710.807C553.096 710.807 554.132 711.824 554.132 713.1Z" fill="#4A2825"/>
<path d="M552.874 712.138C553.336 712.749 553.225 713.618 552.615 714.08C552.005 714.542 551.136 714.431 550.673 713.821L545.384 706.868C544.922 706.258 545.033 705.388 545.643 704.926C546.253 704.464 547.122 704.575 547.585 705.185L552.874 712.138Z" fill="#BD8255"/>
<path d="M546.642 717.631C546.642 718.907 545.624 719.924 544.348 719.924C543.072 719.924 542.055 718.907 542.055 717.631C542.055 716.355 543.091 715.338 544.348 715.338C545.606 715.338 546.642 716.355 546.642 717.631Z" fill="#4A2825"/>
<path d="M545.366 716.651C545.828 717.261 545.717 718.13 545.107 718.592C544.496 719.055 543.627 718.944 543.165 718.333L538.486 712.175C538.024 711.565 538.134 710.696 538.745 710.234C539.355 709.771 540.224 709.882 540.687 710.493L545.366 716.651Z" fill="#BD8255"/>
<path d="M502.219 734.089L501.535 741.634C501.535 741.634 501.887 743.983 503.606 743.983H569.149C569.149 743.983 574.789 739.027 575.677 739.027C576.565 739.027 580.707 743.983 580.707 743.983H619.452C619.452 743.983 620.969 741.967 621.117 740.932C621.264 739.896 619.045 728.098 619.045 728.098C619.045 728.098 595.502 729.152 590.768 729.836C586.034 730.52 578.174 734.071 573.439 734.071H502.238L502.219 734.089Z" fill="#BD8255"/>
<path d="M600.551 734.089H645.159L654.757 685.731C654.757 685.731 654.184 681.884 652.556 681.533C650.929 681.181 648.173 688.357 644.345 690.89C640.517 693.424 628.866 703.262 623.65 706.72C618.435 710.178 615.439 713.414 613.941 714.228C612.443 715.042 611.056 716.891 610.353 718.5C609.65 720.109 600.533 734.071 600.533 734.071L600.551 734.089Z" fill="#663733"/>
<path d="M654.849 684.788C651.761 684.788 649.301 689.096 646.842 691.722C644.382 694.348 623.04 709.753 619.674 711.75C616.327 713.747 615.864 715.763 616.623 718.537C617.399 721.311 620.099 727.931 619.674 734.108H695.998C695.998 734.108 697.237 721.311 696.775 712.989C696.313 704.667 692.54 684.788 692.54 684.788H654.868H654.849Z" fill="#854842"/>
<path d="M694.815 697.88C688.138 699.156 666.648 705.481 663.394 734.089H665.261C668.479 706.498 688.786 700.784 695.092 699.674C695 699.064 694.907 698.472 694.815 697.88Z" fill="#663733"/>
<path d="M618.583 734.089C618.583 734.089 618.398 729.392 617.103 724.196C615.809 718.999 614.07 717.372 613.386 716.447C612.702 715.523 610.612 714.82 609.114 715.744C607.616 716.669 602.493 719.092 598.11 720.59C593.727 722.088 580.56 724.177 579.635 734.071H618.583V734.089Z" fill="#854842"/>
<path d="M654.073 699.545C654.073 700.821 653.056 701.838 651.779 701.838C650.503 701.838 649.486 700.821 649.486 699.545C649.486 698.269 650.522 697.252 651.779 697.252C653.037 697.252 654.073 698.269 654.073 699.545Z" fill="#4A2825"/>
<path d="M652.797 698.565C653.259 699.175 653.148 700.044 652.538 700.506C651.927 700.969 651.058 700.858 650.596 700.248L643.439 690.89C642.976 690.28 643.087 689.411 643.698 688.948C644.308 688.486 645.177 688.597 645.639 689.207L652.797 698.565Z" fill="#BD8255"/>
<path d="M646.564 704.057C646.564 705.333 645.547 706.35 644.271 706.35C642.995 706.35 641.978 705.333 641.978 704.057C641.978 702.781 643.013 701.764 644.271 701.764C645.528 701.764 646.564 702.781 646.564 704.057Z" fill="#4A2825"/>
<path d="M645.288 703.077C645.75 703.687 645.639 704.556 645.029 705.019C644.419 705.481 643.55 705.37 643.087 704.76L636.559 696.216C636.097 695.606 636.208 694.737 636.818 694.274C637.428 693.812 638.297 693.923 638.76 694.533L645.288 703.077Z" fill="#BD8255"/>
<path d="M639.056 708.588C639.056 709.864 638.039 710.881 636.762 710.881C635.486 710.881 634.469 709.864 634.469 708.588C634.469 707.312 635.486 706.295 636.762 706.295C638.039 706.295 639.056 707.312 639.056 708.588Z" fill="#4A2825"/>
<path d="M637.798 707.608C638.26 708.218 638.15 709.087 637.539 709.549C636.929 710.012 636.06 709.901 635.597 709.29L629.679 701.542C629.217 700.932 629.328 700.063 629.938 699.6C630.549 699.138 631.418 699.249 631.88 699.859L637.798 707.608Z" fill="#BD8255"/>
<path d="M631.547 713.1C631.547 714.376 630.53 715.393 629.254 715.393C627.978 715.393 626.961 714.376 626.961 713.1C626.961 711.824 627.978 710.807 629.254 710.807C630.53 710.807 631.547 711.824 631.547 713.1Z" fill="#4A2825"/>
<path d="M630.29 712.138C630.752 712.749 630.641 713.618 630.031 714.08C629.42 714.542 628.551 714.431 628.089 713.821L622.8 706.868C622.337 706.258 622.448 705.388 623.058 704.926C623.669 704.464 624.538 704.575 625 705.185L630.29 712.138Z" fill="#BD8255"/>
<path d="M624.039 717.631C624.039 718.907 623.022 719.924 621.745 719.924C620.469 719.924 619.452 718.907 619.452 717.631C619.452 716.355 620.469 715.338 621.745 715.338C623.022 715.338 624.039 716.355 624.039 717.631Z" fill="#4A2825"/>
<path d="M622.781 716.651C623.243 717.261 623.132 718.13 622.522 718.592C621.912 719.055 621.043 718.944 620.58 718.333L615.901 712.175C615.439 711.565 615.55 710.696 616.16 710.234C616.771 709.771 617.64 709.882 618.102 710.493L622.781 716.651Z" fill="#BD8255"/>
<path d="M579.635 734.089L578.951 741.634C578.951 741.634 579.302 743.983 581.022 743.983H646.564C646.564 743.983 652.223 739.027 653.093 739.027C653.962 739.027 658.123 743.983 658.123 743.983H696.867C696.867 743.983 698.384 741.967 698.532 740.932C698.68 739.896 696.461 728.098 696.461 728.098C696.461 728.098 672.918 729.152 668.183 729.836C663.449 730.52 655.589 734.071 650.855 734.071H579.653L579.635 734.089Z" fill="#BD8255"/>
<path d="M546.401 324.659C546.401 324.659 547.529 368.727 548.695 379.731C549.86 390.734 560.919 495.828 564.914 517.28C568.908 538.732 573.439 581.099 573.291 618.676C573.125 656.235 573.07 662.504 572.404 664.76C571.756 667.016 568.465 670.234 569.593 673.341C570.721 676.447 572.441 677.982 576.139 678.297C579.82 678.611 611.389 681.274 614.847 681.57C618.305 681.866 620.099 674.358 619.988 672.952C619.877 671.547 617.603 668.107 618.01 663.502C618.398 658.898 628.2 586.887 624.482 556.633C620.784 526.397 619.84 518.186 620.673 513.859C621.505 509.532 622.078 505.389 621.375 502.782C620.673 500.174 617.288 493.609 618.139 488.82C619.008 484.011 630.29 397.28 631.159 381.58C632.028 365.88 624.667 326.804 624.667 326.804L546.438 324.641L546.401 324.659Z" fill="#3F4E7A"/>
<path d="M629.79 395.967H601.828C601.828 395.967 600.311 460.932 619.267 496.956C618.38 494.293 617.677 491.316 618.121 488.82C618.842 484.881 626.572 425.704 629.79 395.967Z" fill="#2C385E"/>
<path d="M617.103 408.616C616.327 424.946 611.222 456.069 610.926 461.45C610.631 466.832 612.979 492.093 612.979 492.093C612.979 492.093 612.85 481.182 612.739 478.556C612.609 475.93 611.962 463.059 612.055 461.339C612.147 459.601 615.698 430.382 616.216 426.425C616.734 422.467 617.122 408.616 617.122 408.616H617.103Z" fill="#2C385E"/>
<path d="M616.475 498.769C616.475 498.769 612.147 502.005 610.871 501.894C609.595 501.783 600.829 497.104 592.544 490.946C600.034 501.099 612.147 507.442 613.238 506.961C614.329 506.48 616.475 498.769 616.475 498.769Z" fill="#2C385E"/>
<path d="M611.518 496.956L607.283 488.006C607.283 488.006 604.713 492.426 611.518 496.956Z" fill="#2C385E"/>
<path d="M612.646 679.48L611.759 679.24C612.85 675.19 612.535 670.715 612.332 668.052C612.295 667.626 612.276 667.238 612.258 666.905C612.202 665.962 613.035 657.326 614.496 642.106C616.567 620.581 619.434 591.122 620.099 578.084C621.191 557.132 614.57 514.118 614.496 513.674C614.496 513.674 616.641 521.57 617.954 532.167C619.73 546.554 621.653 566.008 621.024 578.121C620.34 591.177 617.492 620.655 615.42 642.18C614.144 655.44 613.127 665.925 613.183 666.831C613.183 667.164 613.238 667.534 613.257 667.959C613.46 670.696 613.793 675.264 612.646 679.462V679.48Z" fill="#2C385E"/>
<path d="M570.351 675.985C570.351 675.985 569.741 677.095 569.667 678.241C569.593 679.388 569.167 685.546 569.13 686.156C569.093 686.766 569.778 689.133 574.383 690.613C578.988 692.092 594.855 694.959 600.847 695.384C606.839 695.791 615.624 695.014 616.66 694.7C617.677 694.385 618.158 693.109 618.25 691.87C618.324 690.65 618.953 681.644 619.027 680.571C619.101 679.499 618.657 678.371 618.657 678.371C618.657 678.371 597.186 679.221 570.369 675.985H570.351Z" fill="#6077BA"/>
<path d="M594.948 694.681C597.296 695.014 599.368 695.273 600.847 695.384C601.957 695.458 603.159 695.495 604.398 695.495L605.582 678.408C602.771 678.352 599.59 678.26 596.094 678.093L594.948 694.681Z" fill="#9CB1F0"/>
<path d="M597.851 695.069C598.998 695.217 600.015 695.31 600.847 695.384C601.217 695.402 601.606 695.439 601.994 695.439L603.178 678.352C601.864 678.315 600.477 678.278 599.016 678.223L597.851 695.069Z" fill="#D94F4F"/>
<path d="M593.061 331.686C593.061 331.686 597.907 375.496 599.978 386.37C602.049 397.243 621.949 501.025 627.719 522.07C633.489 543.114 641.589 584.945 644.585 622.393C647.581 659.841 648.062 666.073 647.581 668.403C647.1 670.733 644.104 674.173 645.51 677.187C646.916 680.201 648.746 681.588 652.445 681.588H691.282C694.759 681.588 695.906 673.969 695.684 672.564C695.462 671.158 692.91 667.941 692.91 663.317C692.91 658.694 696.609 586.11 690.358 556.281C684.107 526.452 682.498 518.371 682.96 513.97C683.422 509.568 683.663 505.426 682.738 502.874C681.813 500.322 677.893 494.09 678.337 489.226C678.78 484.363 682.738 396.984 682.257 381.266C681.776 365.547 671.161 327.23 671.161 327.23L593.024 331.668L593.061 331.686Z" fill="#3F4E7A"/>
<path d="M670.588 409.393C671.179 425.722 668.72 457.16 668.868 462.56C669.016 467.96 673.491 492.925 673.491 492.925C673.491 492.925 672.456 482.051 672.104 479.462C671.753 476.855 670.033 464.095 669.959 462.356C669.903 460.618 670.995 431.215 671.161 427.22C671.346 423.226 670.569 409.393 670.569 409.393H670.588Z" fill="#2C385E"/>
<path d="M677.541 499.268C677.541 499.268 673.491 502.856 672.234 502.856C670.976 502.856 661.84 498.935 653.055 493.498C661.378 502.967 673.972 508.292 675.008 507.719C676.043 507.146 677.541 499.286 677.541 499.286V499.268Z" fill="#2C385E"/>
<path d="M672.456 497.881L667.481 489.337C667.481 489.337 665.28 493.961 672.456 497.881Z" fill="#2C385E"/>
<path d="M688.952 679.665L688.046 679.499C688.804 675.375 688.101 670.936 687.676 668.292C687.602 667.867 687.547 667.497 687.51 667.164C687.38 666.239 687.473 657.548 687.657 642.273C687.916 620.655 688.286 591.048 687.861 578.01C687.177 557.039 676.95 514.728 676.857 514.303C676.857 514.303 679.668 521.996 681.85 532.444C684.828 546.628 688.397 565.842 688.786 577.973C689.211 591.029 688.86 620.655 688.582 642.291C688.416 655.624 688.305 666.147 688.416 667.035C688.471 667.349 688.527 667.737 688.582 668.144C689.008 670.844 689.729 675.375 688.952 679.665Z" fill="#2C385E"/>
<path d="M646.435 678.777C646.435 678.777 645.898 679.924 645.898 681.071V689.004C645.898 689.614 646.749 691.926 651.446 693.091C656.144 694.237 672.178 696.013 678.189 696.013C684.199 696.013 692.91 694.626 693.908 694.237C694.907 693.849 695.295 692.536 695.295 691.315V679.998C695.295 678.925 694.778 677.816 694.778 677.816C694.778 677.816 673.417 680.146 646.435 678.777Z" fill="#6077BA"/>
<path d="M672.271 695.754C674.638 695.939 676.728 696.05 678.207 696.05C679.317 696.05 680.519 695.994 681.758 695.92V678.777C678.947 678.925 675.766 679.036 672.289 679.129V695.754H672.271Z" fill="#9CB1F0"/>
<path d="M675.193 695.939C676.339 695.994 677.375 696.031 678.189 696.031C678.558 696.031 678.947 696.031 679.335 696.031V678.907C678.022 678.962 676.635 679.018 675.174 679.055V695.957L675.193 695.939Z" fill="#D94F4F"/>
<path d="M584.887 379.657L599.59 384.04L626.202 372.556L600.477 388.866L584.887 379.657Z" fill="#2C385E"/>
<path d="M600.034 387.165L599.701 386.869C599.423 386.61 592.987 380.674 591.748 373.887C590.528 367.248 587.772 336.365 587.735 336.051L588.66 335.977C588.697 336.291 591.452 367.119 592.654 373.721C593.69 379.342 598.683 384.576 599.997 385.87L602.123 383.688C601.901 381.118 599.775 355.579 598.369 334.22L599.294 334.164C600.755 356.559 603.03 383.559 603.067 383.818V384.021L600.034 387.146V387.165Z" fill="#2C385E"/>
<path d="M609.151 387.054C609.151 387.054 624.187 382.32 632.657 381.617C632.657 381.617 622.818 377.345 609.151 387.054Z" fill="#2C385E"/>
<path d="M594.781 388.496L581.614 384.631C581.614 384.631 586.182 384.465 587.735 384.631C589.289 384.798 594.781 388.496 594.781 388.496Z" fill="#2C385E"/>
<path d="M656.921 328.062C656.921 328.062 669.034 364.992 670.569 399.684C670.569 399.684 671.494 358.408 659.621 327.895L656.902 328.08L656.921 328.062Z" fill="#2C385E"/>
<path d="M657.938 375.792C657.938 375.792 671.198 374.793 677.893 371.446C677.893 371.446 671.605 379.805 657.938 375.792Z" fill="#2C385E"/>
<path d="M661.803 380.822C661.803 380.822 671.29 380.101 676.099 377.697C676.099 377.697 671.605 383.688 661.803 380.822Z" fill="#2C385E"/>
<path d="M671.827 324.937L604.065 328.154V324.308C604.065 322.847 602.882 321.663 601.421 321.663H578.747C577.286 321.663 576.103 322.847 576.103 324.308V329.467L552.615 330.577C552.615 330.577 552.079 332.814 551.376 335.718C551.469 335.755 551.561 335.81 551.654 335.829C552.356 335.995 561.492 337.123 576.103 337.66C576.195 339.047 577.323 340.138 578.729 340.138H601.402C602.771 340.138 603.88 339.102 604.01 337.771C611.148 337.567 618.805 337.197 626.831 336.55C668.775 333.166 672.363 329.689 672.696 329.005C672.881 328.617 673.103 328.228 673.251 327.747C672.751 326.638 672.271 325.658 671.808 324.918L671.827 324.937Z" fill="#2C385E"/>
<path d="M552.652 318.15C552.652 318.15 550.784 330.706 550.673 331.465C550.563 332.241 550.341 333.554 551.672 333.887C552.985 334.22 584.906 337.992 626.85 334.627C668.794 331.261 672.382 327.766 672.714 327.082C673.047 326.398 673.491 325.75 673.38 324.53C673.269 323.309 668.646 313.841 668.646 313.841L552.671 318.131L552.652 318.15Z" fill="#ED9258"/>
<path d="M578.747 320.128H601.421C602.882 320.128 604.065 321.312 604.065 322.773V335.995C604.065 337.456 602.882 338.64 601.421 338.64H578.747C577.286 338.64 576.103 337.456 576.103 335.995V322.773C576.103 321.312 577.286 320.128 578.747 320.128Z" fill="#404040"/>
<path d="M637.554 318.71L628.986 319.452L630.545 337.452L639.113 336.71L637.554 318.71Z" fill="#3F4E7A"/>
<path d="M559.526 319.214L557.967 337.214L566.516 337.955L568.075 319.955L559.526 319.214Z" fill="#3F4E7A"/>
<path d="M616.493 78.8347C616.493 78.8347 616.068 115.099 625.758 139.177H572.459L575.4 101.433L616.511 78.8162L616.493 78.8347Z" fill="#FFD2BA"/>
<path d="M616.493 78.8347L575.381 101.451L574.216 116.523C576.694 119.02 579.135 121.294 580.227 121.719C582.871 122.737 588.586 121.904 592.266 119.371C606.1 109.81 613.46 96.9576 616.752 89.6715C616.438 83.1065 616.475 78.8532 616.475 78.8532L616.493 78.8347Z" fill="#FFB1A4"/>
<path d="M552.042 65.9822C555.352 77.8731 555.574 83.4579 559.088 89.4865C562.62 95.4967 571.35 103.208 573.698 105.853C576.047 108.497 577.009 109.311 577.896 109.385C578.766 109.459 584.573 109.089 588.752 107.258C592.932 105.427 614.459 84.9373 615.55 82.5148C616.641 80.0922 618.953 63.985 618.953 63.985C618.953 63.985 627.534 50.7627 623.798 31.3822C620.044 12.0018 601.772 -1.97873 576.879 3.18075C551.986 8.35873 538.56 32.1404 552.023 65.9822H552.042Z" fill="#FFD2BA"/>
<path d="M603.843 31.1418C603.843 31.1418 604.805 42.4224 604.971 43.6984C605.138 44.9559 609.151 49.0428 609.761 51.1325C610.372 53.2222 611.296 61.285 611.296 61.285L615.975 57.9933L627.257 55.4598C627.257 55.4598 631.122 43.9388 628.551 29.9953L603.862 31.1418H603.843Z" fill="#2E2E2E"/>
<path d="M546.697 22.1174C546.697 22.1174 546.124 17.8085 546.697 15.9593C547.27 14.11 564.063 1.0171 585.719 0.0924642C607.376 -0.832175 620.044 5.75125 626.683 16.8469C633.304 27.9426 635.579 47.1566 635.116 56.8653C635.116 56.8653 632.49 55.1085 631.27 53.7585C629.568 65.372 621.838 81.9415 617.122 95.4782L616.567 78.4649L616.937 76.5601L621.856 61.9138L618.25 42.8293L590.195 24.2625L546.697 22.0989V22.1174Z" fill="#2E2E2E"/>
<path d="M615.494 59.0105C615.494 59.0105 615.55 53.3332 615.827 51.7428C616.105 50.1524 616.77 48.71 618.638 47.1751C620.506 45.6402 622.337 44.7525 623.428 45.3628C624.519 45.9731 627.016 50.2634 627.386 52.9633C627.774 55.6633 624.408 69.6438 623.373 72.0109C622.319 74.378 616.549 77.0224 616.271 76.6896C615.994 76.3567 615.494 59.0105 615.494 59.0105Z" fill="#FFD2BA"/>
<path d="M586.422 54.4057C583.13 56.9947 583.001 61.1001 583.223 62.0802C583.444 63.0789 590.25 63.2638 593.413 61.6734C596.575 60.083 597.407 56.4215 597.241 55.2379C595.447 53.4996 592.155 51.7058 586.422 54.4057Z" fill="white"/>
<path d="M596.113 57.2166C596.113 59.8241 593.856 61.9323 591.082 61.9323C588.308 61.9323 586.052 59.8241 586.052 57.2166C586.052 54.6092 588.308 52.501 591.082 52.501C593.856 52.501 596.113 54.6092 596.113 57.2166Z" fill="#2E2E2E"/>
<path d="M582.094 61.9323C582.094 61.9323 583.666 55.127 589.251 53.8879C594.837 52.6489 597.259 56.4769 597.259 56.4769L598.887 54.4057C598.887 54.4057 594.781 50.6517 588.993 52.1681C583.259 53.6845 581.761 59.5097 582.076 61.9138L582.094 61.9323Z" fill="#1C1C1C"/>
<path d="M573.088 50.9291C573.088 50.9291 575.511 53.2222 578.636 52.5195C581.762 51.8167 588.623 46.047 598.351 47.1566C598.351 47.1566 592.599 44.5491 586.958 45.4737C578.673 46.8237 573.088 50.9291 573.088 50.9291Z" fill="#1C1C1C"/>
<path d="M554.853 65.4829C554.853 65.4829 555.241 67.1103 557.387 68.2384C560.327 69.7917 565.043 68.5157 565.283 67.0363C565.524 65.5754 564.784 63.4857 563.545 62.5056C562.306 61.5255 556.24 60.2125 554.853 65.4644V65.4829Z" fill="white"/>
<path d="M564.71 64.096C565.228 66.0747 564.155 68.0719 562.324 68.5527C560.494 69.0335 558.57 67.8315 558.052 65.8528C557.535 63.874 558.607 61.8768 560.438 61.396C562.288 60.9152 564.192 62.1172 564.71 64.096Z" fill="#2E2E2E"/>
<path d="M565.284 65.1316C565.284 65.1316 562.787 61.0077 558.866 62.0988C555.315 63.0974 555.112 66.8329 555.112 66.8329L553.041 66.0377C553.041 66.0377 553.817 61.359 558.829 60.7118C563.342 60.12 564.969 63.0234 565.247 65.1501L565.284 65.1316Z" fill="#1C1C1C"/>
<path d="M562.898 54.3133C562.898 54.3133 561.733 56.1071 559.384 56.255C557.035 56.403 552.837 55.9776 549.286 57.9933L548.972 56.8838C548.972 56.8838 551.783 54.5722 555.26 54.0359C559.772 53.3332 562.898 54.3318 562.898 54.3318V54.3133Z" fill="#1C1C1C"/>
<path d="M571.294 83.9942C571.294 83.9942 570.499 82.9401 569.685 82.5518C568.89 82.1634 566.634 80.758 566.855 80.1477C567.077 79.5374 572.33 78.9642 575.141 79.3155C577.952 79.6669 579.875 80.4991 579.579 81.1648C579.283 81.849 575.178 83.6983 571.294 83.9757V83.9942Z" fill="#FFB8A3"/>
<path d="M566.652 61.9323C566.652 61.9323 567.688 66.8699 567.688 72.6396C567.688 78.4094 566.837 78.9087 567.17 80.1292C567.503 81.3312 569.63 81.6271 570.48 82.6627C571.331 83.6983 571.645 84.8634 571.645 84.8634C571.645 84.8634 569.889 83.1435 568.483 82.5887C567.096 82.034 565.727 81.5531 565.653 80.2032C565.579 78.8532 567.447 73.3978 566.652 61.9323Z" fill="#DB8472"/>
<path d="M574.382 81.96C574.382 81.96 572.663 81.4052 573.328 80.647C573.994 79.8703 577.508 81.4422 577.508 81.4422L574.382 81.9785V81.96Z" fill="#DB8472"/>
<path d="M569.075 92.9262C569.075 92.9262 568.612 93.0557 568.649 93.444C568.686 93.8323 569.704 94.2762 570.536 94.1652C571.368 94.0543 575.381 92.7413 580.005 90.9475C584.628 89.1537 589.603 87.1565 591.545 85.825C593.468 84.512 593.986 83.4579 593.746 83.1805C593.505 82.9031 592.34 83.0511 592.118 83.1805C591.896 83.31 591.212 84.5305 590.861 84.8449C590.509 85.1592 584.258 88.7838 576.472 91.6132C572.478 93.0741 570.332 93.3885 570.166 93.2961C569.999 93.2221 569.315 92.6303 569.075 92.9077V92.9262Z" fill="#D67061"/>
<path d="M580.892 97.9932C580.892 97.9932 578.581 96.3844 577.138 96.6433C575.714 96.9022 575.085 97.7528 575.344 97.9932C575.603 98.2521 576.842 99.787 580.892 97.9932Z" fill="#FFB8A3"/>
<path d="M624.519 54.2763C624.519 54.2763 622.577 50.3743 621.449 50.8551C620.34 51.3544 619.729 54.4982 619.84 55.3674C619.951 56.255 621.264 57.4755 621.116 57.9379C620.95 58.4002 619.471 57.7344 619.138 58.4557C618.805 59.1769 619.544 60.4159 619.544 61.2851C619.544 62.1542 619.415 65.5384 619.415 67.2767C619.415 67.9425 622.781 66.574 623.373 64.4103C624.057 61.9323 625.019 56.5324 624.519 54.2763Z" fill="#FFB1A4"/>
<path d="M554.298 34.7664C554.298 34.7664 560.124 51.8722 571.645 56.5694C572.256 52.8708 571.645 39.6115 571.645 39.6115C571.645 39.6115 576.842 45.6032 582.427 47.0086C582.427 47.0086 581.725 45.0854 581.225 44.0498C590.047 46.6388 598.887 48.9689 598.887 48.9689C598.887 48.9689 597.296 43.7724 595.484 39.6855C595.484 39.6855 604.62 47.0086 606.765 48.2292C606.765 48.2292 607.376 47.0641 607.08 45.1409C607.08 45.1409 620.025 52.2976 620.025 51.7983C620.025 51.299 617.177 43.6799 617.177 43.6799C617.177 43.6799 609.65 5.91768 593.801 4.38278C577.952 2.84788 547.123 19.3989 547.123 19.3989C547.123 19.3989 534.565 37.041 543.738 59.5467C543.738 59.5467 545.125 55.4783 545.588 53.0003C546.253 57.6605 552.134 61.8953 552.134 61.8953C552.134 61.8953 551.191 50.3928 551.598 45.2518C551.598 45.2518 553.595 47.9703 555.445 48.9319L554.298 34.7294V34.7664Z" fill="#2E2E2E"/>
<path d="M588.234 135.959H601.883L631.288 114.748C631.288 114.748 643.624 120.333 657.938 125.363C672.252 130.393 683.163 130.836 685.808 133.592C688.453 136.347 683.607 177.531 678.91 214.535C674.212 251.539 666.574 296.032 666.722 297.789C666.87 299.546 672.751 307.923 672.751 310.568C672.751 313.212 669.515 319.222 666.001 319.37C662.469 319.518 616.364 328.321 586.108 327.156C555.852 325.972 553.207 322.902 553.207 322.902C553.207 322.902 548.953 316.448 548.806 313.952C548.658 311.455 555.408 295.736 555.408 295.736C555.408 295.736 541.371 185.501 539.91 175.219C538.449 164.937 535.36 154.063 537.561 150.846C539.762 147.609 566.264 128.784 566.264 128.784L588.216 135.977L588.234 135.959Z" fill="white"/>
<path d="M591.009 149.274C591.009 150.605 589.917 151.696 588.586 151.696C587.254 151.696 586.163 150.605 586.163 149.274C586.163 147.942 587.254 146.851 588.586 146.851C589.917 146.851 591.009 147.942 591.009 149.274Z" fill="#B8C1E3"/>
<path d="M593.431 207.323C593.431 208.654 592.34 209.745 591.009 209.745C589.677 209.745 588.586 208.654 588.586 207.323C588.586 205.991 589.677 204.9 591.009 204.9C592.34 204.9 593.431 205.991 593.431 207.323Z" fill="#B8C1E3"/>
<path d="M595.854 267.443C595.854 268.774 594.763 269.865 593.431 269.865C592.1 269.865 591.009 268.774 591.009 267.443C591.009 266.111 592.1 265.02 593.431 265.02C594.763 265.02 595.854 266.111 595.854 267.443Z" fill="#B8C1E3"/>
<path d="M593.061 321.146C593.061 322.477 591.97 323.568 590.639 323.568C589.307 323.568 588.216 322.477 588.216 321.146C588.216 319.814 589.307 318.723 590.639 318.723C591.97 318.723 593.061 319.814 593.061 321.146Z" fill="#B8C1E3"/>
<path d="M617.233 96.9761L617.806 103.282C617.806 103.282 588.29 135.737 588.216 135.959C588.142 136.181 611.925 156.726 612.813 156.671C613.701 156.597 614.57 155.931 614.94 154.988C615.31 154.026 633.304 116.153 633.434 115.265C633.581 114.378 633.581 112.399 632.564 112.103C631.529 111.807 625.5 106.962 624.741 105.723C623.983 104.466 622.578 100.582 621.912 99.6946C621.246 98.8069 617.214 96.9946 617.214 96.9946L617.233 96.9761Z" fill="white"/>
<path d="M588.234 135.959C588.234 135.959 580.301 127.212 573.994 119.445L574.475 113.194C574.475 113.194 571.424 115.191 570.98 116.005C570.536 116.819 569.87 120.832 569.297 122.163C568.705 123.495 564.525 126.805 564.377 127.97C564.229 129.154 572.681 156.745 573.199 157.115C573.717 157.484 574.882 157.263 575.4 156.671C575.918 156.079 588.253 135.959 588.253 135.959H588.234Z" fill="white"/>
<path d="M573.865 157.706C573.495 157.706 573.162 157.632 572.922 157.447C572.792 157.355 572.385 157.078 568.095 142.949C567.133 139.787 565.228 133.425 564.359 130.06C564.063 128.913 564.322 128.173 564.359 127.952C564.359 127.952 564.951 128.821 565.21 129.801C566.8 135.922 572.663 155.173 573.495 156.782C573.846 156.948 574.697 156.782 575.048 156.375C575.474 155.857 582.945 143.744 587.846 135.737C587.92 135.626 588.05 135.552 588.179 135.534C588.327 135.534 588.456 135.571 588.549 135.682C589.732 136.902 611.093 155.358 612.868 156.227C613.571 156.135 614.255 155.561 614.533 154.822C614.662 154.489 616.623 150.328 620.062 143.023C624.113 134.442 629.809 122.33 632.065 117.374C632.638 116.116 633.415 115.413 633.452 115.247C633.452 115.247 633.507 116.32 632.786 117.891C631.011 121.793 627.109 130.134 620.858 143.393C617.973 149.514 615.494 154.803 615.365 155.136C614.94 156.227 613.941 157.022 612.85 157.096C611.666 157.096 591.526 139.491 588.327 136.625C586.2 140.083 576.213 156.375 575.714 156.948C575.289 157.429 574.53 157.706 573.865 157.706Z" fill="#C6D5F2"/>
<path d="M624.76 105.705C624.76 105.705 627.497 115.672 627.497 134.036C627.497 182.505 614.477 212.242 612.313 231.751C610.15 251.261 628.07 356.985 628.976 359.758C629.883 362.532 630.493 365.343 636.744 365.343H676.469C680.667 365.343 683.2 355.357 683.2 353.97C683.2 352.583 674.638 311.437 673.38 306.814C672.104 302.19 669.996 298.03 669.663 292.482C669.33 286.934 676.58 231.751 676.58 231.751C676.58 231.751 685.66 134.202 684.939 133.111C684.199 132.02 681.943 130.226 679.631 129.412C677.319 128.599 648.303 118.631 641.034 115.247C633.748 111.844 628.033 106.149 624.76 105.705Z" fill="#206A6A"/>
<path d="M647.156 365.362C643.809 348.201 625.444 250.577 627.238 232.269C627.848 226.037 629.587 218.64 631.584 210.078C635.819 192.029 641.608 167.304 641.201 134.313C641.09 125.991 640.443 119.389 639.758 114.637C639.407 114.452 639.074 114.285 638.741 114.1C639.444 118.853 640.165 125.64 640.258 134.332C640.665 167.212 634.894 191.863 630.678 209.875C628.662 218.474 626.924 225.908 626.295 232.195C624.501 250.466 642.699 347.387 646.213 365.38H647.137L647.156 365.362Z" fill="#154747"/>
<path d="M674.582 148.423C664.596 168.118 663.061 211.428 676.598 231.77C677.412 225.963 678.207 220.157 678.91 214.516C681.98 190.291 685.124 164.271 686.178 148.423H674.582Z" fill="#154747"/>
<path d="M586.755 215.145C584.406 181.747 584.628 153.213 584.85 141.562L583.944 142.986C583.722 155.45 583.63 183.097 585.867 215.2C588.919 258.769 588.974 283.42 588.512 291.132C588.271 295.348 587.217 304.28 586.367 311.455C585.59 317.965 585.164 321.663 585.22 322.255C585.331 323.605 586.256 327.193 586.293 327.341L587.143 327.119C587.143 327.119 586.2 323.439 586.089 322.181C586.052 321.645 586.626 316.744 587.236 311.548C588.087 304.354 589.141 295.422 589.381 291.187C589.843 283.457 589.788 258.751 586.736 215.145H586.755Z" fill="#C6D5F2"/>
<path d="M595.54 327.341C595.503 327.193 594.578 323.587 594.467 322.255C594.411 321.663 594.855 317.965 595.614 311.455C596.464 304.28 597.518 295.348 597.759 291.132C598.203 283.42 598.166 258.769 595.114 215.2C592.691 180.674 593.006 151.308 593.228 140.434C593.635 140.841 593.912 140.878 594.097 141.192C593.875 152.584 593.635 181.396 596.002 215.145C599.053 258.751 599.09 283.457 598.647 291.187C598.406 295.422 597.333 304.373 596.483 311.548C595.872 316.744 595.299 321.645 595.336 322.181C595.447 323.457 596.372 327.082 596.39 327.119L595.54 327.341Z" fill="#C6D5F2"/>
<path d="M661.211 282.348L670.181 296.31C669.922 295.108 669.737 293.85 669.663 292.5C669.608 291.705 669.737 289.893 669.94 287.378L661.211 282.348Z" fill="#154747"/>
<path d="M683.108 132.075C681.85 132.094 676.876 135.219 671.808 160C666.741 184.78 672.03 202.829 673.343 206.472C674.656 210.096 676.321 207.785 678.3 209.782C680.278 211.761 692.392 223.652 697.792 224.539H713.641C713.641 224.539 733.8 251.076 734.355 252.186C734.909 253.296 744.915 254.276 745.155 253.074C745.377 251.872 745.044 246.139 746.154 243.383C747.263 240.628 750.555 230.827 748.909 226.315C747.263 221.802 736.241 207.6 733.374 204.068C730.508 200.536 717.729 181.155 712.236 172.242C706.725 163.328 692.078 139.639 690.654 137.549C689.23 135.46 686.03 132.057 683.108 132.094V132.075Z" fill="#206A6A"/>
<path d="M672.474 207.84C672.289 207.84 672.123 207.729 672.067 207.544C671.346 205.547 666.001 186.296 671.401 159.907C675.119 141.729 679.261 132.205 683.737 131.65C683.959 131.613 684.199 131.798 684.236 132.038C684.273 132.279 684.088 132.501 683.848 132.538C681.573 132.834 677.042 136.791 672.271 160.11C666.833 186.722 672.622 206.472 672.899 207.267C672.992 207.489 672.862 207.748 672.64 207.84C672.585 207.84 672.529 207.859 672.492 207.859L672.474 207.84Z" fill="#154747"/>
<path d="M687.602 174.128C687.602 174.128 687.916 174.165 688.434 174.276C688.952 174.387 689.71 174.516 690.598 174.72C691.486 174.905 692.484 175.201 693.594 175.459C694.685 175.718 695.832 176.051 696.997 176.384C698.143 176.754 699.29 177.087 700.363 177.401C700.899 177.549 701.417 177.734 701.916 177.882C702.416 178.03 702.878 178.196 703.303 178.344C705.005 178.936 706.133 179.472 706.133 179.472L706.077 179.713C706.077 179.713 704.857 179.657 703.063 179.38C702.619 179.306 702.12 179.25 701.602 179.14C701.084 179.047 700.548 178.955 699.993 178.844C699.438 178.733 698.865 178.622 698.273 178.474C697.7 178.307 697.126 178.141 696.534 177.974C695.369 177.623 694.223 177.272 693.15 176.883C692.614 176.717 692.096 176.495 691.615 176.292C691.134 176.088 690.672 175.885 690.265 175.7C688.601 174.96 687.565 174.276 687.565 174.276L687.62 174.128H687.602Z" fill="#154747"/>
<path d="M691.116 180.194C691.116 180.194 691.282 180.194 691.578 180.194C691.856 180.212 692.263 180.231 692.725 180.286C693.187 180.323 693.724 180.453 694.278 180.545C694.852 180.656 695.425 180.804 696.017 180.989C697.182 181.359 698.347 181.729 699.179 182.135C700.03 182.524 700.585 182.894 700.585 182.894L700.529 183.134C700.529 183.134 699.882 183.226 698.939 183.152C698.458 183.134 697.922 183.06 697.33 182.986C696.757 182.912 696.146 182.764 695.554 182.579C694.963 182.394 694.371 182.191 693.816 181.987C693.28 181.766 692.78 181.507 692.373 181.266C691.541 180.804 691.06 180.342 691.06 180.342L691.116 180.194Z" fill="#154747"/>
<path d="M692.743 185.002C692.743 185.002 693.113 184.854 693.594 184.835C693.835 184.817 694.112 184.835 694.389 184.835C694.667 184.854 694.963 184.909 695.24 184.983C695.795 185.131 696.331 185.409 696.701 185.704C697.089 185.982 697.33 186.296 697.33 186.296L697.274 186.537C697.274 186.537 696.923 186.685 696.442 186.74C695.961 186.796 695.332 186.759 694.722 186.592C694.426 186.518 694.13 186.407 693.871 186.278C693.613 186.148 693.391 185.982 693.206 185.815C692.836 185.501 692.651 185.15 692.651 185.15L692.706 185.002H692.743Z" fill="#154747"/>
<path d="M702.989 218.141C702.989 218.141 708.74 206.916 728.288 206.139C728.288 206.139 714.085 208.746 710.035 218.141H702.989Z" fill="#154747"/>
<path d="M697.052 225.076C694.963 227.387 684.661 244.9 679.428 246.657C674.194 248.432 661.581 244.678 658.493 244.567C655.404 244.456 650.485 246.287 648.136 246.509C645.787 246.731 643.809 247.674 642.625 247.97C641.46 248.266 638.075 249.726 637.04 249.652C636.004 249.579 635.431 250.096 635.634 251.335C635.856 252.593 637.465 253.906 638.649 253.906C638.649 253.906 636.67 254.276 634.543 254.72C632.416 255.163 624.778 256.92 622.726 258.104C620.673 259.269 618.897 260.748 618.842 262.357C618.768 263.966 620.007 265.001 620.821 264.928C621.634 264.854 626.258 264.336 629.994 264.188C633.748 264.04 637.262 264.854 640.202 264.484C640.202 264.484 641.737 267.128 642.107 267.72C642.477 268.312 645.048 269.773 645.048 269.773C645.048 269.773 647.618 274.766 648.432 275.283C649.246 275.801 651.151 276.67 651.151 276.67C651.151 276.67 652.538 278.945 652.981 279.537C653.425 280.129 654.701 280.998 655.515 281.22C656.329 281.442 661.526 283.05 662.82 283.383C664.115 283.716 665.243 284.308 666.648 283.975C668.035 283.642 685.068 271.899 690.506 268.441C699.179 264.484 717.673 260.656 723.554 256.402C720.688 235.764 710.479 224.317 708.352 222.93L697.052 225.057V225.076Z" fill="#FFD2BA"/>
<path d="M630.012 264.188C630.012 264.188 630.456 264.169 631.214 264.132C631.603 264.114 632.065 264.095 632.583 264.058C633.119 264.04 633.729 264.058 634.377 264.058C635.042 264.058 635.745 264.077 636.503 264.095C637.243 264.114 638.038 264.151 638.852 264.132C639.259 264.132 639.666 264.132 640.073 264.132C640.461 264.132 640.905 264.058 641.33 264.04C642.181 263.984 643.05 263.91 643.919 263.855C645.658 263.725 647.396 263.615 649.042 263.504C649.856 263.448 650.651 263.393 651.391 263.337C652.186 263.337 652.852 263.374 653.518 263.393C654.184 263.448 654.794 263.522 655.33 263.596C655.867 263.652 656.329 263.762 656.699 263.818C657.457 263.947 657.882 264.077 657.882 264.077V264.188C657.882 264.188 657.42 264.169 656.662 264.132C656.273 264.132 655.811 264.077 655.293 264.077C654.757 264.077 654.184 264.058 653.536 264.04C652.889 264.058 652.186 264.095 651.446 264.114C650.707 264.188 649.911 264.262 649.098 264.336C648.284 264.41 647.433 264.502 646.583 264.576C645.732 264.632 644.863 264.669 643.993 264.724C643.124 264.78 642.255 264.817 641.386 264.872C640.96 264.872 640.535 264.909 640.091 264.909C639.666 264.909 639.241 264.891 638.834 264.872C637.188 264.835 635.653 264.632 634.358 264.539C633.064 264.41 631.972 264.354 631.214 264.317C630.456 264.28 630.012 264.262 630.012 264.262V264.188Z" fill="#ED8879"/>
<path d="M645.066 269.791C645.066 269.791 645.806 269.81 646.915 269.995C647.47 270.087 648.099 270.216 648.765 270.383C649.449 270.549 650.152 270.753 650.855 271.012C651.206 271.141 651.557 271.252 651.909 271.437C652.075 271.511 652.242 271.603 652.408 271.677C652.63 271.788 652.723 271.881 652.87 271.973C653.148 272.177 653.425 272.362 653.684 272.547C653.943 272.75 654.165 272.972 654.368 273.175C654.794 273.564 655.071 273.933 655.293 274.174C655.497 274.433 655.608 274.599 655.608 274.599L655.386 274.784C655.386 274.784 655.256 274.673 654.997 274.47C654.886 274.377 654.72 274.248 654.553 274.118C654.387 273.97 654.165 273.86 653.962 273.693C653.74 273.545 653.536 273.36 653.277 273.194C653 273.027 652.723 272.861 652.427 272.695C652.297 272.621 652.112 272.491 652.001 272.454C651.853 272.38 651.687 272.325 651.539 272.251C651.243 272.103 650.892 271.992 650.559 271.862C649.874 271.622 649.19 271.382 648.543 271.16C647.896 270.938 647.304 270.716 646.786 270.531C645.75 270.142 645.066 269.828 645.066 269.828V269.791Z" fill="#ED8879"/>
<path d="M651.188 276.652C651.188 276.652 651.779 276.596 652.556 276.707C653.351 276.818 654.332 277.114 655.256 277.54C656.181 277.965 657.032 278.52 657.642 279.038C658.252 279.537 658.585 280.018 658.585 280.018L658.53 280.147C658.53 280.147 657.956 280.203 657.161 280.055C656.384 279.925 655.386 279.648 654.461 279.222C653.536 278.797 652.686 278.242 652.075 277.725C651.465 277.225 651.132 276.726 651.132 276.726L651.169 276.633L651.188 276.652Z" fill="#ED8879"/>
<path d="M638.667 253.869C638.667 253.869 639.869 253.739 641.663 253.573C642.551 253.499 643.605 253.388 644.733 253.296C645.288 253.24 645.861 253.185 646.453 253.129C647.045 253.092 647.6 252.963 648.173 252.87C648.728 252.741 649.283 252.611 649.801 252.445C650.392 252.278 650.947 252.149 651.483 252.001C652.057 251.89 652.612 251.798 653.129 251.705C653.647 251.594 654.147 251.576 654.59 251.52C655.034 251.483 655.46 251.409 655.83 251.409C656.199 251.409 656.532 251.409 656.791 251.428C657.309 251.428 657.623 251.428 657.623 251.428V251.576C657.623 251.576 657.328 251.613 656.81 251.687C656.551 251.724 656.236 251.761 655.885 251.816C655.534 251.872 655.127 251.983 654.701 252.094C654.276 252.205 653.795 252.278 653.314 252.445C652.834 252.593 652.316 252.741 651.798 252.889C651.28 253.092 650.725 253.277 650.189 253.481C649.893 253.591 649.597 253.702 649.283 253.758L648.358 253.906C647.729 253.961 647.1 254.017 646.509 254.017C645.917 254.017 645.325 254.017 644.77 254.017C643.642 254.017 642.588 254.017 641.7 254.017C639.906 254.017 638.704 253.98 638.704 253.98V253.832L638.667 253.869Z" fill="#ED8879"/>
<path d="M709.776 212.852C709.776 212.852 722.426 214.479 728.769 216.587C733.393 218.122 734.502 224.854 735.926 231.012C736.722 234.451 739.995 251.058 738.238 252.038C736.481 253.037 733.837 252.038 733.837 252.038L709.776 212.833V212.852Z" fill="#154747"/>
<path d="M693.613 229.995C693.613 229.995 696.941 226.407 700.344 225.963C703.766 225.519 711.589 229.052 714.548 239.408C717.525 249.763 718.542 259.01 718.413 259.047C718.302 259.102 713.456 260.841 713.456 260.841C713.456 260.841 719.264 265.168 720.817 265.501C722.352 265.834 727.197 262.745 729.842 261.765C732.487 260.767 738.645 258.344 738.867 256.92C739.089 255.496 732.931 221.451 729.398 218.917C725.884 216.384 712.384 214.072 709.499 214.072C706.614 214.072 696.479 222.191 694.389 223.152C692.3 224.095 692.355 227.96 693.594 229.995H693.613Z" fill="#206A6A"/>
<path d="M569.297 122.145C564.248 143.19 561.307 160.092 564.248 190.106C565.561 203.513 572.422 222.191 572.459 234.47C572.496 246.749 566.948 357.022 566.948 359.093C566.948 361.164 564.877 365.38 561.4 365.38H546.605C545.902 365.38 542.684 363.716 543.609 354.71C544.533 345.704 547.308 315.413 548.01 312.177C548.713 308.94 553.337 297.845 553.337 293.906C553.337 289.967 536.6 160.073 536.285 157.152C535.971 154.23 534.824 151.826 537.524 149.292C540.224 146.74 558.2 132.482 560.438 130.393C562.676 128.321 566.763 122.533 569.352 122.145H569.297Z" fill="#206A6A"/>
<path d="M560.808 210.448C559.717 203.421 558.589 196.134 558.237 190.069C556.591 162.256 558.089 146.352 561.844 128.858C561.4 129.357 560.993 129.782 560.623 130.152C557.072 147.147 555.704 162.995 557.313 190.124C557.683 196.245 558.811 203.55 559.902 210.596C561.215 219.047 562.565 227.776 562.583 234.451C562.602 243.217 560.05 305.778 558.533 343.152C558.108 353.434 557.794 361.293 557.646 365.362H558.57C558.737 361.219 559.051 353.175 559.458 343.189C560.975 305.815 563.545 243.235 563.508 234.451C563.508 227.702 562.121 218.936 560.808 210.448Z" fill="#154747"/>
<path d="M567.669 239.833C569.498 239.833 570.98 238.351 570.98 236.523C570.98 234.694 569.498 233.212 567.669 233.212C565.841 233.212 564.359 234.694 564.359 236.523C564.359 238.351 565.841 239.833 567.669 239.833Z" fill="#154747"/>
<path d="M567.281 239.371C569.109 239.371 570.591 237.888 570.591 236.06C570.591 234.232 569.109 232.75 567.281 232.75C565.453 232.75 563.971 234.232 563.971 236.06C563.971 237.888 565.453 239.371 567.281 239.371Z" fill="#ED9258"/>
<path d="M566.726 236.06C566.726 236.467 566.393 236.8 566.005 236.8C565.617 236.8 565.265 236.467 565.265 236.06C565.265 235.653 565.598 235.321 566.005 235.321C566.412 235.321 566.726 235.653 566.726 236.06Z" fill="#154747"/>
<path d="M569.315 236.06C569.315 236.467 568.982 236.8 568.576 236.8C568.169 236.8 567.854 236.467 567.854 236.06C567.854 235.653 568.187 235.321 568.576 235.321C568.964 235.321 569.315 235.653 569.315 236.06Z" fill="#154747"/>
<path d="M565.45 287.637C567.278 287.637 568.76 286.155 568.76 284.326C568.76 282.498 567.278 281.016 565.45 281.016C563.622 281.016 562.14 282.498 562.14 284.326C562.14 286.155 563.622 287.637 565.45 287.637Z" fill="#154747"/>
<path d="M568.391 283.864C568.391 285.695 566.911 287.174 565.08 287.174C563.249 287.174 561.77 285.695 561.77 283.864C561.77 282.033 563.249 280.554 565.08 280.554C566.911 280.554 568.391 282.033 568.391 283.864Z" fill="#ED9258"/>
<path d="M564.507 283.864C564.507 284.271 564.174 284.604 563.786 284.604C563.397 284.604 563.046 284.271 563.046 283.864C563.046 283.457 563.379 283.124 563.786 283.124C564.193 283.124 564.507 283.457 564.507 283.864Z" fill="#154747"/>
<path d="M567.096 283.864C567.096 284.271 566.763 284.604 566.356 284.604C565.949 284.604 565.635 284.271 565.635 283.864C565.635 283.457 565.968 283.124 566.356 283.124C566.745 283.124 567.096 283.457 567.096 283.864Z" fill="#154747"/>
<path d="M563.231 335.459C565.059 335.459 566.541 333.977 566.541 332.149C566.541 330.321 565.059 328.839 563.231 328.839C561.402 328.839 559.92 330.321 559.92 332.149C559.92 333.977 561.402 335.459 563.231 335.459Z" fill="#154747"/>
<path d="M566.171 331.686C566.171 333.517 564.692 334.997 562.861 334.997C561.03 334.997 559.55 333.517 559.55 331.686C559.55 329.856 561.03 328.376 562.861 328.376C564.692 328.376 566.171 329.856 566.171 331.686Z" fill="#ED9258"/>
<path d="M562.306 331.686C562.306 332.093 561.973 332.426 561.585 332.426C561.196 332.426 560.845 332.093 560.845 331.686C560.845 331.28 561.178 330.947 561.585 330.947C561.992 330.947 562.306 331.28 562.306 331.686Z" fill="#154747"/>
<path d="M564.895 331.686C564.895 332.093 564.562 332.426 564.155 332.426C563.748 332.426 563.434 332.093 563.434 331.686C563.434 331.28 563.767 330.947 564.155 330.947C564.544 330.947 564.895 331.28 564.895 331.686Z" fill="#154747"/>
<path d="M578.081 54.0359C578.081 54.0359 577.712 54.2023 577.36 54.4797C577.212 54.6092 576.713 55.2009 576.491 56.0886C576.343 56.5324 576.306 57.0687 576.306 57.642C576.306 57.9379 576.361 58.1968 576.398 58.5296C576.472 58.8995 576.546 59.2694 576.62 59.6577C576.916 61.1926 577.212 62.9309 578.007 64.4288C578.1 64.5583 578.266 64.8542 578.285 64.8727L578.544 65.1316C578.544 65.1316 578.673 65.224 578.747 65.261C579.006 65.4459 579.487 65.7048 579.912 65.8898C580.8 66.2781 581.799 66.574 582.834 66.7959C584.924 67.2212 587.217 67.4247 589.548 67.2212C591.896 67.0178 594.264 66.5 596.557 65.4829C597.759 65.0391 598.85 64.4843 599.96 63.911L601.513 62.8939C601.994 62.5241 602.438 62.1172 602.9 61.7104C603.677 60.8227 604.287 59.8426 604.491 58.7701C604.565 58.2153 604.602 57.6975 604.565 57.0317C604.565 56.3845 604.565 55.7557 604.491 55.1825C604.472 54.5907 604.361 54.0359 604.232 53.4996C604.195 53.2222 604.084 53.0003 604.01 52.7599C603.936 52.538 603.843 52.2791 603.695 51.9832C603.178 50.7812 602.697 49.949 602.105 49.5606C601.957 49.4682 601.791 49.4312 601.643 49.3387C601.476 49.3387 601.199 49.3017 601.162 49.2648C600.588 49.3017 599.96 49.2833 599.423 49.3572C598.351 49.4497 597.278 49.5606 596.187 49.7271C594.023 50.023 591.97 50.3373 590.121 50.7257C588.235 51.0586 586.552 51.5209 585.035 51.8538C583.556 52.2606 582.261 52.6305 581.188 52.9263C579.117 53.6476 577.915 54.0729 577.915 54.0729L578.044 53.9989L578.081 54.0359ZM577.083 52.0757C577.083 52.0757 578.303 51.5764 580.449 50.7257C582.631 49.986 585.756 48.9689 589.603 48.1737C591.526 47.7484 593.598 47.36 595.835 47.0456C596.927 46.8792 598.11 46.7497 599.368 46.6388C599.997 46.5833 600.551 46.6018 601.143 46.5833C601.698 46.6388 601.994 46.7128 602.419 46.7867C602.808 46.9532 603.233 47.1011 603.566 47.36C605.027 48.3586 605.563 49.9305 605.989 50.9846C606.174 51.5024 606.525 52.39 606.58 53.0373C606.673 53.74 606.728 54.4427 606.691 55.127C606.691 55.8297 606.636 56.4769 606.562 57.1057C606.525 57.6975 606.414 58.4742 606.229 59.1769C605.822 60.6193 604.916 61.8214 603.917 62.783C601.864 64.6323 599.349 65.7233 597.019 66.6665C594.67 67.6651 592.118 68.3493 589.659 68.6082C587.18 68.8671 584.758 68.7377 582.501 68.3493C581.373 68.1274 580.282 67.85 579.246 67.4432C578.71 67.2213 578.248 67.0363 577.693 66.648C577.564 66.5555 577.397 66.4446 577.286 66.3521L577.027 66.0932C576.731 65.7418 576.676 65.5939 576.491 65.335C575.418 63.4302 575.104 61.5994 574.734 60.0645C574.642 59.6762 574.568 59.3063 574.475 58.955C574.42 58.5666 574.309 58.1228 574.309 57.7529C574.272 56.9763 574.309 56.2365 574.494 55.6078C574.808 54.3133 575.363 53.3702 576.14 52.7229C576.731 52.2606 576.953 52.1866 576.972 52.1681L577.101 52.0942L577.083 52.0757Z" fill="#3F4E7A"/>
<path d="M550.525 61.7474L545.199 61.6179L546.438 64.5213L551.765 65.2795L550.525 61.7474Z" fill="#2F3B5C"/>
<path d="M548.843 60.8597C548.843 60.8597 548.806 60.8967 548.713 60.9707C548.658 61.0262 548.38 61.2111 548.473 61.2296C548.473 61.2481 548.473 61.2666 548.454 61.2851C548.417 61.3775 548.38 61.47 548.343 61.5809C548.251 61.7844 548.195 62.1172 548.14 62.4686C548.029 63.1898 548.029 64.1514 548.195 65.187C548.38 66.3336 548.584 67.6466 548.861 69.015C549.028 69.6808 549.139 70.4205 549.397 71.0677L549.564 71.5855C549.564 71.5855 549.675 71.8629 549.601 71.752L549.767 71.9924C549.878 72.1403 549.989 72.3437 550.1 72.4732L550.452 72.8061C551.469 73.7677 553.004 74.6184 554.613 75.0437C556.24 75.543 557.997 75.3581 559.643 74.7293C560.549 74.3779 561.326 73.9896 562.047 73.4903C562.732 72.954 563.397 72.3437 563.804 71.604C564.71 70.1246 564.562 68.3863 564.507 66.4445C564.451 65.5569 564.377 64.6692 564.266 63.8186C564.229 63.3932 564.1 63.0234 564.026 62.6165C563.915 62.1727 563.823 61.7289 563.712 61.2851C563.508 60.4529 563.249 59.7132 562.953 59.2509C562.879 59.1399 562.806 59.0105 562.75 58.992C562.695 58.918 562.639 58.8625 562.584 58.8625C562.565 58.8625 562.528 58.844 562.51 58.807C562.51 58.807 562.732 58.844 562.621 58.807H562.547H562.399L561.788 58.6961C560.512 58.6221 558.866 58.6591 557.535 58.7885C556.166 58.9365 554.89 59.1029 553.799 59.3433C552.689 59.5282 551.783 59.8611 551.006 60.0645C550.248 60.2865 549.712 60.5823 549.305 60.7303C548.917 60.8967 548.713 60.9707 548.713 60.9707L548.88 60.8597H548.843ZM547.53 59.1029L547.622 59.0474C547.622 59.0474 547.844 58.9365 548.288 58.7146C548.713 58.5296 549.342 58.1413 550.174 57.8454C551.006 57.5495 552.005 57.1612 553.207 56.9023C554.391 56.5694 555.741 56.366 557.22 56.1626C558.737 55.9961 560.216 55.8482 562.232 55.9776L562.842 56.0701H562.99L563.064 56.1071L563.231 56.1441H563.305C563.471 56.2365 563.638 56.3105 563.804 56.3845C564.156 56.5324 564.414 56.7543 564.655 56.9947C564.932 57.2351 565.08 57.4755 565.247 57.7344C565.875 58.7516 566.079 59.7317 566.301 60.6563C566.393 61.1001 566.504 61.5625 566.56 61.9878C566.634 62.4871 566.745 63.0234 566.763 63.5042C566.837 64.5028 566.782 65.5014 566.708 66.5C566.486 68.2753 566.393 70.6054 565.062 72.3622C563.878 74.156 561.862 75.1916 560.142 75.8759C558.293 76.5786 556.166 76.893 554.317 76.3567C552.43 75.8759 550.803 75.1177 549.36 73.8786C548.972 73.5458 548.639 73.1944 548.436 72.88L548.251 72.6396C548.084 72.3622 548.14 72.3992 548.066 72.2513L547.825 71.6595C547.474 70.8643 547.326 70.1246 547.123 69.4034C546.771 67.961 546.512 66.685 546.272 65.5199C546.032 64.2624 545.976 63.1528 546.069 62.2097C546.124 61.7289 546.179 61.3036 546.309 60.9152C546.383 60.7118 546.438 60.5269 546.494 60.3604C546.605 60.1385 546.734 59.9351 546.864 59.7687C547.141 59.3618 547.215 59.3803 547.308 59.2693C547.4 59.1954 547.437 59.1584 547.437 59.1584L547.511 59.0844L547.53 59.1029Z" fill="#3F4E7A"/>
<path d="M602.031 46.7312C602.031 46.7312 605.175 46.7127 605.859 46.7312C606.544 46.7497 607.191 47.5634 607.394 48.2661C607.598 48.9689 607.801 50.3373 607.82 50.5777C607.857 50.7997 607.357 51.4839 607.043 51.8352C606.728 52.1681 606.562 52.8339 606.562 52.8339L602.031 46.7497V46.7312Z" fill="#3F4E7A"/>
<path d="M605.767 47.0456L612.905 47.2121L615.495 49.6901L607.542 50.8181L605.767 47.0456Z" fill="#3F4E7A"/>
<path d="M546.697 60.0461C546.697 60.0461 545.144 61.1741 544.885 61.47C544.626 61.7659 544.46 62.1912 544.534 62.5611C544.626 62.9309 544.829 63.6891 544.903 64.0035C544.977 64.3179 546.42 64.5213 546.42 64.5213L546.679 60.0461H546.697Z" fill="#3F4E7A"/>
<path d="M564.84 59.3248C564.84 59.3248 569.741 57.0317 575.104 56.8838L575.566 60.0461C575.566 60.0461 568.317 60.4529 565.635 62.857L564.821 59.3248H564.84Z" fill="#3F4E7A"/>
</g>
<defs>
<clipPath id="clip0_5_484">
<rect width="778" height="745" fill="white"/>
</clipPath>
</defs>
</svg>
