<svg width="481" height="409" viewBox="0 0 481 409" fill="none" xmlns="http://www.w3.org/2000/svg">
<g clip-path="url(#clip0_150_258)">
<g style="mix-blend-mode:multiply" opacity="0.6">
<path d="M37.4509 363.189C-23.8312 363.108 0.206349 349.87 37.8633 349.87C78.7108 349.87 108.337 363.281 37.4509 363.189Z" fill="#CDD0D1"/>
</g>
<path d="M40.533 318.583C40.533 318.583 22.0083 318.594 21.813 322.049V322.35C21.813 322.35 22.0517 329.363 22.4316 331.577C22.692 333.131 24.4175 333.513 24.4175 333.513C24.4175 333.513 28.5956 353.567 29.1056 354.68C29.9847 356.605 33.4573 357.845 40.533 357.845C47.6086 357.845 51.0812 356.605 51.9603 354.68C52.4703 353.567 56.6484 333.513 56.6484 333.513C56.6484 333.513 58.3739 333.131 58.6343 331.577C59.0142 329.363 59.2529 322.35 59.2529 322.35V322.049C59.0576 318.594 40.533 318.583 40.533 318.583Z" fill="#E9581C"/>
<g style="mix-blend-mode:multiply" opacity="0.4">
<path d="M40.533 318.583C40.533 318.583 22.0083 318.594 21.813 322.049V322.35C21.813 322.35 22.0517 329.363 22.4316 331.577C22.692 333.131 24.4175 333.513 24.4175 333.513C24.4175 333.513 24.8516 335.588 25.4593 338.44C26.2515 336.504 35.9642 335.716 40.533 335.716C45.1017 335.716 54.8144 336.504 55.6066 338.44C56.2143 335.588 56.6484 333.513 56.6484 333.513C56.6484 333.513 58.3739 333.131 58.6343 331.577C59.0142 329.363 59.2529 322.35 59.2529 322.35V322.049C59.0576 318.594 40.533 318.583 40.533 318.583Z" fill="#E9581C"/>
</g>
<path d="M40.533 318.583C40.533 318.583 22.0083 318.594 21.813 322.049V322.35C21.813 322.35 22.0517 329.363 22.4316 331.577C22.692 333.131 24.4175 333.513 24.4175 333.513C24.4175 333.513 29.0622 334.87 40.533 334.87C52.0037 334.87 56.6484 333.513 56.6484 333.513C56.6484 333.513 58.3739 333.131 58.6343 331.577C59.0142 329.363 59.2529 322.35 59.2529 322.35V322.049C59.0576 318.594 40.533 318.583 40.533 318.583Z" fill="#ED701B"/>
<path d="M59.1663 321.689C57.7772 318.571 40.5331 318.583 40.5331 318.583C40.5331 318.583 23.2891 318.583 21.9 321.689C21.8457 321.805 21.9868 324.159 40.5331 324.019C59.0795 324.159 59.2205 321.805 59.1663 321.689Z" fill="#F2921A"/>
<path d="M58.0592 321.469C57.636 319.104 40.5438 318.849 40.5438 318.849C40.5438 318.849 23.4517 319.104 23.0285 321.469C23.0068 321.585 23.4409 323.428 40.5438 323.301C57.6468 323.428 58.0809 321.585 58.0592 321.469Z" fill="#E9581C"/>
<g style="mix-blend-mode:multiply" opacity="0.4">
<path d="M58.0592 321.469C57.636 319.104 40.5438 318.849 40.5438 318.849C40.5438 318.849 23.4517 319.104 23.0285 321.469C23.0068 321.585 23.4409 323.428 40.5438 323.301C57.6468 323.428 58.0809 321.585 58.0592 321.469Z" fill="#E9581C"/>
</g>
<g style="mix-blend-mode:multiply" opacity="0.4">
<path d="M25.177 322.443C27.3691 322.918 31.7534 323.37 40.5327 323.301C48.9866 323.37 53.36 322.941 55.6281 322.489C56.5071 322.315 52.0143 321.075 40.5327 321.075C29.0512 321.075 24.4499 322.281 25.177 322.431V322.443Z" fill="#5B2816"/>
</g>
<path d="M53.4797 286.23C48.4226 287.992 43.4306 289.927 38.4386 292.049C38.4386 292.049 39.3611 291.62 40.7827 290.959C42.2043 290.287 44.1034 289.371 46.0568 288.362C49.9745 286.334 54.0766 284.039 54.8037 282.184C51.5155 283.447 48.2273 284.815 44.9716 286.264C46.5343 285.14 48.1187 284.039 49.714 282.984C51.3093 281.929 52.8937 280.897 54.5107 279.912C48.3466 281.941 42.226 284.271 36.1597 286.89C36.1597 290.994 36.2899 295.109 36.5503 299.201C41.8245 295.55 47.1638 292.211 52.6224 289.186C49.7574 290.055 46.8816 290.982 44.0275 291.944C47.1529 289.927 50.2783 288.015 53.4689 286.218L53.4797 286.23Z" fill="#007E57"/>
<path d="M36.6373 300.128C36.7133 301.114 36.7675 302.087 36.8652 303.073C36.8652 303.073 37.7768 302.528 39.2201 301.682C40.6526 300.824 42.5843 299.653 44.5702 298.378C46.5779 297.091 48.6398 295.7 50.3219 294.356C52.0365 292.999 53.3279 291.689 53.8271 290.507C48.0212 293.405 42.2696 296.604 36.6265 300.14L36.6373 300.128Z" fill="#007E57"/>
<path d="M36.2137 283.39C36.1812 284.41 36.192 285.43 36.1812 286.45C36.1812 286.45 41.5855 284.224 47.2938 281.709C50.137 280.445 53.0888 279.101 55.4112 277.814C57.7878 276.539 59.5133 275.298 60.0559 274.151C58.8079 274.359 57.549 274.568 56.3119 274.811C57.5056 273.942 58.7102 273.107 59.904 272.284C51.8951 275.24 43.9839 279.008 36.2246 283.39H36.2137Z" fill="#007E57"/>
<path d="M59.6765 264.112C56.6813 264.634 53.7404 265.294 50.7669 266.025C52.2102 265.26 53.6318 264.518 55.086 263.845C56.5402 263.162 57.9944 262.524 59.4269 261.921H59.1773L60.74 261.098C58.0053 261.446 55.3139 261.933 52.59 262.478C53.5559 261.979 54.5217 261.504 55.4876 261.04C56.4643 260.588 57.441 260.159 58.4176 259.753C60.3385 258.907 62.3353 258.247 64.2561 257.609C55.2705 259.116 46.1981 262.362 37.3211 266.581C37.1908 267.775 37.0389 268.969 36.9412 270.175C38.8404 269.201 40.7829 268.285 42.7146 267.416L42.7363 267.474C42.7363 267.474 41.3798 268.32 39.969 269.201C38.5691 270.094 37.1149 271.056 36.8544 271.16C36.8002 271.821 36.7242 272.493 36.6808 273.154C38.4714 272.192 40.2837 271.276 42.0743 270.395C43.0835 269.92 44.1037 269.444 45.1346 269.004C45.1346 269.004 43.7564 269.862 42.0417 270.94C40.3054 271.995 38.1784 273.27 36.6265 273.896L36.4963 275.878C37.9288 274.974 39.9147 274.035 41.5425 273.362C42.3673 273.026 43.1053 272.748 43.6262 272.563C44.1579 272.377 44.4835 272.284 44.4943 272.296C41.7813 273.536 39.1442 274.869 36.4637 276.272C36.4095 277.002 36.3986 277.733 36.3552 278.463C38.9489 277.257 41.5751 276.11 44.2013 275.043C44.2013 275.043 43.0835 275.901 41.5317 276.979C40.0015 278.057 38.0264 279.379 36.2792 280.19C36.2467 280.77 36.2467 281.349 36.2358 281.929C36.2358 281.929 37.9722 281.175 40.6418 280.005C43.268 278.834 46.8167 277.257 50.539 275.6C52.3513 274.765 54.1962 273.919 55.9651 273.084C57.7231 272.238 59.3726 271.392 60.8594 270.58C63.7895 268.923 65.9599 267.381 66.4591 265.781C64.3646 266.117 62.3136 266.57 60.2191 267.033C58.1355 267.497 56.041 268.007 53.9791 268.587C58.0487 266.917 62.1399 265.48 66.242 264.367C62.6934 264.726 59.123 265.202 55.5852 265.828C56.9418 265.225 58.2983 264.645 59.6765 264.124V264.112Z" fill="#007E57"/>
<path d="M38.1673 260.379C37.8851 262.002 37.6898 263.648 37.4619 265.283C47.6087 260.82 54.9773 257.389 59.7739 255.349C60.9894 254.838 62.0203 254.398 62.8994 254.015C63.8001 253.668 64.5272 253.366 65.1023 253.134C65.6667 252.891 66.0899 252.706 66.3829 252.578C66.6651 252.462 66.8061 252.404 66.8061 252.404C64.8636 252.369 62.9536 252.555 60.9677 252.729L62.1289 252.207C62.1289 252.207 61.0871 252.358 59.3724 252.694C57.7012 253.065 55.3463 253.633 52.7743 254.456C47.6412 256.044 41.6617 258.745 38.1565 260.379H38.1673Z" fill="#007E57"/>
<path d="M41.2926 246.434C41.7267 246.04 42.8879 245.263 44.3529 244.278C45.1017 243.803 45.9265 243.281 46.8163 242.713C47.2504 242.435 47.6845 242.157 48.1403 241.867C48.5852 241.589 49.0519 241.311 49.5077 241.021C50.3867 240.453 51.2657 239.885 52.1447 239.317C52.9912 238.749 53.74 238.158 54.4563 237.624C55.1508 237.068 55.6934 236.442 56.1709 235.874C56.3988 235.573 56.5833 235.26 56.7244 234.912C56.8003 234.738 56.8546 234.564 56.9088 234.379C56.9631 234.205 57.0174 234.042 57.0499 233.857C56.4313 233.985 55.8562 234.228 55.2376 234.448C54.6407 234.68 53.9896 234.9 53.3927 235.19C52.2099 235.793 50.9076 236.384 49.7247 237.172L47.8798 238.343C47.283 238.772 46.697 239.212 46.0892 239.653C44.8629 240.534 43.7343 241.542 42.5514 242.563C42.0739 243.838 41.7158 245.148 41.2817 246.434H41.2926Z" fill="#007E57"/>
<path d="M43.3219 241.032C43.4955 240.731 43.68 240.395 43.9079 240.047C44.1358 239.699 44.3963 239.34 44.6567 238.946C45.1993 238.181 45.7636 237.311 46.4473 236.465C47.1201 235.607 47.7713 234.692 48.5309 233.834C48.8999 233.393 49.258 232.953 49.6053 232.512C49.9634 232.072 50.3541 231.666 50.7122 231.237C51.0703 230.82 51.4176 230.391 51.754 229.974C52.1121 229.58 52.4594 229.185 52.7741 228.791C53.0997 228.409 53.371 227.98 53.6857 227.62C53.9896 227.25 54.2609 226.879 54.5105 226.508C54.7601 226.137 54.9662 225.743 55.1616 225.383C55.3678 225.035 55.5414 224.676 55.6716 224.305C55.9429 223.575 56.0623 222.798 55.9864 222.01C53.0237 224.363 50.5277 227.331 48.455 230.588C46.3822 233.845 44.711 237.393 43.311 241.044L43.3219 241.032Z" fill="#007E57"/>
<path d="M40.9348 247.663L40.3379 249.866C40.3379 249.866 41.4231 249.216 43.1269 248.208C43.9517 247.709 44.9609 247.141 46.0353 246.55C47.0988 245.947 48.2383 245.321 49.432 244.73C50.604 244.127 51.7652 243.513 52.9264 242.991C53.4799 242.725 54.0333 242.458 54.5651 242.192C55.086 241.925 55.6177 241.716 56.0952 241.485C56.5727 241.253 57.0177 241.032 57.4192 240.801C57.8207 240.569 58.2114 240.395 58.537 240.186C59.1989 239.792 59.633 239.317 59.8935 238.911C56.8766 239.259 53.5992 240.256 50.4304 241.821C48.7917 242.563 47.2616 243.49 45.6337 244.452C44.8524 244.951 44.071 245.472 43.2897 246.005C42.4975 246.539 41.7053 247.095 40.9565 247.675L40.9348 247.663Z" fill="#007E57"/>
<path d="M40.1098 250.77C39.8276 252.022 39.5021 253.262 39.2525 254.526C40.9454 253.563 42.7143 252.671 44.4072 251.836L44.4289 251.871C44.4289 251.871 43.7887 252.346 42.8011 253.007C41.8136 253.656 40.4679 254.491 39.1222 255.175L38.7424 257.099C40.4353 256.253 42.2151 255.546 42.2151 255.546L43.3871 255.14C43.3871 255.14 42.9965 255.615 42.1934 256.23C41.4012 256.844 40.1532 257.609 38.5471 258.2L38.2866 259.777C39.1548 259.313 40.1749 258.815 41.2493 258.316C42.3345 257.818 43.4957 257.319 44.6243 256.855C46.849 255.917 49.0086 255.14 50.2891 254.607C50.9294 254.34 51.8301 253.865 52.8719 253.401C53.892 252.937 55.0206 252.427 56.0842 251.952C57.1368 251.5 58.1244 251.141 58.8297 250.874C59.5351 250.619 59.9801 250.457 59.9801 250.457C60.6638 250.132 61.3909 249.889 62.0745 249.634C61.3474 249.703 60.6095 249.784 59.8716 249.889C55.4222 250.642 50.8317 251.998 46.3389 253.853C46.3389 253.853 47.0877 253.459 48.2598 252.845C49.4101 252.265 50.9945 251.465 52.6874 250.607C53.5122 250.213 54.3695 249.819 55.2051 249.413C55.6067 249.216 56.0082 249.019 56.4097 248.822C56.8004 248.637 57.1911 248.463 57.5709 248.289C58.3088 247.941 58.96 247.593 59.5026 247.246C60.0669 246.933 60.5118 246.631 60.794 246.318C58.5476 246.562 56.312 247.13 54.0005 247.779C51.7541 248.509 49.4209 249.344 47.1745 250.376C47.1745 250.376 47.8148 250.016 48.8458 249.437C49.8767 248.869 51.2875 248.127 52.72 247.304C55.6826 245.727 58.8189 244.185 59.9692 242.852C53.523 243.617 46.6211 246.666 40.1315 250.77H40.1098Z" fill="#007E57"/>
<path d="M18.8831 286.067C23.8968 288.281 28.9756 290.322 34.0435 292.176C34.0435 292.176 33.0885 291.817 31.6561 291.179C30.2127 290.542 28.281 289.638 26.306 288.536C22.3666 286.369 18.2971 283.401 17.7002 280.99C20.9124 282.822 24.1247 284.549 27.3803 286.195C25.8176 284.931 24.2549 283.633 22.7356 282.288C21.1946 280.955 19.6644 279.587 18.1668 278.173C24.103 281.373 30.1151 284.271 36.1923 286.879C36.1923 290.982 36.3225 295.097 36.5829 299.189C30.9181 296.338 25.2859 293.15 19.773 289.661C22.6705 290.623 25.5572 291.55 28.4655 292.42C25.2533 290.414 22.0411 288.293 18.8939 286.056L18.8831 286.067Z" fill="#00A069"/>
<path d="M36.6371 300.128C36.7131 301.114 36.7674 302.087 36.865 303.073C36.865 303.073 35.8558 302.737 34.3148 302.134C32.7738 301.531 30.701 300.638 28.5414 299.537C26.4036 298.436 24.1897 297.114 22.3774 295.689C20.5868 294.274 19.1543 292.756 18.6226 291.318C24.5695 294.576 30.5708 297.52 36.648 300.128H36.6371Z" fill="#00A069"/>
<path d="M36.2139 283.39C36.1814 284.41 36.1922 285.43 36.1814 286.45C36.1814 286.45 30.7553 284.271 25.2316 280.967C22.4534 279.321 19.6861 277.396 17.5048 275.437C15.3669 273.467 13.7825 271.485 13.5112 269.792C14.6941 270.349 15.8661 270.905 17.0707 271.45C16.0506 270.094 15.0631 268.702 14.0647 267.288C21.1946 273.374 28.6283 278.683 36.2248 283.401L36.2139 283.39Z" fill="#00A069"/>
<path d="M16.7561 256.125C19.2846 258.189 21.9109 260.136 24.5154 262.014C23.3868 260.623 22.2256 259.197 21.1295 257.736C20.0334 256.264 18.9482 254.769 17.8739 253.227L18.1126 253.343L17.1034 251.372C19.3389 253.366 21.6504 255.256 23.9728 257.064C23.2565 256.056 22.5511 255.024 21.8457 253.981C21.1621 252.926 20.4892 251.859 19.8164 250.77C18.449 248.602 17.2227 246.318 15.9747 243.977C22.4101 252.833 29.6919 260.159 37.3209 266.593C37.1907 267.787 37.0388 268.981 36.9411 270.186C35.2265 268.83 33.5661 267.439 31.9057 266.002L31.8731 266.048C31.8731 266.048 32.9909 267.3 34.1629 268.54C35.3567 269.781 36.6264 271.021 36.8651 271.172C36.8109 271.832 36.7349 272.505 36.6915 273.165C35.0637 271.913 33.4684 270.627 31.8623 269.294C30.9507 268.563 30.0608 267.821 29.1709 267.056C29.1709 267.056 30.2779 268.366 31.7972 269.862C33.3056 271.357 35.1722 273.026 36.6372 273.896L36.507 275.878C35.2047 274.788 33.3707 273.525 31.8514 272.516C31.0918 272.018 30.4298 271.577 29.9415 271.276C29.4531 270.975 29.1492 270.801 29.1384 270.812C31.5367 272.713 34.0327 274.533 36.4853 276.284C36.431 277.014 36.4202 277.744 36.3768 278.475C33.8808 277.002 31.4282 275.472 28.9756 273.873C28.9756 273.873 29.9632 274.997 31.3631 276.342C32.7847 277.686 34.6296 279.24 36.3008 280.19C36.2683 280.77 36.2683 281.349 36.2574 281.929C36.2574 281.929 35.8342 281.709 35.0745 281.326C34.3257 280.932 33.2405 280.364 31.9708 279.634C29.4205 278.173 25.9913 276.052 22.638 273.455C20.945 272.168 19.2738 270.754 17.7328 269.27C16.1809 267.787 14.7267 266.233 13.5438 264.645C11.113 261.492 9.62622 258.223 9.79986 255.488C11.5579 257.029 13.3919 258.49 15.2042 259.927C17.0165 261.365 18.8397 262.744 20.7063 264.077C17.2336 260.75 13.8477 257.192 10.6138 253.343C13.6958 255.696 16.7995 257.934 19.99 260.043C18.894 258.768 17.7979 257.458 16.7561 256.114V256.125Z" fill="#00A069"/>
<path d="M38.1673 260.379C37.8852 262.002 37.6898 263.648 37.462 265.283C28.7477 258.177 23.6363 250.178 21.0535 243.814C20.4132 242.226 19.9032 240.743 19.5016 239.421C19.1327 238.088 18.8722 236.917 18.6769 235.955C18.4924 234.993 18.3622 234.24 18.297 233.718C18.2428 233.196 18.2319 232.918 18.2319 232.918C18.7962 234.008 19.4148 235.051 20.0334 236.083C20.652 237.114 21.2814 238.123 21.9217 239.12L21.4984 237.323C21.4984 237.323 22.1062 238.552 23.1154 240.418C24.1789 242.273 25.644 244.765 27.3803 247.304C28.2593 248.579 29.1818 249.866 30.1259 251.117C31.07 252.369 32.0684 253.598 33.0234 254.734C34.9117 257.018 36.7891 259 38.1673 260.379Z" fill="#00A069"/>
<path d="M41.2928 246.434C41.1734 245.855 40.6851 244.51 40.1208 242.644C39.8495 241.716 39.5999 240.673 39.3611 239.514C39.2417 238.946 39.1115 238.343 39.0247 237.729C38.9379 237.114 38.8728 236.488 38.8185 235.839C38.7642 235.19 38.7208 234.541 38.6991 233.869C38.6774 233.208 38.7208 232.547 38.7642 231.875C38.8511 230.542 39.0138 229.197 39.3937 227.945C39.7518 226.693 40.175 225.488 40.8479 224.467C41.1734 223.957 41.5207 223.471 41.8897 223.042C42.0742 222.821 42.2695 222.624 42.4648 222.427C42.671 222.242 42.8989 222.068 43.1268 221.906C42.8664 222.821 42.7361 223.76 42.5734 224.665C42.4323 225.58 42.2586 226.473 42.1718 227.365C42.0199 229.174 41.8354 230.901 41.868 232.628V235.178C41.9222 236.025 41.9765 236.859 42.0307 237.682C42.1176 239.317 42.3563 240.963 42.5625 242.539C42.085 243.814 41.7269 245.124 41.2928 246.411V246.434Z" fill="#00A069"/>
<path d="M42.964 240.882C43.0291 240.534 43.1051 240.14 43.181 239.723C43.2678 239.305 43.3655 238.853 43.474 238.378C43.6802 237.427 43.8756 236.338 44.2011 235.236C44.5158 234.124 44.8197 232.918 45.2972 231.759C45.5142 231.168 45.753 230.576 45.9917 229.985C46.2305 229.394 46.5452 228.838 46.8382 228.281C47.1421 227.725 47.4351 227.168 47.7606 226.647C48.1079 226.137 48.466 225.65 48.8241 225.175C49.1931 224.711 49.5295 224.247 49.9419 223.865C50.3434 223.482 50.745 223.134 51.1465 222.821C51.548 222.508 51.9387 222.23 52.3402 222.022C52.7526 221.824 53.165 221.674 53.5557 221.581C54.3479 221.384 55.0858 221.396 55.7478 221.674C52.7418 224.062 50.2241 227.064 48.1296 230.356C46.0351 233.648 44.3531 237.219 42.9531 240.893L42.964 240.882Z" fill="#00A069"/>
<path d="M40.9346 247.663L40.3378 249.866C40.3378 249.866 39.7192 248.718 38.8402 246.817C38.3844 245.855 37.9394 244.73 37.462 243.444C36.9845 242.157 36.4961 240.731 36.1163 239.224C35.7148 237.706 35.3458 236.106 35.1504 234.483C35.0419 233.672 34.9551 232.86 34.89 232.049C34.8249 231.237 34.8357 230.437 34.8466 229.661C34.8683 228.872 34.9117 228.107 34.9877 227.377C35.0528 226.647 35.2264 225.94 35.3783 225.279C35.7256 223.969 36.1054 222.833 36.7457 221.998C36.4744 226.913 36.8108 231.446 37.6356 235.712C37.9829 237.833 38.5472 239.896 39.0572 241.879C39.3502 242.876 39.6541 243.861 39.9688 244.823C40.2727 245.785 40.5874 246.736 40.9563 247.675L40.9346 247.663Z" fill="#00A069"/>
<path d="M40.1101 250.77C39.8279 252.022 39.5024 253.262 39.2528 254.525C38.0807 252.868 36.9955 251.175 35.8778 249.413L35.8452 249.437C35.8452 249.437 36.1708 250.26 36.7459 251.396C37.3102 252.52 38.1242 253.946 39.1226 255.175L38.7427 257.099C37.5164 255.627 36.1708 254.108 36.1708 254.108L35.27 253.146C35.27 253.146 35.4328 253.807 35.9212 254.781C36.4204 255.754 37.2017 257.006 38.5365 258.2L38.2761 259.777C37.6033 259.023 36.8219 258.154 35.9971 257.226C35.1724 256.299 34.3259 255.302 33.4903 254.305C31.8082 252.311 30.3215 250.318 29.4858 248.961C29.0843 248.289 28.4874 247.246 27.9231 246.005C27.348 244.777 26.7511 243.362 26.2085 242.006C25.6767 240.65 25.2535 239.34 24.9279 238.378C24.6132 237.404 24.4179 236.79 24.4179 236.79C24.1683 235.723 23.9947 234.622 23.7993 233.509C24.1791 234.379 24.5698 235.236 24.9605 236.083C27.4131 241.311 30.1912 246.029 33.2841 250.352C33.2841 250.352 32.8066 249.541 32.1121 248.219C31.4284 246.886 30.5711 245.02 29.7354 242.899C28.1619 238.679 26.9464 233.266 27.7495 230.113C28.5309 233.127 29.5944 235.955 30.6579 238.656C31.8191 241.357 32.9911 243.907 34.3585 246.365C34.3585 246.365 34.0112 245.6 33.512 244.325C33.0345 243.049 32.4593 241.264 31.9276 239.212C30.9726 235.144 30.5277 229.869 31.8625 226.554C32.0361 227.725 32.2206 228.872 32.4268 230.008C32.6438 231.133 32.926 232.234 33.1973 233.312C33.7073 235.48 34.4019 237.555 35.0964 239.56C35.7909 241.566 36.6374 243.502 37.4405 245.368C38.3195 247.246 39.1877 249.042 40.1318 250.804L40.1101 250.77Z" fill="#00A069"/>
<path d="M40.1859 322.57C39.7193 322.744 39.2309 322.489 39.079 321.991C38.4604 319.835 38.0046 317.655 37.6248 315.465C37.2341 313.274 36.9411 311.083 36.6807 308.88C36.1706 304.475 35.8559 300.059 35.6931 295.642C35.3784 286.809 35.6389 277.941 36.5722 269.166C37.5489 260.403 39.155 251.662 42.0199 243.362C43.4741 239.224 45.2539 235.202 47.5111 231.504C49.7684 227.806 52.5357 224.433 55.8673 221.824C52.5791 224.502 49.8878 227.91 47.6956 231.631C45.5035 235.352 43.8105 239.386 42.4323 243.525C39.7193 251.825 38.2759 260.542 37.4512 269.27C36.6807 278.011 36.5613 286.821 37.0171 295.584C37.245 299.966 37.6357 304.336 38.2108 308.672C38.5147 310.839 38.8294 312.995 39.2526 315.128C39.6542 317.261 40.1425 319.383 40.7611 321.423C40.9022 321.887 40.6417 322.397 40.1751 322.57H40.1859Z" fill="#007E57"/>
<g style="mix-blend-mode:multiply" opacity="0.6">
<path d="M438.21 363.189C376.928 363.108 400.966 349.87 438.623 349.87C479.47 349.87 509.096 363.281 438.21 363.189Z" fill="#CDD0D1"/>
</g>
<path d="M441.303 318.583C441.303 318.583 422.778 318.594 422.583 322.049V322.35C422.583 322.35 422.822 329.363 423.202 331.577C423.462 333.131 425.198 333.513 425.198 333.513C425.198 333.513 429.376 353.567 429.887 354.68C430.766 356.605 434.238 357.845 441.314 357.845C448.389 357.845 451.862 356.605 452.741 354.68C453.251 353.567 457.429 333.513 457.429 333.513C457.429 333.513 459.155 333.131 459.426 331.577C459.806 329.363 460.045 322.35 460.045 322.35V322.049C459.849 318.594 441.325 318.583 441.325 318.583H441.303Z" fill="#E9581C"/>
<g style="mix-blend-mode:multiply" opacity="0.4">
<path d="M441.303 318.583C441.303 318.583 422.778 318.594 422.583 322.049V322.35C422.583 322.35 422.822 329.363 423.202 331.577C423.462 333.131 425.198 333.513 425.198 333.513C425.198 333.513 425.632 335.588 426.24 338.44C427.032 336.504 436.745 335.716 441.314 335.716C445.883 335.716 455.595 336.504 456.387 338.44C456.995 335.588 457.429 333.513 457.429 333.513C457.429 333.513 459.155 333.131 459.426 331.577C459.806 329.363 460.045 322.35 460.045 322.35V322.049C459.849 318.594 441.325 318.583 441.325 318.583H441.303Z" fill="#E9581C"/>
</g>
<path d="M441.303 318.583C441.303 318.583 422.778 318.594 422.583 322.049V322.35C422.583 322.35 422.822 329.363 423.202 331.577C423.462 333.131 425.198 333.513 425.198 333.513C425.198 333.513 429.843 334.87 441.314 334.87C452.785 334.87 457.429 333.513 457.429 333.513C457.429 333.513 459.155 333.131 459.426 331.577C459.806 329.363 460.045 322.35 460.045 322.35V322.049C459.849 318.594 441.325 318.583 441.325 318.583H441.303Z" fill="#ED701B"/>
<path d="M459.936 321.689C458.547 318.571 441.303 318.583 441.303 318.583C441.303 318.583 424.059 318.583 422.67 321.689C422.615 321.805 422.756 324.159 441.303 324.019C459.849 324.159 459.99 321.805 459.936 321.689Z" fill="#F2921A"/>
<path d="M458.818 321.469C458.395 319.104 441.303 318.849 441.303 318.849C441.303 318.849 424.211 319.104 423.788 321.469C423.766 321.585 424.2 323.428 441.303 323.301C458.406 323.428 458.84 321.585 458.818 321.469Z" fill="#E9581C"/>
<g style="mix-blend-mode:multiply" opacity="0.4">
<path d="M458.818 321.469C458.395 319.104 441.303 318.849 441.303 318.849C441.303 318.849 424.211 319.104 423.788 321.469C423.766 321.585 424.2 323.428 441.303 323.301C458.406 323.428 458.84 321.585 458.818 321.469Z" fill="#E9581C"/>
</g>
<g style="mix-blend-mode:multiply" opacity="0.4">
<path d="M425.947 322.443C428.139 322.918 432.523 323.37 441.303 323.301C449.757 323.37 454.13 322.941 456.398 322.489C457.277 322.315 452.784 321.075 441.303 321.075C429.821 321.075 425.22 322.281 425.947 322.431V322.443Z" fill="#5B2816"/>
</g>
<path d="M460.512 280.202L444.646 285.314C444.646 285.314 448.607 283.934 452.807 281.952C457.017 279.97 461.467 277.35 462.454 274.823L452.069 279.101C455.53 276.631 459.014 274.162 462.476 271.647C456.062 274.023 449.649 276.33 443.246 278.66C442.627 283.645 441.998 288.641 441.444 293.637C447.326 290.356 453.241 287.215 459.155 284.05L450.18 286.172L460.501 280.19L460.512 280.202Z" fill="#007E57"/>
<path d="M441.325 294.773L440.945 298.366C440.945 298.366 445.026 296.686 449.453 294.356C453.892 292.014 458.689 289 460.099 285.998C453.816 288.884 447.565 291.747 441.314 294.773H441.325Z" fill="#007E57"/>
<path d="M443.778 274.417L443.312 278.138C443.312 278.138 449.009 276.237 455.021 273.467C458.027 272.087 461.12 270.476 463.616 268.784C466.101 267.068 468.011 265.294 468.64 263.556L464.82 264.518L468.63 260.75C460.371 265.515 452.069 269.978 443.767 274.417H443.778Z" fill="#007E57"/>
<path d="M468.661 248.173C465.677 249.576 462.682 250.932 459.697 252.265C462.584 249.819 465.482 247.338 468.336 244.753L468.075 244.8L469.595 243.073C466.892 244.406 464.179 245.704 461.477 246.968C465.275 243.42 469.063 239.769 472.753 235.851C464.038 242.551 455.14 248.37 446.187 253.911L445.709 258.316C447.673 257.134 449.637 255.928 451.58 254.711L451.602 254.781C451.602 254.781 450.234 255.917 448.791 257.076C447.348 258.223 445.828 259.394 445.568 259.51L445.286 261.956L450.842 258.56L453.968 256.682C453.968 256.682 452.578 257.887 450.777 259.255C448.986 260.623 446.783 262.165 445.166 262.872L444.884 265.283C446.382 264.251 448.444 263.162 450.137 262.338C450.983 261.933 451.732 261.585 452.275 261.342C452.817 261.11 453.154 260.982 453.154 261.005C450.386 262.617 447.597 264.193 444.819 265.77L444.494 268.436L452.665 264.576C452.665 264.576 451.472 265.654 449.822 266.941C448.172 268.216 446.056 269.699 444.233 270.546L443.973 272.655C443.973 272.655 445.818 271.948 448.607 270.696C451.396 269.444 455.15 267.682 458.96 265.526C466.578 261.249 474.478 255.325 475.498 249.599C471.288 251.685 467.099 253.702 462.877 255.627C464.95 254.27 467.023 252.903 469.085 251.488C471.146 250.074 473.219 248.66 475.259 247.165C471.7 248.66 468.108 250.063 464.527 251.442L468.64 248.196L468.661 248.173Z" fill="#007E57"/>
<path d="M446.946 246.272L446.36 252.311C456.551 246.342 463.604 239.491 467.989 233.88C469.106 232.501 470.018 231.168 470.799 229.985C471.581 228.791 472.232 227.76 472.709 226.879C473.675 225.093 474.12 224.062 474.12 224.062C472.297 225.685 470.496 227.284 468.618 228.768L469.606 227.134C469.606 227.134 469.367 227.377 468.922 227.806C468.477 228.235 467.848 228.849 467.066 229.614C466.285 230.356 465.352 231.237 464.321 232.211C463.279 233.161 462.129 234.182 460.924 235.225C458.536 237.335 455.867 239.491 453.414 241.438C450.94 243.374 448.639 245.078 446.936 246.272H446.946Z" fill="#007E57"/>
<path d="M448.075 228.733C448.379 228.119 449.313 226.774 450.409 224.92C450.962 223.992 451.592 222.937 452.199 221.79C452.796 220.631 453.415 219.379 453.99 218.046C455.108 215.379 456.052 212.412 456.388 209.456C456.725 206.5 456.464 203.556 455.314 201.191C453.957 209.746 451.168 216.828 448.162 223.702C448.151 225.383 448.13 227.052 448.054 228.733H448.075Z" fill="#007E57"/>
<path d="M448.379 221.593C448.802 218.173 449.887 211.797 449.464 205.619C449.42 204.854 449.301 204.089 449.203 203.335C449.084 202.582 449.008 201.852 448.824 201.133C448.639 200.426 448.455 199.73 448.248 199.069C448.151 198.745 448.042 198.42 447.934 198.107C447.803 197.794 447.662 197.505 447.521 197.215C446.479 194.885 444.873 193.378 443.397 193.158C445.655 197.435 446.762 202.257 447.445 207.056C448.107 211.867 448.368 216.736 448.379 221.593Z" fill="#007E57"/>
<path d="M448.021 230.31C447.999 231.249 447.945 232.176 447.891 233.115C447.891 233.115 448.129 232.837 448.553 232.338C448.976 231.84 449.573 231.11 450.267 230.206C450.973 229.301 451.787 228.212 452.666 226.995C453.523 225.766 454.424 224.398 455.324 222.949C457.104 220.039 458.797 216.736 459.915 213.501C461.011 210.279 461.543 207.126 461.119 204.831C459.492 209.896 457.354 214.278 455.151 218.474C454.022 220.549 452.883 222.578 451.678 224.537C450.506 226.508 449.258 228.42 448.021 230.31Z" fill="#007E57"/>
<path d="M447.826 234.263C447.75 235.839 447.641 237.416 447.522 238.981C449.106 237.462 450.691 235.92 452.243 234.344L452.264 234.379C452.264 234.379 451.711 235.19 450.843 236.268C449.964 237.346 448.748 238.691 447.468 239.78C447.413 240.58 447.359 241.38 447.283 242.18C448.086 241.519 448.911 240.882 449.53 240.395C450.159 239.92 450.582 239.595 450.582 239.595L451.7 238.818C451.7 238.818 450.343 241.635 447.164 243.548L447.001 245.495C448.661 244.151 450.962 242.447 453.1 240.754C455.238 239.062 457.278 237.404 458.461 236.233C459.622 235.063 461.847 232.478 463.681 230.032C464.603 228.814 465.46 227.667 466.068 226.809C466.665 225.94 467.045 225.383 467.045 225.383L468.76 222.369L466.774 224.444C462.791 228.768 458.624 232.651 454.446 236.384C454.446 236.384 455.129 235.654 456.182 234.437C457.235 233.231 458.656 231.539 460.067 229.58C460.772 228.606 461.521 227.586 462.194 226.508C462.867 225.441 463.507 224.34 464.082 223.262C465.233 221.117 466.025 218.95 466.285 217.269C462.585 222.474 458.656 227.11 454.652 231.492C454.652 231.492 455.216 230.774 456.073 229.58C456.931 228.386 458.092 226.705 459.221 224.722C459.785 223.737 460.382 222.705 460.903 221.604C461.423 220.515 461.923 219.379 462.357 218.254C462.802 217.141 463.127 215.982 463.388 214.892C463.637 213.791 463.822 212.771 463.833 211.797C463.247 212.887 462.617 213.919 461.999 214.962C461.369 215.994 460.783 217.025 460.121 217.999C458.808 219.958 457.549 221.882 456.171 223.714C454.825 225.557 453.469 227.354 452.058 229.093C450.68 230.843 449.258 232.547 447.826 234.228V234.263Z" fill="#007E57"/>
<path d="M426.219 275.322L440.283 284.699C440.283 284.699 436.789 282.277 433.218 279.17C429.648 276.063 425.991 272.284 425.644 269.618L434.618 276.62C431.873 273.27 429.138 269.92 426.381 266.616C432.014 270.592 437.624 274.638 443.246 278.66C442.627 283.645 441.998 288.641 441.444 293.637C436.441 288.977 431.493 284.201 426.555 279.448L434.705 284.027L426.197 275.322H426.219Z" fill="#00A069"/>
<path d="M441.325 294.773L440.945 298.366C440.945 298.366 437.288 295.816 433.5 292.327C429.713 288.849 425.795 284.456 425.166 281.106C430.516 285.696 435.899 290.31 441.314 294.773H441.325Z" fill="#00A069"/>
<path d="M443.778 274.417L443.311 278.138C443.311 278.138 438.286 274.696 433.142 270.383C430.57 268.227 427.966 265.874 425.958 263.614C423.929 261.365 422.507 259.22 422.269 257.493L425.763 259.348L422.887 254.954C429.919 261.249 436.854 267.833 443.788 274.429L443.778 274.417Z" fill="#00A069"/>
<path d="M425.286 243.733C427.977 245.542 430.647 247.385 433.327 249.263C430.95 246.388 428.574 243.559 426.143 240.824L426.392 240.917L425.166 239.166C427.63 240.766 430.082 242.4 432.546 244.07C429.388 240.14 426.197 236.303 422.909 232.733C430.896 239.143 438.612 246.411 446.198 253.923L445.72 258.328C444.081 256.682 442.432 255.036 440.772 253.413L440.728 253.471C440.728 253.471 441.835 254.885 442.985 256.345C444.136 257.806 445.34 259.336 445.579 259.51L445.297 261.956L440.652 257.261L438.015 254.699C438.015 254.699 439.111 256.172 440.555 257.934C441.998 259.696 443.788 261.747 445.178 262.86L444.895 265.271C443.68 263.869 441.933 262.269 440.489 261.052C439.762 260.437 439.111 259.916 438.634 259.556C438.156 259.197 437.863 258.988 437.852 259.012C440.196 261.249 442.508 263.498 444.841 265.77L444.516 268.436L437.516 262.536C437.516 262.536 438.428 263.869 439.719 265.549C441.01 267.219 442.692 269.224 444.255 270.546L443.995 272.655C443.995 272.655 442.399 271.45 440.001 269.491C437.603 267.532 434.412 264.796 431.211 261.782C424.808 255.719 418.362 248.614 418.308 243.652C422.062 246.249 425.828 248.903 429.55 251.651C427.803 249.935 426.045 248.231 424.265 246.573C422.497 244.904 420.728 243.258 418.926 241.658C422.225 243.536 425.47 245.495 428.737 247.478L425.286 243.757V243.733Z" fill="#00A069"/>
<path d="M446.947 246.272L446.361 252.311C437.646 244.093 431.721 236.697 427.836 231.608C426.892 230.321 426.035 229.197 425.329 228.2C424.613 227.215 424.059 226.345 423.593 225.673C422.66 224.328 422.236 223.587 422.236 223.587C424.016 224.792 425.828 226.021 427.576 227.365L426.686 225.998C426.686 225.998 426.924 226.195 427.326 226.566C427.738 226.937 428.335 227.481 429.073 228.142C429.811 228.826 430.679 229.626 431.645 230.53C432.589 231.457 433.631 232.478 434.716 233.544C436.908 235.689 439.198 238.111 441.369 240.36C443.507 242.621 445.482 244.73 446.947 246.249V246.272Z" fill="#00A069"/>
<path d="M448.075 228.733C447.804 228.096 447.001 226.682 445.916 224.85C445.395 223.934 444.798 222.914 444.168 221.825C443.528 220.746 442.877 219.599 442.258 218.416C441.629 217.246 440.978 216.063 440.424 214.881C439.882 213.687 439.307 212.563 438.905 211.426C438.048 209.189 437.592 207.126 437.863 205.26C438.352 205.874 438.862 206.5 439.361 207.149L440.761 209.236C441 209.595 441.238 209.943 441.466 210.314L442.128 211.438L443.452 213.745C444.266 215.333 445.123 216.944 445.894 218.614C446.654 220.283 447.457 221.975 448.162 223.691C448.151 225.372 448.129 227.041 448.053 228.722L448.075 228.733Z" fill="#00A069"/>
<path d="M447.989 221.593C447.533 218.161 446.122 211.96 444.765 206.442C444.603 205.746 444.397 205.086 444.245 204.413C444.071 203.753 443.952 203.08 443.778 202.466C443.604 201.84 443.463 201.237 443.333 200.634C443.268 200.333 443.214 200.043 443.17 199.753C443.105 199.475 443.04 199.197 442.986 198.93C442.617 196.728 442.411 194.943 443.062 193.355C445.286 197.562 446.382 202.338 447.066 207.103C447.728 211.89 447.978 216.736 447.999 221.581L447.989 221.593Z" fill="#00A069"/>
<path d="M448.021 230.31C448 231.249 447.945 232.176 447.891 233.115C447.891 233.115 447.077 231.91 445.786 230.008C444.538 228.142 442.845 225.603 441.043 222.903C440.175 221.569 439.242 220.225 438.406 218.903C437.571 217.57 436.702 216.33 436.008 215.124C434.554 212.76 433.523 210.766 433.393 209.305C436.16 211.913 438.688 215.298 441.141 218.869C442.346 220.665 443.55 222.532 444.668 224.444C445.829 226.357 446.925 228.316 448.021 230.31Z" fill="#00A069"/>
<path d="M447.826 234.263C447.75 235.839 447.641 237.416 447.522 238.981C446.176 237.23 444.82 235.491 443.42 233.799L443.398 233.834C443.398 233.834 443.865 234.668 444.614 235.839C445.351 237.01 446.35 238.494 447.468 239.792C447.413 240.592 447.359 241.392 447.283 242.192C446.61 241.403 445.894 240.627 445.341 240.059C444.787 239.491 444.418 239.108 444.418 239.108L443.42 238.181C443.42 238.181 444.396 241.079 447.175 243.571L447.012 245.519C445.59 243.861 443.648 241.774 441.77 239.815C439.882 237.856 438.113 236.013 437.06 234.808C435.997 233.602 434.141 230.982 432.427 228.791C431.58 227.69 430.81 226.67 430.234 225.951C429.648 225.233 429.279 224.78 429.279 224.78L427.63 222.404L429.572 224.05C433.523 227.528 437.288 231.423 441.032 235.468C441.032 235.468 440.446 234.68 439.513 233.44C438.612 232.199 437.386 230.507 436.051 228.675C435.422 227.771 434.76 226.821 434.109 225.882C433.457 224.954 432.839 224.039 432.285 223.146C431.189 221.361 430.256 219.819 429.974 218.556C433.902 222.195 437.679 226.415 441.336 230.878C441.336 230.878 440.826 230.148 440.045 228.988C439.274 227.818 438.232 226.206 437.126 224.479C436.572 223.61 436.029 222.694 435.487 221.79C434.933 220.897 434.402 219.993 433.935 219.112C433.479 218.219 433.023 217.408 432.687 216.62C432.34 215.843 432.112 215.078 431.96 214.417C432.687 215.078 433.371 215.82 434.076 216.539C434.771 217.269 435.498 217.999 436.171 218.787C437.516 220.352 438.916 221.952 440.208 223.644C441.532 225.325 442.834 227.064 444.093 228.838C445.373 230.611 446.621 232.431 447.847 234.274L447.826 234.263Z" fill="#00A069"/>
<path d="M440.945 322.57C440.478 322.756 439.979 322.373 439.816 321.736C439.741 321.388 439.621 321.04 439.589 320.693L439.448 319.649L439.317 318.606L439.263 317.574C439.154 316.195 439.165 314.827 439.165 313.459C439.187 312.091 439.23 310.735 439.296 309.379C439.393 308.023 439.447 306.666 439.567 305.322C440.001 299.92 440.63 294.553 441.292 289.197C442.638 278.486 444.147 267.81 445.394 257.111C446.642 246.411 447.706 235.665 447.934 224.885C448.042 219.495 447.945 214.093 447.348 208.737C446.729 203.405 445.655 198.038 443.213 193.285C445.72 198.003 446.87 203.37 447.565 208.714C448.238 214.069 448.401 219.495 448.368 224.896C448.292 235.712 447.359 246.492 446.263 257.226C445.156 267.961 443.788 278.672 442.595 289.383C442.009 294.738 441.455 300.094 441.097 305.461C440.989 306.805 440.956 308.138 440.88 309.483C440.837 310.816 440.804 312.161 440.804 313.494C440.826 314.827 440.837 316.16 440.956 317.47L441.021 318.455L441.162 319.417L441.303 320.38C441.336 320.704 441.444 320.994 441.52 321.295C441.661 321.84 441.39 322.431 440.923 322.605L440.945 322.57Z" fill="#007E57"/>
<g style="mix-blend-mode:multiply">
<path d="M225.497 357.845C340.691 357.845 434.075 350.101 434.075 340.549C434.075 330.997 340.691 323.254 225.497 323.254C110.302 323.254 16.9185 330.997 16.9185 340.549C16.9185 350.101 110.302 357.845 225.497 357.845Z" fill="#898B8E"/>
</g>
<path d="M77.0938 136.739V313.76C77.1155 329.352 88.9443 341.987 103.53 341.987H198.367V136.739H77.0938Z" fill="#BAA68B"/>
<g style="mix-blend-mode:multiply">
<path d="M120.632 136.739V305.217C120.632 322.106 109.954 336.307 95.4229 340.607C97.984 341.488 100.708 341.975 103.54 341.975H198.377V136.739H120.632Z" fill="#BAA68B"/>
</g>
<g style="mix-blend-mode:multiply">
<path d="M185.116 177.334H164.041V154.823H185.116V177.334Z" fill="#67481E"/>
<path d="M173.222 170.819L168.718 165.719L169.847 164.583L173.254 168.443L179.343 161.94L180.439 163.122L173.222 170.819Z" fill="#D1B78C"/>
<path d="M155.685 154.753H90.3442V163.922H155.685V154.753Z" fill="#67481E"/>
<path d="M155.685 170.043H90.3442V177.346H155.685V170.043Z" fill="#D1B78C"/>
<path d="M185.116 217.941H164.041V195.429H185.116V217.941Z" fill="#67481E"/>
<path d="M173.222 211.426L168.718 206.326L169.847 205.19L173.254 209.05L179.343 202.547L180.439 203.718L173.222 211.426Z" fill="#D1B78C"/>
<path d="M155.685 195.348H90.3442V204.517H155.685V195.348Z" fill="#67481E"/>
<path d="M155.685 210.638H90.3442V217.941H155.685V210.638Z" fill="#D1B78C"/>
<path d="M185.116 258.536H164.041V236.024H185.116V258.536Z" fill="#67481E"/>
<path d="M173.222 252.021L168.718 246.921L169.847 245.785L173.254 249.645L179.343 243.153L180.439 244.324L173.222 252.021Z" fill="#D1B78C"/>
<path d="M155.685 235.955H90.3442V245.124H155.685V235.955Z" fill="#67481E"/>
<path d="M155.685 251.245H90.3442V258.548H155.685V251.245Z" fill="#D1B78C"/>
<path d="M185.116 299.143H164.041V276.631H185.116V299.143Z" fill="#67481E"/>
<path d="M173.222 292.628L168.718 287.528L169.847 286.392L173.254 290.252L179.343 283.749L180.439 284.919L173.222 292.628Z" fill="#D1B78C"/>
<path d="M155.685 276.55H90.3442V285.719H155.685V276.55Z" fill="#67481E"/>
<path d="M155.685 291.84H90.3442V299.143H155.685V291.84Z" fill="#D1B78C"/>
</g>
<path d="M259.084 0.0579529L174.285 0.127505C154.155 0.127505 137.833 17.5619 137.833 39.065V305.205C137.833 325.503 122.423 341.964 103.421 341.964H259.095V0.0579529H259.084Z" fill="#DFD6BF"/>
<path d="M176.141 0.139097C189.392 10.711 198.084 27.8208 198.182 47.2141L198.366 81.9321V341.987H259.084V0.0579529L176.141 0.127505V0.139097Z" fill="#C8B9A4"/>
<path d="M344.708 90.0234L344.524 56.395C344.35 25.2589 320.714 0.0811486 291.554 0.0115967L177.78 0.150701C177.78 0.150701 223.435 -0.278203 223.435 60.2552V120.788L223.457 341.975H344.708V90.0234Z" fill="#F7F4E7"/>
<path d="M334.952 96.1323H313.877V73.6207H334.952V96.1323Z" fill="#67481E"/>
<path d="M323.046 89.6176L318.554 84.5172L319.682 83.3812L323.079 87.2413L329.167 80.7382L330.263 81.9206L323.046 89.6176Z" fill="white"/>
<path d="M305.52 73.5396H240.18V82.7088H305.52V73.5396Z" fill="#67481E"/>
<path d="M305.52 88.841H240.18V96.1439H305.52V88.841Z" fill="#D1B78C"/>
<path d="M334.952 136.739H313.877V114.227H334.952V136.739Z" fill="#67481E"/>
<path d="M323.046 130.224L318.554 125.124L319.682 123.988L323.079 127.848L329.167 121.345L330.263 122.516L323.046 130.224Z" fill="white"/>
<path d="M305.52 114.146H240.18V123.316H305.52V114.146Z" fill="#67481E"/>
<path d="M305.52 129.436H240.18V136.739H305.52V129.436Z" fill="#D1B78C"/>
<path d="M334.952 177.334H313.877V154.823H334.952V177.334Z" fill="#67481E"/>
<path d="M323.046 170.82L318.554 165.719L319.682 164.583L323.079 168.443L329.167 161.94L330.263 163.122L323.046 170.82Z" fill="white"/>
<path d="M305.52 154.753H240.18V163.922H305.52V154.753Z" fill="#67481E"/>
<path d="M305.52 170.043H240.18V177.346H305.52V170.043Z" fill="#D1B78C"/>
<path d="M334.952 217.941H313.877V195.429H334.952V217.941Z" fill="#67481E"/>
<path d="M323.046 211.426L318.554 206.326L319.682 205.19L323.079 209.05L329.167 202.547L330.263 203.718L323.046 211.426Z" fill="white"/>
<path d="M305.52 195.348H240.18V204.517H305.52V195.348Z" fill="#67481E"/>
<path d="M305.52 210.638H240.18V217.941H305.52V210.638Z" fill="#D1B78C"/>
<path d="M334.952 258.536H313.877V236.024H334.952V258.536Z" fill="#67481E"/>
<path d="M323.046 252.021L318.554 246.921L319.682 245.785L323.079 249.645L329.167 243.153L330.263 244.324L323.046 252.021Z" fill="white"/>
<path d="M305.52 235.955H240.18V245.124H305.52V235.955Z" fill="#67481E"/>
<path d="M305.52 251.245H240.18V258.548H305.52V251.245Z" fill="#D1B78C"/>
<path d="M334.952 299.143H313.877V276.631H334.952V299.143Z" fill="#67481E"/>
<path d="M323.046 292.628L318.554 287.528L319.682 286.392L323.079 290.252L329.167 283.749L330.263 284.919L323.046 292.628Z" fill="white"/>
<path d="M305.52 276.55H240.18V285.719H305.52V276.55Z" fill="#67481E"/>
<path d="M305.52 291.84H240.18V299.143H305.52V291.84Z" fill="#D1B78C"/>
<g style="mix-blend-mode:multiply">
<path d="M321.788 371.894C318.956 375.256 333.552 388.123 405.415 383.672C436.723 381.736 435.15 376.299 427.901 371.906C421.096 367.779 402.908 361.392 376.863 362.087C351.87 362.748 327.334 365.31 321.788 371.894Z" fill="#CDD0D1"/>
</g>
<g style="mix-blend-mode:multiply">
<path d="M359.391 376.531V377.273C359.391 377.54 359.51 377.795 359.716 377.945C360.508 378.525 362.994 379.731 369.472 379.163C378.121 378.397 382.267 376.102 383.992 375.14C384.253 375.001 384.405 374.723 384.405 374.41V372.88C384.405 372.88 360.259 375.407 359.391 376.531Z" fill="#262226"/>
</g>
<g style="mix-blend-mode:multiply">
<path d="M359.391 376.531V377.273C359.391 377.54 359.51 377.795 359.716 377.945C360.508 378.525 362.994 379.731 369.472 379.163C378.121 378.397 382.267 376.102 383.992 375.14C384.253 375.001 384.405 374.723 384.405 374.41V372.88C384.405 372.88 360.259 375.407 359.391 376.531Z" fill="#262226"/>
</g>
<path d="M359.391 376.531C357.069 373.935 373.39 362.632 374.649 362.632L383.656 363.235C384.655 363.873 385.273 367.814 384.969 372.706C384.524 375.963 363.45 381.087 359.38 376.531H359.391Z" fill="#262226"/>
<g style="mix-blend-mode:multiply" opacity="0.3">
<path d="M372.055 373.436C369.689 371.662 369.147 368.544 365.761 368.544C361.778 371.709 358.219 375.221 359.391 376.531C361.919 379.371 371.046 378.455 377.677 376.566C378.74 373.436 373.553 374.56 372.055 373.436Z" fill="#262226"/>
</g>
<g style="mix-blend-mode:multiply">
<path d="M415.822 376.531V377.273C415.822 377.54 415.702 377.795 415.496 377.945C414.704 378.525 412.219 379.731 405.74 379.163C397.091 378.397 392.945 376.102 391.22 375.14C390.96 375.001 390.808 374.723 390.808 374.41V372.88C390.808 372.88 414.954 375.407 415.822 376.531Z" fill="#262226"/>
</g>
<g style="mix-blend-mode:multiply">
<path d="M415.822 376.531V377.273C415.822 377.54 415.702 377.795 415.496 377.945C414.704 378.525 412.219 379.731 405.74 379.163C397.091 378.397 392.945 376.102 391.22 375.14C390.96 375.001 390.808 374.723 390.808 374.41V372.88C390.808 372.88 414.954 375.407 415.822 376.531Z" fill="#262226"/>
</g>
<path d="M415.822 376.531C418.145 373.935 401.823 362.632 400.564 362.632L391.557 363.235C390.558 363.873 389.94 367.814 390.244 372.706C390.689 375.963 411.764 381.087 415.833 376.531H415.822Z" fill="#262226"/>
<g style="mix-blend-mode:multiply" opacity="0.3">
<path d="M403.158 373.436C405.523 371.662 406.066 368.544 409.452 368.544C413.434 371.709 416.994 375.221 415.822 376.531C413.293 379.371 404.167 378.455 397.536 376.566C396.473 373.436 401.66 374.56 403.158 373.436Z" fill="#262226"/>
</g>
<path d="M402.55 246.33H370.058C370.058 246.33 367.779 260.136 367.877 270.453C367.975 280.77 370.395 360.001 370.395 360.001C370.395 360.001 369.386 365.31 375.289 366.214C384.144 367.571 385.555 364.267 385.555 364.267C385.555 364.267 384.872 306.689 385.903 282.555C386.944 306.689 389.646 364.267 389.646 364.267C389.646 364.267 391.046 367.571 399.913 366.214C405.816 365.31 404.807 360.001 404.807 360.001C404.807 360.001 405.013 281.558 405.013 272.725C405.013 263.892 402.539 246.33 402.539 246.33H402.55Z" fill="#312E39"/>
<path d="M396.993 193.598L392.718 192.532L392.468 192.96C389.538 197.899 382.788 197.899 379.858 192.96L379.608 192.532L375.332 193.598L362.961 197.655L368.561 229.881L369.516 245.472C369.592 247.315 371.013 248.764 372.739 248.764H399.609C401.334 248.764 402.756 247.315 402.832 245.472L403.787 229.881L409.386 197.655L397.015 193.598H396.993Z" fill="#D90041"/>
<path d="M392.718 184.371H379.608V193.528L380.78 196.542C382.766 201.678 389.571 201.678 391.557 196.542L392.729 193.528V184.371H392.718Z" fill="#F4A48B"/>
<path d="M376.244 179.467H376.613V174.448C376.613 173.88 376.179 173.416 375.647 173.416C375.116 173.416 374.682 173.88 374.682 174.448V177.798C374.682 178.714 375.376 179.467 376.244 179.467Z" fill="#F4A48B"/>
<path d="M387.151 162.833H380.867C378.523 162.833 376.613 164.861 376.613 167.377V178.146C376.613 181.461 377.514 184.719 379.196 187.501L380.672 189.947C381.66 191.569 383.342 192.555 385.154 192.555H387.172C388.985 192.555 390.678 191.569 391.654 189.947L393.13 187.501C394.812 184.707 395.713 181.461 395.713 178.146V167.887C395.713 165.105 393.597 162.844 390.992 162.844H387.151V162.833Z" fill="#F5BEAD"/>
<path d="M396.071 179.467H395.702V174.448C395.702 173.88 396.136 173.416 396.668 173.416C397.2 173.416 397.634 173.88 397.634 174.448V177.798C397.634 178.714 396.939 179.467 396.071 179.467Z" fill="#F4A48B"/>
<path d="M379.5 161.152C378.078 160.642 376.603 161.766 376.603 163.366V174.239C376.603 174.239 377.113 170.901 378.762 169.707C381.443 167.771 380.173 163.807 380.173 163.807C380.173 163.807 382.224 167.771 389.593 166.983C395.268 166.368 395.691 172.164 395.691 172.164L395.811 168.235C395.909 165.082 396.136 163.123 391.448 160.712C386.76 158.3 382.246 159.425 379.489 161.152H379.5Z" fill="#251D27"/>
<path d="M335.396 234.124L354.8 239.769C358.446 240.708 362.19 238.621 363.558 234.889L367.823 225.673L362.95 197.644C362.95 197.644 358.045 224.769 354.735 227.389C345.977 227.389 335.57 226.473 335.57 226.473L335.407 234.112L335.396 234.124Z" fill="#C1154C"/>
<path d="M406.12 252.984C404.774 255.07 408.909 260.391 408.909 260.391C408.909 260.391 421.28 247.686 429.289 231.863C430.374 229.73 429.517 226.89 428.171 224.931L409.376 197.644L406.174 216.075L418.643 230.182C418.643 230.182 411.329 244.916 406.131 252.972L406.12 252.984Z" fill="#C1154C"/>
<path d="M333.118 341.941L342.028 380.994C342.071 381.272 342.44 381.272 342.505 381.006L353.075 342.335L333.118 341.941Z" fill="#F8CCC7"/>
<path d="M339.771 342.08L342.028 380.982C342.071 381.261 342.44 381.261 342.505 380.994L346.423 342.207L339.771 342.08Z" fill="#FADBD6"/>
<path d="M340.291 373.367L342.027 380.994C342.071 381.272 342.44 381.272 342.505 381.006L344.567 373.482L340.291 373.378V373.367Z" fill="#3C3C3B"/>
<path d="M350.199 163.331L353.531 163.401C355.365 163.436 356.83 165.059 356.797 167.018L353.086 342.346L349.646 348.942L346.434 342.219L350.21 163.343L350.199 163.331Z" fill="#FEEE5D"/>
<path d="M343.547 163.204L350.199 163.331L346.423 342.219L342.983 348.815L339.771 342.08L343.547 163.204Z" fill="#4B474B"/>
<path d="M340.215 163.134L343.547 163.204L339.771 342.08L336.33 348.676L333.118 341.952L336.83 166.623C336.862 164.664 338.381 163.099 340.215 163.134Z" fill="#FEEE5D"/>
<path d="M405.654 261.04C405.654 261.04 405.632 261.029 405.632 261.017C404.894 260.391 403.907 260.194 403.006 260.472C401.812 260.843 400.195 261.365 399.403 261.608C398.958 261.747 398.459 261.724 398.047 261.492C397.135 260.959 397.374 259.904 398.047 259.684L403.679 257.899L403.646 257.818C403.505 257.412 403.093 257.203 402.702 257.319L397.211 259.058C396.766 259.197 396.267 259.174 395.854 258.942C394.943 258.409 395.182 257.354 395.854 257.134L402.333 255.082L402.203 254.723C402.062 254.317 401.649 254.108 401.259 254.224L395.854 255.928C395.409 256.067 394.91 256.044 394.498 255.812C393.586 255.279 393.825 254.224 394.498 254.004L400.716 252.045C400.575 251.639 400.163 251.43 399.772 251.546L395.995 252.74C395.551 252.879 395.051 252.856 394.639 252.624C393.727 252.091 393.966 251.036 394.639 250.816L399.295 249.344C400.011 249.112 400.781 249.24 401.411 249.68L406.392 253.192C407.325 253.853 408.02 254.838 408.334 255.998L409.051 258.617C409.387 259.823 408.736 261.087 407.607 261.446C406.913 261.666 406.175 261.515 405.611 261.029L405.654 261.04Z" fill="#F5BEAD"/>
<path d="M336.547 232.049C336.547 232.049 336.558 232.025 336.569 232.025C337.1 231.191 337.979 230.692 338.934 230.681C340.172 230.658 341.865 230.634 342.689 230.623C343.156 230.623 343.623 230.437 343.948 230.078C344.675 229.278 344.154 228.339 343.438 228.351L337.567 228.432V228.351C337.6 227.922 337.925 227.586 338.338 227.586L344.068 227.505C344.534 227.505 345.001 227.319 345.326 226.96C346.053 226.16 345.533 225.221 344.816 225.233L338.066 225.325L338.088 224.943C338.11 224.514 338.446 224.178 338.848 224.178L344.48 224.097C344.947 224.097 345.413 223.911 345.739 223.552C346.466 222.752 345.945 221.813 345.229 221.824L338.75 221.917C338.772 221.488 339.108 221.152 339.51 221.152L343.449 221.094C343.916 221.094 344.382 220.909 344.708 220.549C345.435 219.75 344.914 218.811 344.198 218.822L339.347 218.892C338.598 218.892 337.893 219.263 337.426 219.877L333.649 224.804C332.944 225.731 332.553 226.89 332.575 228.096L332.618 230.831C332.64 232.083 333.606 233.092 334.778 233.069C335.494 233.069 336.167 232.675 336.58 232.037L336.547 232.049Z" fill="#F5BEAD"/>
<g style="mix-blend-mode:multiply">
<path d="M263.979 378.907C254.407 389.781 248.948 380.02 213.809 383.904C176.977 387.984 165.897 384.24 164.931 376.867C164.291 371.987 172.278 367.965 191.649 368.44C204.585 368.753 221.916 369.356 233.94 368.533C263.914 366.504 268.352 373.934 263.979 378.907Z" fill="#CDD0D1"/>
</g>
<path d="M219.994 364.348C219.994 364.348 220.483 368.556 220.689 370.816C220.797 371.906 220.667 375.708 220.873 377.505C221.079 379.302 223.098 380.183 225.344 379.893C227.591 379.591 230.575 377.609 233.733 377.25C238.041 376.751 242.013 375.372 242.74 373.853C244.987 369.135 232.637 369.576 229.978 368.37C227.33 367.165 226.723 363.455 226.723 363.455C226.723 363.455 221.318 363.513 219.983 364.348H219.994Z" fill="#F5BEAD"/>
<path d="M186.874 361.856C186.874 361.856 187.069 366.295 186.657 368.707C186.473 369.785 185.539 373.123 185.42 374.931C185.301 376.74 186.885 378.038 188.86 378.247C190.846 378.444 193.006 377.064 195.805 376.89C198.877 376.705 202.599 374.897 203.359 373.494C204.65 371.118 204.238 368.973 200.494 368.382C199.137 368.162 196.804 368.776 194.72 367.014C192.647 365.252 192.821 362.458 192.821 362.458C192.821 362.458 188.165 361.334 186.874 361.867V361.856Z" fill="#F5BEAD"/>
<path d="M231.248 368.718C229.816 370.747 227.559 372.149 224.466 372.149C223.044 372.149 221.796 371.86 220.722 371.338C220.765 372.822 219.767 374.839 220.374 379.302C222.306 381.295 229.588 379.22 234.081 378.386C238.356 377.598 242.024 375.36 242.752 373.83C244.738 369.657 235.296 369.53 231.259 368.707L231.248 368.718Z" fill="#262226"/>
<path d="M190.596 371.384C193.309 371.384 195.284 370.005 196.543 367.999C198.952 368.324 201.958 367.826 202.924 367.976C206.668 368.567 206.375 371.21 204.4 373.517C203.402 374.688 199.658 376.995 196.652 377.853C193.396 378.78 187.46 379.533 185.409 377.98C184.628 375.233 185.756 371.037 186.386 369.935C187.514 370.828 188.914 371.373 190.596 371.373V371.384Z" fill="#262226"/>
<path d="M187.688 252.149C187.688 252.149 186.223 258.038 186.223 271.114C186.223 277.234 186.744 303.165 187.46 317.574C187.645 321.214 185.149 354.437 184.215 364.684C184.215 364.684 190.607 367.281 196.044 364.742C196.044 364.742 200.428 335.136 201.655 312.543C202.111 304.104 202.718 288.258 203.521 286.902C203.521 286.902 210.25 318.919 211.042 322.536C211.313 323.788 217.705 365.611 217.835 367.003C217.835 367.003 225.345 368.266 228.622 365.426C228.622 365.426 227.917 333.618 226.354 320.217C225.757 315.105 225.236 292.86 223.88 267.056C223.402 257.991 221.351 251.187 221.351 251.187C221.351 251.187 192.181 251.952 187.71 252.161L187.688 252.149Z" fill="#1D3B6E"/>
<path d="M172.375 264.842C171.659 265.387 170.661 266.268 170.52 268.158C170.379 270.047 170.889 274.591 171.268 276.411C171.757 278.764 174.578 284.549 176.119 283.308C177.053 282.555 176.13 279.715 175.837 277.026C175.566 274.568 175.967 272.215 176.065 272.087C176.271 271.832 177.139 274.649 177.639 275.229C178.127 275.808 179.299 275.889 179.516 275.484C179.581 275.356 179.125 274.081 179.071 272.806C179.017 271.682 178.767 269.815 178.333 267.961C178.17 267.242 176.944 264.506 175.967 263.961C175.381 263.637 173.743 263.799 172.364 264.831L172.375 264.842Z" fill="#F5BEAD"/>
<path d="M250.457 156.423C250.457 156.423 250.967 150.534 251.607 149.931C252.248 149.34 253.474 147.984 253.702 147.334C253.962 146.569 254.483 138.895 253.995 137.655C253.376 136.079 248.786 134.085 248.449 133.957C248.232 128.961 249.48 124.301 247.375 123.965C245.693 123.698 245.726 128.3 245.443 133.575C245.226 137.806 243.761 144.61 244.022 145.769C244.185 146.488 244.781 148.076 244.879 148.772C244.977 149.467 243.989 155.947 243.989 155.947L250.446 156.423H250.457Z" fill="#F5BEAD"/>
<path d="M190.705 201.712C187.341 204.181 173.265 223.83 169.228 232.93C166.928 238.123 168.935 264.1 169.489 265.074C171.073 267.822 177.02 264.645 177.346 262.802C178.019 258.977 177.552 246.666 179.05 240.024C179.864 236.407 182.262 229.869 186.407 225.476C186.527 227.458 185.93 241.844 187.341 251.036C188.751 260.229 220.092 259.359 222.86 251.987C225.638 244.614 221.427 222.543 226.539 212.609C226.539 212.609 238.953 197.4 245.91 181.705C249.708 173.138 252.323 162.276 251.987 154.382C251.922 152.852 245.486 150.673 244.032 152.168C242.513 153.722 242.589 163.621 237.087 173.95C231.466 184.487 223.413 191.5 221.33 192.624C219.235 193.737 195.339 198.304 190.705 201.724V201.712Z" fill="#43B3DF"/>
<path d="M214.688 191.175C214.688 191.175 214.742 192.149 214.352 195.905C213.918 200.02 201.351 202.605 201.969 198.339C202.512 194.583 203.141 191.778 203.141 191.778L214.688 191.175Z" fill="#F5BEAD"/>
<path d="M219.897 178.668C219.897 178.668 221.015 178.007 221.351 179.085C221.688 180.163 220.852 184.417 218.975 185.345C218.975 185.345 219.105 180.047 219.886 178.668H219.897Z" fill="#F5BEAD"/>
<path d="M199.245 178.679C199.245 178.679 198.128 178.018 197.791 179.096C197.455 180.174 198.193 184.429 200.059 185.356C200.059 185.356 200.027 180.059 199.245 178.679Z" fill="#F5BEAD"/>
<path d="M218.269 166.913C222.057 172.93 219.908 187.13 216.261 190.967C213.939 193.413 210.944 195.569 208.296 195.754C205.919 195.928 203.847 194.351 202.512 192.671C199.278 188.544 197.976 174.471 200.754 169C204.747 161.117 213.472 159.297 218.269 166.925V166.913Z" fill="#4A2A15"/>
<g style="mix-blend-mode:multiply">
<path d="M16.8103 396.295C13.9779 399.657 28.574 412.524 100.437 408.073C131.745 406.137 130.172 400.7 122.923 396.307C116.118 392.18 97.9301 385.793 71.8849 386.489C46.8924 387.149 22.3557 389.711 16.8103 396.295Z" fill="#CDD0D1"/>
</g>
<path d="M56.3552 391.183C56.3552 391.183 51.5477 395.693 51.2547 397.698C50.8966 400.132 53.8049 400.364 53.8049 400.364C53.8049 400.364 66.936 398.823 70.7343 396.226C74.5325 393.629 69.8553 389.804 66.8275 389.804C63.7998 389.804 58.6341 389.236 56.3443 391.183H56.3552Z" fill="#8ECAE5"/>
<path d="M67.6091 389.873C67.6091 389.873 53.6207 386.952 48.5961 390.198C43.5716 393.455 40.533 399.135 41.7484 400.932C42.9639 402.717 53.1649 401.744 55.5958 400.121C58.0267 398.498 56.974 392.482 56.3554 391.172C58.4065 390.337 65.4929 390.036 68.2277 390.685C70.9624 391.334 67.6091 389.873 67.6091 389.873Z" fill="#262226"/>
<path d="M79.199 322.014C75.0101 320.067 70.2894 319.788 65.9377 321.261C59.5892 323.405 50.9617 327.555 48.3138 332.215C45.2318 337.652 43.7884 361.832 44.5481 363.78C45.3077 365.727 61.2604 376.207 71.2552 376.844C79.2967 377.354 90.8976 374.607 91.5488 372.416C92.1999 370.225 94.099 340.932 92.9487 336.33C92.4386 334.302 86.8823 325.596 79.199 322.014Z" fill="#E30A00"/>
<path d="M80.7291 302.899C80.5772 299.189 75.6503 299.954 72.2102 299.572C68.7701 299.954 63.8323 299.189 63.6912 302.899C63.5393 306.643 64.0168 317.4 64.3098 320.148C64.6028 322.86 68.4988 328.088 72.2102 328.088C75.9216 328.088 79.8284 322.872 80.1106 320.148C80.4036 317.4 80.8811 306.643 80.7291 302.899Z" fill="#F5BEAD"/>
<path d="M80.0453 296.129C77.8315 294.228 75.6611 293.834 72.2101 293.834C68.7591 293.834 66.6321 294.286 64.3748 296.129C61.0649 298.807 62.8121 310.086 63.116 311.152C63.4198 312.207 63.8214 311.419 63.8214 311.419C63.8214 311.419 63.7671 305.913 65.829 305.345C67.8801 304.777 69.4645 307.42 72.2209 307.42C74.9774 307.42 76.5618 304.777 78.6129 305.345C80.6639 305.913 80.6205 311.419 80.6205 311.419C80.6205 311.419 81.1305 312.636 81.4344 311.581C81.7383 310.526 83.7351 299.294 80.067 296.141L80.0453 296.129Z" fill="#66140B"/>
<path d="M63.8109 311.407C63.8109 311.407 63.214 310.329 62.1614 310.248C61.1196 310.167 61.7924 313.679 62.1071 315.024C62.4218 316.369 63.6047 316.879 64.0279 316.102L63.8109 311.407Z" fill="#F4A48B"/>
<path d="M45.0801 361.253C45.0801 361.253 60.0235 367.999 74.3158 366.945C83.0192 366.295 96.6387 363.699 96.6387 363.699C96.6387 363.699 101.349 372.161 97.8541 375.407C94.3489 378.664 73.4042 388.088 58.8406 381.423C44.277 374.758 43.7561 362.377 45.0801 361.253Z" fill="#0D4682"/>
<path d="M64.071 386.952C64.071 386.952 81.7492 373.946 88.1411 369.518C93.7082 365.658 104.398 356.384 109.422 364.186C114.447 371.987 107.599 378.977 101.967 383.046C97.0616 386.581 76.6487 396.493 71.635 399.379C69.0521 399.541 63.6369 391.659 64.071 386.941V386.952Z" fill="#1D66AF"/>
<path d="M74.7172 392.806C74.7172 392.806 80.5448 396.724 86.4918 398.278C87.8157 398.602 88.9661 398.834 89.9536 399.008C92.1783 399.402 93.7953 396.817 92.6124 394.754C91.2559 392.377 89.4327 389.769 87.501 388.575C83.54 386.141 75.9326 384.993 74.7172 385.979C73.5017 386.964 73.8056 389.723 74.7172 392.806Z" fill="#8ECAE5"/>
<path d="M86.0361 387.81C86.0361 387.81 79.7419 391.659 82.9649 397.107C87.6856 399.866 101.207 401.152 101.207 398.869C101.207 396.585 99.6121 392.227 92.6125 388.969C85.6129 385.712 82.151 385.434 81.7495 386.361C85.092 387.404 86.0361 387.81 86.0361 387.81Z" fill="#262226"/>
<path d="M78.0705 385.005C78.0705 385.005 68.9329 378.235 59.6001 372.173C53.5229 368.231 43.2242 357.045 38.5035 358.992C33.7828 360.94 31.0481 366.887 32.5674 371.883C34.0867 376.879 45.4055 384.344 52.1989 387.706C60.5334 391.833 69.3996 394.568 74.3265 395.345C77.5495 395.855 80.9463 386.315 78.0813 385.016L78.0705 385.005Z" fill="#1E75BA"/>
<path d="M59.2961 366.562L89.3241 365.438L89.5954 363.189L58.645 364.081L59.2961 366.562Z" fill="#EAE4D1"/>
<path d="M56.5073 365.542L58.1134 368.069L90.1599 367.06L91.0931 364.302L56.5073 365.542Z" fill="#66140B"/>
<path d="M84.0177 365.727C83.4751 365.461 82.8456 365.38 82.2813 365.611C81.9341 365.751 81.6085 365.948 81.3155 366.191L80.2194 367.118C78.9063 368.22 77.0506 368.208 75.7483 367.095L73.426 365.09C72.9159 364.649 72.3191 364.348 71.6788 364.197C71.5268 364.162 71.3641 364.162 71.2013 364.174C71.2013 364.174 69.8665 364.29 70.051 364.893L69.3673 364.487C68.4231 363.931 67.5658 363.548 66.5131 363.757C65.7969 363.896 65.7969 364.383 65.8403 364.962C65.8403 364.962 65.9488 365.229 66.2418 365.577C65.8512 365.484 65.4496 365.449 65.0047 365.542C64.2885 365.681 64.2885 366.168 64.3319 366.747C64.3319 366.747 64.7008 367.675 66.0465 368.44L72.6446 373.135C73.4802 373.737 74.4678 374.05 75.477 374.05H75.8569C76.139 374.05 76.4212 374.027 76.7033 373.969C78.5373 373.54 80.176 372.439 81.3372 370.851L83.7464 367.536C84.9075 365.959 84.0394 365.727 84.0394 365.727H84.0177Z" fill="#F4A48B"/>
<path d="M80.6096 311.407C80.6096 311.407 81.2065 310.329 82.2591 310.248C83.301 310.167 82.6281 313.679 82.3134 315.024C81.9987 316.369 80.8158 316.879 80.3926 316.102L80.6096 311.407Z" fill="#F4A48B"/>
<path d="M61.0869 342.474L61.4559 342.045C62.3892 340.955 62.9101 339.541 62.9101 338.057V331.021C62.9101 330.789 62.9318 330.569 62.986 330.337L63.5938 327.578L64.31 319.927C64.3426 319.533 64.7115 319.267 65.0697 319.383L65.2541 319.441C65.5906 319.545 65.8293 319.87 65.8402 320.24L66.144 328.077L67.3595 327.207C67.8912 326.825 68.6183 326.941 69.0198 327.485L69.6167 328.285L69.7578 328.193C70.3112 327.833 71.0275 328.007 71.3639 328.587L71.8088 329.34L72.9592 328.621C73.2522 328.436 73.6212 328.563 73.7731 328.876L73.7948 328.923C74.0444 329.444 73.9142 330.082 73.5018 330.465L71.9499 331.856C71.0709 332.655 70.55 333.815 70.5283 335.055L70.4957 337.524C70.4632 339.472 69.8229 341.349 68.6617 342.845L65.4278 347.03L61.0869 342.474Z" fill="#F9D1C5"/>
<path d="M63.1055 341.616C63.1055 341.616 61.5428 339.993 59.9584 341.778C58.7212 343.181 55.1509 348.038 51.0922 351.921C45.4056 357.381 45.0041 358.204 44.4072 361.404C43.3112 367.292 48.5419 369.588 54.2284 364.371C59.915 359.166 62.3133 354.9 64.245 352.941C66.1875 350.994 67.6308 348.548 66.5673 346.473C65.5038 344.398 63.7675 342.37 63.1055 341.593V341.616Z" fill="#E72000"/>
</g>
<defs>
<clipPath id="clip0_150_258">
<rect width="481" height="409" fill="white"/>
</clipPath>
</defs>
</svg>
