<svg width="33" height="33" viewBox="0 0 33 33" fill="none" xmlns="http://www.w3.org/2000/svg">
<path fill-rule="evenodd" clip-rule="evenodd" d="M15.6125 24.4831C16.0009 24.5176 16.4012 24.5357 16.8138 24.5357C23.3334 24.5357 28.7665 16.5 28.7665 16.5C28.7665 16.5 27.8772 15.1847 26.3864 13.6183L15.6125 24.4831Z" fill="#979797"/>
<path fill-rule="evenodd" clip-rule="evenodd" d="M20.1408 9.12704C19.0816 8.71468 17.9646 8.46429 16.8138 8.46429C8.12091 8.46429 4.86108 16.5 4.86108 16.5C4.86108 16.5 5.85723 18.9556 8.21662 21.1519L12.8295 16.5C12.8295 14.281 14.6133 12.4822 16.8138 12.4822L20.1408 9.12704Z" fill="#979797"/>
<rect opacity="0.3" width="25.3402" height="2.66738" transform="matrix(0.704129 -0.710072 0.704129 0.710072 7.65015 25.1183)" fill="#979797"/>
</svg>
