<svg width="39" height="40" viewBox="0 0 39 40" fill="none" xmlns="http://www.w3.org/2000/svg">
<path fill-rule="evenodd" clip-rule="evenodd" d="M18.0475 29.5798C18.5023 29.6211 18.9711 29.6429 19.4542 29.6429C27.0889 29.6429 33.4511 20 33.4511 20C33.4511 20 32.4097 18.4216 30.664 16.542L18.0475 29.5798Z" fill="#979797"/>
<path fill-rule="evenodd" clip-rule="evenodd" d="M23.3502 11.1524C22.1098 10.6576 20.8018 10.3571 19.4542 10.3571C9.27466 10.3571 5.45734 20 5.45734 20C5.45734 20 6.62384 22.9467 9.38674 25.5822L14.7886 20C14.7886 17.3372 16.8774 15.1786 19.4542 15.1786L23.3502 11.1524Z" fill="#979797"/>
<rect opacity="0.3" width="30.0464" height="3.16277" transform="matrix(0.6954 -0.718623 0.6954 0.718623 8.72327 30.342)" fill="#979797"/>
</svg>
