<svg width="35" height="36" viewBox="0 0 35 36" fill="none" xmlns="http://www.w3.org/2000/svg">
<path d="M17.2006 6.91993C19.6594 6.88064 22.0373 7.83199 23.8353 9.57432L28.678 4.65625C25.571 1.63264 21.4582 -0.0253345 17.2006 0.0294851C14.0195 0.0287217 10.9009 0.947017 8.19361 2.68168C5.48628 4.41634 3.29696 6.89896 1.87048 9.85193L7.41943 14.3262C8.09793 12.1836 9.40692 10.3162 11.1618 8.98743C12.9167 7.65865 15.0289 6.93549 17.2006 6.91993V6.91993Z" fill="#E43E2B"/>
<path d="M33.6737 18.2474C33.6939 17.0223 33.5721 15.7991 33.3107 14.6043H17.2001V21.2188H26.6579C26.4785 22.3785 26.0751 23.4885 25.472 24.4821C24.8689 25.4757 24.0785 26.3324 23.1484 27.0006L28.5637 31.3566C30.2514 29.6643 31.5786 27.6233 32.4596 25.3653C33.3407 23.1073 33.756 20.6825 33.6787 18.2474H33.6737Z" fill="#3B7DED"/>
<path d="M7.43911 21.3752C7.06393 20.2406 6.87051 19.0498 6.86656 17.8503C6.8734 16.6526 7.05989 15.4634 7.41931 14.3254L1.87036 9.8511C0.666842 12.3327 0.0399475 15.0726 0.0399475 17.8511C0.0399475 20.6297 0.666842 23.3696 1.87036 25.8511L7.43911 21.3752Z" fill="#F0B501"/>
<path d="M17.2005 35.6725C21.3805 35.7952 25.4469 34.2506 28.5641 31.3559L23.1488 26.9999C21.393 28.2224 19.3136 28.8454 17.2005 28.782C15.0307 28.7686 12.92 28.046 11.1678 26.7166C9.4157 25.3872 8.11112 23.5186 7.43915 21.3758L1.8902 25.8518C3.31283 28.8034 5.49856 31.2855 8.20263 33.02C10.9067 34.7545 14.0223 35.6729 17.2005 35.6725Z" fill="#2BA24C"/>
</svg>
