<svg width="39" height="36" viewBox="0 0 39 36" fill="none" xmlns="http://www.w3.org/2000/svg">
<path d="M19.4008 7.2572C22.0831 7.21872 24.6772 8.15052 26.6386 9.85705L31.9216 5.04003C28.5322 2.07856 24.0454 0.454647 19.4008 0.50834C15.9305 0.507592 12.5284 1.40702 9.57496 3.10603C6.62151 4.80505 4.23316 7.23666 2.677 10.129L8.7304 14.5113C9.47058 12.4127 10.8986 10.5837 12.813 9.28221C14.7274 7.98074 17.0317 7.27244 19.4008 7.2572Z" fill="#E43E2B"/>
<path d="M37.3712 18.3519C37.3933 17.152 37.2603 15.954 36.9752 14.7837H19.4V21.2623H29.7176C29.5219 22.3982 29.0818 23.4854 28.4239 24.4585C27.7659 25.4317 26.9037 26.2708 25.889 26.9252L31.7966 31.1917C33.6377 29.5343 35.0856 27.5352 36.0468 25.3236C37.0079 23.1119 37.4609 20.737 37.3766 18.3519H37.3712Z" fill="#3B7DED"/>
<path d="M8.75175 21.4154C8.34246 20.3042 8.13145 19.1379 8.12715 17.963C8.13461 16.7899 8.33805 15.6251 8.73015 14.5105L2.67675 10.1282C1.36382 12.5587 0.679932 15.2423 0.679932 17.9638C0.679932 20.6853 1.36382 23.3689 2.67675 25.7994L8.75175 21.4154Z" fill="#F0B501"/>
<path d="M19.4006 35.419C23.9605 35.5392 28.3966 34.0263 31.7972 31.1911L25.8896 26.9246C23.9741 28.1219 21.7057 28.7322 19.4006 28.6701C17.0334 28.657 14.7308 27.9492 12.8194 26.6471C10.908 25.345 9.48482 23.5148 8.75176 21.416L2.69836 25.8C4.25032 28.691 6.63476 31.1221 9.58465 32.821C12.5345 34.5198 15.9334 35.4194 19.4006 35.419Z" fill="#2BA24C"/>
</svg>
