<svg width="1457" height="1238" viewBox="0 0 1457 1238" fill="none" xmlns="http://www.w3.org/2000/svg">
<g style="mix-blend-mode:multiply" opacity="0.6">
<path d="M113.352 1099.3C-72.1509 1099.05 0.611322 1058.98 114.6 1058.98C238.246 1058.98 327.926 1099.58 113.352 1099.3Z" fill="#CDD0D1"/>
</g>
<path d="M122.681 964.281C122.681 964.281 66.6064 964.316 66.0151 974.773V975.685C66.0151 975.685 66.7378 996.913 67.8876 1003.61C68.676 1008.32 73.8991 1009.47 73.8991 1009.47C73.8991 1009.47 86.5462 1070.18 88.0902 1073.54C90.751 1079.37 101.263 1083.12 122.681 1083.12C144.099 1083.12 154.611 1079.37 157.272 1073.54C158.816 1070.18 171.463 1009.47 171.463 1009.47C171.463 1009.47 176.686 1008.32 177.474 1003.61C178.624 996.913 179.347 975.685 179.347 975.685V974.773C178.756 964.316 122.681 964.281 122.681 964.281Z" fill="#E9581C"/>
<g style="mix-blend-mode:multiply" opacity="0.4">
<path d="M122.681 964.281C122.681 964.281 66.6064 964.316 66.0151 974.773V975.685C66.0151 975.685 66.7378 996.913 67.8876 1003.61C68.676 1008.32 73.8991 1009.47 73.8991 1009.47C73.8991 1009.47 75.2131 1015.75 77.0527 1024.39C79.4507 1018.53 108.851 1016.14 122.681 1016.14C136.511 1016.14 165.911 1018.53 168.309 1024.39C170.149 1015.75 171.463 1009.47 171.463 1009.47C171.463 1009.47 176.686 1008.32 177.474 1003.61C178.624 996.913 179.347 975.685 179.347 975.685V974.773C178.756 964.316 122.681 964.281 122.681 964.281Z" fill="#E9581C"/>
</g>
<path d="M122.681 964.281C122.681 964.281 66.6064 964.316 66.0151 974.773V975.685C66.0151 975.685 66.7378 996.913 67.8876 1003.61C68.676 1008.32 73.8991 1009.47 73.8991 1009.47C73.8991 1009.47 87.9588 1013.58 122.681 1013.58C157.403 1013.58 171.463 1009.47 171.463 1009.47C171.463 1009.47 176.686 1008.32 177.474 1003.61C178.624 996.913 179.347 975.685 179.347 975.685V974.773C178.756 964.316 122.681 964.281 122.681 964.281Z" fill="#ED701B"/>
<path d="M179.084 973.685C174.879 964.246 122.681 964.281 122.681 964.281C122.681 964.281 70.4825 964.281 66.2777 973.685C66.1135 974.036 66.5405 981.158 122.681 980.737C178.821 981.158 179.248 974.036 179.084 973.685Z" fill="#F2921A"/>
<path d="M175.733 973.018C174.452 965.86 122.714 965.088 122.714 965.088C122.714 965.088 70.9754 965.86 69.6943 973.018C69.6286 973.369 70.9426 978.948 122.714 978.562C174.485 978.948 175.799 973.369 175.733 973.018Z" fill="#E9581C"/>
<g style="mix-blend-mode:multiply" opacity="0.4">
<path d="M175.733 973.018C174.452 965.86 122.714 965.088 122.714 965.088C122.714 965.088 70.9754 965.86 69.6943 973.018C69.6286 973.369 70.9426 978.948 122.714 978.562C174.485 978.948 175.799 973.369 175.733 973.018Z" fill="#E9581C"/>
</g>
<g style="mix-blend-mode:multiply" opacity="0.4">
<path d="M76.1984 975.966C82.834 977.404 96.1053 978.773 122.681 978.562C148.271 978.773 161.509 977.474 168.375 976.106C171.036 975.58 157.436 971.825 122.681 971.825C87.9257 971.825 73.9975 975.474 76.1984 975.93V975.966Z" fill="#5B2816"/>
</g>
<path d="M161.871 866.352C146.563 871.685 131.452 877.545 116.341 883.966C116.341 883.966 119.133 882.668 123.436 880.668C127.74 878.633 133.488 875.861 139.401 872.808C151.26 866.668 163.677 859.72 165.878 854.106C155.925 857.931 145.971 862.071 136.116 866.457C140.847 863.054 145.643 859.72 150.472 856.527C155.301 853.334 160.097 850.211 164.991 847.229C146.333 853.369 127.805 860.422 109.442 868.352C109.442 880.773 109.837 893.229 110.625 905.615C126.59 894.562 142.752 884.457 159.275 875.299C150.603 877.931 141.898 880.738 133.258 883.65C142.719 877.545 152.18 871.755 161.838 866.317L161.871 866.352Z" fill="#007E57"/>
<path d="M110.888 908.422C111.118 911.405 111.282 914.352 111.578 917.334C111.578 917.334 114.337 915.685 118.706 913.124C123.042 910.527 128.889 906.984 134.901 903.124C140.978 899.229 147.22 895.019 152.311 890.948C157.502 886.843 161.411 882.878 162.922 879.299C145.347 888.071 127.937 897.756 110.855 908.457L110.888 908.422Z" fill="#007E57"/>
<path d="M109.607 857.755C109.508 860.843 109.541 863.931 109.508 867.018C109.508 867.018 125.867 860.281 143.146 852.667C151.753 848.843 160.688 844.773 167.718 840.878C174.912 837.018 180.135 833.264 181.778 829.79C178 830.422 174.189 831.053 170.445 831.79C174.058 829.159 177.704 826.632 181.318 824.141C157.075 833.088 133.127 844.492 109.64 857.755H109.607Z" fill="#007E57"/>
<path d="M180.628 799.404C171.561 800.983 162.659 802.983 153.658 805.194C158.027 802.878 162.331 800.633 166.732 798.597C171.134 796.527 175.536 794.597 179.872 792.773H179.117L183.847 790.282C175.569 791.334 167.422 792.808 159.177 794.457C162.101 792.948 165.024 791.51 167.948 790.106C170.904 788.738 173.861 787.44 176.817 786.211C182.632 783.65 188.676 781.65 194.49 779.72C167.291 784.282 139.828 794.106 112.957 806.878C112.563 810.492 112.103 814.106 111.808 817.755C117.556 814.808 123.436 812.036 129.284 809.404L129.349 809.58C129.349 809.58 125.243 812.141 120.973 814.808C116.735 817.51 112.333 820.422 111.545 820.738C111.381 822.738 111.151 824.773 111.019 826.773C116.439 823.861 121.925 821.089 127.346 818.422C130.401 816.983 133.488 815.545 136.609 814.211C136.609 814.211 132.437 816.808 127.247 820.071C121.991 823.264 115.552 827.124 110.855 829.018L110.461 835.018C114.797 832.282 120.808 829.44 125.736 827.404C128.232 826.387 130.466 825.545 132.043 824.983C133.653 824.422 134.638 824.141 134.671 824.176C126.459 827.931 118.476 831.966 110.362 836.211C110.198 838.422 110.165 840.633 110.034 842.843C117.885 839.194 125.834 835.72 133.784 832.492C133.784 832.492 130.401 835.089 125.703 838.352C121.071 841.615 115.093 845.615 109.804 848.071C109.705 849.826 109.705 851.58 109.672 853.334C109.672 853.334 114.928 851.054 123.009 847.51C130.959 843.966 141.701 839.194 152.968 834.176C158.454 831.65 164.039 829.089 169.393 826.562C174.715 824.001 179.708 821.44 184.208 818.983C193.078 813.966 199.648 809.299 201.159 804.457C194.819 805.475 188.61 806.843 182.27 808.247C175.963 809.65 169.623 811.194 163.382 812.948C175.7 807.896 188.085 803.545 200.502 800.176C189.76 801.264 178.953 802.703 168.243 804.597C172.35 802.773 176.456 801.018 180.628 799.44V799.404Z" fill="#007E57"/>
<path d="M115.52 788.106C114.665 793.018 114.074 798.001 113.384 802.948C144.099 789.439 166.404 779.053 180.923 772.878C184.603 771.334 187.723 770.001 190.384 768.843C193.111 767.79 195.312 766.878 197.053 766.176C198.761 765.439 200.042 764.878 200.929 764.492C201.783 764.141 202.21 763.966 202.21 763.966C196.33 763.86 190.548 764.422 184.537 764.948L188.052 763.369C188.052 763.369 184.898 763.825 179.708 764.843C174.649 765.966 167.521 767.685 159.735 770.176C144.197 774.983 126.097 783.159 115.487 788.106H115.52Z" fill="#007E57"/>
<path d="M124.98 745.896C126.294 744.703 129.809 742.352 134.244 739.37C136.51 737.931 139.007 736.352 141.701 734.633C143.015 733.791 144.329 732.948 145.708 732.071C147.055 731.229 148.468 730.387 149.847 729.51C152.508 727.791 155.169 726.071 157.83 724.352C160.392 722.633 162.659 720.843 164.827 719.229C166.929 717.545 168.572 715.65 170.017 713.931C170.707 713.019 171.265 712.071 171.692 711.019C171.922 710.492 172.087 709.966 172.251 709.405C172.415 708.878 172.579 708.387 172.678 707.826C170.806 708.212 169.064 708.948 167.192 709.615C165.385 710.317 163.414 710.984 161.608 711.861C158.027 713.685 154.085 715.475 150.504 717.861L144.92 721.405C143.113 722.703 141.339 724.036 139.5 725.37C135.788 728.036 132.371 731.089 128.791 734.177C127.345 738.036 126.261 742.001 124.947 745.896H124.98Z" fill="#007E57"/>
<path d="M131.123 729.545C131.649 728.632 132.207 727.615 132.897 726.562C133.587 725.51 134.375 724.422 135.164 723.229C136.806 720.913 138.514 718.282 140.584 715.72C142.621 713.124 144.592 710.352 146.891 707.755C148.008 706.422 149.092 705.089 150.143 703.755C151.227 702.422 152.41 701.194 153.494 699.896C154.578 698.632 155.629 697.334 156.647 696.071C157.731 694.878 158.783 693.685 159.735 692.492C160.721 691.334 161.542 690.036 162.495 688.948C163.415 687.825 164.236 686.703 164.991 685.58C165.747 684.457 166.371 683.264 166.962 682.176C167.586 681.124 168.112 680.036 168.506 678.913C169.327 676.703 169.689 674.352 169.459 671.966C160.491 679.089 152.935 688.071 146.661 697.931C140.387 707.79 135.328 718.527 131.09 729.58L131.123 729.545Z" fill="#007E57"/>
<path d="M123.896 749.615L122.089 756.281C122.089 756.281 125.374 754.316 130.532 751.264C133.028 749.755 136.083 748.036 139.335 746.246C142.555 744.422 146.004 742.527 149.617 740.738C153.165 738.913 156.68 737.053 160.195 735.474C161.87 734.667 163.546 733.86 165.155 733.053C166.732 732.246 168.342 731.615 169.787 730.913C171.233 730.211 172.579 729.545 173.795 728.843C175.01 728.141 176.193 727.615 177.178 726.983C179.182 725.79 180.496 724.352 181.285 723.124C172.152 724.176 162.232 727.194 152.64 731.931C147.679 734.176 143.048 736.983 138.12 739.895C135.755 741.404 133.39 742.983 131.024 744.597C128.626 746.211 126.228 747.895 123.962 749.65L123.896 749.615Z" fill="#007E57"/>
<path d="M121.4 759.019C120.546 762.808 119.56 766.563 118.804 770.387C123.929 767.475 129.284 764.773 134.408 762.247L134.474 762.352C134.474 762.352 132.536 763.791 129.546 765.791C126.557 767.755 122.484 770.282 118.41 772.352L117.261 778.176C122.385 775.615 127.772 773.475 127.772 773.475L131.32 772.247C131.32 772.247 130.138 773.685 127.707 775.545C125.309 777.405 121.531 779.72 116.669 781.51L115.881 786.282C118.509 784.878 121.597 783.369 124.849 781.861C128.134 780.352 131.649 778.843 135.065 777.44C141.799 774.598 148.336 772.247 152.213 770.633C154.151 769.826 156.877 768.387 160.031 766.984C163.119 765.58 166.535 764.036 169.754 762.598C172.941 761.229 175.93 760.141 178.065 759.334C180.201 758.562 181.548 758.071 181.548 758.071C183.617 757.089 185.818 756.352 187.888 755.58C185.687 755.791 183.453 756.036 181.219 756.352C167.751 758.633 153.855 762.738 140.255 768.352C140.255 768.352 142.522 767.159 146.07 765.299C149.552 763.545 154.348 761.124 159.472 758.527C161.969 757.334 164.564 756.141 167.094 754.913C168.309 754.317 169.525 753.72 170.74 753.124C171.923 752.562 173.105 752.036 174.255 751.51C176.489 750.457 178.46 749.405 180.102 748.352C181.81 747.405 183.157 746.492 184.011 745.545C177.211 746.282 170.444 748.001 163.447 749.966C156.647 752.177 149.585 754.703 142.785 757.826C142.785 757.826 144.723 756.738 147.844 754.984C150.964 753.264 155.235 751.019 159.571 748.527C168.539 743.755 178.033 739.089 181.515 735.054C162.002 737.37 141.109 746.598 121.465 759.019H121.4Z" fill="#007E57"/>
<path d="M57.1456 865.861C72.3222 872.562 87.6958 878.738 103.037 884.352C103.037 884.352 100.146 883.264 95.8097 881.334C91.4407 879.404 85.5935 876.668 79.6148 873.334C67.6903 866.773 55.3717 857.79 53.5649 850.492C63.2885 856.036 73.012 861.264 82.8669 866.247C78.1366 862.422 73.4062 858.492 68.8072 854.422C64.1426 850.387 59.5107 846.247 54.9775 841.966C72.9463 851.65 91.1451 860.422 109.541 868.317C109.541 880.738 109.935 893.194 110.724 905.58C93.5759 896.948 76.5269 887.299 59.8392 876.738C68.6101 879.65 77.3482 882.457 86.1519 885.089C76.4284 879.018 66.7048 872.597 57.1784 865.825L57.1456 865.861Z" fill="#00A069"/>
<path d="M110.888 908.422C111.117 911.405 111.282 914.352 111.577 917.334C111.577 917.334 108.522 916.317 103.858 914.492C99.193 912.668 92.9187 909.966 86.3816 906.633C79.9102 903.299 73.2089 899.299 67.723 894.983C62.3027 890.703 57.9666 886.106 56.3569 881.755C74.3586 891.615 92.5245 900.527 110.92 908.422H110.888Z" fill="#00A069"/>
<path d="M109.607 857.755C109.508 860.843 109.541 863.93 109.508 867.018C109.508 867.018 93.0835 860.422 76.363 850.422C67.9535 845.439 59.5768 839.615 52.974 833.685C46.5026 827.72 41.7065 821.72 40.8853 816.597C44.4659 818.281 48.0137 819.965 51.66 821.615C48.5721 817.509 45.5828 813.299 42.5606 809.018C64.1429 827.439 86.645 843.509 109.64 857.79L109.607 857.755Z" fill="#00A069"/>
<path d="M50.7071 775.229C58.3611 781.475 66.3108 787.369 74.1947 793.054C70.7783 788.843 67.2634 784.527 63.9456 780.106C60.6277 775.65 57.3428 771.124 54.0906 766.457L54.8133 766.808L51.7583 760.843C58.5254 766.878 65.5224 772.597 72.5522 778.071C70.3841 775.018 68.2489 771.896 66.1137 768.738C64.0441 765.545 62.0074 762.317 59.9708 759.018C55.8317 752.457 52.1197 745.545 48.3419 738.457C67.8218 765.264 89.864 787.439 112.957 806.913C112.563 810.527 112.103 814.141 111.808 817.79C106.617 813.685 101.591 809.475 96.5654 805.124L96.4668 805.264C96.4668 805.264 99.8504 809.054 103.398 812.808C107.012 816.562 110.855 820.317 111.578 820.773C111.413 822.773 111.184 824.808 111.052 826.808C106.125 823.018 101.296 819.124 96.434 815.089C93.6746 812.878 90.9809 810.632 88.2872 808.317C88.2872 808.317 91.6379 812.282 96.2369 816.808C100.803 821.334 106.453 826.387 110.888 829.018L110.494 835.018C106.552 831.72 101 827.896 96.4011 824.843C94.1017 823.334 92.0978 822.001 90.6196 821.089C89.1413 820.176 88.2216 819.65 88.1887 819.685C95.4485 825.439 103.004 830.948 110.428 836.246C110.264 838.457 110.231 840.668 110.099 842.878C102.544 838.422 95.12 833.79 87.696 828.948C87.696 828.948 90.6853 832.352 94.9229 836.422C99.2262 840.492 104.811 845.194 109.87 848.071C109.771 849.825 109.771 851.58 109.738 853.334C109.738 853.334 108.457 852.668 106.158 851.51C103.891 850.317 100.606 848.597 96.7625 846.387C89.0428 841.966 78.6623 835.545 68.5117 827.685C63.3871 823.79 58.3283 819.51 53.6636 815.018C48.9661 810.527 44.5642 805.825 40.9836 801.018C33.6252 791.475 29.1248 781.58 29.6504 773.299C34.9721 777.966 40.5237 782.387 46.0096 786.738C51.4955 791.089 57.0143 795.264 62.6644 799.299C52.1525 789.229 41.9034 778.457 32.1142 766.808C41.4435 773.931 50.8385 780.703 60.4964 787.089C57.1785 783.229 53.8607 779.264 50.7071 775.194V775.229Z" fill="#00A069"/>
<path d="M115.52 788.106C114.666 793.018 114.074 798.001 113.385 802.948C87.0062 781.44 71.534 757.229 63.7157 737.966C61.7776 733.159 60.2337 728.668 59.0182 724.668C57.9013 720.633 57.1129 717.089 56.5216 714.176C55.9632 711.264 55.569 708.983 55.3719 707.404C55.2077 705.826 55.1748 704.983 55.1748 704.983C56.883 708.282 58.7554 711.44 60.6279 714.562C62.5003 717.685 64.4056 720.738 66.3437 723.755L65.0626 718.317C65.0626 718.317 66.9022 722.036 69.9572 727.685C73.1765 733.299 77.6112 740.843 82.8672 748.527C85.528 752.387 88.3202 756.282 91.1781 760.071C94.0361 763.861 97.0583 767.58 99.949 771.019C105.665 777.931 111.348 783.931 115.52 788.106Z" fill="#00A069"/>
<path d="M124.98 745.896C124.619 744.141 123.141 740.071 121.433 734.422C120.611 731.615 119.856 728.457 119.133 724.948C118.772 723.229 118.378 721.404 118.115 719.545C117.852 717.685 117.655 715.79 117.491 713.825C117.326 711.86 117.195 709.896 117.129 707.86C117.064 705.86 117.195 703.86 117.326 701.825C117.589 697.79 118.082 693.72 119.232 689.931C120.316 686.141 121.597 682.492 123.634 679.404C124.619 677.86 125.67 676.387 126.787 675.089C127.346 674.422 127.937 673.825 128.528 673.229C129.152 672.667 129.842 672.141 130.532 671.65C129.744 674.422 129.349 677.264 128.857 680.001C128.43 682.773 127.904 685.474 127.641 688.176C127.181 693.65 126.623 698.878 126.721 704.106V711.825C126.886 714.387 127.05 716.913 127.214 719.404C127.477 724.352 128.2 729.334 128.824 734.106C127.378 737.966 126.294 741.931 124.98 745.825V745.896Z" fill="#00A069"/>
<path d="M130.039 729.088C130.236 728.036 130.466 726.843 130.696 725.58C130.959 724.317 131.255 722.948 131.583 721.509C132.207 718.632 132.799 715.334 133.784 712.001C134.737 708.632 135.657 704.983 137.102 701.474C137.759 699.685 138.482 697.895 139.204 696.106C139.927 694.316 140.88 692.632 141.767 690.948C142.686 689.264 143.573 687.58 144.559 686.001C145.61 684.457 146.694 682.983 147.778 681.545C148.895 680.141 149.913 678.738 151.162 677.58C152.377 676.422 153.592 675.369 154.808 674.422C156.023 673.474 157.206 672.632 158.421 672.001C159.67 671.404 160.918 670.948 162.101 670.667C164.499 670.071 166.732 670.106 168.736 670.948C159.637 678.176 152.016 687.264 145.676 697.229C139.336 707.194 134.244 718.001 130.006 729.124L130.039 729.088Z" fill="#00A069"/>
<path d="M123.896 749.615L122.09 756.282C122.09 756.282 120.217 752.808 117.556 747.053C116.177 744.141 114.83 740.738 113.384 736.843C111.939 732.948 110.461 728.632 109.311 724.071C108.096 719.475 106.979 714.632 106.387 709.72C106.059 707.264 105.796 704.808 105.599 702.352C105.402 699.896 105.435 697.475 105.468 695.124C105.533 692.738 105.665 690.422 105.895 688.211C106.092 686.001 106.617 683.86 107.077 681.86C108.129 677.896 109.278 674.457 111.216 671.931C110.395 686.808 111.414 700.527 113.91 713.439C114.961 719.86 116.669 726.106 118.213 732.106C119.1 735.124 120.02 738.106 120.973 741.018C121.893 743.931 122.845 746.808 123.962 749.65L123.896 749.615Z" fill="#00A069"/>
<path d="M121.4 759.018C120.546 762.808 119.56 766.562 118.805 770.387C115.257 765.369 111.972 760.247 108.589 754.913L108.49 754.983C108.49 754.983 109.476 757.475 111.217 760.913C112.925 764.317 115.389 768.633 118.411 772.352L117.261 778.176C113.549 773.72 109.476 769.124 109.476 769.124L106.749 766.211C106.749 766.211 107.242 768.211 108.72 771.159C110.231 774.106 112.596 777.896 116.637 781.51L115.848 786.282C113.812 784.001 111.447 781.369 108.95 778.562C106.453 775.755 103.891 772.738 101.362 769.72C96.27 763.685 91.7696 757.65 89.2401 753.545C88.0247 751.51 86.2179 748.352 84.5098 744.597C82.7687 740.878 80.962 736.597 79.3195 732.492C77.7099 728.387 76.4287 724.422 75.4432 721.51C74.4906 718.562 73.8993 716.703 73.8993 716.703C73.1437 713.475 72.6182 710.141 72.0269 706.773C73.1766 709.404 74.3592 712.001 75.5418 714.562C82.9658 730.387 91.3754 744.668 100.738 757.755C100.738 757.755 99.2922 755.299 97.1898 751.299C95.1202 747.264 92.5251 741.615 89.9957 735.194C85.2325 722.422 81.5533 706.036 83.9842 696.492C86.3493 705.615 89.5686 714.176 92.7879 722.352C96.3028 730.527 99.8506 738.247 103.99 745.685C103.99 745.685 102.938 743.369 101.427 739.51C99.982 735.65 98.241 730.247 96.6313 724.036C93.7405 711.72 92.3937 695.755 96.4342 685.72C96.9598 689.264 97.5183 692.738 98.1424 696.176C98.7994 699.58 99.6535 702.913 100.475 706.176C102.019 712.738 104.121 719.018 106.223 725.089C108.326 731.159 110.888 737.018 113.319 742.668C115.98 748.352 118.608 753.79 121.466 759.124L121.4 759.018Z" fill="#00A069"/>
<path d="M121.63 976.352C120.217 976.878 118.739 976.106 118.279 974.597C116.407 968.071 115.027 961.475 113.877 954.843C112.695 948.211 111.808 941.58 111.019 934.913C109.475 921.58 108.523 908.211 108.03 894.843C107.077 868.106 107.866 841.264 110.691 814.703C113.647 788.176 118.509 761.72 127.182 736.597C131.583 724.071 136.971 711.896 143.803 700.703C150.636 689.51 159.013 679.299 169.098 671.404C159.144 679.51 150.998 689.825 144.362 701.089C137.726 712.352 132.602 724.562 128.43 737.089C120.217 762.211 115.848 788.597 113.352 815.018C111.019 841.474 110.658 868.141 112.038 894.667C112.728 907.931 113.91 921.159 115.651 934.281C116.571 940.843 117.524 947.369 118.805 953.825C120.02 960.281 121.499 966.703 123.371 972.878C123.798 974.281 123.01 975.825 121.597 976.352H121.63Z" fill="#007E57"/>
<g style="mix-blend-mode:multiply" opacity="0.6">
<path d="M1326.46 1099.3C1140.96 1099.05 1213.72 1058.98 1327.71 1058.98C1451.36 1058.98 1541.04 1099.58 1326.46 1099.3Z" fill="#CDD0D1"/>
</g>
<path d="M1335.82 964.281C1335.82 964.281 1279.75 964.316 1279.16 974.773V975.685C1279.16 975.685 1279.88 996.913 1281.03 1003.61C1281.82 1008.32 1287.07 1009.47 1287.07 1009.47C1287.07 1009.47 1299.72 1070.18 1301.26 1073.54C1303.93 1079.37 1314.44 1083.12 1335.86 1083.12C1357.27 1083.12 1367.79 1079.37 1370.45 1073.54C1371.99 1070.18 1384.64 1009.47 1384.64 1009.47C1384.64 1009.47 1389.86 1008.32 1390.68 1003.61C1391.83 996.913 1392.55 975.685 1392.55 975.685V974.773C1391.96 964.316 1335.89 964.281 1335.89 964.281H1335.82Z" fill="#E9581C"/>
<g style="mix-blend-mode:multiply" opacity="0.4">
<path d="M1335.82 964.281C1335.82 964.281 1279.75 964.316 1279.16 974.773V975.685C1279.16 975.685 1279.88 996.913 1281.03 1003.61C1281.82 1008.32 1287.07 1009.47 1287.07 1009.47C1287.07 1009.47 1288.39 1015.75 1290.23 1024.39C1292.63 1018.53 1322.03 1016.14 1335.86 1016.14C1349.69 1016.14 1379.09 1018.53 1381.48 1024.39C1383.32 1015.75 1384.64 1009.47 1384.64 1009.47C1384.64 1009.47 1389.86 1008.32 1390.68 1003.61C1391.83 996.913 1392.55 975.685 1392.55 975.685V974.773C1391.96 964.316 1335.89 964.281 1335.89 964.281H1335.82Z" fill="#E9581C"/>
</g>
<path d="M1335.82 964.281C1335.82 964.281 1279.75 964.316 1279.16 974.773V975.685C1279.16 975.685 1279.88 996.913 1281.03 1003.61C1281.82 1008.32 1287.07 1009.47 1287.07 1009.47C1287.07 1009.47 1301.13 1013.58 1335.86 1013.58C1370.58 1013.58 1384.64 1009.47 1384.64 1009.47C1384.64 1009.47 1389.86 1008.32 1390.68 1003.61C1391.83 996.913 1392.55 975.685 1392.55 975.685V974.773C1391.96 964.316 1335.89 964.281 1335.89 964.281H1335.82Z" fill="#ED701B"/>
<path d="M1392.23 973.685C1388.02 964.246 1335.82 964.281 1335.82 964.281C1335.82 964.281 1283.62 964.281 1279.42 973.685C1279.26 974.036 1279.68 981.158 1335.82 980.737C1391.96 981.158 1392.39 974.036 1392.23 973.685Z" fill="#F2921A"/>
<path d="M1388.84 973.018C1387.56 965.86 1335.82 965.088 1335.82 965.088C1335.82 965.088 1284.08 965.86 1282.8 973.018C1282.74 973.369 1284.05 978.948 1335.82 978.562C1387.59 978.948 1388.91 973.369 1388.84 973.018Z" fill="#E9581C"/>
<g style="mix-blend-mode:multiply" opacity="0.4">
<path d="M1388.84 973.018C1387.56 965.86 1335.82 965.088 1335.82 965.088C1335.82 965.088 1284.08 965.86 1282.8 973.018C1282.74 973.369 1284.05 978.948 1335.82 978.562C1387.59 978.948 1388.91 973.369 1388.84 973.018Z" fill="#E9581C"/>
</g>
<g style="mix-blend-mode:multiply" opacity="0.4">
<path d="M1289.34 975.966C1295.98 977.404 1309.25 978.773 1335.82 978.562C1361.41 978.773 1374.65 977.474 1381.52 976.106C1384.18 975.58 1370.58 971.825 1335.82 971.825C1301.07 971.825 1287.14 975.474 1289.34 975.93V975.966Z" fill="#5B2816"/>
</g>
<path d="M1393.97 848.106L1345.94 863.58C1345.94 863.58 1357.93 859.404 1370.64 853.404C1383.39 847.404 1396.86 839.475 1399.85 831.825L1368.41 844.773C1378.89 837.299 1389.43 829.825 1399.91 822.211C1380.5 829.404 1361.08 836.387 1341.7 843.44C1339.83 858.527 1337.93 873.65 1336.25 888.773C1354.05 878.843 1371.96 869.334 1389.86 859.755L1362.69 866.176L1393.93 848.071L1393.97 848.106Z" fill="#007E57"/>
<path d="M1335.89 892.211L1334.74 903.089C1334.74 903.089 1347.09 898.001 1360.49 890.948C1373.93 883.86 1388.45 874.738 1392.72 865.65C1373.7 874.387 1354.78 883.053 1335.86 892.211H1335.89Z" fill="#007E57"/>
<path d="M1343.31 830.597L1341.9 841.861C1341.9 841.861 1359.15 836.106 1377.34 827.72C1386.44 823.545 1395.81 818.668 1403.36 813.545C1410.88 808.352 1416.67 802.983 1418.57 797.72L1407.01 800.633L1418.54 789.229C1393.54 803.65 1368.41 817.159 1343.28 830.597H1343.31Z" fill="#007E57"/>
<path d="M1418.64 751.159C1409.6 755.404 1400.54 759.509 1391.5 763.545C1400.24 756.141 1409.01 748.632 1417.65 740.808L1416.86 740.948L1421.46 735.72C1413.28 739.755 1405.07 743.685 1396.89 747.509C1408.39 736.773 1419.85 725.72 1431.02 713.86C1404.64 734.141 1377.71 751.755 1350.61 768.527L1349.16 781.86C1355.11 778.281 1361.05 774.632 1366.93 770.948L1367 771.159C1367 771.159 1362.86 774.597 1358.49 778.106C1354.12 781.58 1349.52 785.123 1348.73 785.474L1347.88 792.878L1364.7 782.597L1374.16 776.913C1374.16 776.913 1369.95 780.562 1364.5 784.702C1359.08 788.843 1352.41 793.509 1347.52 795.65L1346.66 802.948C1351.2 799.825 1357.44 796.527 1362.56 794.036C1365.12 792.808 1367.39 791.755 1369.03 791.018C1370.68 790.316 1371.69 789.931 1371.69 790.001C1363.32 794.878 1354.88 799.65 1346.47 804.422L1345.48 812.492L1370.22 800.808C1370.22 800.808 1366.6 804.071 1361.61 807.966C1356.62 811.825 1350.21 816.316 1344.69 818.878L1343.9 825.264C1343.9 825.264 1349.49 823.123 1357.93 819.334C1366.37 815.545 1377.74 810.211 1389.27 803.685C1412.33 790.738 1436.24 772.808 1439.33 755.474C1426.59 761.79 1413.91 767.895 1401.13 773.72C1407.4 769.615 1413.68 765.474 1419.92 761.194C1426.16 756.913 1432.43 752.632 1438.61 748.106C1427.83 752.632 1416.96 756.878 1406.12 761.053L1418.57 751.229L1418.64 751.159Z" fill="#007E57"/>
<path d="M1352.9 745.404L1351.13 763.685C1381.98 745.615 1403.33 724.878 1416.6 707.896C1419.98 703.72 1422.74 699.685 1425.11 696.106C1427.47 692.492 1429.44 689.369 1430.89 686.703C1433.81 681.299 1435.16 678.176 1435.16 678.176C1429.64 683.089 1424.19 687.931 1418.51 692.422L1421.5 687.475C1421.5 687.475 1420.77 688.211 1419.43 689.51C1418.08 690.808 1416.17 692.668 1413.81 694.983C1411.44 697.229 1408.62 699.896 1405.5 702.843C1402.34 705.72 1398.86 708.808 1395.22 711.966C1387.99 718.352 1379.91 724.878 1372.48 730.773C1364.99 736.632 1358.03 741.79 1352.87 745.404H1352.9Z" fill="#007E57"/>
<path d="M1356.32 692.317C1357.24 690.457 1360.07 686.387 1363.38 680.773C1365.06 677.966 1366.96 674.773 1368.8 671.299C1370.61 667.79 1372.48 664.001 1374.22 659.966C1377.61 651.896 1380.47 642.913 1381.48 633.966C1382.5 625.018 1381.71 616.106 1378.23 608.948C1374.13 634.843 1365.68 656.282 1356.58 677.089C1356.55 682.176 1356.49 687.229 1356.26 692.317H1356.32Z" fill="#007E57"/>
<path d="M1357.24 670.702C1358.52 660.352 1361.81 641.053 1360.53 622.352C1360.39 620.036 1360.03 617.72 1359.74 615.439C1359.38 613.159 1359.15 610.948 1358.59 608.773C1358.03 606.632 1357.47 604.527 1356.85 602.527C1356.55 601.545 1356.22 600.562 1355.89 599.615C1355.5 598.667 1355.07 597.79 1354.65 596.913C1351.49 589.86 1346.63 585.299 1342.16 584.632C1349 597.58 1352.35 612.176 1354.42 626.702C1356.42 641.264 1357.21 656.001 1357.24 670.702Z" fill="#007E57"/>
<path d="M1356.16 697.089C1356.09 699.931 1355.93 702.738 1355.76 705.58C1355.76 705.58 1356.49 704.738 1357.77 703.229C1359.05 701.72 1360.85 699.51 1362.96 696.773C1365.09 694.036 1367.56 690.738 1370.22 687.054C1372.81 683.334 1375.54 679.194 1378.26 674.808C1383.65 666.001 1388.78 656.001 1392.16 646.211C1395.48 636.457 1397.09 626.913 1395.81 619.966C1390.88 635.299 1384.41 648.562 1377.74 661.264C1374.32 667.545 1370.87 673.685 1367.23 679.615C1363.68 685.58 1359.9 691.369 1356.16 697.089Z" fill="#007E57"/>
<path d="M1355.57 709.053C1355.34 713.825 1355.01 718.597 1354.65 723.334C1359.44 718.737 1364.24 714.071 1368.94 709.299L1369 709.404C1369 709.404 1367.33 711.86 1364.7 715.123C1362.04 718.387 1358.36 722.457 1354.48 725.755C1354.32 728.176 1354.15 730.597 1353.92 733.018C1356.35 731.018 1358.85 729.088 1360.72 727.615C1362.63 726.176 1363.91 725.194 1363.91 725.194L1367.29 722.843C1367.29 722.843 1363.19 731.369 1353.56 737.158L1353.07 743.053C1358.09 738.983 1365.06 733.825 1371.53 728.702C1378 723.58 1384.18 718.562 1387.76 715.018C1391.27 711.474 1398.01 703.65 1403.56 696.246C1406.35 692.562 1408.95 689.088 1410.79 686.492C1412.59 683.86 1413.74 682.176 1413.74 682.176L1418.93 673.053L1412.92 679.334C1400.87 692.422 1388.25 704.176 1375.6 715.474C1375.6 715.474 1377.67 713.264 1380.86 709.58C1384.05 705.93 1388.35 700.808 1392.62 694.878C1394.76 691.93 1397.02 688.843 1399.06 685.579C1401.1 682.351 1403.03 679.018 1404.77 675.755C1408.26 669.264 1410.65 662.702 1411.44 657.615C1400.24 673.369 1388.35 687.404 1376.23 700.667C1376.23 700.667 1377.94 698.492 1380.53 694.878C1383.13 691.264 1386.64 686.176 1390.06 680.176C1391.77 677.194 1393.57 674.071 1395.15 670.737C1396.73 667.439 1398.24 664.001 1399.55 660.597C1400.9 657.229 1401.88 653.72 1402.67 650.422C1403.43 647.088 1403.99 644.001 1404.02 641.053C1402.24 644.351 1400.34 647.474 1398.47 650.632C1396.56 653.755 1394.79 656.878 1392.78 659.825C1388.81 665.755 1385 671.58 1380.83 677.123C1376.75 682.702 1372.65 688.141 1368.38 693.404C1364.2 698.702 1359.9 703.86 1355.57 708.948V709.053Z" fill="#007E57"/>
<path d="M1290.16 833.334L1332.73 861.72C1332.73 861.72 1322.16 854.387 1311.35 844.983C1300.54 835.58 1289.47 824.141 1288.42 816.071L1315.59 837.264C1307.28 827.124 1299 816.983 1290.65 806.983C1307.7 819.018 1324.69 831.264 1341.7 843.44C1339.83 858.527 1337.92 873.65 1336.25 888.773C1321.11 874.668 1306.13 860.211 1291.18 845.826L1315.85 859.685L1290.1 833.334H1290.16Z" fill="#00A069"/>
<path d="M1335.89 892.212L1334.74 903.089C1334.74 903.089 1323.67 895.37 1312.2 884.808C1300.74 874.282 1288.88 860.984 1286.98 850.843C1303.17 864.738 1319.46 878.703 1335.86 892.212H1335.89Z" fill="#00A069"/>
<path d="M1343.31 830.597L1341.9 841.86C1341.9 841.86 1326.69 831.439 1311.12 818.387C1303.33 811.86 1295.45 804.738 1289.37 797.896C1283.23 791.089 1278.93 784.597 1278.2 779.369L1288.78 784.983L1280.08 771.685C1301.36 790.738 1322.35 810.668 1343.35 830.632L1343.31 830.597Z" fill="#00A069"/>
<path d="M1287.34 737.72C1295.48 743.194 1303.56 748.773 1311.68 754.457C1304.48 745.755 1297.29 737.194 1289.93 728.913L1290.69 729.194L1286.98 723.896C1294.43 728.738 1301.86 733.685 1309.31 738.738C1299.75 726.843 1290.1 715.229 1280.14 704.422C1304.32 723.825 1327.68 745.825 1350.64 768.562L1349.19 781.896C1344.23 776.913 1339.24 771.931 1334.21 767.018L1334.08 767.194C1334.08 767.194 1337.43 771.474 1340.91 775.896C1344.4 780.317 1348.04 784.948 1348.77 785.474L1347.91 792.878L1333.85 778.667L1325.87 770.913C1325.87 770.913 1329.19 775.369 1333.56 780.703C1337.93 786.036 1343.35 792.246 1347.55 795.615L1346.7 802.913C1343.02 798.667 1337.73 793.825 1333.36 790.141C1331.16 788.282 1329.19 786.703 1327.74 785.615C1326.3 784.527 1325.41 783.896 1325.38 783.966C1332.47 790.738 1339.47 797.545 1346.53 804.422L1345.55 812.492L1324.36 794.632C1324.36 794.632 1327.12 798.667 1331.03 803.755C1334.94 808.808 1340.03 814.878 1344.76 818.878L1343.97 825.264C1343.97 825.264 1339.14 821.615 1331.88 815.685C1324.62 809.755 1314.96 801.475 1305.27 792.352C1285.89 774.001 1266.38 752.492 1266.21 737.475C1277.58 745.334 1288.98 753.369 1300.25 761.685C1294.96 756.492 1289.64 751.334 1284.25 746.317C1278.89 741.264 1273.54 736.282 1268.09 731.439C1278.07 737.124 1287.9 743.053 1297.78 749.053L1287.34 737.79V737.72Z" fill="#00A069"/>
<path d="M1352.9 745.404L1351.13 763.685C1324.75 738.808 1306.82 716.422 1295.06 701.018C1292.2 697.124 1289.6 693.72 1287.47 690.703C1285.3 687.72 1283.62 685.089 1282.21 683.054C1279.39 678.983 1278.11 676.738 1278.11 676.738C1283.49 680.387 1288.98 684.106 1294.27 688.176L1291.57 684.036C1291.57 684.036 1292.3 684.633 1293.51 685.755C1294.76 686.878 1296.57 688.527 1298.8 690.527C1301.03 692.597 1303.66 695.018 1306.59 697.755C1309.44 700.562 1312.6 703.65 1315.88 706.878C1322.52 713.369 1329.45 720.703 1336.02 727.51C1342.49 734.352 1348.47 740.738 1352.9 745.334V745.404Z" fill="#00A069"/>
<path d="M1356.32 692.317C1355.5 690.387 1353.07 686.106 1349.78 680.562C1348.21 677.79 1346.4 674.703 1344.5 671.404C1342.56 668.141 1340.59 664.668 1338.71 661.089C1336.81 657.545 1334.84 653.966 1333.16 650.387C1331.52 646.773 1329.78 643.369 1328.56 639.931C1325.97 633.159 1324.59 626.913 1325.41 621.264C1326.89 623.124 1328.43 625.019 1329.94 626.983L1334.18 633.299C1334.9 634.387 1335.63 635.44 1336.32 636.562L1338.32 639.966L1342.33 646.948C1344.79 651.755 1347.39 656.633 1349.72 661.685C1352.02 666.738 1354.45 671.861 1356.58 677.054C1356.55 682.141 1356.49 687.194 1356.26 692.282L1356.32 692.317Z" fill="#00A069"/>
<path d="M1356.06 670.703C1354.68 660.317 1350.41 641.545 1346.3 624.843C1345.81 622.738 1345.18 620.738 1344.73 618.703C1344.2 616.703 1343.84 614.668 1343.31 612.808C1342.79 610.913 1342.36 609.089 1341.97 607.264C1341.77 606.352 1341.6 605.475 1341.47 604.597C1341.28 603.755 1341.08 602.913 1340.91 602.106C1339.8 595.44 1339.17 590.036 1341.14 585.229C1347.88 597.966 1351.2 612.422 1353.27 626.843C1355.27 641.334 1356.03 656.001 1356.09 670.668L1356.06 670.703Z" fill="#00A069"/>
<path d="M1356.16 697.089C1356.09 699.931 1355.93 702.738 1355.76 705.58C1355.76 705.58 1353.3 701.931 1349.39 696.176C1345.61 690.527 1340.49 682.843 1335.03 674.668C1332.41 670.633 1329.58 666.562 1327.05 662.562C1324.52 658.527 1321.89 654.773 1319.79 651.124C1315.39 643.966 1312.27 637.931 1311.88 633.51C1320.25 641.405 1327.91 651.65 1335.33 662.457C1338.98 667.896 1342.62 673.545 1346.01 679.334C1349.52 685.124 1352.84 691.054 1356.16 697.089Z" fill="#00A069"/>
<path d="M1355.57 709.054C1355.34 713.825 1355.01 718.597 1354.65 723.334C1350.57 718.036 1346.47 712.773 1342.23 707.65L1342.16 707.755C1342.16 707.755 1343.58 710.282 1345.84 713.825C1348.08 717.369 1351.1 721.861 1354.48 725.79C1354.32 728.211 1354.15 730.632 1353.92 733.054C1351.89 730.668 1349.72 728.317 1348.04 726.597C1346.37 724.878 1345.25 723.72 1345.25 723.72L1342.23 720.913C1342.23 720.913 1345.19 729.685 1353.59 737.229L1353.1 743.124C1348.8 738.106 1342.92 731.79 1337.24 725.861C1331.52 719.931 1326.17 714.352 1322.98 710.703C1319.76 707.054 1314.14 699.124 1308.95 692.492C1306.39 689.159 1304.06 686.071 1302.32 683.896C1300.54 681.72 1299.43 680.352 1299.43 680.352L1294.43 673.159L1300.31 678.141C1312.27 688.668 1323.67 700.457 1335 712.703C1335 712.703 1333.23 710.317 1330.4 706.562C1327.68 702.808 1323.96 697.685 1319.92 692.141C1318.02 689.404 1316.01 686.527 1314.04 683.685C1312.07 680.878 1310.2 678.106 1308.52 675.404C1305.21 670.001 1302.38 665.334 1301.53 661.51C1313.42 672.527 1324.85 685.299 1335.92 698.808C1335.92 698.808 1334.38 696.597 1332.01 693.089C1329.68 689.545 1326.53 684.668 1323.18 679.44C1321.5 676.808 1319.86 674.036 1318.22 671.299C1316.54 668.597 1314.93 665.861 1313.52 663.194C1312.14 660.492 1310.76 658.036 1309.74 655.65C1308.69 653.299 1308 650.983 1307.54 648.983C1309.74 650.983 1311.81 653.229 1313.94 655.404C1316.05 657.615 1318.25 659.826 1320.28 662.211C1324.36 666.948 1328.6 671.79 1332.51 676.913C1336.51 682.001 1340.45 687.264 1344.27 692.633C1348.14 698.001 1351.92 703.51 1355.63 709.089L1355.57 709.054Z" fill="#00A069"/>
<path d="M1334.74 976.351C1333.33 976.913 1331.82 975.755 1331.32 973.825C1331.09 972.772 1330.73 971.72 1330.63 970.667L1330.21 967.509L1329.81 964.351L1329.65 961.229C1329.32 957.053 1329.35 952.913 1329.35 948.772C1329.42 944.632 1329.55 940.527 1329.75 936.422C1330.04 932.316 1330.21 928.211 1330.57 924.141C1331.88 907.79 1333.79 891.544 1335.79 875.334C1339.86 842.913 1344.43 810.597 1348.21 778.211C1351.98 745.825 1355.2 713.299 1355.89 680.667C1356.22 664.351 1355.93 648.001 1354.12 631.79C1352.25 615.65 1349 599.404 1341.6 585.018C1349.19 599.299 1352.67 615.544 1354.78 631.72C1356.81 647.93 1357.31 664.351 1357.21 680.702C1356.98 713.439 1354.15 746.071 1350.84 778.562C1347.48 811.053 1343.35 843.474 1339.73 875.895C1337.96 892.106 1336.28 908.316 1335.2 924.562C1334.87 928.632 1334.77 932.667 1334.54 936.737C1334.41 940.772 1334.31 944.843 1334.31 948.878C1334.38 952.913 1334.41 956.948 1334.77 960.913L1334.97 963.895L1335.4 966.807L1335.82 969.72C1335.92 970.702 1336.25 971.579 1336.48 972.492C1336.91 974.141 1336.09 975.93 1334.67 976.457L1334.74 976.351Z" fill="#007E57"/>
<g style="mix-blend-mode:multiply">
<path d="M682.572 1083.12C1031.27 1083.12 1313.94 1059.68 1313.94 1030.77C1313.94 1001.86 1031.27 978.421 682.572 978.421C333.875 978.421 51.1997 1001.86 51.1997 1030.77C51.1997 1059.68 333.875 1083.12 682.572 1083.12Z" fill="#898B8E"/>
</g>
<path d="M233.352 413.86V949.685C233.417 996.878 269.224 1035.12 313.374 1035.12H600.448V413.86H233.352Z" fill="#BAA68B"/>
<g style="mix-blend-mode:multiply">
<path d="M365.145 413.86V923.825C365.145 974.948 332.821 1017.93 288.835 1030.95C296.588 1033.61 304.833 1035.09 313.407 1035.09H600.481V413.86H365.145Z" fill="#BAA68B"/>
</g>
<g style="mix-blend-mode:multiply">
<path d="M560.338 536.737H496.543V468.597H560.338V536.737Z" fill="#67481E"/>
<path d="M524.335 517.018L510.702 501.579L514.119 498.141L524.433 509.825L542.862 490.141L546.18 493.72L524.335 517.018Z" fill="#D1B78C"/>
<path d="M471.249 468.386H273.461V496.141H471.249V468.386Z" fill="#67481E"/>
<path d="M471.249 514.667H273.461V536.772H471.249V514.667Z" fill="#D1B78C"/>
<path d="M560.338 659.65H496.543V591.509H560.338V659.65Z" fill="#67481E"/>
<path d="M524.335 639.93L510.702 624.492L514.119 621.053L524.433 632.737L542.862 613.053L546.18 616.597L524.335 639.93Z" fill="#D1B78C"/>
<path d="M471.249 591.264H273.461V619.018H471.249V591.264Z" fill="#67481E"/>
<path d="M471.249 637.544H273.461V659.65H471.249V637.544Z" fill="#D1B78C"/>
<path d="M560.338 782.527H496.543V714.386H560.338V782.527Z" fill="#67481E"/>
<path d="M524.335 762.807L510.702 747.369L514.119 743.93L524.433 755.614L542.862 735.965L546.18 739.509L524.335 762.807Z" fill="#D1B78C"/>
<path d="M471.249 714.176H273.461V741.93H471.249V714.176Z" fill="#67481E"/>
<path d="M471.249 760.457H273.461V782.562H471.249V760.457Z" fill="#D1B78C"/>
<path d="M560.338 905.439H496.543V837.298H560.338V905.439Z" fill="#67481E"/>
<path d="M524.335 885.719L510.702 870.281L514.119 866.842L524.433 878.526L542.862 858.842L546.18 862.386L524.335 885.719Z" fill="#D1B78C"/>
<path d="M471.249 837.053H273.461V864.807H471.249V837.053Z" fill="#67481E"/>
<path d="M471.249 883.333H273.461V905.439H471.249V883.333Z" fill="#D1B78C"/>
</g>
<path d="M784.242 0.140137L527.554 0.350663C466.618 0.350663 417.212 53.1226 417.212 118.21V923.789C417.212 985.228 370.565 1035.05 313.045 1035.05H784.275V0.140137H784.242Z" fill="#DFD6BF"/>
<path d="M533.171 0.385751C573.281 32.3858 599.594 84.1752 599.889 142.877L600.448 247.965V1035.12H784.242V0.140137L533.171 0.350663V0.385751Z" fill="#C8B9A4"/>
<path d="M1043.43 272.456L1042.87 170.667C1042.34 76.4211 970.796 0.210526 882.529 0L538.132 0.421053C538.132 0.421053 676.331 -0.877193 676.331 182.351V365.579L676.396 1035.09H1043.43V272.456Z" fill="#F7F4E7"/>
<path d="M1013.9 290.947H950.101V222.807H1013.9V290.947Z" fill="#67481E"/>
<path d="M977.859 271.228L964.259 255.79L967.675 252.351L977.957 264.035L996.386 244.351L999.704 247.93L977.859 271.228Z" fill="white"/>
<path d="M924.806 222.562H727.018V250.316H924.806V222.562Z" fill="#67481E"/>
<path d="M924.806 268.877H727.018V290.983H924.806V268.877Z" fill="#D1B78C"/>
<path d="M1013.9 413.86H950.101V345.719H1013.9V413.86Z" fill="#67481E"/>
<path d="M977.859 394.14L964.259 378.702L967.675 375.263L977.957 386.947L996.386 367.263L999.704 370.807L977.859 394.14Z" fill="white"/>
<path d="M924.806 345.474H727.018V373.228H924.806V345.474Z" fill="#67481E"/>
<path d="M924.806 391.754H727.018V413.86H924.806V391.754Z" fill="#D1B78C"/>
<path d="M1013.9 536.737H950.101V468.597H1013.9V536.737Z" fill="#67481E"/>
<path d="M977.859 517.018L964.259 501.579L967.675 498.141L977.957 509.825L996.386 490.141L999.704 493.72L977.859 517.018Z" fill="white"/>
<path d="M924.806 468.386H727.018V496.141H924.806V468.386Z" fill="#67481E"/>
<path d="M924.806 514.667H727.018V536.772H924.806V514.667Z" fill="#D1B78C"/>
<path d="M1013.9 659.649H950.101V591.509H1013.9V659.649Z" fill="#67481E"/>
<path d="M977.859 639.93L964.259 624.491L967.675 621.053L977.957 632.737L996.386 613.053L999.704 616.597L977.859 639.93Z" fill="white"/>
<path d="M924.806 591.263H727.018V619.018H924.806V591.263Z" fill="#67481E"/>
<path d="M924.806 637.544H727.018V659.649H924.806V637.544Z" fill="#D1B78C"/>
<path d="M1013.9 782.527H950.101V714.386H1013.9V782.527Z" fill="#67481E"/>
<path d="M977.859 762.807L964.259 747.369L967.675 743.93L977.957 755.614L996.386 735.965L999.704 739.509L977.859 762.807Z" fill="white"/>
<path d="M924.806 714.176H727.018V741.93H924.806V714.176Z" fill="#67481E"/>
<path d="M924.806 760.457H727.018V782.562H924.806V760.457Z" fill="#D1B78C"/>
<path d="M1013.9 905.439H950.101V837.298H1013.9V905.439Z" fill="#67481E"/>
<path d="M977.859 885.719L964.259 870.281L967.675 866.842L977.957 878.526L996.386 858.842L999.704 862.386L977.859 885.719Z" fill="white"/>
<path d="M924.806 837.053H727.018V864.807H924.806V837.053Z" fill="#67481E"/>
<path d="M924.806 883.333H727.018V905.439H924.806V883.333Z" fill="#D1B78C"/>
<g style="mix-blend-mode:multiply">
<path d="M974.048 1125.65C965.474 1135.83 1009.66 1174.77 1227.19 1161.3C1321.96 1155.44 1317.2 1138.98 1295.25 1125.69C1274.66 1113.19 1219.6 1093.86 1140.76 1095.97C1065.11 1097.97 990.834 1105.72 974.048 1125.65Z" fill="#CDD0D1"/>
</g>
<g style="mix-blend-mode:multiply">
<path d="M1087.87 1139.68V1141.93C1087.87 1142.74 1088.23 1143.51 1088.86 1143.97C1091.26 1145.72 1098.78 1149.37 1118.39 1147.65C1144.57 1145.33 1157.12 1138.39 1162.34 1135.47C1163.13 1135.05 1163.59 1134.21 1163.59 1133.26V1128.63C1163.59 1128.63 1090.5 1136.28 1087.87 1139.68Z" fill="#262226"/>
</g>
<g style="mix-blend-mode:multiply">
<path d="M1087.87 1139.68V1141.93C1087.87 1142.74 1088.23 1143.51 1088.86 1143.97C1091.26 1145.72 1098.78 1149.37 1118.39 1147.65C1144.57 1145.33 1157.12 1138.39 1162.34 1135.47C1163.13 1135.05 1163.59 1134.21 1163.59 1133.26V1128.63C1163.59 1128.63 1090.5 1136.28 1087.87 1139.68Z" fill="#262226"/>
</g>
<path d="M1087.87 1139.68C1080.84 1131.83 1130.25 1097.61 1134.06 1097.61L1161.32 1099.44C1164.35 1101.37 1166.22 1113.3 1165.3 1128.11C1163.95 1137.97 1100.16 1153.47 1087.84 1139.68H1087.87Z" fill="#262226"/>
<g style="mix-blend-mode:multiply" opacity="0.3">
<path d="M1126.21 1130.32C1119.05 1124.95 1117.4 1115.51 1107.16 1115.51C1095.1 1125.09 1084.32 1135.72 1087.87 1139.68C1095.53 1148.28 1123.15 1145.51 1143.22 1139.79C1146.44 1130.32 1130.74 1133.72 1126.21 1130.32Z" fill="#262226"/>
</g>
<g style="mix-blend-mode:multiply">
<path d="M1258.69 1139.68V1141.93C1258.69 1142.74 1258.33 1143.51 1257.71 1143.97C1255.31 1145.72 1247.79 1149.37 1228.17 1147.65C1201.99 1145.33 1189.44 1138.39 1184.22 1135.47C1183.43 1135.05 1182.97 1134.21 1182.97 1133.26V1128.63C1182.97 1128.63 1256.06 1136.28 1258.69 1139.68Z" fill="#262226"/>
</g>
<g style="mix-blend-mode:multiply">
<path d="M1258.69 1139.68V1141.93C1258.69 1142.74 1258.33 1143.51 1257.71 1143.97C1255.31 1145.72 1247.79 1149.37 1228.17 1147.65C1201.99 1145.33 1189.44 1138.39 1184.22 1135.47C1183.43 1135.05 1182.97 1134.21 1182.97 1133.26V1128.63C1182.97 1128.63 1256.06 1136.28 1258.69 1139.68Z" fill="#262226"/>
</g>
<path d="M1258.69 1139.68C1265.72 1131.83 1216.32 1097.61 1212.5 1097.61L1185.24 1099.44C1182.22 1101.37 1180.34 1113.3 1181.26 1128.11C1182.61 1137.97 1246.41 1153.47 1258.72 1139.68H1258.69Z" fill="#262226"/>
<g style="mix-blend-mode:multiply" opacity="0.3">
<path d="M1220.36 1130.32C1227.52 1124.95 1229.16 1115.51 1239.41 1115.51C1251.46 1125.09 1262.24 1135.72 1258.69 1139.69C1251.04 1148.28 1223.41 1145.51 1203.34 1139.79C1200.12 1130.32 1215.82 1133.72 1220.36 1130.32Z" fill="#262226"/>
</g>
<path d="M1218.52 745.58H1120.16C1120.16 745.58 1113.27 787.369 1113.56 818.597C1113.86 849.825 1121.18 1089.65 1121.18 1089.65C1121.18 1089.65 1118.13 1105.72 1136 1108.46C1162.8 1112.56 1167.07 1102.56 1167.07 1102.56C1167.07 1102.56 1165 928.281 1168.12 855.229C1171.28 928.281 1179.46 1102.56 1179.46 1102.56C1179.46 1102.56 1183.7 1112.56 1210.53 1108.46C1228.4 1105.72 1225.35 1089.65 1225.35 1089.65C1225.35 1089.65 1225.97 852.211 1225.97 825.474C1225.97 798.738 1218.48 745.58 1218.48 745.58H1218.52Z" fill="#312E39"/>
<path d="M1201.7 585.965L1188.75 582.737L1188 584.036C1179.13 598.983 1158.7 598.983 1149.83 584.036L1149.07 582.737L1136.13 585.965L1098.68 598.246L1115.63 695.79L1118.52 742.983C1118.75 748.562 1123.05 752.948 1128.28 752.948H1209.61C1214.84 752.948 1219.14 748.562 1219.37 742.983L1222.26 695.79L1239.21 598.246L1201.76 585.965H1201.7Z" fill="#D90041"/>
<path d="M1188.75 558.036H1149.07V585.755L1152.62 594.878C1158.63 610.422 1179.23 610.422 1185.24 594.878L1188.79 585.755V558.036H1188.75Z" fill="#F4A48B"/>
<path d="M1138.89 543.194H1140.01V528.001C1140.01 526.281 1138.69 524.878 1137.08 524.878C1135.47 524.878 1134.16 526.281 1134.16 528.001V538.141C1134.16 540.913 1136.26 543.194 1138.89 543.194Z" fill="#F4A48B"/>
<path d="M1171.9 492.843H1152.88C1145.79 492.843 1140.01 498.983 1140.01 506.597V539.194C1140.01 549.229 1142.73 559.088 1147.82 567.509L1152.29 574.913C1155.28 579.825 1160.37 582.808 1165.86 582.808H1171.97C1177.45 582.808 1182.58 579.825 1185.53 574.913L1190 567.509C1195.09 559.053 1197.82 549.229 1197.82 539.194V508.141C1197.82 499.72 1191.42 492.878 1183.53 492.878H1171.9V492.843Z" fill="#F5BEAD"/>
<path d="M1198.9 543.194H1197.79V528.001C1197.79 526.281 1199.1 524.878 1200.71 524.878C1202.32 524.878 1203.64 526.281 1203.64 528.001V538.141C1203.64 540.913 1201.53 543.194 1198.9 543.194Z" fill="#F4A48B"/>
<path d="M1148.74 487.755C1144.44 486.211 1139.97 489.615 1139.97 494.457V527.369C1139.97 527.369 1141.52 517.264 1146.51 513.65C1154.62 507.79 1150.78 495.79 1150.78 495.79C1150.78 495.79 1156.99 507.79 1179.29 505.404C1196.47 503.545 1197.76 521.088 1197.76 521.088L1198.12 509.194C1198.41 499.65 1199.1 493.72 1184.91 486.422C1170.72 479.124 1157.05 482.527 1148.71 487.755H1148.74Z" fill="#251D27"/>
<path d="M1015.24 708.632L1073.98 725.72C1085.01 728.562 1096.35 722.247 1100.49 710.948L1113.4 683.054L1098.65 598.211C1098.65 598.211 1083.8 680.317 1073.78 688.247C1047.27 688.247 1015.77 685.475 1015.77 685.475L1015.27 708.597L1015.24 708.632Z" fill="#C1154C"/>
<path d="M1229.32 765.72C1225.25 772.036 1237.77 788.141 1237.77 788.141C1237.77 788.141 1275.21 749.685 1299.46 701.79C1302.74 695.334 1300.15 686.738 1296.07 680.808L1239.18 598.211L1229.49 654.001L1267.23 696.703C1267.23 696.703 1245.09 741.299 1229.36 765.685L1229.32 765.72Z" fill="#C1154C"/>
<path d="M1008.34 1034.98L1035.31 1153.19C1035.44 1154.04 1036.56 1154.04 1036.76 1153.23L1068.75 1036.18L1008.34 1034.98Z" fill="#F8CCC7"/>
<path d="M1028.48 1035.4L1035.31 1153.16C1035.44 1154 1036.56 1154 1036.76 1153.19L1048.62 1035.79L1028.48 1035.4Z" fill="#FADBD6"/>
<path d="M1030.06 1130.11L1035.31 1153.19C1035.44 1154.04 1036.56 1154.04 1036.76 1153.23L1043 1130.46L1030.06 1130.14V1130.11Z" fill="#3C3C3B"/>
<path d="M1060.05 494.352L1070.13 494.562C1075.69 494.667 1080.12 499.58 1080.02 505.509L1068.79 1036.21L1058.37 1056.18L1048.65 1035.83L1060.08 494.387L1060.05 494.352Z" fill="#FEEE5D"/>
<path d="M1039.91 493.966L1060.05 494.352L1048.62 1035.83L1038.2 1055.79L1028.48 1035.4L1039.91 493.966Z" fill="#4B474B"/>
<path d="M1029.83 493.755L1039.91 493.966L1028.48 1035.4L1018.07 1055.37L1008.34 1035.02L1019.58 504.317C1019.68 498.387 1024.28 493.65 1029.83 493.755Z" fill="#FEEE5D"/>
<path d="M1227.91 790.106C1227.91 790.106 1227.85 790.071 1227.85 790.036C1225.61 788.141 1222.62 787.544 1219.9 788.387C1216.28 789.509 1211.39 791.088 1208.99 791.825C1207.64 792.246 1206.13 792.176 1204.88 791.474C1202.12 789.86 1202.85 786.667 1204.88 786.001L1221.93 780.597L1221.83 780.351C1221.41 779.123 1220.16 778.492 1218.98 778.843L1202.35 784.106C1201.01 784.527 1199.5 784.457 1198.25 783.755C1195.49 782.141 1196.21 778.948 1198.25 778.281L1217.86 772.071L1217.46 770.983C1217.04 769.755 1215.79 769.123 1214.61 769.474L1198.25 774.632C1196.9 775.053 1195.39 774.983 1194.14 774.281C1191.38 772.667 1192.1 769.474 1194.14 768.808L1212.96 762.878C1212.54 761.65 1211.29 761.018 1210.11 761.369L1198.67 764.983C1197.33 765.404 1195.82 765.334 1194.57 764.632C1191.81 763.018 1192.53 759.825 1194.57 759.158L1208.66 754.702C1210.83 754.001 1213.16 754.387 1215.07 755.72L1230.15 766.351C1232.97 768.351 1235.07 771.334 1236.03 774.843L1238.19 782.773C1239.21 786.422 1237.24 790.246 1233.82 791.334C1231.72 792.001 1229.49 791.544 1227.78 790.071L1227.91 790.106Z" fill="#F5BEAD"/>
<path d="M1018.72 702.352C1018.72 702.352 1018.76 702.282 1018.79 702.282C1020.4 699.755 1023.06 698.247 1025.95 698.211C1029.7 698.141 1034.82 698.071 1037.32 698.036C1038.73 698.036 1040.14 697.475 1041.13 696.387C1043.33 693.966 1041.75 691.124 1039.58 691.159L1021.81 691.404V691.159C1021.91 689.861 1022.9 688.843 1024.14 688.843L1041.49 688.597C1042.9 688.597 1044.31 688.036 1045.3 686.948C1047.5 684.527 1045.92 681.685 1043.76 681.72L1023.32 682.001L1023.39 680.843C1023.45 679.545 1024.47 678.527 1025.69 678.527L1042.74 678.282C1044.15 678.282 1045.56 677.72 1046.55 676.633C1048.75 674.211 1047.17 671.369 1045 671.404L1025.39 671.685C1025.46 670.387 1026.48 669.369 1027.69 669.369L1039.62 669.194C1041.03 669.194 1042.44 668.632 1043.43 667.545C1045.63 665.124 1044.05 662.282 1041.88 662.317L1027.2 662.527C1024.93 662.527 1022.8 663.65 1021.38 665.51L1009.95 680.422C1007.82 683.229 1006.64 686.738 1006.7 690.387L1006.83 698.668C1006.9 702.457 1009.82 705.51 1013.37 705.44C1015.54 705.44 1017.57 704.247 1018.82 702.317L1018.72 702.352Z" fill="#F5BEAD"/>
<g style="mix-blend-mode:multiply">
<path d="M799.058 1146.88C770.084 1179.79 753.561 1150.25 647.193 1162C535.701 1174.35 502.161 1163.02 499.238 1140.7C497.3 1125.93 521.477 1113.76 580.114 1115.19C619.271 1116.14 671.732 1117.97 708.13 1115.47C798.861 1109.33 812.296 1131.83 799.058 1146.88Z" fill="#CDD0D1"/>
</g>
<path d="M665.918 1102.81C665.918 1102.81 667.396 1115.54 668.02 1122.39C668.348 1125.68 667.954 1137.19 668.578 1142.63C669.203 1148.07 675.313 1150.74 682.113 1149.86C688.912 1148.95 697.946 1142.95 707.505 1141.86C720.547 1140.35 732.57 1136.18 734.771 1131.58C741.571 1117.3 704.188 1118.63 696.139 1114.98C688.124 1111.33 686.284 1100.11 686.284 1100.11C686.284 1100.11 669.925 1100.28 665.885 1102.81H665.918Z" fill="#F5BEAD"/>
<path d="M565.66 1095.26C565.66 1095.26 566.252 1108.7 565.003 1116C564.445 1119.26 561.62 1129.37 561.258 1134.84C560.897 1140.32 565.693 1144.25 571.672 1144.88C577.683 1145.47 584.22 1141.3 592.696 1140.77C601.992 1140.21 613.26 1134.74 615.559 1130.49C619.468 1123.3 618.22 1116.81 606.887 1115.02C602.781 1114.35 595.718 1116.21 589.411 1110.88C583.136 1105.54 583.662 1097.09 583.662 1097.09C583.662 1097.09 569.569 1093.68 565.66 1095.3V1095.26Z" fill="#F5BEAD"/>
<path d="M699.983 1116.04C695.647 1122.18 688.814 1126.42 679.452 1126.42C675.149 1126.42 671.371 1125.54 668.119 1123.97C668.25 1128.46 665.228 1134.56 667.068 1148.07C672.915 1154.11 694.957 1147.83 708.557 1145.3C721.5 1142.91 732.603 1136.14 734.804 1131.51C740.815 1118.88 712.236 1118.49 700.016 1116L699.983 1116.04Z" fill="#262226"/>
<path d="M576.928 1124.11C585.14 1124.11 591.119 1119.93 594.929 1113.86C602.222 1114.84 611.321 1113.33 614.245 1113.79C625.578 1115.58 624.691 1123.58 618.713 1130.56C615.691 1134.11 604.357 1141.09 595.258 1143.68C585.403 1146.49 567.434 1148.77 561.226 1144.07C558.86 1135.75 562.277 1123.05 564.182 1119.72C567.598 1122.42 571.836 1124.07 576.928 1124.07V1124.11Z" fill="#262226"/>
<path d="M568.124 763.194C568.124 763.194 563.69 781.018 563.69 820.597C563.69 839.123 565.266 917.615 567.434 961.229C567.993 972.246 560.437 1072.81 557.612 1103.83C557.612 1103.83 576.961 1111.68 593.419 1104C593.419 1104 606.69 1014.39 610.402 946.001C611.782 920.457 613.621 872.492 616.052 868.387C616.052 868.387 636.419 965.299 638.817 976.246C639.638 980.036 658.987 1106.63 659.381 1110.84C659.381 1110.84 682.113 1114.67 692.034 1106.07C692.034 1106.07 689.898 1009.79 685.168 969.229C683.361 953.755 681.784 886.422 677.678 808.316C676.233 780.878 670.024 760.281 670.024 760.281C670.024 760.281 581.724 762.597 568.19 763.229L568.124 763.194Z" fill="#1D3B6E"/>
<path d="M521.773 801.614C519.605 803.264 516.583 805.93 516.156 811.649C515.729 817.369 517.273 831.123 518.422 836.632C519.901 843.755 528.442 861.263 533.106 857.509C535.931 855.228 533.139 846.632 532.252 838.492C531.431 831.053 532.646 823.93 532.942 823.544C533.566 822.772 536.194 831.299 537.705 833.053C539.183 834.807 542.731 835.053 543.388 833.825C543.585 833.439 542.206 829.579 542.041 825.72C541.877 822.316 541.122 816.667 539.808 811.053C539.315 808.878 535.603 800.597 532.646 798.948C530.872 797.965 525.912 798.457 521.74 801.579L521.773 801.614Z" fill="#F5BEAD"/>
<path d="M758.127 473.439C758.127 473.439 759.671 455.615 761.609 453.79C763.548 452.001 767.26 447.895 767.949 445.93C768.738 443.615 770.315 420.387 768.836 416.632C766.964 411.86 753.068 405.825 752.05 405.439C751.393 390.316 755.171 376.211 748.798 375.194C743.706 374.387 743.805 388.316 742.951 404.281C742.294 417.088 737.859 437.685 738.647 441.194C739.14 443.369 740.947 448.176 741.242 450.281C741.538 452.387 738.549 472.001 738.549 472.001L758.094 473.439H758.127Z" fill="#F5BEAD"/>
<path d="M577.256 610.527C567.073 618.001 524.467 677.474 512.247 705.018C505.282 720.738 511.36 799.369 513.035 802.316C517.831 810.632 535.833 801.018 536.818 795.439C538.855 783.86 537.442 746.597 541.976 726.492C544.439 715.545 551.699 695.755 564.248 682.457C564.609 688.457 562.802 732.001 567.073 759.825C571.343 787.65 666.213 785.018 674.59 762.702C683 740.387 670.254 673.58 685.726 643.51C685.726 643.51 723.306 597.474 744.363 549.966C755.86 524.036 763.777 491.159 762.759 467.264C762.562 462.632 743.082 456.036 738.68 460.562C734.081 465.264 734.311 495.229 717.656 526.492C700.64 558.387 676.265 579.615 669.958 583.018C663.618 586.387 591.283 600.211 577.256 610.562V610.527Z" fill="#43B3DF"/>
<path d="M649.854 578.632C649.854 578.632 650.019 581.58 648.836 592.948C647.522 605.404 609.482 613.229 611.355 600.317C612.997 588.948 614.902 580.457 614.902 580.457L649.854 578.632Z" fill="#F5BEAD"/>
<path d="M665.622 540.773C665.622 540.773 669.006 538.773 670.024 542.036C671.043 545.299 668.513 558.176 662.83 560.983C662.83 560.983 663.224 544.948 665.589 540.773H665.622Z" fill="#F5BEAD"/>
<path d="M603.109 540.808C603.109 540.808 599.726 538.808 598.707 542.071C597.689 545.334 599.923 558.211 605.573 561.018C605.573 561.018 605.474 544.983 603.109 540.808Z" fill="#F5BEAD"/>
<path d="M660.695 505.194C672.159 523.404 665.655 566.387 654.618 578.001C647.588 585.404 638.521 591.93 630.506 592.492C623.312 593.018 617.037 588.246 612.997 583.159C603.208 570.667 599.266 528.071 607.675 511.509C619.764 487.65 646.175 482.141 660.695 505.229V505.194Z" fill="#4A2A15"/>
<g style="mix-blend-mode:multiply">
<path d="M50.8713 1199.51C42.2975 1209.69 86.4804 1248.63 304.012 1235.16C398.783 1229.3 394.02 1212.84 372.076 1199.54C351.479 1187.05 296.423 1167.72 217.584 1169.83C141.931 1171.83 67.6575 1179.58 50.8713 1199.51Z" fill="#CDD0D1"/>
</g>
<path d="M170.576 1184.04C170.576 1184.04 156.023 1197.68 155.136 1203.76C154.052 1211.12 162.856 1211.83 162.856 1211.83C162.856 1211.83 202.604 1207.16 214.102 1199.3C225.599 1191.44 211.441 1179.86 202.276 1179.86C193.111 1179.86 177.474 1178.14 170.543 1184.04H170.576Z" fill="#8ECAE5"/>
<path d="M204.641 1180.07C204.641 1180.07 162.298 1171.23 147.088 1181.05C131.879 1190.91 122.681 1208.11 126.36 1213.54C130.039 1218.95 160.918 1216 168.276 1211.09C175.635 1206.18 172.448 1187.97 170.576 1184C176.784 1181.47 198.235 1180.56 206.513 1182.53C214.791 1184.49 204.641 1180.07 204.641 1180.07Z" fill="#262226"/>
<path d="M239.724 974.667C227.044 968.773 212.755 967.93 199.582 972.387C180.365 978.878 154.249 991.439 146.234 1005.54C136.905 1022 132.536 1095.19 134.835 1101.09C137.135 1106.98 185.424 1138.7 215.678 1140.63C240.02 1142.18 275.137 1133.86 277.108 1127.23C279.079 1120.6 284.827 1031.93 281.345 1018C279.801 1011.86 262.982 985.509 239.724 974.667Z" fill="#E30A00"/>
<path d="M244.356 916.808C243.896 905.58 228.982 907.896 218.569 906.738C208.156 907.896 193.209 905.58 192.782 916.808C192.322 928.141 193.768 960.703 194.654 969.018C195.541 977.229 207.334 993.054 218.569 993.054C229.804 993.054 241.63 977.264 242.484 969.018C243.371 960.703 244.816 928.141 244.356 916.808Z" fill="#F5BEAD"/>
<path d="M242.287 896.317C235.585 890.562 229.015 889.369 218.569 889.369C208.123 889.369 201.684 890.738 194.852 896.317C184.832 904.422 190.121 938.562 191.041 941.79C191.961 944.983 193.176 942.597 193.176 942.597C193.176 942.597 193.012 925.931 199.253 924.211C205.462 922.492 210.258 930.492 218.602 930.492C226.946 930.492 231.742 922.492 237.951 924.211C244.159 925.931 244.028 942.597 244.028 942.597C244.028 942.597 245.572 946.281 246.491 943.088C247.411 939.896 253.456 905.895 242.352 896.352L242.287 896.317Z" fill="#66140B"/>
<path d="M193.143 942.562C193.143 942.562 191.337 939.299 188.15 939.054C184.997 938.808 187.033 949.439 187.986 953.51C188.938 957.58 192.519 959.124 193.8 956.773L193.143 942.562Z" fill="#F4A48B"/>
<path d="M136.445 1093.44C136.445 1093.44 181.679 1113.86 224.942 1110.67C251.287 1108.7 292.514 1100.84 292.514 1100.84C292.514 1100.84 306.771 1126.46 296.193 1136.28C285.583 1146.14 222.182 1174.67 178.098 1154.49C134.014 1134.32 132.437 1096.84 136.445 1093.44Z" fill="#0D4682"/>
<path d="M193.932 1171.23C193.932 1171.23 247.444 1131.86 266.793 1118.46C283.645 1106.77 316.002 1078.7 331.211 1102.32C346.421 1125.93 325.692 1147.09 308.643 1159.4C293.795 1170.11 232.005 1200.11 216.828 1208.84C209.01 1209.33 192.618 1185.47 193.932 1171.19V1171.23Z" fill="#1D66AF"/>
<path d="M226.158 1188.95C226.158 1188.95 243.798 1200.81 261.8 1205.51C265.807 1206.49 269.289 1207.19 272.279 1207.72C279.013 1208.91 283.907 1201.09 280.327 1194.84C276.221 1187.65 270.702 1179.76 264.855 1176.14C252.864 1168.77 229.837 1165.3 226.158 1168.28C222.478 1171.26 223.398 1179.61 226.158 1188.95Z" fill="#8ECAE5"/>
<path d="M260.42 1173.83C260.42 1173.83 241.367 1185.47 251.123 1201.97C265.413 1210.32 306.344 1214.21 306.344 1207.3C306.344 1200.39 301.515 1187.19 280.327 1177.33C259.139 1167.47 248.66 1166.63 247.444 1169.44C257.562 1172.6 260.42 1173.83 260.42 1173.83Z" fill="#262226"/>
<path d="M236.308 1165.33C236.308 1165.33 208.649 1144.84 180.398 1126.49C162.002 1114.56 130.827 1080.7 116.538 1086.6C102.248 1092.49 93.97 1110.49 98.569 1125.61C103.168 1140.74 137.43 1163.33 157.994 1173.51C183.223 1186 210.061 1194.28 224.975 1196.63C234.731 1198.18 245.013 1169.3 236.341 1165.37L236.308 1165.33Z" fill="#1E75BA"/>
<path d="M179.478 1109.51L270.373 1106.11L271.194 1099.3L177.507 1102L179.478 1109.51Z" fill="#EAE4D1"/>
<path d="M171.036 1106.42L175.897 1114.07L272.903 1111.02L275.728 1102.67L171.036 1106.42Z" fill="#66140B"/>
<path d="M254.31 1106.98C252.667 1106.18 250.762 1105.93 249.054 1106.63C248.002 1107.05 247.017 1107.65 246.13 1108.39L242.812 1111.19C238.837 1114.53 233.22 1114.49 229.278 1111.12L222.248 1105.05C220.704 1103.72 218.898 1102.81 216.959 1102.35C216.5 1102.25 216.007 1102.25 215.514 1102.28C215.514 1102.28 211.474 1102.63 212.032 1104.46L209.962 1103.23C207.104 1101.54 204.509 1100.39 201.323 1101.02C199.155 1101.44 199.155 1102.91 199.286 1104.67C199.286 1104.67 199.615 1105.47 200.502 1106.53C199.319 1106.25 198.104 1106.14 196.757 1106.42C194.589 1106.84 194.589 1108.32 194.72 1110.07C194.72 1110.07 195.837 1112.88 199.91 1115.19L219.883 1129.4C222.412 1131.23 225.402 1132.18 228.457 1132.18H229.607C230.461 1132.18 231.315 1132.11 232.169 1131.93C237.72 1130.63 242.681 1127.3 246.196 1122.49L253.488 1112.46C257.003 1107.68 254.375 1106.98 254.375 1106.98H254.31Z" fill="#F4A48B"/>
<path d="M243.995 942.562C243.995 942.562 245.802 939.299 248.988 939.054C252.142 938.808 250.105 949.439 249.152 953.51C248.2 957.58 244.619 959.124 243.338 956.773L243.995 942.562Z" fill="#F4A48B"/>
<path d="M184.898 1036.6L186.015 1035.3C188.84 1032 190.417 1027.72 190.417 1023.23V1001.93C190.417 1001.23 190.482 1000.56 190.647 999.86L192.486 991.509L194.654 968.351C194.753 967.158 195.87 966.351 196.954 966.702L197.512 966.878C198.531 967.194 199.253 968.176 199.286 969.299L200.206 993.018L203.885 990.386C205.495 989.229 207.696 989.58 208.911 991.229L210.718 993.65L211.145 993.369C212.82 992.281 214.988 992.808 216.007 994.562L217.354 996.843L220.836 994.667C221.723 994.106 222.839 994.492 223.299 995.439L223.365 995.58C224.121 997.158 223.726 999.088 222.478 1000.25L217.781 1004.46C215.12 1006.88 213.543 1010.39 213.477 1014.14L213.379 1021.61C213.28 1027.51 211.342 1033.19 207.827 1037.72L198.038 1050.39L184.898 1036.6Z" fill="#F9D1C5"/>
<path d="M191.008 1034C191.008 1034 186.278 1029.09 181.482 1034.49C177.737 1038.74 166.93 1053.44 154.644 1065.19C137.43 1081.72 136.215 1084.21 134.408 1093.9C131.09 1111.72 146.924 1118.67 164.137 1102.88C181.351 1087.12 188.61 1074.21 194.458 1068.28C200.338 1062.39 204.707 1054.98 201.487 1048.7C198.268 1042.42 193.012 1036.28 191.008 1033.93V1034Z" fill="#E72000"/>
</svg>
