<svg width="33" height="32" viewBox="0 0 33 32" fill="none" xmlns="http://www.w3.org/2000/svg">
<path fill-rule="evenodd" clip-rule="evenodd" d="M15.6125 23.8767C16.0009 23.9107 16.4012 23.9286 16.8138 23.9286C23.3334 23.9286 28.7665 16 28.7665 16C28.7665 16 27.8772 14.7022 26.3864 13.1568L15.6125 23.8767Z" fill="#979797"/>
<path fill-rule="evenodd" clip-rule="evenodd" d="M20.1408 8.72534C19.0816 8.31847 17.9646 8.07143 16.8138 8.07143C8.12091 8.07143 4.86108 16 4.86108 16C4.86108 16 5.85723 18.4228 8.21662 20.5898L12.8295 16C12.8295 13.8106 14.6133 12.0357 16.8138 12.0357L20.1408 8.72534Z" fill="#979797"/>
<rect opacity="0.3" width="25.1704" height="2.64951" transform="matrix(0.708879 -0.705331 0.708879 0.705331 7.65015 24.5034)" fill="#979797"/>
</svg>
