<svg width="880" height="1232" viewBox="0 0 880 1232" fill="none" xmlns="http://www.w3.org/2000/svg">
<g opacity="0.5">
<g style="mix-blend-mode:multiply" opacity="0.5">
<path d="M95.7383 1229.53C87.8495 1234.05 79.9333 1219.88 74.5529 1210.77C46.0212 1162.4 28.1259 1101.83 27.616 1040.08C27.106 978.32 44.7046 915.941 77.8358 873.738C119.815 820.265 180.256 803.964 229.873 764.213C248.099 749.63 265.714 730.274 272.741 703.218C280.054 675.113 274.661 643.978 267.832 615.568C252.597 552.115 230.349 491.707 202.061 437.022C181.226 396.733 156.882 358.862 143.211 313.338C121.782 241.999 130.623 155.779 165.549 95.421C200.475 35.0632 260.131 2.94323 316.298 14.2246C358.514 22.7097 396.345 53.0789 435.511 76.196C474.677 99.3131 519.83 115.339 559.454 94.1838C583.612 81.2935 602.807 56.0274 624.76 37.2579C701.807 -28.6236 815.167 0.350621 869.802 99.8575L879.077 1223.06L95.7383 1229.53Z" fill="#FFBC00"/>
</g>
<g style="mix-blend-mode:multiply" opacity="0.5">
<path d="M11.8657 545.668C29.7306 482.266 81.3117 439.811 131.214 447.436C153.371 450.812 175.354 463.794 189.749 486.941C203.287 508.727 209.127 537.619 210.565 565.949C213.415 621.74 199.022 680.734 167.08 715.91C82.4583 809.027 -23.4942 671.2 11.8657 545.668Z" fill="#FFBC00"/>
</g>
<g style="mix-blend-mode:multiply" opacity="0.5">
<path d="M28.1559 404.119C5.71239 348.191 78.4538 298.42 102.523 349.034C111.45 367.822 102.28 393.777 88.7509 406.381C73.0826 420.967 34.0897 431.616 25.894 398.962L28.1347 404.119L28.1559 404.119Z" fill="#FFBC00"/>
</g>
</g>
</svg>
