<svg width="33" height="33" viewBox="0 0 33 33" fill="none" xmlns="http://www.w3.org/2000/svg">
<path fill-rule="evenodd" clip-rule="evenodd" d="M15.6125 24.2703C16.0009 24.3038 16.4012 24.3214 16.8138 24.3214C23.3334 24.3214 28.7665 16.5 28.7665 16.5C28.7665 16.5 27.8772 15.2198 26.3864 13.6952L15.6125 24.2703Z" fill="#979797"/>
<path fill-rule="evenodd" clip-rule="evenodd" d="M20.1408 9.32365C19.0816 8.92228 17.9646 8.67857 16.8138 8.67857C8.12091 8.67857 4.86108 16.5 4.86108 16.5C4.86108 16.5 5.85723 18.8901 8.21662 21.0278L12.8295 16.5C12.8295 14.3402 14.6133 12.5893 16.8138 12.5893L20.1408 9.32365Z" fill="#979797"/>
<rect opacity="0.3" width="25.0017" height="2.63176" transform="matrix(0.71366 -0.700492 0.71366 0.700492 7.65015 24.8885)" fill="#979797"/>
</svg>
