<svg width="673" height="752" viewBox="0 0 673 752" fill="none" xmlns="http://www.w3.org/2000/svg">
<g style="mix-blend-mode:hard-light" opacity="0.4">
<path d="M370.194 489.307C382.174 466.788 300.261 427.708 323.442 417.343C347.339 406.663 374.83 413.375 400.828 416.104C462.671 422.596 526.755 404.201 575.903 365.827C597.233 349.173 615.669 328.818 630.434 306.079C672.659 241.045 685.214 156.911 629.781 95.2338C590.263 51.2771 523.815 24.7118 465.192 31.9726C402.057 39.7822 344.477 85.856 278.806 71.4442C251.144 65.3753 226.329 50.9008 198.262 46.9332C169.122 42.8088 138.985 45.5846 111.168 55.3231C59.686 73.3574 15.3455 113.833 3.33463 168.234C-11.3055 234.616 24.4003 302.832 68.663 349.957C81.8096 363.961 96.3097 376.679 111.93 387.829C126.026 397.881 237.873 449.146 243.225 467.18H336.9L336.838 511.811L370.179 489.307H370.194Z" fill="#EBECEC"/>
</g>
<g style="mix-blend-mode:hard-light" opacity="0.2">
<path d="M538.532 412.262C556.129 404.734 578.003 402.539 593.172 414.253C598.54 418.409 602.865 424.494 603.223 431.3C603.487 436.192 601.698 440.991 599.333 445.272C587.214 467.211 561.341 477.232 536.883 481.984C509.299 487.347 480.827 488.178 452.979 484.399C439.988 482.643 404.002 475.256 403.846 456.328C403.753 443.798 418.035 446.495 427.806 446.715C446.74 447.17 464.383 447.75 482.632 441.258C502.531 434.185 519.178 420.51 538.532 412.246V412.262Z" fill="#EBECEC"/>
</g>
<g style="mix-blend-mode:hard-light" opacity="0.2">
<path d="M316.97 3.83901C309.907 5.3288 303.108 7.85361 296.091 9.56295C275.088 14.691 252.342 12.1975 232.91 2.67854C229.3 0.906472 225.053 -1.11651 221.475 0.73397C219.701 1.65921 218.487 3.39991 217.709 5.25039C215.22 11.2252 216.947 18.3292 220.681 23.5984C224.415 28.8675 229.86 32.6312 235.368 35.9558C247.519 43.3263 260.759 49.3169 274.823 51.136C288.888 52.9551 303.901 50.2735 315.259 41.6954C318.137 39.5156 320.782 36.9751 323.971 35.2971C332.046 31.016 342.003 33.0233 350.435 36.5203C353.189 37.6651 355.927 38.9667 358.868 39.4058C374.986 41.8052 380.416 22.2654 370.256 13.0757C357.654 1.67489 332.466 0.57715 316.97 3.83901Z" fill="#EBECEC"/>
</g>
<g style="mix-blend-mode:hard-light" opacity="0.2">
<path d="M390.264 29.0087C387.479 25.292 384.616 21.4499 383.356 16.9649C382.096 12.4798 382.765 7.11655 386.219 3.99583C388.755 1.70626 392.318 0.969202 395.725 0.733972C400.05 0.436013 404.749 0.890792 408.078 3.69787C413.072 7.90066 413.01 16.2592 409.089 21.497C405.169 26.7348 398.463 29.1968 391.975 29.6516" fill="#EBECEC"/>
</g>
<g style="mix-blend-mode:hard-light" opacity="0.2">
<path d="M632.301 344.061C639.225 339.513 647.75 336.345 655.716 338.587C664.211 340.987 670.216 349.33 671.616 358.112C673.017 366.894 670.45 375.926 666.327 383.783C660.197 395.435 649.711 405.597 636.782 407.588C590.543 414.724 609.617 358.99 632.301 344.061Z" fill="#EBECEC"/>
</g>
<g style="mix-blend-mode:hard-light" opacity="0.2">
<path d="M109.269 426.14C102.673 422.894 95.0961 422.533 87.9082 421.012C77.2821 418.77 67.216 413.845 58.8769 406.82C54.365 403.009 50.3199 398.587 45.2947 395.513C40.2694 392.44 33.8128 390.903 28.4919 393.427C21.6931 396.658 19.1415 405.675 21.133 412.983C23.1244 420.291 28.6008 426.093 34.404 430.923C48.3285 442.528 66.5003 450.541 84.2832 447.358C88.2972 446.637 117.111 446.543 117.391 446.292C124.376 439.94 114.793 428.869 109.269 426.14Z" fill="#EBECEC"/>
</g>
<g style="mix-blend-mode:hard-light" opacity="0.2">
<path d="M62.8442 394.29C59.5303 392.095 55.9831 389.099 56.0298 385.1C56.1075 379.549 63.4665 376.726 68.6162 378.686C73.7815 380.647 77.2665 385.383 81.0938 389.382C85.9013 394.4 91.9845 397.881 97.212 402.068C89.6663 413.218 70.6232 399.418 62.8442 394.274V394.29Z" fill="#EBECEC"/>
</g>
<g style="mix-blend-mode:hard-light" opacity="0.2">
<path d="M471.01 59.4632C418.72 64.9362 374.69 94.4184 324.889 108.328C288.716 118.443 252.108 118.788 215.64 110.837C177.881 102.604 139.219 98.6996 108.554 125.406C67.5273 161.13 49.9 225.442 58.8147 276.126C64.4623 308.211 84.33 339.952 115.399 355.32C145.053 369.983 167.566 377.495 170.148 413.25C175.049 397.364 193.812 389.617 210.662 385.1C249.043 374.813 289.152 370.375 328.934 371.99C362.151 373.339 397.063 377.761 431.026 375.973C468.07 374.029 500.073 362.503 531.92 345.001C564.328 327.202 591.181 307.082 606.304 273.491C643.285 191.302 585.829 51.9201 477.529 58.9143C475.336 59.0554 473.157 59.2436 470.995 59.4632H471.01Z" fill="#EBECEC"/>
</g>
<path d="M251.666 232C275.284 175.97 249.368 111.25 193.781 87.4438C138.194 63.6374 73.9856 89.7598 50.3674 145.79C26.7491 201.82 52.665 266.54 108.252 290.346C163.839 314.153 228.048 288.03 251.666 232Z" fill="#B8D8FF"/>
<path d="M152.49 188.275L237.048 211.03C230 237.642 210.988 259.44 185.706 269.885C141.288 288.248 89.7443 266.513 71.5258 221.741C53.3073 176.969 74.8708 125.014 119.289 106.65C163.707 88.2867 215.251 110.022 233.47 154.794L152.49 188.275Z" fill="#5985FF"/>
<path d="M176.979 188.275L235.788 166.415C235.788 166.415 244.189 180.528 235.788 197.465L176.979 188.275Z" fill="#5985FF"/>
<path d="M241.88 346.422C259.214 314.695 247.748 274.811 216.271 257.34C184.794 239.869 145.226 251.426 127.892 283.153C110.559 314.881 122.025 354.765 153.502 372.236C184.979 389.707 224.547 378.15 241.88 346.422Z" fill="#B49CE2"/>
<path d="M184.119 315.362L132.047 316.005C131.844 299.618 139.281 284.061 152.101 273.978C174.629 256.273 207.612 260.381 225.177 283.089C242.742 305.796 238.666 339.042 216.138 356.747C193.61 374.452 160.627 370.344 143.062 347.636L184.119 315.362Z" fill="#7E5AB6"/>
<path d="M170.102 319.314L139.888 341.347C139.888 341.347 132.825 334.62 134.94 323.564L170.086 319.314H170.102Z" fill="#7E5AB6"/>
<path d="M603.456 113.441H451.501C446.431 113.441 442.321 117.583 442.321 122.693V124.606C442.321 129.716 446.431 133.859 451.501 133.859H603.456C608.526 133.859 612.636 129.716 612.636 124.606V122.693C612.636 117.583 608.526 113.441 603.456 113.441Z" fill="white"/>
<path d="M603.456 153.838H451.501C446.431 153.838 442.321 157.98 442.321 163.09V165.003C442.321 170.113 446.431 174.256 451.501 174.256H603.456C608.526 174.256 612.636 170.113 612.636 165.003V163.09C612.636 157.98 608.526 153.838 603.456 153.838Z" fill="white"/>
<path d="M603.456 194.234H451.501C446.431 194.234 442.321 198.377 442.321 203.487V205.4C442.321 210.51 446.431 214.652 451.501 214.652H603.456C608.526 214.652 612.636 210.51 612.636 205.4V203.487C612.636 198.377 608.526 194.234 603.456 194.234Z" fill="white"/>
<path d="M603.456 234.631H451.501C446.431 234.631 442.321 238.774 442.321 243.884V245.797C442.321 250.907 446.431 255.049 451.501 255.049H603.456C608.526 255.049 612.636 250.907 612.636 245.797V243.884C612.636 238.774 608.526 234.631 603.456 234.631Z" fill="white"/>
<path d="M603.456 275.028H451.501C446.431 275.028 442.321 279.171 442.321 284.281V286.194C442.321 291.304 446.431 295.446 451.501 295.446H603.456C608.526 295.446 612.636 291.304 612.636 286.194V284.281C612.636 279.171 608.526 275.028 603.456 275.028Z" fill="white"/>
<path d="M330.38 199.799C346.739 192.806 354.377 173.77 347.44 157.281C340.503 140.791 321.617 133.093 305.258 140.085C288.899 147.078 281.261 166.114 288.198 182.603C295.136 199.092 314.021 206.791 330.38 199.799Z" fill="#82848D"/>
<path d="M336.056 190.621C347.388 180.462 348.404 162.967 338.325 151.544C328.247 140.122 310.89 139.098 299.557 149.257C288.225 159.416 287.209 176.911 297.288 188.334C307.367 199.756 324.724 200.78 336.056 190.621Z" fill="#B8D8FF"/>
<path opacity="0.5" d="M319.537 145.056L333.881 183.775C333.881 183.775 346.515 154.731 319.537 145.056Z" fill="white"/>
<path d="M324.298 201.715L325.496 207.611L344.539 198.312L339.762 193.654L324.298 201.715Z" fill="#403A89"/>
<path d="M325.496 207.611L331.019 232.938C333.741 245.468 347.666 251.835 358.821 245.656C370.303 239.289 372.123 223.419 362.415 214.574L344.554 198.312L325.511 207.611H325.496Z" fill="#7E5AB6"/>
<path opacity="0.5" d="M345.597 208.709C345.597 208.709 360.719 221.992 348.708 238.332C348.708 238.332 373.819 224.062 345.597 208.709Z" fill="white"/>
<path d="M410.116 130.942C409.291 130.942 408.482 130.628 407.86 130.001L398.276 120.341C397.032 119.086 397.032 117.048 398.276 115.793C399.521 114.538 401.543 114.538 402.788 115.793L410.116 123.179L423.823 109.363C425.067 108.109 427.09 108.109 428.334 109.363C429.579 110.618 429.579 112.657 428.334 113.911L412.372 130.001C411.75 130.628 410.925 130.942 410.116 130.942Z" fill="#E9A326"/>
<path d="M410.116 171.009C409.291 171.009 408.482 170.696 407.86 170.068L398.276 160.408C397.032 159.154 397.032 157.115 398.276 155.861C399.521 154.606 401.543 154.606 402.788 155.861L410.116 163.247L423.823 149.431C425.067 148.176 427.09 148.176 428.334 149.431C429.579 150.685 429.579 152.724 428.334 153.979L412.372 170.068C411.75 170.696 410.925 171.009 410.116 171.009Z" fill="#E9A326"/>
<path d="M410.116 211.077C409.291 211.077 408.482 210.763 407.86 210.136L398.276 200.476C397.032 199.221 397.032 197.183 398.276 195.928C399.521 194.674 401.543 194.674 402.788 195.928L410.116 203.314L423.823 189.498C425.067 188.244 427.09 188.244 428.334 189.498C429.579 190.753 429.579 192.792 428.334 194.046L412.372 210.136C411.75 210.763 410.925 211.077 410.116 211.077Z" fill="#E9A326"/>
<path d="M410.116 251.144C409.291 251.144 408.482 250.831 407.86 250.204L398.276 240.543C397.032 239.289 397.032 237.25 398.276 235.996C399.521 234.741 401.543 234.741 402.788 235.996L410.116 243.382L423.823 229.566C425.067 228.311 427.09 228.311 428.334 229.566C429.579 230.821 429.579 232.859 428.334 234.114L412.372 250.204C411.75 250.831 410.925 251.144 410.116 251.144Z" fill="#E9A326"/>
<path d="M410.116 291.212C409.291 291.212 408.482 290.898 407.86 290.271L398.276 280.611C397.032 279.356 397.032 277.318 398.276 276.063C399.521 274.809 401.543 274.809 402.788 276.063L410.116 283.449L423.823 269.634C425.067 268.379 427.09 268.379 428.334 269.634C429.579 270.888 429.579 272.927 428.334 274.181L412.372 290.271C411.75 290.898 410.925 291.212 410.116 291.212Z" fill="#E9A326"/>
<g style="mix-blend-mode:multiply">
<path d="M333.757 751.981C476.221 751.981 591.71 725.084 591.71 691.903C591.71 658.723 476.221 631.826 333.757 631.826C191.294 631.826 75.8042 658.723 75.8042 691.903C75.8042 725.084 191.294 751.981 333.757 751.981Z" fill="#EDEDEF"/>
</g>
<path d="M349.362 516.453C346.032 522.883 340.54 528.387 333.695 530.645C325.309 533.405 316.192 531.037 307.697 528.654C293.882 524.764 279.413 520.421 269.378 510.086C266.282 506.903 263.59 502.104 265.722 498.183C269.175 499.626 272.614 501.069 276.068 502.512C290.677 508.628 305.908 514.853 321.7 514.038C324.376 513.897 327.316 513.411 329.059 511.372C329.992 510.274 330.474 508.847 330.879 507.452C332.403 502.182 333.213 496.709 333.29 491.221C333.306 490.06 352.053 491.817 353.827 494.937C356.767 500.097 351.711 511.952 349.362 516.469V516.453Z" fill="#F2D7D1"/>
<path d="M337.584 449.287C328.156 460.092 322.695 473.908 319.568 487.943C332.652 493.792 346.981 496.803 361.295 496.678C369.136 482.094 374.255 466.02 376.308 449.553C376.853 445.178 378.02 437.384 375.235 433.495C372.715 429.967 367.269 431.833 363.52 432.789C353.469 435.361 344.399 441.462 337.569 449.271L337.584 449.287Z" fill="#BA664D"/>
<path d="M399.179 426.172H425.534C439.723 426.172 451.236 437.776 451.236 452.078V560.394H373.492V452.078C373.492 437.776 385.005 426.172 399.194 426.172H399.179Z" fill="#7A67B7"/>
<path d="M451.236 560.378L416.09 595.804H334.908L373.492 560.378H451.236Z" fill="#7A67B7"/>
<path d="M416.075 595.804H334.908V606.64H416.075V595.804Z" fill="#897BC6"/>
<path d="M416.059 606.64H404.718V674.904H416.059V606.64Z" fill="#7A67B7"/>
<path d="M346.25 606.64H334.908V674.904H346.25V606.64Z" stroke="#E18969" stroke-width="0.8" stroke-miterlimit="10"/>
<path d="M451.236 638.569H439.894V582.019L451.236 570.305V638.569Z" fill="#7A67B7"/>
<path d="M451.236 560.378V570.305L416.059 606.64L416.09 595.804L451.236 560.378Z" fill="#897BC6"/>
<path d="M389.471 425.795C382.345 425.638 374.239 426.658 369.992 432.429C368.047 435.063 367.223 438.341 366.476 441.54C362.789 457.473 360.455 473.672 358.541 489.903C357.11 502.088 355.725 514.258 354.092 526.427C353.687 529.469 353.298 532.715 354.574 535.507C355.663 537.906 357.888 539.647 360.299 540.713C380.463 549.558 407.969 543.912 427.681 536.291C441.03 531.131 441.497 522.193 441.621 509.145C441.855 484.65 434.714 458.759 422.112 437.839C414.628 425.419 402.648 426.093 389.486 425.827L389.471 425.795Z" fill="#BA664D"/>
<path d="M353.858 536.228C347.682 544.179 341.77 552.459 336.153 561.006C334.006 564.267 331.875 567.655 330.692 571.575C329.416 575.825 329.323 580.451 329.245 584.983C328.747 617.398 329.619 680.581 329.743 680.424H353.407C354.434 651.82 359.537 623.451 364.158 595.396C365.511 587.21 367.083 578.82 371.003 571.983C375.142 564.754 381.583 559.845 385.643 552.553C386.032 551.847 386.421 551.047 386.39 550.201C386.359 549.401 385.97 548.711 385.581 548.068C378.347 536.385 362.088 525.611 353.843 536.244L353.858 536.228Z" fill="#4F7DDB"/>
<path d="M329.79 681.02C324.22 683.341 319.335 688.077 316.223 694.193C316.441 694.648 316.628 694.93 317.017 694.679H351.882C352.287 689.849 353.189 685.003 353.594 680.173C345.892 680.361 337.087 677.993 329.805 681.02H329.79Z" fill="#7E5AB6"/>
<path d="M381.1 548.836C377.071 554.058 372.964 559.186 368.763 564.205C366.087 567.404 363.333 570.603 361.373 574.523C356.939 583.415 357.219 594.549 357.639 604.978C358.712 631.465 359.786 657.936 360.875 684.423C369.836 685.286 376.62 687.214 385.612 687.136C386.468 666.075 391.944 643.509 392.8 622.463C393.018 616.943 393.251 611.345 394.62 606.06C397.063 596.541 403.084 588.794 410.163 583.87C418.284 578.224 428.693 574.963 432.707 564.612C434.496 560.002 434.636 554.733 434.651 549.636C434.682 544.053 434.605 538.455 434.418 532.872C415.344 531.414 394.231 531.821 381.1 548.852V548.836Z" fill="#5985FF"/>
<path d="M362.617 681.02C357.048 683.341 352.162 688.077 349.051 694.193C349.269 694.648 349.455 694.93 349.844 694.679H384.71C385.114 689.849 386.017 685.003 386.421 680.173C378.72 680.361 369.914 677.993 362.633 681.02H362.617Z" fill="#7E5AB6"/>
<path d="M170.242 560.378H420.727L465.378 515.387H240.626L170.242 560.378Z" fill="#7A67B7"/>
<path d="M170.242 560.378V570.305H421.178L420.727 560.378H170.242Z" fill="#694DA0"/>
<path d="M465.378 515.387V525.282L421.178 570.305L420.213 560.378L465.378 515.387Z" fill="#694DA0"/>
<path d="M180.323 570.305H170.242V694.773H180.323V570.305Z" fill="#694DA0"/>
<path d="M421.1 569.584H411.019V694.052H421.1V569.584Z" fill="#694DA0"/>
<path d="M253.322 570.305H243.24V647.304H253.322V570.305Z" fill="#694DA0"/>
<path d="M465.378 647.288H455.312V535.538L465.378 525.282V647.288Z" fill="#694DA0"/>
<path d="M336.915 467.18H243.24V537.89H336.915V467.18Z" fill="white"/>
<path d="M336.9 537.875L370.241 515.387H336.9V537.875Z" fill="#EDEDEF"/>
<path d="M292.434 517.281C300.517 515.963 306.01 508.289 304.702 500.141C303.395 491.993 295.781 486.457 287.698 487.775C279.614 489.093 274.121 496.767 275.429 504.915C276.737 513.063 284.35 518.599 292.434 517.281Z" fill="#EDEDEF"/>
<path d="M447.347 510.494C446.149 517.645 442.633 524.592 436.814 528.873C429.688 534.111 420.291 534.723 411.47 535.099C397.141 535.71 382.049 536.103 369.323 529.406C365.402 527.336 361.373 523.62 362.182 519.244C365.9 519.542 369.618 519.84 373.352 520.123C389.128 521.377 405.511 522.538 420.291 516.814C422.796 515.841 425.441 514.477 426.468 511.968C427.028 510.635 427.043 509.129 426.997 507.671C426.826 502.182 425.908 496.725 424.29 491.487C423.947 490.374 442.306 486.202 444.966 488.602C449.354 492.585 448.187 505.444 447.347 510.478V510.494Z" fill="#F2D7D1"/>
<path d="M444.624 446.574C454.052 457.379 459.513 471.195 462.64 485.23C449.556 491.079 435.227 494.09 420.914 493.965C413.072 479.381 407.954 463.307 405.9 446.84C405.356 442.465 404.189 434.671 406.973 430.782C409.494 427.254 414.939 429.12 418.689 430.076C428.739 432.648 437.81 438.749 444.64 446.558L444.624 446.574Z" fill="#BA664D"/>
<path d="M343.03 350.224C340.82 353.721 339.156 357.641 338.175 361.718C333.757 380.113 341.038 401.394 358.572 409.894C369.976 415.414 384.041 414.018 393.64 405.503C417.491 384.332 395.149 327.688 361.87 335.639C354.06 337.505 347.261 343.574 343.03 350.239V350.224Z" fill="#F2D7D1"/>
<path d="M370.925 335.435C360.206 328.52 344.586 330.825 336.277 340.548C335.08 341.943 334.006 343.48 332.575 344.625C329.167 347.322 324.391 347.275 320.424 349.016C313.5 352.043 309.922 361.138 312.925 368.132C315.928 375.111 324.951 378.733 331.875 375.722C331.05 377.4 331.408 380.929 332.31 382.576C333.213 384.222 334.706 385.461 336.324 386.371C339.996 388.441 344.477 388.958 348.522 387.766C350.949 387.045 353.547 385.132 353.251 382.591C356.347 387.045 362.306 387.594 367.082 385.053C371.859 382.497 374.955 377.62 377.18 372.664C379.98 366.423 381.769 359.539 381.069 352.717C380.369 345.895 376.682 339.136 370.956 335.451L370.925 335.435Z" fill="#875329"/>
<path d="M366.149 332.738C370.583 337.004 377.444 337.599 383.45 336.392C389.455 335.184 395.071 332.456 400.999 330.919C406.227 329.555 411.656 329.131 417.071 329.068C425.876 328.974 434.885 329.868 442.866 333.616C450.847 337.364 457.693 344.343 459.591 352.999C461.504 361.656 457.459 371.771 449.354 375.268C453.243 376.177 455.904 380.898 456.51 384.865C457.117 388.833 455.126 393.082 451.687 395.137C454.332 400.281 456.541 406.052 455.219 411.681C453.57 418.707 446.164 422.957 439.054 423.835C430.964 424.839 422.516 422.471 416.106 417.39C409.696 412.309 405.433 404.577 404.5 396.423C397.716 395.858 391.695 391.31 387.868 385.634C384.041 379.957 382.018 373.26 380.229 366.643C370.147 362.706 362.788 352.529 362.135 341.661C361.948 338.54 363.053 333.256 366.118 332.754L366.149 332.738Z" fill="#875329"/>
<path d="M397.349 391.358C404.948 390.112 410.106 382.893 408.87 375.233C407.634 367.574 400.472 362.374 392.873 363.62C385.274 364.867 380.116 372.086 381.352 379.745C382.588 387.405 389.75 392.604 397.349 391.358Z" fill="#5985FF"/>
<path d="M397.716 364.682C397.016 357.092 392.473 350.474 387.806 344.5C385.488 341.536 383.045 338.572 379.98 336.408C376.9 334.244 373.057 332.942 369.37 333.632C381.256 342.931 389.206 355.979 392.66 370.736C394.263 371.143 396.021 370.877 397.436 369.999C397.452 367.803 397.919 366.862 397.732 364.667L397.716 364.682Z" fill="#5985FF"/>
<path d="M374.084 413.438C375.468 418.707 374.737 424.509 372.077 429.277C370.863 431.456 370.925 435.534 372.388 437.557C373.601 439.219 375.204 440.599 377.009 441.571C378.58 442.418 380.291 442.951 382.049 443.249C387.775 444.206 393.905 442.387 398.199 438.466C402.493 434.53 404.889 428.571 404.5 422.722C403.908 413.971 401.746 405.942 400.704 397.238C394.963 397.521 388.444 397.473 383.154 399.716C377.864 401.959 372.621 407.855 374.099 413.453L374.084 413.438Z" fill="#F2D7D1"/>
<g style="mix-blend-mode:multiply">
<path d="M374.084 413.438C374.084 413.438 386.561 413.751 393.625 405.487C393.625 405.487 387.572 423.819 373.477 426.172C373.477 426.172 376.355 419.224 374.068 413.438H374.084Z" fill="#E4E9F2"/>
</g>
<path d="M374.364 118.098H272.987L282.649 109.583C283.302 109.018 283.364 108.015 282.789 107.372C282.229 106.713 281.233 106.65 280.595 107.231L266.562 119.619L280.548 133.31C280.844 133.608 281.249 133.749 281.638 133.749C282.026 133.749 282.447 133.592 282.758 133.278C283.349 132.651 283.349 131.663 282.727 131.067L272.707 121.25H374.379C375.235 121.25 375.935 120.545 375.935 119.682C375.935 118.82 375.235 118.114 374.379 118.114L374.364 118.098Z" fill="#E18969"/>
<path d="M271.167 266.482H372.543L362.882 257.966C362.228 257.402 362.166 256.398 362.742 255.755C363.302 255.096 364.297 255.034 364.935 255.614L378.969 268.003L364.982 281.693C364.686 281.991 364.282 282.132 363.893 282.132C363.504 282.132 363.084 281.975 362.773 281.662C362.182 281.034 362.182 280.046 362.804 279.451L372.823 269.634H271.151C270.296 269.634 269.595 268.928 269.595 268.065C269.595 267.203 270.296 266.497 271.151 266.497L271.167 266.482Z" fill="#E18969"/>
</svg>
