<svg width="31" height="31" viewBox="0 0 31 31" fill="none" xmlns="http://www.w3.org/2000/svg">
<ellipse cx="15.0175" cy="9.70294" rx="5.81679" ry="5.86589" stroke="#807A7A" stroke-width="1.5" stroke-linecap="round" stroke-linejoin="round"/>
<path fill-rule="evenodd" clip-rule="evenodd" d="M5.79079 23.7271C5.78923 23.3148 5.88068 22.9074 6.05823 22.536C6.61539 21.4122 8.1866 20.8167 9.49036 20.547C10.4306 20.3446 11.3839 20.2094 12.343 20.1424C14.1188 19.9851 15.9049 19.9851 17.6807 20.1424C18.6397 20.2102 19.5929 20.3454 20.5333 20.547C21.8371 20.8167 23.4083 21.3561 23.9655 22.536C24.3225 23.2932 24.3225 24.1723 23.9655 24.9295C23.4083 26.1094 21.8371 26.6488 20.5333 26.9073C19.5942 27.118 18.6406 27.257 17.6807 27.3231C16.2353 27.4466 14.7832 27.4692 13.3348 27.3905C13.0005 27.3905 12.6773 27.3905 12.343 27.3231C11.3867 27.2578 10.4368 27.1188 9.5015 26.9073C8.1866 26.6488 6.62654 26.1094 6.05823 24.9295C5.88159 24.5538 5.79023 24.143 5.79079 23.7271Z" stroke="#807A7A" stroke-width="1.5" stroke-linecap="round" stroke-linejoin="round"/>
</svg>
