<svg width="763" height="569" viewBox="0 0 763 569" fill="none" xmlns="http://www.w3.org/2000/svg">
<g clip-path="url(#clip0_202_38)">
<path d="M713.417 159.074C683.626 132.287 635.983 138.619 596.496 122.572C541.978 100.337 505.536 44.3094 449.367 18.8683C404.256 -1.9237 347.622 -4.40849 295.828 5.94746C243.97 16.8004 197.785 40.0291 169.436 73.3733C140.558 107.279 130.254 152.149 112.242 189.709C96.2323 223.038 74.1494 248.863 63.7329 282.705C53.3484 316.546 56.1048 363.933 85.7517 413.597C107.594 449.971 141.039 480.654 174.741 502.776C193.218 515.04 212.064 525.252 231.134 533.764H609.765C610.358 532.85 610.951 531.937 611.544 531.023C635.342 494.216 658.883 455.117 682.056 413.693C706.991 369.383 732.183 318.838 739.346 267.443C745.789 221.066 736.093 179.594 713.385 159.074H713.417Z" fill="#E8E6FE"/>
<path d="M763 551.382C763 574.867 56.874 574.867 56.874 551.382C57.0824 551.238 57.2907 551.093 57.499 550.965C114.245 511.93 250.653 484.437 409.929 484.437C569.205 484.437 705.613 511.93 762.375 550.965C762.583 551.093 762.792 551.238 763 551.382Z" fill="#452B99"/>
<path d="M763 551.382C763 574.867 56.874 574.867 56.874 551.382C57.0824 551.238 57.2907 551.094 57.499 550.965C136.793 524.306 265.108 506.993 409.929 506.993C554.75 506.993 683.081 524.306 762.375 550.965C762.583 551.094 762.792 551.238 763 551.382Z" fill="#6737C1"/>
<path d="M442.573 104.73C437.717 107.311 431.676 105.467 429.095 100.61L421.82 86.9194L439.432 77.5574L446.707 91.2478C449.287 96.1051 447.444 102.149 442.589 104.73H442.573Z" fill="#343053"/>
<path d="M426.14 95.9169L444.481 86.1695C445.147 85.816 445.97 86.0682 446.323 86.7336L446.354 86.7902C446.707 87.4556 446.455 88.2794 445.79 88.6329L427.448 98.3802C426.783 98.7337 425.96 98.4815 425.606 97.8161L425.576 97.7595C425.223 97.0941 425.475 96.2704 426.14 95.9169Z" fill="#343053"/>
<path d="M428.484 100.382L446.825 90.6347C447.49 90.2812 448.314 90.5334 448.667 91.1988L448.697 91.2554C449.051 91.9208 448.798 92.7446 448.133 93.0981L429.792 102.845C429.127 103.199 428.303 102.947 427.95 102.281L427.92 102.225C427.567 101.559 427.819 100.736 428.484 100.382Z" fill="#343053"/>
<path d="M447.877 98.9426L434.816 105.884C434.143 106.237 433.294 105.98 432.941 105.307C432.589 104.634 432.845 103.784 433.518 103.431L446.579 96.4899C447.252 96.1372 448.101 96.3937 448.454 97.067C448.807 97.7403 448.55 98.5899 447.877 98.9426Z" fill="#343053"/>
<path d="M448.15 45.8162C456.579 61.7029 450.553 81.4208 434.672 89.8691C421.964 96.6181 406.82 94.1013 396.948 84.7072C394.465 82.3667 392.333 79.5773 390.634 76.3871C382.205 60.5005 388.215 40.7826 404.112 32.3343C410.442 28.9678 417.365 27.9098 423.951 28.8556C433.903 30.2663 443.069 36.2618 448.15 45.8162Z" fill="#FEA901"/>
<path d="M430.249 37.1596C438.679 53.0462 432.653 72.7642 416.772 81.2124C410.442 84.5789 403.519 85.637 396.948 84.7072C394.465 82.3667 392.333 79.5773 390.634 76.3871C382.205 60.5005 388.215 40.7826 404.112 32.3343C410.442 28.9678 417.365 27.9098 423.951 28.8556C426.435 31.1961 428.567 33.9855 430.249 37.1596Z" fill="#FFC010"/>
<path d="M71.6815 333.538C64.7425 326.645 55.5279 321.002 45.7845 321.884C32.852 323.038 23.2849 335.783 21.6824 348.688C20.0958 361.592 24.6791 374.417 30.0636 386.248C43.1884 415.136 61.4573 441.667 83.7807 464.222C90.8959 442.276 96.6971 419.544 96.1362 396.476C95.5754 373.407 88.0434 349.794 71.6655 333.554L71.6815 333.538Z" fill="#7D7DFF"/>
<path d="M36.1372 346.507C41.2653 348.271 46.3935 350.05 51.5216 351.814C49.6626 347.918 47.7556 344.039 45.7524 340.191C44.871 338.524 47.6114 337.45 48.4768 339.117C50.6081 343.205 52.6434 347.341 54.5985 351.493C56.6497 347.036 59.2939 342.965 62.531 339.229C63.156 338.524 64.2938 339.438 63.6688 340.143C60.2394 344.103 57.499 348.447 55.4318 353.24C58.1401 359.076 60.6721 364.975 63.0438 370.938C65.063 364.238 68.0117 357.953 71.9059 352.07C72.4347 351.285 73.5725 352.214 73.0437 352.984C68.9091 359.22 65.8803 365.953 63.9252 373.151C65.8483 378.088 67.6591 383.09 69.3578 388.108C72.3225 379.355 76.7936 371.307 82.723 364.141C83.3159 363.42 84.4697 364.334 83.8608 365.055C77.6269 372.59 73.0437 381.102 70.1431 390.416C71.6975 395.145 73.1238 399.922 74.4859 404.732C77.1782 397.021 81.0563 389.903 86.1204 383.443C86.6973 382.705 87.8511 383.619 87.2582 384.356C81.8576 391.25 77.8352 398.896 75.1911 407.232C76.4891 411.978 77.675 416.755 78.7647 421.548L87.3062 404.363C87.7229 403.513 89.069 404.09 88.6524 404.94C85.5274 411.224 82.4185 417.492 79.2935 423.776C82.9473 440.272 85.3992 457.072 86.553 474.017C86.6812 475.893 83.7807 476.261 83.6525 474.37C82.6589 459.862 80.7038 445.498 77.8833 431.311C70.8161 426.71 63.0919 423.552 54.8068 421.885C53.8773 421.692 54.0856 420.249 55.0151 420.442C63.0438 422.061 70.5597 425.059 77.4827 429.355C76.3128 423.712 75.0308 418.085 73.5725 412.507C66.0726 407.457 57.8035 404.058 48.8934 402.391C47.9639 402.215 48.1723 400.772 49.1017 400.948C57.6593 402.551 65.688 405.742 72.9956 410.39C71.4892 404.748 69.8706 399.137 68.0918 393.59C59.7426 388.124 50.3838 384.853 40.4641 383.859C39.5186 383.763 39.7269 382.32 40.6724 382.417C50.2395 383.378 59.2458 386.456 67.4027 391.458C65.9124 386.937 64.3419 382.449 62.6592 377.976C55.56 372.75 47.6274 369.159 39.0218 367.267C38.1083 367.059 38.3006 365.616 39.2301 365.809C47.371 367.604 54.919 370.874 61.7618 375.555C58.9093 368.149 55.8004 360.855 52.435 353.657C46.8261 351.717 41.2173 349.778 35.5924 347.838C34.6949 347.533 35.2879 346.187 36.1693 346.491L36.1372 346.507Z" fill="white"/>
<path d="M37.3071 411.817C27.756 409.749 16.9549 409.942 9.21462 415.921C-1.07367 423.856 -2.2916 439.743 3.30126 451.478C8.89411 463.212 19.6632 471.548 30.5444 478.634C57.1305 495.931 86.8095 508.467 117.754 515.489C111.969 493.158 104.63 470.859 91.7613 451.718C78.8929 432.577 59.8388 416.707 37.3071 411.817Z" fill="#7D7DFF"/>
<path d="M14.3267 441.875C19.5991 440.609 24.8714 439.342 30.1438 438.076C26.49 435.783 22.7881 433.539 19.0382 431.375C17.4036 430.429 19.1343 428.073 20.7529 429.002C24.7432 431.295 28.6855 433.699 32.5636 436.136C31.9066 431.279 31.9386 426.421 32.6598 421.532C32.804 420.602 34.2623 420.762 34.1181 421.692C33.3489 426.87 33.3809 432.016 34.1982 437.162C39.6148 440.609 44.9192 444.232 50.1274 447.983C48.2204 441.25 47.339 434.357 47.4672 427.303C47.4832 426.357 48.9415 426.534 48.9255 427.463C48.7973 434.95 49.855 442.244 52.0825 449.378C56.3613 452.504 60.576 455.742 64.6945 459.076C62.483 450.099 61.9381 440.913 63.0759 431.696C63.1881 430.766 64.6464 430.91 64.5342 431.856C63.3323 441.555 64.0535 451.205 66.6015 460.615C70.4636 463.773 74.2296 467.028 77.9475 470.346C76.0725 462.395 75.5116 454.299 76.3129 446.139C76.409 445.194 77.8673 445.354 77.7712 446.3C76.9218 455.02 77.643 463.629 79.8865 472.077C83.5403 475.38 87.0979 478.778 90.5915 482.225L88.5563 463.148C88.4601 462.218 89.9024 461.978 89.9985 462.924C90.7357 469.897 91.4889 476.871 92.2261 483.844C104.181 495.787 115.271 508.628 125.351 522.302C126.472 523.825 124.213 525.685 123.091 524.162C114.453 512.459 105.094 501.398 95.0786 490.962C86.6492 490.882 78.4442 492.372 70.5598 495.418C69.6784 495.755 69.0694 494.424 69.9508 494.088C77.5949 491.138 85.5435 489.615 93.7004 489.519C89.678 485.383 85.5755 481.343 81.3448 477.416C72.3065 477.191 63.5086 478.778 55.0953 482.161C54.2139 482.513 53.6049 481.183 54.4863 480.83C62.5791 477.576 71.0405 475.941 79.6942 475.941C75.3994 471.997 71.0245 468.134 66.5214 464.415C56.5376 464.302 46.9063 466.579 37.9962 471.083C37.1469 471.516 36.5539 470.17 37.3872 469.753C45.9608 465.408 55.2235 463.164 64.7906 462.988C61.1048 459.974 57.3549 457.04 53.5408 454.171C44.7429 453.594 36.1373 454.828 27.8521 457.858C26.9708 458.179 26.3618 456.848 27.2432 456.527C35.0636 453.658 43.2045 452.359 51.4896 452.632C45.1115 447.935 38.5571 443.446 31.8425 439.182C26.0733 440.561 20.2882 441.955 14.519 443.334C13.6056 443.558 13.3812 442.1 14.2947 441.891L14.3267 441.875Z" fill="white"/>
<path d="M184.965 24.6074C178.154 17.5859 169.052 11.7667 159.292 12.456C146.328 13.3698 136.536 25.9219 134.693 38.7787C132.85 51.6355 137.209 64.5563 142.353 76.4833C154.917 105.627 172.689 132.495 194.564 155.483C202.112 133.681 208.346 111.062 208.218 87.9935C208.106 64.9251 201.022 41.1673 184.965 24.6074Z" fill="#7D7DFF"/>
<path d="M149.18 36.9031L164.452 42.5139C162.674 38.5703 160.847 34.6588 158.908 30.7953C158.058 29.1121 160.815 28.1021 161.648 29.7693C163.699 33.8893 165.654 38.0573 167.529 42.2574C169.677 37.8489 172.385 33.8252 175.702 30.1541C176.327 29.4487 177.465 30.3945 176.824 31.0999C173.314 34.9794 170.494 39.2917 168.331 44.0368C170.927 49.9202 173.346 55.8676 175.606 61.8792C177.753 55.2103 180.83 48.9904 184.837 43.1872C185.366 42.4177 186.487 43.3635 185.958 44.133C181.712 50.2889 178.539 56.9577 176.455 64.1235C178.298 69.1091 179.997 74.1268 181.6 79.1765C184.725 70.4717 189.356 62.5204 195.413 55.4829C196.022 54.7615 197.16 55.7073 196.535 56.4287C190.157 63.835 185.414 72.2672 182.337 81.517C183.811 86.2782 185.141 91.0875 186.391 95.9127C189.228 88.25 193.25 81.2124 198.426 74.8642C199.019 74.1268 200.141 75.0726 199.548 75.81C194.019 82.5911 189.853 90.1737 187.032 98.4456C188.234 103.207 189.324 108.016 190.333 112.825L199.195 95.8166C199.628 94.983 200.958 95.5921 200.526 96.4257C197.288 102.646 194.051 108.866 190.814 115.07C194.147 131.646 196.279 148.478 197.112 165.439C197.208 167.314 194.292 167.619 194.196 165.727C193.49 151.203 191.808 136.791 189.244 122.572C182.257 117.843 174.612 114.525 166.359 112.697C165.446 112.489 165.67 111.046 166.584 111.254C174.58 113.034 182.032 116.176 188.891 120.6C187.833 114.925 186.648 109.282 185.317 103.672C177.914 98.4777 169.709 94.9188 160.847 93.0753C159.917 92.8829 160.158 91.4401 161.071 91.6325C169.597 93.4119 177.561 96.7303 184.773 101.524C183.378 95.8486 181.872 90.2218 180.189 84.627C171.936 79.0162 162.658 75.5535 152.754 74.3672C151.808 74.255 152.049 72.8123 152.978 72.9245C162.529 74.0627 171.472 77.3169 179.532 82.4789C178.122 77.9261 176.648 73.4054 175.045 68.9168C168.042 63.5624 160.19 59.8112 151.616 57.7593C150.703 57.5348 150.927 56.092 151.84 56.3165C159.949 58.2562 167.433 61.6868 174.18 66.4961C171.472 59.0417 168.507 51.6836 165.27 44.4216C159.693 42.3696 154.116 40.3337 148.539 38.2817C147.658 37.9611 148.267 36.6306 149.148 36.9512L149.18 36.9031Z" fill="white"/>
<path d="M96.2163 56.076C95.383 55.2905 96.633 54.0401 97.4663 54.8256C112.13 68.7244 124.854 84.4827 135.446 101.572C133.395 89.1798 134.405 76.5795 138.459 64.5724C138.828 63.4983 140.543 63.9632 140.174 65.0373C135.687 78.3269 134.982 92.3058 138.139 105.964C151.776 129.065 161.52 154.441 166.648 180.908C166.872 182.031 165.157 182.496 164.933 181.389C159.869 155.291 150.318 130.283 136.953 107.503C136.761 107.407 136.6 107.231 136.536 106.958C136.52 106.878 136.504 106.798 136.488 106.718C135.19 104.537 133.892 102.373 132.53 100.225C122.258 93.5081 110.735 89.4523 98.508 88.3301C97.3862 88.234 97.3702 86.4545 98.508 86.5507C109.838 87.5927 120.575 91.0554 130.334 96.7944C120.575 82.014 109.165 68.3236 96.2324 56.06L96.2163 56.076Z" fill="#FFC010"/>
<path d="M121.697 92.915C118.091 88.779 113.059 85.8934 107.658 84.8995C102.258 83.9056 96.5368 84.7873 91.6812 87.3683C95.1426 91.8409 99.8701 95.6242 105.431 96.6983C110.992 97.7723 116.809 95.7524 121.713 92.8989L121.697 92.915Z" fill="#FFC010"/>
<path d="M108.027 67.0892C107.723 60.9494 104.982 54.9539 100.527 50.7057C96.0721 46.4575 89.9825 43.9887 83.8287 43.9406C84.3095 49.9202 87.2261 56.044 91.4889 60.2761C95.7516 64.4922 102.034 66.6724 108.011 67.0892H108.027Z" fill="#FFC010"/>
<path d="M135.639 79.946C134.373 73.9985 133.539 67.7305 135.222 61.8792C136.905 56.0279 141.68 50.7057 147.738 50.0965C149.1 61.5906 144.757 72.8283 135.639 79.946Z" fill="#FFC010"/>
<path d="M274.963 22.844C275.797 22.0585 274.531 20.8081 273.713 21.5936C259.082 35.5244 246.39 51.3148 235.829 68.4198C237.849 56.0279 236.823 43.4277 232.736 31.4366C232.368 30.3625 230.653 30.8274 231.022 31.9175C235.541 45.2071 236.262 59.186 233.137 72.8443C219.548 95.9608 209.868 121.37 204.788 147.853C204.58 148.975 206.279 149.44 206.503 148.318C211.503 122.203 221.022 97.1792 234.339 74.3672C234.531 74.2711 234.692 74.0947 234.756 73.8222C234.772 73.742 234.788 73.6619 234.804 73.5817C236.086 71.4015 237.4 69.2213 238.746 67.0892C249.002 60.3563 260.508 56.2684 272.736 55.1302C273.858 55.018 273.874 53.2546 272.736 53.3508C261.406 54.4248 250.669 57.9035 240.941 63.6586C250.669 48.8621 262.063 35.1397 274.963 22.86V22.844Z" fill="#FFC010"/>
<path d="M249.563 59.7471C253.169 55.5951 258.185 52.7095 263.585 51.6996C268.986 50.6896 274.707 51.5713 279.563 54.1363C276.101 58.6089 271.39 62.4082 265.829 63.4983C260.284 64.5884 254.435 62.5685 249.547 59.7471H249.563Z" fill="#FFC010"/>
<path d="M263.169 33.8893C263.473 27.7495 266.197 21.7539 270.62 17.4897C275.059 13.2255 281.149 10.7407 287.303 10.6926C286.838 16.6721 283.938 22.8119 279.675 27.0441C275.412 31.2762 269.146 33.4725 263.153 33.8893H263.169Z" fill="#FFC010"/>
<path d="M235.589 46.7941C236.839 40.8306 237.656 34.5786 235.958 28.7273C234.259 22.8761 229.467 17.5698 223.426 16.9607C222.096 28.4548 226.455 39.6924 235.589 46.7781V46.7941Z" fill="#FFC010"/>
<path d="M532.219 214.637L512.107 223.358C511.001 223.839 509.719 223.583 508.902 222.701L489.511 202.342C485.473 198.11 478.902 197.629 474.287 201.22C469.031 205.307 468.406 213.034 472.925 217.924L498.613 245.673C502.492 249.857 508.485 251.316 513.838 249.376L532.219 242.74V214.637Z" fill="#CF2E4D"/>
<path d="M458.358 320.521H450.842C449.624 315.888 447.781 311.512 445.425 307.456L450.746 302.134C454.303 298.575 454.303 292.804 450.746 289.245L444.544 283.041C440.986 279.482 435.217 279.482 431.659 283.041L426.339 288.363C422.301 286.007 417.91 284.163 413.278 282.945V275.427C413.278 270.393 409.192 266.305 404.16 266.305H395.394C390.362 266.305 386.276 270.393 386.276 275.427V282.945C381.644 284.163 377.269 286.007 373.215 288.363L367.894 283.041C364.337 279.482 358.568 279.482 355.01 283.041L348.808 289.245C345.251 292.804 345.251 298.575 348.808 302.134L354.129 307.456C351.773 311.496 349.93 315.888 348.712 320.521H341.196C336.164 320.521 332.078 324.609 332.078 329.643V338.412C332.078 343.446 336.164 347.533 341.196 347.533H348.712C349.93 352.166 351.773 356.543 354.129 360.599L348.808 365.921C345.251 369.48 345.251 375.251 348.808 378.81L355.01 385.014C358.568 388.572 364.337 388.572 367.894 385.014L373.215 379.691C377.253 382.048 381.644 383.891 386.276 385.11V392.628C386.276 397.662 390.362 401.75 395.394 401.75H404.16C409.192 401.75 413.278 397.662 413.278 392.628V385.11C417.91 383.891 422.285 382.048 426.339 379.691L431.659 385.014C435.217 388.572 440.986 388.572 444.544 385.014L450.746 378.81C454.303 375.251 454.303 369.48 450.746 365.921L445.425 360.599C447.781 356.559 449.624 352.166 450.842 347.533H458.358C463.39 347.533 467.476 343.446 467.476 338.412V329.643C467.476 324.609 463.39 320.521 458.358 320.521ZM399.785 363.949C383.263 363.949 369.866 350.547 369.866 334.019C369.866 317.492 383.263 304.09 399.785 304.09C416.307 304.09 429.704 317.492 429.704 334.019C429.704 350.547 416.307 363.949 399.785 363.949Z" fill="#343053"/>
<path d="M490.841 413.212H486.514C485.809 410.551 484.751 408.018 483.389 405.693L486.45 402.632C488.501 400.58 488.501 397.261 486.45 395.209L482.893 391.65C480.841 389.598 477.524 389.598 475.473 391.65L472.412 394.712C470.088 393.35 467.572 392.292 464.896 391.586V387.258C464.896 384.356 462.556 382.016 459.656 382.016H454.624C451.723 382.016 449.383 384.356 449.383 387.258V391.586C446.723 392.292 444.191 393.35 441.868 394.712L438.807 391.65C436.755 389.598 433.438 389.598 431.387 391.65L427.829 395.209C425.778 397.261 425.778 400.58 427.829 402.632L430.89 405.693C429.528 408.018 428.47 410.535 427.765 413.212H423.438C420.538 413.212 418.198 415.552 418.198 418.454V423.488C418.198 426.389 420.538 428.73 423.438 428.73H427.765C428.47 431.391 429.528 433.924 430.89 436.248L427.829 439.31C425.778 441.362 425.778 444.681 427.829 446.733L431.387 450.291C433.438 452.343 436.755 452.343 438.807 450.291L441.868 447.229C444.191 448.592 446.707 449.65 449.383 450.355V454.684C449.383 457.585 451.723 459.926 454.624 459.926H459.656C462.556 459.926 464.896 457.585 464.896 454.684V450.355C467.556 449.65 470.088 448.592 472.412 447.229L475.473 450.291C477.524 452.343 480.841 452.343 482.893 450.291L486.45 446.733C488.501 444.681 488.501 441.362 486.45 439.31L483.389 436.248C484.751 433.924 485.809 431.407 486.514 428.73H490.841C493.742 428.73 496.081 426.389 496.081 423.488V418.454C496.081 415.552 493.742 413.212 490.841 413.212ZM457.156 438.188C447.653 438.188 439.945 430.477 439.945 420.971C439.945 411.465 447.653 403.754 457.156 403.754C466.659 403.754 474.367 411.465 474.367 420.971C474.367 430.477 466.659 438.188 457.156 438.188Z" fill="#FF2E56"/>
<path d="M382.333 112.97H90.1748C80.5365 112.97 72.7231 120.786 72.7231 130.427V525.107C72.7231 534.749 80.5365 542.565 90.1748 542.565H382.333C391.972 542.565 399.785 534.749 399.785 525.107V130.427C399.785 120.786 391.972 112.97 382.333 112.97Z" fill="#0981F2"/>
<path d="M393.247 116.801C390.218 120.905 387.045 125.185 383.744 129.642C306.309 234.131 158.09 432.529 88.6203 525.476C85.1749 530.061 81.9377 534.389 78.925 538.445C78.8929 538.429 78.8609 538.397 78.8288 538.365C75.0949 535.159 72.7231 530.414 72.7231 525.107V130.411C72.7231 120.777 80.5435 112.97 90.1748 112.97H382.333C386.244 112.97 389.849 114.252 392.766 116.416C392.926 116.544 393.086 116.673 393.247 116.801Z" fill="#0177D9"/>
<path d="M383.952 130.427V525.123C383.952 526.005 383.231 526.727 382.349 526.727H90.1908C89.3094 526.727 88.5883 526.005 88.5883 525.123V130.427C88.5883 129.546 89.3094 128.824 90.1908 128.824L382.349 128.824C383.231 128.824 383.952 129.546 383.952 130.427Z" fill="white"/>
<path d="M383.744 129.642C306.309 234.131 158.09 432.529 88.6203 525.476C88.6043 525.412 88.5883 525.332 88.5883 525.252C88.5723 525.204 88.5723 525.156 88.5723 525.107V130.411C88.5723 129.529 89.2934 128.808 90.1748 128.808H382.333C382.702 128.808 383.022 128.92 383.295 129.129C383.487 129.257 383.647 129.433 383.744 129.642Z" fill="#E8E8E8"/>
<path d="M347.126 203.143C337.526 203.143 329.738 195.352 329.738 185.75C329.738 176.147 337.526 168.356 347.126 168.356C356.725 168.356 364.513 176.147 364.513 185.75C364.513 195.352 356.725 203.143 347.126 203.143Z" fill="#FF2E56"/>
<path d="M339.962 179.61L347.126 185.75L370.843 170.585L347.126 196.314L334.498 187.112L339.962 179.61Z" fill="#343053"/>
<path d="M323.857 170.777H108.748V178.135H323.857V170.777Z" fill="#343053"/>
<path d="M323.857 182.944H108.748V190.303H323.857V182.944Z" fill="#343053"/>
<path d="M323.857 195.112H108.748V202.47H323.857V195.112Z" fill="#343053"/>
<path d="M347.126 259.332C337.526 259.332 329.738 251.54 329.738 241.938C329.738 232.336 337.526 224.545 347.126 224.545C356.725 224.545 364.513 232.336 364.513 241.938C364.513 251.54 356.725 259.332 347.126 259.332Z" fill="#FF2E56"/>
<path d="M339.962 235.782L347.126 241.922L370.843 226.773L347.126 252.502L334.498 243.285L339.962 235.782Z" fill="#343053"/>
<path d="M323.857 226.965H108.748V234.323H323.857V226.965Z" fill="#343053"/>
<path d="M323.857 239.133H108.748V246.491H323.857V239.133Z" fill="#343053"/>
<path d="M323.857 251.3H108.748V258.658H323.857V251.3Z" fill="#343053"/>
<path d="M347.126 315.504C337.526 315.504 329.738 307.713 329.738 298.11C329.738 288.508 337.526 280.717 347.126 280.717C356.725 280.717 364.513 288.508 364.513 298.11C364.513 307.713 356.725 315.504 347.126 315.504Z" fill="#FF2E56"/>
<path d="M339.962 291.97L347.126 298.11L370.843 282.945L347.126 308.675L334.498 299.473L339.962 291.97Z" fill="#343053"/>
<path d="M323.857 283.137H108.748V290.496H323.857V283.137Z" fill="#343053"/>
<path d="M323.857 295.305H108.748V302.663H323.857V295.305Z" fill="#343053"/>
<path d="M323.857 307.472H108.748V314.83H323.857V307.472Z" fill="#343053"/>
<path d="M347.126 371.692C337.526 371.692 329.738 363.901 329.738 354.298C329.738 344.696 337.526 336.905 347.126 336.905C356.725 336.905 364.513 344.696 364.513 354.298C364.513 363.901 356.725 371.692 347.126 371.692Z" fill="#FF2E56"/>
<path d="M339.962 348.143L347.126 354.282L370.843 339.133L347.126 364.863L334.498 355.645L339.962 348.143Z" fill="#343053"/>
<path d="M323.857 339.326H108.748V346.684H323.857V339.326Z" fill="#343053"/>
<path d="M323.857 351.493H108.748V358.851H323.857V351.493Z" fill="#343053"/>
<path d="M323.857 363.66H108.748V371.019H323.857V363.66Z" fill="#343053"/>
<path d="M347.126 427.864C337.526 427.864 329.738 420.073 329.738 410.471C329.738 400.868 337.526 393.077 347.126 393.077C356.725 393.077 364.513 400.868 364.513 410.471C364.513 420.073 356.725 427.864 347.126 427.864Z" fill="#FF2E56"/>
<path d="M339.962 404.331L347.126 410.471L370.843 395.321L347.126 421.051L334.498 411.833L339.962 404.331Z" fill="#343053"/>
<path d="M323.857 395.498H108.748V402.856H323.857V395.498Z" fill="#343053"/>
<path d="M323.857 407.665H108.748V415.023H323.857V407.665Z" fill="#343053"/>
<path d="M323.857 419.833H108.748V427.191H323.857V419.833Z" fill="#343053"/>
<path d="M347.126 484.052C337.526 484.052 329.738 476.261 329.738 466.659C329.738 457.056 337.526 449.265 347.126 449.265C356.725 449.265 364.513 457.056 364.513 466.659C364.513 476.261 356.725 484.052 347.126 484.052Z" fill="#FF2E56"/>
<path d="M339.962 460.503L347.126 466.643L370.843 451.494L347.126 477.223L334.498 468.021L339.962 460.503Z" fill="#343053"/>
<path d="M323.857 451.686H108.748V459.044H323.857V451.686Z" fill="#343053"/>
<path d="M323.857 463.853H108.748V471.212H323.857V463.853Z" fill="#343053"/>
<path d="M323.857 476.021H108.748V483.379H323.857V476.021Z" fill="#343053"/>
<path d="M303.841 134.066L302.158 126.804C301.277 123.005 297.896 120.312 293.985 120.312C290.075 120.312 286.886 117.779 285.893 114.124L282.383 101.251C281.39 97.596 278.072 95.0631 274.29 95.0631H206.872C203.09 95.0631 199.772 97.596 198.779 101.251L195.269 114.124C194.276 117.779 190.958 120.312 187.176 120.312C183.394 120.312 179.885 123.005 179.003 126.804L177.321 134.066C175.959 139.934 180.414 145.544 186.423 145.544H294.723C300.748 145.544 305.203 139.934 303.825 134.066H303.841ZM187.946 134.98L188.923 130.796C196.711 130.075 203.378 124.56 205.461 116.913L208.538 105.643H272.64L275.717 116.913C277.8 124.576 284.466 130.075 292.255 130.796L293.232 134.98H187.962H187.946Z" fill="#FEA901"/>
<path d="M608.307 123.053C610.278 118.997 610.535 113.964 608.307 110.052C605.807 105.66 600.599 103.351 595.551 102.998C590.695 102.662 585.888 103.864 581.176 105.114C581.16 100.241 581.064 95.2875 579.477 90.6867C577.827 85.8934 574.253 81.4849 569.349 80.2025C564.991 79.0643 560.199 80.6353 556.802 83.585C553.388 86.5347 551.241 90.7187 549.975 95.0471C546.145 108.08 550.536 123.021 560.423 132.239C571.897 139.388 587.458 139.725 599.044 132.639C602.891 130.283 606.368 127.109 608.323 123.053H608.307Z" fill="#FF2E56"/>
<path d="M685.197 218.26C683.947 225.939 679.716 232.384 673.867 236.616C668.018 240.816 660.566 242.804 652.906 241.553L353.488 192.964L319.706 158.353L362.494 137.353L661.912 185.942C677.248 188.427 687.697 202.903 685.197 218.26Z" fill="#FFC010"/>
<path d="M685.565 213.708C685.565 215.199 685.453 216.721 685.197 218.26C682.713 233.618 668.242 244.038 652.89 241.553L641.896 239.758L644.54 223.47L650.903 184.147L661.912 185.942C672.793 187.706 681.223 195.497 684.299 205.372C685.117 208.017 685.565 210.822 685.565 213.708Z" fill="#CF2E4D"/>
<path d="M684.299 205.372C680.229 218.581 666.928 227.109 652.89 224.833L644.54 223.47L650.903 184.147L661.912 185.942C672.793 187.706 681.223 195.497 684.299 205.372Z" fill="#FF2E56"/>
<path d="M648.21 193.525L642.297 230.027L358.92 184.05C360.475 180.7 361.757 177.173 362.782 173.534C363.439 171.146 363.968 168.709 364.385 166.208C364.802 163.707 365.042 161.239 365.186 158.754C365.378 154.97 365.266 151.219 364.85 147.548L648.226 193.525H648.21Z" fill="#FEA901"/>
<path d="M646.448 204.394L644.06 219.174L362.782 173.534C363.439 171.146 363.968 168.709 364.385 166.208C364.802 163.707 365.042 161.239 365.186 158.754L646.464 204.394H646.448Z" fill="#FFC010"/>
<path d="M364.369 166.192C363.712 170.28 362.702 174.24 361.356 178.023C359.465 183.393 356.917 188.427 353.856 193.028L353.488 192.964L328.825 167.699L319.706 158.369L331.437 152.614L334.898 150.915L362.51 137.353L362.879 137.417C365.362 146.506 365.987 156.269 364.369 166.192Z" fill="#F9C89D"/>
<path d="M364.369 166.192C363.712 170.28 362.702 174.24 361.356 178.023L335.972 152.021L334.898 150.915L362.51 137.353L362.879 137.417C365.362 146.506 365.987 156.269 364.369 166.192Z" fill="#FFE3BB"/>
<path d="M332.623 160.469C332.158 163.339 330.796 165.839 328.825 167.715L319.706 158.369L331.421 152.614C332.607 154.97 333.055 157.68 332.607 160.453L332.623 160.469Z" fill="#241F3F"/>
<path d="M598.564 395.818L610.647 508.644L611.144 513.293L588.836 520.539L599.942 511.08C599.942 511.08 567.122 389.069 567.49 389.23L598.58 395.802L598.564 395.818Z" fill="#FF9192"/>
<path d="M533.533 397.902L510.184 508.948L509.222 513.533H485.761L499.238 507.97C499.238 507.97 505.697 381.791 506.001 382.048L533.549 397.918L533.533 397.902Z" fill="#FDACAB"/>
<path d="M610.631 508.644L611.128 513.293L588.82 520.539L599.926 511.08C599.926 511.08 604.429 513.709 610.647 508.628L610.631 508.644Z" fill="#241F3F"/>
<path d="M592.154 310.598L606.897 409.926L563.805 419.079L554.382 374.642L592.154 310.598Z" fill="#FEA901"/>
<path d="M563.244 414.735L605.278 405.613C607.874 405.052 610.39 406.848 610.695 409.477L611.095 412.843C611.368 415.184 609.781 417.348 607.474 417.797L565.391 425.78C562.907 426.261 560.503 424.578 560.119 422.077L559.766 419.833C559.382 417.476 560.92 415.232 563.26 414.719L563.244 414.735Z" fill="#FEA901"/>
<path d="M593.291 313.42C593.291 313.42 602.041 335.703 587.747 354.619C573.452 373.552 548.116 401.942 547.363 401.718C546.609 401.493 507.668 373.984 507.668 373.984L535.824 334.019L593.291 313.42Z" fill="#FFC010"/>
<path d="M512.219 371.484L550.231 396.524C552.363 397.934 552.971 400.804 551.577 402.952L549.782 405.709C548.436 407.793 545.68 408.451 543.549 407.2L504.463 384.517C502.091 383.138 501.258 380.124 502.572 377.72L505.04 373.263C506.466 370.682 509.767 369.864 512.219 371.484Z" fill="#FFC010"/>
<path d="M510.184 508.932L509.222 513.517H485.761L499.238 507.954C499.238 507.954 502.7 511.85 510.184 508.932Z" fill="#241F3F"/>
<path d="M456.419 212.185C457.492 211.191 457.492 209.652 457.3 208.193C457.108 206.75 456.723 206.093 455.425 204.762C455.425 204.762 459.672 197.821 457.588 196.266C455.505 194.711 452.573 202.486 452.573 202.486C452.573 202.486 449.672 188.651 447.284 189.709C444.88 190.767 447.941 202.181 447.941 202.181C447.941 202.181 441.483 191.777 439.64 192.819C437.797 193.861 444.143 204.249 444.143 204.249C444.143 204.249 436.739 197.052 434.897 198.751C433.454 200.081 441.002 206.526 441.002 206.526C441.002 206.526 432.397 205.58 432.332 207.135C432.268 208.69 441.483 209.828 441.483 209.828C443.566 214.413 445.505 216.609 449.015 219.062L452.813 219.671L456.258 214.878L456.435 212.169L456.419 212.185Z" fill="#FDACAB"/>
<path d="M593.42 309.139L594.702 311.945C597.234 317.492 594.061 323.792 587.714 325.796L543.901 339.646C537.395 341.698 530.296 338.364 528.533 332.432L527.491 328.938L593.404 309.123L593.42 309.139Z" fill="#CF2E4D"/>
<path d="M556.609 171.963C555.247 170.168 553.436 168.565 552.891 166.368C552.363 164.268 553.148 161.992 554.59 160.373C556.016 158.754 558.036 157.728 560.103 157.103C568.436 154.538 578.292 158.433 582.618 166C585.743 171.466 586.032 178.039 586.593 184.307C587.154 190.575 588.275 197.244 592.538 201.861C596.448 206.077 602.49 208.001 605.951 212.601C610.054 218.052 609.205 226.26 604.91 231.55C600.615 236.84 593.548 239.373 586.721 239.293C579.141 239.213 571.625 236.103 566.208 230.797C560.792 225.49 557.491 218.068 557.234 210.485C557.01 203.897 558.949 197.452 559.878 190.944C560.824 184.419 560.584 177.237 556.609 171.979V171.963Z" fill="#241F3F"/>
<path d="M500.601 185.044C496.787 191.809 497.54 200.883 502.427 206.927C507.315 212.97 516.001 215.615 523.421 213.307C525.007 216.914 527.155 220.296 528.757 223.903C532.299 221.691 536.706 220.521 540.664 219.238C537.251 213.243 536.033 206.109 536.658 199.232C537.074 194.743 538.372 190.238 537.491 185.814C535.985 178.311 528.052 173.198 520.424 173.422C512.78 173.63 504.351 178.376 500.601 185.028V185.044Z" fill="#FDACAB"/>
<path d="M492.732 188.09C496.53 191.729 503.197 192.162 508.501 190.687C509.687 187.914 510.713 185.221 511.914 182.431C512.716 184.564 514.655 186.022 516.546 187.321C518.421 188.619 520.488 189.677 522.235 191.136C523.998 192.595 525.472 194.583 525.68 196.859C525.584 194.487 526.113 191.89 527.379 189.902C528.18 188.651 529.59 187.786 531.065 187.93C533.805 188.203 534.526 190.992 534.046 193.22C533.661 194.968 532.699 196.539 532.122 198.222C531.065 201.3 531.305 204.794 532.764 207.696C533.746 209.63 535.579 211.672 538.26 213.82C538.26 213.82 558.789 202.518 554.814 178.488C553.436 170.152 548.052 163.05 540.199 159.94C521.866 152.646 491.53 154.794 492.732 188.122V188.09Z" fill="#241F3F"/>
<path d="M556.737 166.994C556.737 169.735 554.526 171.947 551.786 171.947C549.045 171.947 546.834 169.735 546.834 166.994C546.834 164.252 549.045 162.04 551.786 162.04C554.526 162.04 556.737 164.252 556.737 166.994Z" fill="#FF2E56"/>
<path d="M519.43 223.903V317.924C519.43 329.787 531.113 338.123 542.315 334.26L585.936 319.239C595.855 315.824 599.237 303.448 592.362 295.513C580.439 281.759 564.093 258.45 550.856 223.214C548.564 217.09 541.609 214.14 535.632 216.77L519.43 223.887V223.903Z" fill="#FF2E56"/>
<path d="M545.68 322.14C535.536 321.259 536.481 308.61 537.571 301.493C537.908 299.264 534.526 298.319 534.174 300.563C532.683 310.262 532.844 324.545 545.68 325.667C547.94 325.86 547.924 322.349 545.68 322.14Z" fill="#CF2E4D"/>
<path d="M535.616 216.786L488.742 237.097C487.636 237.578 486.354 237.321 485.537 236.439L466.146 216.08C462.108 211.848 455.537 211.367 450.922 214.958C445.666 219.046 445.041 226.773 449.56 231.662L475.248 259.412C479.127 263.596 485.12 265.055 490.473 263.115L545.584 243.22L535.616 216.77V216.786Z" fill="#FF2E56"/>
<path d="M544.686 228.921C544.302 227.975 542.747 228.392 543.148 229.354C548.164 241.521 528.437 247.244 520.552 250.835C519.607 251.268 520.424 252.647 521.353 252.214C529.847 248.334 550.167 242.243 544.686 228.921Z" fill="#CF2E4D"/>
<path d="M489.767 246.747C488.117 244.583 487.572 241.986 488.341 239.373C488.63 238.379 487.075 237.962 486.803 238.94C485.937 241.938 486.498 245.08 488.405 247.549C489.03 248.35 490.424 247.549 489.783 246.747H489.767Z" fill="#CF2E4D"/>
<path d="M541.738 388.701C532.587 382.865 523.437 377.03 514.27 371.179C513.389 370.618 512.588 372.013 513.469 372.558C522.619 378.393 531.77 384.228 540.936 390.079C541.818 390.64 542.619 389.246 541.738 388.701Z" fill="#FEA901"/>
<path d="M561.801 334.548C558.741 340.239 553.244 344.023 546.802 344.744C545.792 344.856 545.776 346.459 546.802 346.347C553.805 345.578 559.83 341.586 563.18 335.366C563.676 334.452 562.282 333.651 561.801 334.564V334.548Z" fill="#FEA901"/>
<path d="M603.163 405.116C591.24 407.713 579.301 410.31 567.378 412.907C566.369 413.132 566.801 414.671 567.811 414.446C579.734 411.849 591.673 409.252 603.596 406.655C604.605 406.431 604.173 404.892 603.163 405.116Z" fill="#F8971D"/>
<path d="M642.771 182.807L633.756 238.429L651.125 241.247L660.14 185.624L642.771 182.807Z" fill="#241F3F"/>
</g>
<defs>
<clipPath id="clip0_202_38">
<rect width="763" height="569" fill="white"/>
</clipPath>
</defs>
</svg>
