<svg width="1174" height="650" viewBox="0 0 1174 650" fill="none" xmlns="http://www.w3.org/2000/svg">
<g clip-path="url(#clip0_161_37)">
<path d="M451.996 273.997H577.358C618.928 273.997 652.695 307.738 652.695 349.276V636.206H382.661V343.305C382.661 305.053 413.741 273.997 452.022 273.997H451.996Z" fill="#FD6447"/>
<path d="M237.493 532.897C266.955 540.902 307.246 443.537 320.946 407.788C323.999 399.836 325.721 394.933 325.721 394.933L283.395 365.99C283.395 365.99 280.759 370.631 276.636 378.376C256.83 415.428 202.552 523.458 237.467 532.923L237.493 532.897Z" fill="#FD9680"/>
<path d="M276.636 378.35L320.946 407.788C323.999 399.836 325.721 394.933 325.721 394.933L283.395 365.99C283.395 365.99 280.759 370.631 276.636 378.376V378.35Z" fill="#002E3C"/>
<path d="M356.879 363.33L356.566 365.442L355.94 369.614L353.695 384.712L352.495 392.691L351.921 396.498L351.034 402.417L348.398 419.992L319.197 400.383L319.119 400.331L318.963 400.227L315.44 397.854L315.179 397.671L306.802 392.039L302.731 389.301L273.531 369.693C279.924 357.463 286.474 345.573 293.024 334.387C294.694 331.545 296.338 328.781 298.008 326.043C299.443 323.67 300.879 321.349 302.288 319.081C302.653 318.455 303.045 317.855 303.436 317.23C321.624 288.443 339.134 266.879 352.521 261.377C353.617 260.933 354.687 260.595 355.705 260.36V262.733L355.887 276.813L355.94 282.289L356.07 293.684L356.122 298.195L356.279 312.51L356.331 317.543L356.462 329.72V333.579L356.67 348.311L356.722 352.796L356.827 363.304L356.879 363.33Z" fill="#EAEFF5"/>
<path d="M315.153 397.645L315.414 397.828L318.936 400.201L320.946 389.901L330.81 339.628C331.018 338.481 330.288 337.386 329.14 337.151C327.991 336.916 326.869 337.673 326.661 338.82L318.545 380.123L316.692 389.562L315.126 397.619L315.153 397.645Z" fill="#CED5DB"/>
<path d="M633.489 457.488L630.41 457.722L621.146 458.452L615.039 458.922L587.509 461.06L580.776 461.581L577.697 461.816L571.695 462.285L552.907 463.746C551.55 458.557 551.367 456.001 551.367 456.001V457.748L550.871 484.84L550.088 529.585C550.088 529.585 550.245 581.005 549.645 635.998H279.715C282.977 616.076 286.839 592.452 291.015 567.003C291.249 565.543 291.484 564.083 291.745 562.622C292.58 557.512 293.441 552.297 294.303 547.056C294.72 544.474 295.164 541.893 295.581 539.311C295.764 538.242 295.92 537.199 296.103 536.13C296.416 534.279 296.703 532.401 297.043 530.524C298.791 519.885 300.592 509.116 302.392 498.295C302.496 497.591 302.627 496.887 302.731 496.209C303.906 489.221 305.054 482.259 306.228 475.297C306.567 473.341 306.881 471.386 307.22 469.43C307.663 466.796 308.107 464.163 308.551 461.555C308.916 459.391 309.281 457.227 309.647 455.063C312.856 436.158 316.04 417.697 319.093 400.331C320.607 391.752 322.094 383.408 323.529 375.429C323.608 374.934 323.712 374.464 323.79 373.969C323.895 373.343 324.025 372.717 324.129 372.092C324.182 371.779 324.234 371.466 324.286 371.179C324.469 370.188 324.651 369.197 324.834 368.206C324.938 367.581 325.069 366.955 325.173 366.329C328.879 346.147 334.098 319.941 339.473 298.716C340.256 295.666 341.013 292.693 341.796 289.877C342.083 288.808 342.396 287.739 342.683 286.696C343.179 285.001 343.675 283.358 344.145 281.767C347.276 271.65 350.303 264.271 352.991 261.82C353.33 261.507 353.669 261.272 354.009 261.116C354.583 260.855 355.157 260.595 355.757 260.334C356.279 260.099 356.801 259.864 357.349 259.63C367.343 255.275 377.155 251.703 386.419 248.809C388.193 248.261 389.942 247.713 391.664 247.218C393.256 246.749 394.795 246.305 396.335 245.888C399.127 245.106 401.841 244.402 404.477 243.724C429.267 237.518 446.856 236.214 446.856 236.214L505.231 237.883C505.231 237.883 516.191 244.245 533.988 256.944C536.441 258.717 539.05 260.595 541.764 262.576C552.437 270.451 564.963 280.203 578.663 291.859C578.663 291.859 580.333 293.032 583.021 295.405L583.073 295.457C583.986 296.265 585.004 297.204 586.126 298.273C594.163 305.991 607.002 320.776 616.005 343.174C616.579 344.582 617.205 346.46 617.91 348.754C618.667 351.232 619.476 354.178 620.311 357.516C620.598 358.611 620.859 359.758 621.146 360.958C621.511 362.496 621.876 364.087 622.242 365.755C624.199 374.491 626.208 384.947 628.009 396.185C628.296 398.01 628.583 399.836 628.844 401.713C629.783 408.049 630.618 414.542 631.323 421.113C631.558 423.199 631.767 425.259 631.949 427.345C632.158 429.613 632.341 431.908 632.523 434.176C632.706 436.445 632.836 438.714 632.967 440.956C633.228 445.728 633.411 450.473 633.437 455.063C633.437 455.871 633.437 456.653 633.437 457.462L633.489 457.488Z" fill="#EAEFF5"/>
<path d="M431.903 362.574C426.997 362.783 422.274 361.74 417.785 359.419C402.259 351.44 397.379 328.494 403.302 291.259C407.556 264.401 416.167 239.369 416.246 239.109C416.846 237.414 418.699 236.501 420.395 237.101C422.091 237.701 423.004 239.552 422.404 241.247C413.166 268 394.874 340.306 420.786 353.63C427.858 357.255 435.426 356.89 443.985 352.457C476.239 335.769 508.806 266.8 512.068 243.802C512.328 242.029 513.973 240.777 515.747 241.038C517.521 241.299 518.774 242.942 518.513 244.715C515.042 269.33 481.562 340.358 446.986 358.246C441.819 360.931 436.783 362.366 431.929 362.574H431.903Z" fill="#044F5B"/>
<path d="M474.829 574.826C474.829 574.826 474.673 574.721 474.594 574.669C474.386 574.513 452.883 558.815 432.085 533.809C412.801 510.629 390.15 474.436 391.742 433.707C391.794 432.534 392.76 431.621 393.934 431.673C395.108 431.725 396.022 432.716 395.969 433.864C394.43 473.211 416.506 508.412 435.269 531.019C455.728 555.66 476.865 571.097 477.074 571.253C478.013 571.931 478.222 573.261 477.543 574.2C476.917 575.06 475.743 575.321 474.829 574.826Z" fill="#CED5DB"/>
<path d="M479.031 309.303C480.179 309.668 481.405 309.094 481.875 307.973C482.345 306.8 481.771 305.47 480.596 305C433.155 286.331 428.98 254.024 428.928 253.711C428.797 252.459 427.649 251.546 426.396 251.703C425.144 251.833 424.231 252.955 424.361 254.206C424.518 255.64 428.719 289.512 478.9 309.277C478.952 309.277 479.005 309.303 479.031 309.329V309.303Z" fill="#CED5DB"/>
<path d="M455.18 315.691C456.302 316.056 457.529 315.509 457.998 314.387C458.494 313.214 457.92 311.884 456.772 311.389C430.781 300.568 427.597 285.731 427.545 285.574C427.31 284.323 426.11 283.515 424.857 283.775C423.605 284.01 422.796 285.209 423.057 286.461C423.187 287.165 426.762 303.879 454.997 315.613C455.05 315.613 455.128 315.665 455.18 315.665V315.691Z" fill="#CED5DB"/>
<path d="M534.353 367.346L540.224 409.04L541.581 418.557L550.897 484.84L551.367 457.748L545.704 417.488L538.58 366.772C538.397 365.625 537.353 364.817 536.179 364.973C535.031 365.13 534.196 366.199 534.379 367.372L534.353 367.346Z" fill="#CED5DB"/>
<path d="M543.59 419.887C544.008 419.887 544.399 419.757 544.765 419.522C545.73 418.87 545.991 417.541 545.339 416.576L531.404 396.029C530.752 395.064 529.421 394.803 528.455 395.455C527.49 396.107 527.229 397.437 527.881 398.401L541.816 418.949C542.234 419.548 542.886 419.887 543.564 419.887H543.59Z" fill="#CED5DB"/>
<path d="M399.232 635.998C374.807 623.716 348.163 604.421 333.733 575.191C333.211 574.148 333.654 572.87 334.698 572.348C335.742 571.827 337.021 572.27 337.543 573.313C353.017 604.708 383.34 624.342 409.044 635.998H399.232Z" fill="#CED5DB"/>
<path d="M513.242 88.6292C513.242 88.6292 530.23 63.8058 525.141 45.5793C520.053 27.3528 503.508 44.6406 503.508 44.6406C503.508 44.6406 502.699 -0.104304 479.736 0.730099C456.772 1.5645 459.721 20.5211 459.721 20.5211C459.721 20.5211 419.247 -6.0755 386.889 1.2516C354.531 8.5787 391.038 33.8976 391.038 33.8976C391.038 33.8976 351.347 12.2031 346.337 34.8624C341.326 57.5477 360.689 66.3611 360.689 66.3611C360.689 66.3611 331.671 75.0963 345.893 87.0647C360.115 99.0593 372.119 93.5574 372.119 93.5574L513.19 88.6032L513.242 88.6292Z" fill="#002E3C"/>
<path d="M380.417 125.76C380.417 125.76 361.263 120.676 359.463 142.683C357.662 164.69 383.131 184.403 400.276 174.781C400.276 174.781 390.751 133.661 380.417 125.734V125.76Z" fill="#FD9680"/>
<path d="M394.534 167.35C393.412 167.454 392.342 166.776 392.003 165.681C387.176 150.166 374.024 143.387 373.893 143.335C372.719 142.735 372.223 141.301 372.823 140.101C373.423 138.928 374.859 138.433 376.033 139.032C376.659 139.345 391.116 146.725 396.596 164.247C396.987 165.525 396.283 166.855 395.004 167.246C394.848 167.298 394.691 167.324 394.534 167.35Z" fill="#FD6C5B"/>
<path d="M374.702 158.067C373.867 158.145 373.006 157.78 372.484 157.05C371.727 155.955 371.988 154.469 373.084 153.713C373.398 153.504 380.6 148.524 387.045 148.889C388.376 148.967 389.394 150.088 389.316 151.418C389.237 152.748 388.115 153.765 386.784 153.687C382.844 153.452 377.547 156.477 375.85 157.65C375.511 157.885 375.12 158.015 374.728 158.067H374.702Z" fill="#FD6C5B"/>
<path d="M434.8 255.849C434.8 255.849 452.962 265.549 474.152 257.935C495.341 250.321 505.231 237.883 505.231 237.883L498.498 220.856L475.143 168.523L417.29 189.305L425.745 221.43L434.8 255.849Z" fill="#FD9680"/>
<path d="M425.719 221.43C435.739 228.574 461.339 241.273 498.472 220.856L475.117 168.523L417.264 189.305L425.719 221.43Z" fill="#002E3C"/>
<path d="M383.444 147.064C385.976 154.339 388.924 161.744 392.264 168.993C408 203.177 432.373 233.242 463.505 222.786C489.443 214.05 502.073 184.481 508.101 154.13C509.641 146.307 510.763 138.433 511.572 130.871C513.294 114.157 513.477 98.8507 513.268 88.6553C513.112 80.2331 508.441 72.5148 501.003 68.5514C442.733 37.5221 374.337 71.4458 372.197 93.6096C371.362 102.11 375.329 123.752 383.496 147.064H383.444Z" fill="#FD9680"/>
<path d="M448.787 203.334C443.803 203.334 440.254 202.16 439.967 202.082C438.949 201.743 438.401 200.622 438.74 199.605C439.079 198.588 440.201 198.04 441.219 198.379C441.35 198.431 453.066 202.212 463.4 194.911C464.287 194.286 465.488 194.494 466.114 195.381C466.74 196.267 466.532 197.467 465.644 198.093C459.773 202.265 453.614 203.334 448.787 203.334Z" fill="#FD6C5B"/>
<path d="M473.812 184.012C473.812 184.012 464.835 176.893 451.683 176.554C428.85 175.955 430.807 191.313 430.807 191.313C444.011 194.729 458.181 193.164 473.812 184.038V184.012Z" fill="#EAEFF5"/>
<path d="M482.423 105.708L452.518 92.8534C452.518 92.8534 446.047 93.0099 451.761 102.214C457.815 111.993 476.839 111.367 476.839 111.367C476.839 111.367 485.581 113.401 482.423 105.708Z" fill="#002E3C"/>
<path d="M389.55 116.138L416.846 98.4335C416.846 98.4335 423.265 97.4948 419.168 107.534C414.837 118.198 395.97 120.78 395.97 120.78C395.97 120.78 387.697 124.248 389.524 116.138H389.55Z" fill="#002E3C"/>
<path d="M467.575 142.396C467.993 146.177 474.334 148.55 481.719 147.715C489.104 146.881 494.741 143.152 494.323 139.371C493.906 135.59 487.564 133.218 480.18 134.052C472.795 134.886 467.158 138.615 467.575 142.396Z" fill="#FD6C5B"/>
<path d="M388.507 152.409C388.924 156.19 395.265 158.563 402.65 157.728C410.035 156.894 415.672 153.165 415.254 149.384C414.837 145.603 408.496 143.23 401.111 144.065C393.726 144.899 388.089 148.628 388.507 152.409Z" fill="#FD6C5B"/>
<path d="M461.939 127.846C462.356 131.575 464.34 134.417 466.401 134.182C468.463 133.948 469.794 130.767 469.402 127.038C468.985 123.309 467.001 120.467 464.94 120.702C462.878 120.936 461.547 124.117 461.939 127.846Z" fill="#002E3C"/>
<path d="M417.786 133.426C418.334 137.129 417.107 140.388 415.046 140.675C412.984 140.962 410.896 138.198 410.348 134.495C409.8 130.793 411.027 127.533 413.088 127.246C415.15 126.96 417.238 129.724 417.786 133.426Z" fill="#002E3C"/>
<path d="M442.132 169.645C444.637 169.332 447.325 168.393 448.761 167.845C449.883 167.428 450.431 166.177 450.013 165.055C449.596 163.934 448.343 163.387 447.221 163.804C444.533 164.821 441.454 165.525 440.201 165.446C439.914 161.9 440.253 145.525 440.749 130.949C440.801 129.75 439.862 128.759 438.662 128.707C437.461 128.655 436.47 129.593 436.417 130.793C436.157 138.563 435.321 164.143 436.052 167.037C436.287 167.976 436.913 168.758 437.827 169.227C438.949 169.801 440.514 169.853 442.132 169.645Z" fill="#FD6C5B"/>
<path d="M503.43 108.942C504.474 111.862 509.067 109.489 510.815 108.681C514.234 107.09 513.973 90.9239 515.591 83.701C517.209 76.4782 521.671 57.0523 467.184 46.518C412.697 36.0097 373.528 69.7509 370.501 87.3516C367.474 104.952 376.946 131.392 380.522 129.046C384.097 126.699 380.365 100.676 381.644 98.1206C382.948 95.5652 380.6 83.6228 388.35 81.1196C396.1 78.6164 404.503 74.9659 421.335 68.2385C438.166 61.5111 468.228 62.6324 478.483 66.4393C478.483 66.4393 473.238 76.7651 481.145 86.1521C489.052 95.5652 498.498 95.0176 503.43 108.942Z" fill="#002E3C"/>
<path d="M509.171 109.463C509.171 109.463 526.446 99.7633 533.701 120.623C540.929 141.51 521.201 166.933 502.204 161.874C502.204 161.874 501.16 119.685 509.171 109.437V109.463Z" fill="#FD9680"/>
<path d="M505.883 153.243C506.979 153.087 507.866 152.148 507.918 150.975C508.727 134.756 519.766 124.9 519.87 124.821C520.862 123.935 520.966 122.423 520.105 121.432C519.244 120.441 517.73 120.337 516.713 121.197C516.191 121.64 504.03 132.409 503.117 150.74C503.039 152.07 504.082 153.191 505.387 153.269C505.544 153.269 505.7 153.269 505.857 153.269L505.883 153.243Z" fill="#FD6C5B"/>
<path d="M522.766 139.319C523.601 139.189 524.358 138.615 524.671 137.781C525.141 136.529 524.489 135.147 523.262 134.704C522.923 134.574 514.677 131.549 508.545 133.504C507.292 133.896 506.587 135.252 506.979 136.529C507.37 137.807 508.727 138.485 510.006 138.094C513.764 136.894 519.635 138.485 521.592 139.215C521.984 139.371 522.401 139.397 522.793 139.345L522.766 139.319Z" fill="#FD6C5B"/>
<path d="M481.223 164.038C472.925 165.968 464.365 164.56 457.137 160.049C449.909 155.564 444.846 148.498 442.915 140.206C440.984 131.914 442.393 123.361 446.881 116.138C451.37 108.916 458.416 103.857 466.74 101.928C475.038 99.998 483.598 101.406 490.826 105.917C498.054 110.402 503.117 117.468 505.048 125.76C506.979 134.052 505.57 142.605 501.055 149.827C497.115 156.138 491.243 160.779 484.302 163.152C483.284 163.491 482.267 163.778 481.223 164.038ZM449.752 117.938C445.733 124.404 444.455 132.044 446.203 139.476C447.925 146.907 452.44 153.191 458.911 157.207C465.383 161.222 473.029 162.5 480.466 160.753C487.903 159.032 494.192 154.521 498.211 148.028C502.23 141.562 503.508 133.922 501.76 126.49C500.038 119.085 495.523 112.775 489.051 108.759C482.58 104.744 474.934 103.466 467.497 105.213C466.557 105.422 465.644 105.682 464.731 105.995C458.52 108.107 453.249 112.279 449.752 117.912V117.938Z" fill="#EAEFF5"/>
<path d="M411.836 170.27C395.631 174.051 379.4 163.934 375.616 147.768C371.832 131.575 381.957 115.356 398.136 111.575C405.991 109.75 414.08 111.08 420.917 115.33C427.754 119.58 432.53 126.23 434.356 134.078C436.183 141.927 434.852 150.01 430.598 156.842C426.893 162.813 421.335 167.194 414.759 169.436C413.793 169.749 412.828 170.036 411.836 170.27ZM378.904 147.011C382.27 161.379 396.701 170.349 411.079 167.011C418.047 165.394 423.97 161.144 427.754 155.069C431.538 148.993 432.712 141.822 431.094 134.86C429.476 127.898 425.223 121.979 419.143 118.198C413.062 114.418 405.886 113.244 398.919 114.861C398.032 115.069 397.197 115.304 396.362 115.591C383.497 119.972 375.772 133.504 378.904 147.011Z" fill="#EAEFF5"/>
<path d="M444.481 134.73C444.977 134.547 445.42 134.209 445.707 133.713C446.308 132.644 445.942 131.288 444.872 130.688C444.611 130.532 438.114 126.96 431.355 132.331C430.389 133.113 430.233 134.521 430.99 135.486C431.773 136.451 433.182 136.607 434.147 135.851C438.479 132.383 442.498 134.521 442.68 134.6C443.254 134.913 443.907 134.939 444.481 134.756V134.73Z" fill="#EAEFF5"/>
<path d="M558.439 463.302C558.543 465.493 558.648 467.944 558.778 470.629C558.778 471.281 558.83 471.933 558.856 472.585C559.561 488.517 560.501 510.889 561.597 525.309C562.484 536.808 563.528 548.568 564.702 559.598C564.937 561.762 565.172 563.926 565.406 566.038C565.406 566.116 565.406 566.221 565.406 566.299C565.693 568.776 565.98 571.201 566.294 573.574C567.311 581.605 568.407 588.984 569.634 595.216C574.618 621.031 589.362 636.18 602.931 634.068C612.326 632.608 621.172 622.83 625.817 602.595C633.567 568.698 632.941 512.141 629.653 480.095C629.444 478.035 628.818 470.238 628.322 464.371C628.087 461.607 627.878 459.287 627.774 458.192C627.774 458.113 627.774 458.035 627.774 457.957L558.439 463.328V463.302Z" fill="#FD9680"/>
<path d="M558.387 463.302C558.491 466.014 558.622 469.169 558.752 472.611H558.83L628.322 465.336C628.087 462.103 627.878 459.417 627.774 458.166C627.774 458.087 627.774 458.009 627.774 457.931L558.439 463.302H558.413H558.387Z" fill="#002E3C"/>
<path d="M439.784 636.102C439.784 636.102 513.764 636.65 571.617 635.998C572.113 635.998 594.816 636.024 595.311 635.998C597.843 635.815 600.426 635.163 602.957 634.068C612.352 630 621.067 619.623 624.512 602.908L625.504 598.084C627.93 586.351 622.424 574.252 611.751 568.724C611.412 568.541 611.047 568.385 610.708 568.202C607.133 566.481 607.106 566.977 603.531 566.064C594.685 563.744 586.1 563.196 577.697 563.978C576.966 564.056 576.21 564.135 575.479 564.213C574.905 564.265 574.331 564.369 573.731 564.448C570.938 564.839 568.172 565.386 565.406 566.064C565.145 566.116 564.884 566.195 564.649 566.247C549.749 569.976 535.266 577.303 520.757 585.542C490.826 602.543 438.453 611.539 438.453 611.539C426.24 624.707 439.758 636.102 439.758 636.102H439.784Z" fill="#FD9680"/>
<path d="M564.649 566.247C564.91 566.247 565.171 566.273 565.432 566.299C572.269 566.925 581.846 568.776 591.606 573.939C591.606 573.939 585.63 568.202 577.697 563.952C573.678 561.814 569.19 560.041 564.702 559.598C564.936 561.762 565.171 563.926 565.406 566.038C565.145 566.09 564.884 566.169 564.649 566.221V566.247Z" fill="#002E3C"/>
<path d="M438.479 610.053C438.479 610.053 406.042 598.189 383.783 603.065C361.524 607.915 352.651 635.268 352.651 635.268L438.844 634.251C438.844 634.251 450.43 613.677 438.479 610.053Z" fill="#FD9680"/>
<path d="M210.093 636.18H537.771C540.769 636.18 543.199 633.752 543.199 630.757V621.396C543.199 618.4 540.769 615.972 537.771 615.972H210.093C207.095 615.972 204.665 618.4 204.665 621.396V630.757C204.665 633.752 207.095 636.18 210.093 636.18Z" fill="#044F5B"/>
<path d="M93.9169 450.786L135.826 627.914C136.948 632.634 141.149 635.972 146.003 635.972H404.216C410.974 635.972 415.959 629.661 414.393 623.117L372.484 445.988C371.362 441.269 367.16 437.931 362.281 437.931H104.094C97.3354 437.931 92.3512 444.241 93.9169 450.786Z" fill="#002E3C"/>
<path d="M352.077 437.931L396.7 635.998H404.216C410.974 635.998 415.959 629.688 414.393 623.143L372.484 446.015C371.362 441.295 367.16 437.957 362.281 437.957H352.051L352.077 437.931Z" fill="#044F5B"/>
<path d="M255.434 560.945C262.845 553.043 262.442 540.634 254.534 533.229C246.625 525.824 234.207 526.227 226.796 534.129C219.386 542.031 219.789 554.44 227.697 561.845C235.605 569.25 248.024 568.847 255.434 560.945Z" fill="#044F5B"/>
<path d="M250.254 241.012C249.549 236.423 244.774 234.728 239.32 235.562C232.978 236.527 227.629 241.247 225.463 247.922L197.176 238.77C202.578 223.464 216.017 211.469 239.659 207.897C262.858 204.403 281.62 211.521 284.412 229.982C287.831 252.563 264.789 260.125 266.511 271.494L236.084 276.083C233.37 258.222 251.637 250.034 250.254 241.012ZM235.327 300.046C233.84 290.164 240.677 281.429 252.185 279.681C263.719 277.934 272.826 284.245 274.313 294.153C275.801 303.905 269.016 313.084 257.508 314.831C245.974 316.578 236.788 309.798 235.327 300.072V300.046Z" fill="#FD6447"/>
<path d="M192.427 342.001C193.731 346.46 198.689 347.477 203.987 345.938C210.145 344.139 214.816 338.742 216.069 331.832L245.322 337.151C242.008 353.057 230.291 366.72 207.353 373.421C184.833 379.992 165.288 375.429 160.068 357.49C153.675 335.56 175.491 325 172.255 313.97L201.795 305.365C206.857 322.705 189.869 333.266 192.427 342.001ZM199.342 281.507C202.134 291.102 196.524 300.672 185.355 303.931C174.16 307.191 164.296 302.132 161.478 292.537C158.712 283.071 164.192 273.085 175.386 269.825C186.581 266.566 196.576 272.041 199.342 281.507Z" fill="#FD6447"/>
</g>
<defs>
<clipPath id="clip0_161_37">
<rect width="1174" height="650" fill="white"/>
</clipPath>
</defs>
</svg>
