<svg width="207" height="446" viewBox="0 0 207 446" fill="none" xmlns="http://www.w3.org/2000/svg">
<g clip-path="url(#clip0_144_28)">
<path d="M148.394 118.801L156.287 141.264L186.831 108.808L196.428 116.276C196.428 116.276 190.552 124.59 185.486 135.162C176.723 153.433 164.054 177.715 156.287 178.525C145.206 179.683 129.778 144.934 129.778 144.934L125.582 120.248L148.394 118.801Z" fill="#FAC8A7"/>
<path d="M80.2243 391.961L80.2011 392.077L77.7206 404.825L71.4844 436.841C66.6507 440.303 58.7917 436.841 58.7917 436.841V393.2L61.8403 393.026L79.6216 391.996L80.2359 391.961H80.2243Z" fill="#FAC8A7"/>
<path d="M147.084 390.363L146.214 398.978L145.519 405.983L142.459 436.413C142.459 436.413 136.79 440.06 131.702 436.413L128.236 413.556L125.651 396.546L124.515 389.066L147.084 390.363Z" fill="#FAC8A7"/>
<path d="M146.215 398.978L145.519 405.983C135.064 412.317 128.584 413.498 128.248 413.556L125.663 396.546C130.068 397.032 145.519 398.908 145.519 398.908C145.519 398.908 145.797 398.92 146.226 398.978H146.215Z" fill="#EA9773"/>
<path d="M80.2011 392.077L77.7206 404.825C77.7206 404.825 73.5708 407.905 58.7917 410.8V395.4C59.8813 394.531 60.913 393.732 61.8403 393.026C64.1934 391.231 65.8162 390.073 65.8162 390.073L79.6216 391.996L80.2127 392.077H80.2011Z" fill="#EA9773"/>
<path d="M137.336 189.155C151.396 211.328 152.231 256.382 153.714 296.052C154.989 330.106 156.299 401.212 156.299 401.212C156.299 401.212 143.282 407.384 116.796 402.173L111.405 296.237L103.454 237.207L95.3745 174.102L137.336 189.155Z" fill="#3C4FD9"/>
<path d="M71.0904 191.47C71.0904 191.47 63.6835 210.749 60.5886 230.063C57.9805 246.355 50.2258 399.892 50.2258 399.892C50.2258 399.892 69.6415 405.705 87.6314 402.382C87.6314 402.382 110.061 273.681 113.434 240.681C116.807 207.681 116.784 191.47 116.784 191.47H71.0904Z" fill="#3C4FD9"/>
<path d="M127.239 20.1012C127.239 20.1012 130.682 22.4864 131.099 31.6802C131.343 37.0875 128.584 38.8244 131.099 46.3507C133.615 53.8771 135.968 58.7287 134.611 66.4519C133.255 74.1751 125.489 86.5646 127.228 90.8141C127.228 90.8141 130.844 88.892 117.607 86.1362C114.651 85.5225 106.363 81.6667 106.363 81.6667C106.363 81.6667 105.401 68.733 106.363 66.8108C107.325 64.8772 116.992 23.5864 116.992 23.5864" fill="#010245"/>
<path d="M107.534 101.733C94.4819 101.617 71.0903 87.7688 71.0903 87.7688L83.1686 83.4267C86.2751 82.3151 88.5586 79.5941 89.0339 76.3288C90.8653 63.4645 87.2488 40.3644 87.2488 40.3644L109.273 51.6539C109.574 55.2318 110.258 59.794 111.023 64.2519C111.846 69.0572 112.773 73.7351 113.434 76.9077C113.573 77.6141 113.712 78.2393 113.816 78.7835C114.083 80.0688 115.068 81.0878 116.355 81.3888L122.684 82.9057L125.883 83.9594C125.883 83.9594 129.558 101.918 107.534 101.733Z" fill="#FAC8A7"/>
<path d="M113.434 76.9077C101.02 73.7814 99.9995 62.5613 99.9995 62.5613L111.023 64.2519C111.846 69.0572 112.773 73.7351 113.434 76.9077Z" fill="#EA9773"/>
<path d="M125.802 42.4718C126.996 50.2645 129.882 69.6593 120.226 71.2919C97.739 75.0898 84.8493 42.4718 84.8493 42.4718C84.8493 42.4718 82.5658 19.5454 102.028 17.3222C121.432 15.099 124.04 30.9159 125.814 42.4718H125.802Z" fill="#FAC8A7"/>
<path d="M120.725 29.2254C117.097 30.997 109.435 30.8349 109.644 34.9338C109.945 41.036 105.54 43.2707 101.958 47.9023C98.6549 52.1981 96.9046 46.7329 93.7865 51.4918C91.7348 54.6297 90.0424 60.535 89.5904 70.2961C89.4629 73.1098 89.3006 75.333 89.0108 77.0351C88.524 79.872 86.5534 82.2109 83.841 83.1835L79.3319 84.8046C78.0105 85.6962 73.0378 89.7141 71.7279 89.3204C71.67 86.0204 72.5741 74.2677 74.8229 69.7403C77.4309 64.4719 81.0475 62.7698 80.862 55.2434C80.665 47.7171 73.0957 33.9033 77.7787 22.7991C81.4532 14.1148 89.3122 11.1506 99.1301 9.58741C108.206 8.14004 113.086 -0.660003 120.771 0.0347368C134.774 1.28527 138.692 20.3906 120.725 29.2254Z" fill="#010245"/>
<path d="M102.99 53.8192C103.199 55.1971 104.926 56.0771 106.838 55.7761C108.751 55.4866 110.142 54.1318 109.933 52.7539C109.725 51.376 107.997 50.496 106.085 50.7971C104.172 51.0866 102.781 52.4413 102.99 53.8192Z" fill="#F9B995"/>
<path d="M123.217 51.7697C123.368 52.7308 124.272 53.3792 125.245 53.2287C126.219 53.0781 126.891 52.1866 126.752 51.2255C126.602 50.276 125.698 49.616 124.724 49.7666C123.75 49.9171 123.078 50.8087 123.217 51.7697Z" fill="#F9B995"/>
<path d="M111.208 42.4602C111.208 42.4602 107.453 42.1013 105.529 43.6413C105.529 43.6413 105.227 43.8844 105.065 43.7455C104.972 43.6644 105.239 43.3171 105.239 43.3171C105.239 43.3171 107.001 40.6539 111.301 41.5223C111.301 41.5223 111.858 41.6613 111.788 42.0318C111.718 42.4602 111.208 42.4718 111.208 42.4718V42.4602Z" fill="#010245"/>
<path d="M108.461 46.5592C108.624 47.5434 109.261 48.2497 109.876 48.1455C110.49 48.0413 110.861 47.1613 110.699 46.1771C110.536 45.1929 109.899 44.4865 109.284 44.5907C108.67 44.695 108.299 45.575 108.461 46.5592Z" fill="#010245"/>
<path d="M124.492 40.9897C124.179 40.9665 123.298 40.9897 122.522 41.0591C121.78 41.1518 120.876 41.4413 120.876 41.4413C120.876 41.4413 120.273 41.557 120.03 41.1634C119.833 40.8276 120.192 40.5381 120.366 40.457C121.026 40.1328 121.838 40.0634 122.533 40.0634C123.542 40.0865 124.434 40.5149 124.678 40.7118C124.736 40.7697 124.852 41.0128 124.492 40.9897Z" fill="#010245"/>
<path d="M124.075 45.1465C124.11 46.1423 123.635 46.9644 123.009 46.9876C122.383 47.0108 121.849 46.2234 121.803 45.2276C121.768 44.2318 122.244 43.4097 122.869 43.3865C123.495 43.3634 124.029 44.1507 124.075 45.1465Z" fill="#010245"/>
<path d="M115.126 62.0635C115.231 62.0171 115.346 62.0171 115.509 62.075C119.38 63.4414 121.791 61.4266 121.814 61.4035C122.139 61.1371 122.336 61.3224 122.394 61.3803C122.545 61.554 122.51 61.7971 122.324 61.9708C122.116 62.1445 120.18 63.7077 117.062 63.2793C116.992 63.2793 116.923 63.2561 116.865 63.2445C116.378 63.1519 115.868 62.9782 115.346 62.7929L115.265 62.7582C114.964 62.654 114.906 62.434 114.964 62.2603C114.999 62.1677 115.057 62.0982 115.138 62.0635H115.126Z" fill="#9D634F"/>
<path d="M118.499 55.5329C118.499 55.5329 118.592 55.5329 118.65 55.5329C118.72 55.5213 120.308 55.1739 120.644 53.5645C120.968 52.036 119.369 49.7087 119.311 49.6044C119.206 49.4308 119.079 49.3034 118.905 49.4192C118.743 49.5234 118.801 49.6855 118.905 49.8592C119.299 50.4845 120.145 52.395 119.937 53.4255C119.693 54.5834 118.546 55.0003 118.499 55.0118C118.302 55.0582 118.175 55.2087 118.198 55.3245C118.233 55.4634 118.36 55.5097 118.488 55.5445L118.499 55.5329Z" fill="#9D634F"/>
<path d="M150.422 120.456C150.422 120.456 148 124.15 140.651 127.844C137.753 129.303 134.078 130.773 129.476 132.012C124.585 133.332 118.65 134.397 111.475 134.93C80.491 137.246 47.2583 121.221 47.2583 121.221C47.2583 121.221 52.034 98.6994 71.0903 87.7688L80.9546 84.2257C80.9546 84.2257 95.7801 96.7078 107.221 95.3647C125.385 93.2457 120.818 82.4541 120.818 82.4541C120.818 82.4541 135.701 84.0867 142.111 97.6805C147.385 108.854 150.422 120.456 150.422 120.456Z" fill="white"/>
<path d="M140.651 127.844C137.753 129.303 134.078 130.773 129.477 132.012C130.995 125.377 134.032 112.814 134.032 112.814C134.032 112.814 138.193 119.345 140.651 127.844Z" fill="#EFEFEF"/>
<path d="M132.78 106.365C132.78 106.365 136.014 125.736 137.335 129.361C138.135 131.584 139.804 145.849 139.665 166.761C139.573 180.03 146.643 188.205 139.41 193.775C121.791 207.38 69.4791 201.336 65.6076 195.129C63.3704 191.54 67.4854 193.508 68.7373 168.694C70.1167 141.484 71.0787 119.102 71.0787 119.102" fill="white"/>
<path opacity="0.59" d="M134.53 136.459C134.53 136.459 125.64 142.538 99.5242 147.459C81.5227 150.851 79.2739 178.143 79.2739 178.143C79.2739 178.143 97.1479 159.906 107.87 154.823C118.592 149.74 130.195 146.59 134.542 136.459H134.53Z" fill="#EFEFEF"/>
<path d="M84.0612 196.97H21.6065C19.4157 196.97 17.5147 195.442 17.0511 193.311L0.104397 115.778C-0.533132 112.872 1.68083 110.128 4.65983 110.128H67.1261C69.3169 110.128 71.2179 111.656 71.6816 113.787L88.6167 191.32C89.2542 194.226 87.0402 196.97 84.0612 196.97Z" fill="#A0AFEA"/>
<path d="M80.2245 196.97H21.6065C19.4157 196.97 17.5147 195.442 17.0511 193.311L0.104397 115.778C-0.533132 112.872 1.68083 110.128 4.65983 110.128H63.2778C65.4686 110.128 67.3695 111.656 67.8332 113.787L84.7683 191.32C85.4058 194.226 83.1919 196.97 80.2129 196.97H80.2245Z" fill="#C2CCFD"/>
<path d="M71.8669 204.717C71.8669 204.717 72.9218 204.995 74.7764 205.377C75.7037 205.585 76.8397 205.782 78.1379 206.037C79.4478 206.234 80.9083 206.512 82.5195 206.732C83.3193 206.847 84.1655 206.963 85.0232 207.09C85.8926 207.183 86.7967 207.276 87.7124 207.38C89.5555 207.612 91.526 207.669 93.5429 207.855C95.5714 207.936 97.6579 208.063 99.7907 208.063C101.912 208.028 104.08 208.086 106.236 207.901C107.314 207.843 108.392 207.797 109.47 207.739C110.548 207.669 111.602 207.519 112.657 207.415C113.712 207.299 114.767 207.206 115.799 207.067C116.83 206.894 117.839 206.72 118.835 206.546C119.832 206.373 120.818 206.199 121.768 206.037C122.719 205.817 123.646 205.597 124.55 205.388C125.454 205.18 126.335 204.972 127.181 204.775C128.027 204.578 128.827 204.277 129.604 204.045C131.157 203.559 132.571 203.119 133.835 202.725C135.063 202.239 136.13 201.81 137.011 201.463C138.784 200.78 139.793 200.386 139.793 200.386C139.793 200.386 138.808 200.849 137.092 201.672C136.234 202.077 135.179 202.563 133.974 203.13C132.745 203.617 131.331 204.115 129.789 204.67C129.013 204.925 128.225 205.261 127.378 205.493C126.532 205.724 125.651 205.967 124.747 206.21C123.843 206.454 122.916 206.708 121.965 206.963C121.003 207.195 120.006 207.334 119.009 207.53C118.001 207.716 116.981 207.901 115.938 208.098C114.894 208.248 113.84 208.353 112.773 208.492C111.707 208.607 110.629 208.769 109.551 208.85C108.461 208.92 107.372 208.978 106.282 209.047C104.103 209.209 101.924 209.117 99.7675 209.128C97.6231 209.094 95.5135 208.955 93.4734 208.839C91.4333 208.642 89.4628 208.492 87.6197 208.19C86.6924 208.063 85.7883 207.924 84.9189 207.808C84.0496 207.658 83.215 207.507 82.4152 207.357C80.8039 207.102 79.355 206.72 78.0568 206.442C76.7701 206.118 75.6458 205.852 74.73 205.585C72.8986 205.076 71.8785 204.705 71.8785 204.705L71.8669 204.717Z" fill="#263F99"/>
<path d="M108.635 275.661L112.703 247.061L111.405 296.249L108.635 275.661Z" fill="#263F99"/>
<path d="M114.095 207.866C114.095 207.866 114.454 215.902 114.385 223.938C114.361 227.956 114.222 231.974 114.014 234.984C113.898 236.49 113.793 237.74 113.689 238.609C113.585 239.477 113.527 239.975 113.527 239.975C113.527 239.975 113.562 239.477 113.643 238.597C113.724 237.729 113.782 236.466 113.84 234.973C113.944 231.962 113.933 227.956 113.817 223.95C113.596 215.937 112.947 207.947 112.947 207.947L114.106 207.878L114.095 207.866Z" fill="#263F99"/>
<path d="M117.537 204.173C117.537 205.122 116.888 205.886 116.088 205.886C115.288 205.886 114.639 205.122 114.639 204.173C114.639 203.223 115.288 202.459 116.088 202.459C116.888 202.459 117.537 203.223 117.537 204.173Z" fill="#263F99"/>
<path d="M24.1797 156.004C23.9711 156.235 22.2903 157.903 21.1776 158.262C21.5601 158.424 21.873 158.656 22.0817 159.014C22.0817 159.014 22.4642 160.068 21.8383 160.427C21.3514 160.705 18.4536 161.608 17.1206 162.013C18.0131 162.697 17.7929 163.472 17.4683 163.496C16.9351 163.565 12.9476 164.746 12.2406 164.873C11.7653 164.966 10.9307 165.082 9.71362 165.117H9.64407C7.88217 164.978 6.90849 163.808 6.90849 163.808C6.90849 163.808 5.59866 163.6 4.98431 162.986C4.36996 162.372 4.23087 160.554 4.23087 160.554C4.23087 160.554 3.17604 159.906 2.88626 158.598C2.59647 157.301 3.21082 155.529 3.21082 155.529C3.21082 155.529 2.12122 154.661 1.91258 154.012C1.71552 153.422 1.4721 151.511 3.00217 148.825C4.70611 145.838 6.46801 144.934 6.46801 144.934L7.69671 150.539L8.76312 150.932L13.6431 150.643C13.6431 150.643 18.5115 147.621 19.6591 149.983C19.6591 149.983 19.9257 150.84 19.4388 151.314C18.7549 151.986 15.0341 154.614 14.3618 154.823L16.8308 154.927C16.8308 154.927 23.264 152.38 24.4579 154.406C24.4579 154.406 24.91 155.217 24.1797 156.004Z" fill="#FAC8A7"/>
<path d="M14.3617 154.823C14.3617 154.823 14.2458 154.904 14.0256 155.043C13.8054 155.17 13.504 155.367 13.0867 155.541C12.6694 155.738 12.1362 155.749 11.6146 155.819C11.0698 155.877 10.4902 155.934 9.91063 155.958C8.75149 155.992 7.58075 155.923 6.72298 155.83C5.85363 155.726 5.28564 155.622 5.28564 155.622C5.28564 155.622 5.86522 155.645 6.73458 155.668C7.60393 155.691 8.75149 155.726 9.89904 155.668C10.4786 155.657 11.0466 155.622 11.5914 155.576C12.1362 155.518 12.6346 155.552 13.0287 155.39C13.8401 155.124 14.3502 154.834 14.3502 154.834L14.3617 154.823Z" fill="#DB9F7D"/>
<path d="M21.1776 158.262C21.1776 158.262 20.2966 158.528 18.9868 158.922C18.3377 159.13 17.5726 159.373 16.738 159.582C16.2976 159.686 15.8687 159.721 15.4166 159.779C14.9645 159.825 14.5125 159.86 14.0488 159.906C10.3975 160.184 6.73462 160.138 6.73462 160.138L14.0256 159.617C14.9298 159.547 15.8455 159.489 16.6801 159.339C17.5147 159.165 18.2913 158.968 18.952 158.794C20.285 158.47 21.1776 158.25 21.1776 158.25V158.262Z" fill="#DB9F7D"/>
<path d="M8.7168 163.484C8.7168 163.484 9.42387 163.414 10.4787 163.322C11.0003 163.264 11.6147 163.206 12.2522 163.067C12.8897 162.928 13.5736 162.731 14.2575 162.569C16.9815 161.828 19.7287 161.191 19.7287 161.191C19.7287 161.191 17.051 162.106 14.3271 162.836C13.6432 163.021 12.9593 163.206 12.3101 163.345C11.6494 163.472 11.0235 163.507 10.4903 163.519C9.95708 163.542 9.51661 163.519 9.20364 163.519C8.89067 163.507 8.7168 163.496 8.7168 163.496V163.484Z" fill="#DB9F7D"/>
<path d="M146.829 439.678C146.006 438.207 144.812 438.682 144.638 435.984C144.464 433.275 144.453 432.869 144.418 431.052C144.372 428.539 143.444 426.628 143.444 426.628C143.444 426.628 143.34 427.474 142.876 427.879C142.505 428.215 141.845 428.226 141.23 427.624C140.952 427.184 140.338 425.714 139.063 425.112C138.24 424.718 135.133 424.521 133.186 425.482C132.687 425.725 131.992 427.103 131.748 427.752C131.702 427.879 131.586 427.995 131.447 427.995C131.088 427.995 130.612 427.589 130.172 426.258C130.172 426.258 128.178 428.921 127.471 432.221C126.764 435.509 128.248 437.269 128.329 439.076C128.41 440.882 126.66 442.631 127.854 444.668C127.854 444.668 127.726 445.606 128.943 445.606H146.678C146.678 445.606 148.081 445.606 147.455 444.205C147.455 444.205 148.313 442.329 146.84 439.689L146.829 439.678Z" fill="#3C4FD9"/>
<path d="M205.528 86.3099C204.751 86.6804 199.465 92.5857 198.84 93.3152C198.202 94.0447 193.623 99.371 193.623 99.371C193.623 99.371 195.223 95.9783 195.351 94.6815C195.536 92.7362 194.435 91.9489 193.89 92.1804C193.345 92.412 188.361 98.8615 187.271 100.355C186.193 101.849 185.057 111.39 184.153 112.502C183.968 112.733 183.678 113.046 183.342 113.393C181.534 115.257 181.255 118.129 182.646 120.306C184.524 123.235 188.593 123.768 191.166 121.417C193.044 119.692 194.864 117.677 196.44 116.288C196.556 116.323 198.121 115.049 199.373 114.319C202.294 112.606 202.781 111.645 202.85 110.359C202.92 109.086 202.653 107.465 202.653 107.465C202.653 107.465 203.372 104.871 202.92 104.165C202.804 103.991 202.665 103.783 202.514 103.586C201.969 102.833 201.621 101.976 201.494 101.05C201.424 100.517 201.274 99.95 200.972 99.6373C200.543 99.1857 200.103 98.931 199.825 98.7805L202.166 95.0983C202.224 95.0057 202.271 94.9362 202.329 94.8552C202.966 93.9636 207.139 88.1162 207 87.2246C206.861 86.3099 206.316 85.9394 205.539 86.3099H205.528Z" fill="#FAC8A7"/>
<path d="M81.0125 208.63C81.0125 208.63 81.0125 209.198 80.9198 210.194C80.8155 211.178 80.6996 212.602 80.4098 214.281C80.12 215.96 79.7607 217.917 79.239 219.989C78.9724 221.02 78.6826 222.085 78.3581 223.162C78.0103 224.227 77.6742 225.316 77.2685 226.393C76.886 227.469 76.4339 228.523 76.005 229.554C75.5298 230.584 75.1357 231.592 74.5445 232.541C73.9649 233.491 73.2463 234.347 72.4928 234.984C71.751 235.656 70.9743 236.212 70.2441 236.663C68.772 237.59 67.4158 238.076 66.4769 238.412C65.5264 238.736 64.97 238.84 64.97 238.84C64.97 238.84 65.5032 238.632 66.3841 238.203C66.8362 237.995 67.3578 237.705 67.949 237.37C68.5285 237.011 69.1893 236.605 69.8616 236.119C70.5455 235.633 71.2294 235.054 71.8901 234.371C72.5624 233.687 73.1303 232.912 73.6404 232.043L73.9997 231.36L74.3243 230.619C74.5445 230.121 74.7647 229.623 74.985 229.114C75.4023 228.095 75.8196 227.053 76.2021 225.987C76.6078 224.945 76.9555 223.868 77.3149 222.826C77.651 221.773 77.9872 220.742 78.2885 219.723C78.8797 217.697 79.4129 215.798 79.807 214.154C80.2011 212.509 80.5373 211.132 80.7227 210.159C80.9198 209.186 81.0357 208.63 81.0357 208.63H81.0125Z" fill="#263F99"/>
<path d="M47.2583 146.196C47.2583 149.288 42.5406 151.789 36.7101 151.789C30.8796 151.789 26.1619 149.288 26.1619 146.196C26.1619 143.105 30.8796 140.604 36.7101 140.604C42.5406 140.604 47.2583 143.105 47.2583 146.196Z" fill="#D7E0FF"/>
<path d="M102.607 49.0139C102.607 49.0139 99.2227 44.1623 95.2237 45.5518C89.6598 47.4739 95.6757 62.3182 99.698 60.0719" fill="#FAC8A7"/>
<path d="M81.198 87.2941C81.198 87.2941 81.8239 87.8731 82.9947 88.7878C84.1538 89.7141 85.8809 90.9415 88.0485 92.2499C90.2161 93.5583 92.859 94.8783 95.8264 95.932C98.7822 96.9857 102.074 97.7499 105.413 97.8657C107.082 97.9584 108.751 97.9352 110.385 97.7384C112.008 97.5415 113.631 97.2405 115.091 96.7773C116.563 96.3026 117.954 95.712 119.137 94.9362C120.319 94.1604 121.281 93.211 121.988 92.2036C123.402 90.1657 123.797 88.012 123.843 86.553C123.901 85.0825 123.715 84.2372 123.715 84.2372C123.715 84.2372 123.994 85.0478 124.063 86.553C124.098 88.0236 123.947 90.3046 122.521 92.5625C121.131 94.8205 118.499 96.7426 115.393 97.7268C113.828 98.2478 112.205 98.5721 110.501 98.8036C108.809 99.0236 107.07 99.0815 105.343 99.0121C101.877 98.8384 98.4808 97.9931 95.4671 96.8584C92.4301 95.7352 89.8336 94.1836 87.6892 92.7825C85.5448 91.3583 83.9452 89.9341 82.844 88.9383C81.7544 87.9194 81.198 87.2709 81.198 87.2709V87.2941Z" fill="#EFEFEF"/>
<path d="M198.782 100.031L196.973 102.254V102.266C195.721 103.123 194.481 104.026 193.38 105.056C193.113 105.323 192.847 105.589 192.661 105.89C192.499 106.168 192.43 106.585 192.453 106.909C192.476 107.256 192.673 107.557 192.974 107.696C193.276 107.835 193.658 107.847 194.018 107.812C194.748 107.708 195.432 107.384 196.116 107.048C196.788 106.701 197.449 106.33 198.098 105.925C198.747 105.531 199.384 105.114 200.01 104.697C200.59 104.223 201.088 103.632 201.529 103.018C201.123 103.655 200.671 104.281 200.091 104.802C199.477 105.265 198.84 105.682 198.202 106.087C197.553 106.492 196.904 106.886 196.232 107.256C195.559 107.604 194.852 107.963 194.064 108.09C193.681 108.136 193.264 108.136 192.87 107.974C192.464 107.801 192.209 107.361 192.198 106.955C192.186 106.527 192.244 106.156 192.464 105.774C192.685 105.438 192.963 105.172 193.241 104.894C194.388 103.864 195.64 102.995 196.904 102.15H196.892L198.805 100.043L198.782 100.031Z" fill="#DB9F7D"/>
<path d="M194.458 108.009C194.458 108.009 194.284 108.113 194.018 108.333C193.751 108.553 193.345 108.901 193.114 109.422C192.998 109.688 192.951 110.001 193.079 110.313C193.137 110.464 193.23 110.614 193.345 110.73C193.45 110.823 193.624 110.881 193.809 110.904C194.551 110.973 195.386 110.799 196.185 110.637C196.591 110.556 196.997 110.464 197.391 110.383C197.785 110.29 198.202 110.267 198.562 110.151C199.303 109.943 199.929 109.561 200.439 109.225C201.459 108.518 202.016 107.893 202.016 107.893C202.016 107.893 201.483 108.53 200.474 109.271C199.964 109.63 199.35 110.024 198.596 110.255C198.225 110.394 197.82 110.417 197.426 110.522C197.032 110.614 196.626 110.707 196.22 110.799C195.409 110.973 194.597 111.17 193.786 111.112C193.589 111.089 193.38 111.043 193.195 110.892C193.044 110.742 192.951 110.579 192.87 110.406C192.72 110.047 192.766 109.642 192.893 109.341C193.16 108.727 193.577 108.368 193.855 108.125C194.145 107.882 194.331 107.777 194.331 107.777L194.481 108.021L194.458 108.009Z" fill="#DB9F7D"/>
<path d="M194.748 111.066C194.748 111.066 194.667 111.193 194.551 111.436C194.446 111.668 194.272 112.05 194.319 112.444C194.342 112.536 194.377 112.629 194.446 112.687C194.527 112.745 194.643 112.791 194.759 112.814C195.003 112.872 195.292 112.884 195.582 112.884C196.162 112.884 196.788 112.837 197.414 112.791C197.727 112.768 198.04 112.756 198.353 112.733C198.677 112.733 198.955 112.71 199.234 112.606C199.778 112.421 200.265 112.154 200.682 111.934C201.505 111.471 202.015 111.124 202.015 111.124C202.015 111.124 201.505 111.494 200.706 111.981C200.3 112.212 199.825 112.49 199.268 112.698C199.002 112.814 198.666 112.861 198.364 112.861C198.063 112.884 197.75 112.918 197.437 112.942C196.811 113.011 196.185 113.069 195.594 113.092C195.292 113.092 195.014 113.092 194.724 113.046C194.574 113.011 194.435 112.965 194.319 112.884C194.203 112.779 194.122 112.641 194.099 112.502C194.041 112.235 194.099 112.004 194.145 111.807C194.191 111.61 194.261 111.448 194.319 111.321C194.435 111.066 194.516 110.915 194.516 110.915L194.771 111.066H194.748Z" fill="#DB9F7D"/>
<path d="M35.6669 444.333C35.7364 444.113 35.8407 443.939 35.9335 443.8C35.7944 443.152 35.8639 442.329 36.2928 441.264C37.9504 437.223 44.4416 437.513 49.3332 435.405C54.2363 433.298 56.856 428.064 58.8497 427.89C60.8435 427.717 61.3535 432.267 63.7529 432.615C65.2714 432.835 67.3463 431.26 69.1429 430.137C70.6035 429.234 72.5508 429.593 73.5361 431.005C73.5361 431.017 73.5593 431.028 73.5593 431.04C74.4286 432.29 73.3738 435.44 73.4086 436.725C73.4434 437.721 74.4286 440.072 74.3243 443.128V443.105C74.3243 443.105 74.6721 443.846 74.8459 444.587C75.0198 445.328 74.7532 446 73.8954 446H36.3855C35.4582 446 35.5046 444.842 35.6784 444.333H35.6669Z" fill="#3C4FD9"/>
</g>
<defs>
<clipPath id="clip0_144_28">
<rect width="207" height="446" fill="white"/>
</clipPath>
</defs>
</svg>
