<svg width="450" height="250" viewBox="0 0 450 250" fill="none" xmlns="http://www.w3.org/2000/svg">
<g clip-path="url(#clip0_144_85)">
<path d="M173.21 105.08H221.25C237.18 105.08 250.12 118.02 250.12 133.95V243.99H146.64V131.66C146.64 116.99 158.55 105.08 173.22 105.08H173.21Z" fill="#FD6447"/>
<path d="M91.01 204.37C102.3 207.44 117.74 170.1 122.99 156.39C124.16 153.34 124.82 151.46 124.82 151.46L108.6 140.36C108.6 140.36 107.59 142.14 106.01 145.11C98.42 159.32 77.62 200.75 91 204.38L91.01 204.37Z" fill="#FD9680"/>
<path d="M106.01 145.1L122.99 156.39C124.16 153.34 124.82 151.46 124.82 151.46L108.6 140.36C108.6 140.36 107.59 142.14 106.01 145.11V145.1Z" fill="#002E3C"/>
<path d="M136.76 139.34L136.64 140.15L136.4 141.75L135.54 147.54L135.08 150.6L134.86 152.06L134.52 154.33L133.51 161.07L122.32 153.55L122.29 153.53L122.23 153.49L120.88 152.58L120.78 152.51L117.57 150.35L116.01 149.3L104.82 141.78C107.27 137.09 109.78 132.53 112.29 128.24C112.93 127.15 113.56 126.09 114.2 125.04C114.75 124.13 115.3 123.24 115.84 122.37C115.98 122.13 116.13 121.9 116.28 121.66C123.25 110.62 129.96 102.35 135.09 100.24C135.51 100.07 135.92 99.94 136.31 99.85V100.76L136.38 106.16L136.4 108.26L136.45 112.63L136.47 114.36L136.53 119.85L136.55 121.78L136.6 126.45V127.93L136.68 133.58L136.7 135.3L136.74 139.33L136.76 139.34Z" fill="#EAEFF5"/>
<path d="M120.77 152.5L120.87 152.57L122.22 153.48L122.99 149.53L126.77 130.25C126.85 129.81 126.57 129.39 126.13 129.3C125.69 129.21 125.26 129.5 125.18 129.94L122.07 145.78L121.36 149.4L120.76 152.49L120.77 152.5Z" fill="#CED5DB"/>
<path d="M242.76 175.45L241.58 175.54L238.03 175.82L235.69 176L225.14 176.82L222.56 177.02L221.38 177.11L219.08 177.29L211.88 177.85C211.36 175.86 211.29 174.88 211.29 174.88V175.55L211.1 185.94L210.8 203.1C210.8 203.1 210.86 222.82 210.63 243.91H107.19C108.44 236.27 109.92 227.21 111.52 217.45C111.61 216.89 111.7 216.33 111.8 215.77C112.12 213.81 112.45 211.81 112.78 209.8C112.94 208.81 113.11 207.82 113.27 206.83C113.34 206.42 113.4 206.02 113.47 205.61C113.59 204.9 113.7 204.18 113.83 203.46C114.5 199.38 115.19 195.25 115.88 191.1C115.92 190.83 115.97 190.56 116.01 190.3C116.46 187.62 116.9 184.95 117.35 182.28C117.48 181.53 117.6 180.78 117.73 180.03C117.9 179.02 118.07 178.01 118.24 177.01C118.38 176.18 118.52 175.35 118.66 174.52C119.89 167.27 121.11 160.19 122.28 153.53C122.86 150.24 123.43 147.04 123.98 143.98C124.01 143.79 124.05 143.61 124.08 143.42C124.12 143.18 124.17 142.94 124.21 142.7C124.23 142.58 124.25 142.46 124.27 142.35C124.34 141.97 124.41 141.59 124.48 141.21C124.52 140.97 124.57 140.73 124.61 140.49C126.03 132.75 128.03 122.7 130.09 114.56C130.39 113.39 130.68 112.25 130.98 111.17C131.09 110.76 131.21 110.35 131.32 109.95C131.51 109.3 131.7 108.67 131.88 108.06C133.08 104.18 134.24 101.35 135.27 100.41C135.4 100.29 135.53 100.2 135.66 100.14C135.88 100.04 136.1 99.94 136.33 99.84C136.53 99.75 136.73 99.66 136.94 99.57C140.77 97.9 144.53 96.53 148.08 95.42C148.76 95.21 149.43 95 150.09 94.81C150.7 94.63 151.29 94.46 151.88 94.3C152.95 94 153.99 93.73 155 93.47C164.5 91.09 171.24 90.59 171.24 90.59L193.61 91.23C193.61 91.23 197.81 93.67 204.63 98.54C205.57 99.22 206.57 99.94 207.61 100.7C211.7 103.72 216.5 107.46 221.75 111.93C221.75 111.93 222.39 112.38 223.42 113.29L223.44 113.31C223.79 113.62 224.18 113.98 224.61 114.39C227.69 117.35 232.61 123.02 236.06 131.61C236.28 132.15 236.52 132.87 236.79 133.75C237.08 134.7 237.39 135.83 237.71 137.11C237.82 137.53 237.92 137.97 238.03 138.43C238.17 139.02 238.31 139.63 238.45 140.27C239.2 143.62 239.97 147.63 240.66 151.94C240.77 152.64 240.88 153.34 240.98 154.06C241.34 156.49 241.66 158.98 241.93 161.5C242.02 162.3 242.1 163.09 242.17 163.89C242.25 164.76 242.32 165.64 242.39 166.51C242.46 167.38 242.51 168.25 242.56 169.11C242.66 170.94 242.73 172.76 242.74 174.52C242.74 174.83 242.74 175.13 242.74 175.44L242.76 175.45Z" fill="#EAEFF5"/>
<path d="M165.51 139.05C163.63 139.13 161.82 138.73 160.1 137.84C154.15 134.78 152.28 125.98 154.55 111.7C156.18 101.4 159.48 91.8 159.51 91.7C159.74 91.05 160.45 90.7 161.1 90.93C161.75 91.16 162.1 91.87 161.87 92.52C158.33 102.78 151.32 130.51 161.25 135.62C163.96 137.01 166.86 136.87 170.14 135.17C182.5 128.77 194.98 102.32 196.23 93.5C196.33 92.82 196.96 92.34 197.64 92.44C198.32 92.54 198.8 93.17 198.7 93.85C197.37 103.29 184.54 130.53 171.29 137.39C169.31 138.42 167.38 138.97 165.52 139.05H165.51Z" fill="#044F5B"/>
<path d="M181.96 220.45C181.96 220.45 181.9 220.41 181.87 220.39C181.79 220.33 173.55 214.31 165.58 204.72C158.19 195.83 149.51 181.95 150.12 166.33C150.14 165.88 150.51 165.53 150.96 165.55C151.41 165.57 151.76 165.95 151.74 166.39C151.15 181.48 159.61 194.98 166.8 203.65C174.64 213.1 182.74 219.02 182.82 219.08C183.18 219.34 183.26 219.85 183 220.21C182.76 220.54 182.31 220.64 181.96 220.45Z" fill="#CED5DB"/>
<path d="M183.57 118.62C184.01 118.76 184.48 118.54 184.66 118.11C184.84 117.66 184.62 117.15 184.17 116.97C165.99 109.81 164.39 97.42 164.37 97.3C164.32 96.82 163.88 96.47 163.4 96.53C162.92 96.58 162.57 97.01 162.62 97.49C162.68 98.04 164.29 111.03 183.52 118.61C183.54 118.61 183.56 118.62 183.57 118.63V118.62Z" fill="#CED5DB"/>
<path d="M174.43 121.07C174.86 121.21 175.33 121 175.51 120.57C175.7 120.12 175.48 119.61 175.04 119.42C165.08 115.27 163.86 109.58 163.84 109.52C163.75 109.04 163.29 108.73 162.81 108.83C162.33 108.92 162.02 109.38 162.12 109.86C162.17 110.13 163.54 116.54 174.36 121.04C174.38 121.04 174.41 121.06 174.43 121.06V121.07Z" fill="#CED5DB"/>
<path d="M204.77 140.88L207.02 156.87L207.54 160.52L211.11 185.94L211.29 175.55L209.12 160.11L206.39 140.66C206.32 140.22 205.92 139.91 205.47 139.97C205.03 140.03 204.71 140.44 204.78 140.89L204.77 140.88Z" fill="#CED5DB"/>
<path d="M208.31 161.03C208.47 161.03 208.62 160.98 208.76 160.89C209.13 160.64 209.23 160.13 208.98 159.76L203.64 151.88C203.39 151.51 202.88 151.41 202.51 151.66C202.14 151.91 202.04 152.42 202.29 152.79L207.63 160.67C207.79 160.9 208.04 161.03 208.3 161.03H208.31Z" fill="#CED5DB"/>
<path d="M152.99 243.91C143.63 239.2 133.42 231.8 127.89 220.59C127.69 220.19 127.86 219.7 128.26 219.5C128.66 219.3 129.15 219.47 129.35 219.87C135.28 231.91 146.9 239.44 156.75 243.91H152.99Z" fill="#CED5DB"/>
<path d="M196.68 33.99C196.68 33.99 203.19 24.47 201.24 17.48C199.29 10.49 192.95 17.12 192.95 17.12C192.95 17.12 192.64 -0.0399947 183.84 0.280005C175.04 0.600005 176.17 7.87001 176.17 7.87001C176.17 7.87001 160.66 -2.32999 148.26 0.480005C135.86 3.29001 149.85 13 149.85 13C149.85 13 134.64 4.68001 132.72 13.37C130.8 22.07 138.22 25.45 138.22 25.45C138.22 25.45 127.1 28.8 132.55 33.39C138 37.99 142.6 35.88 142.6 35.88L196.66 33.98L196.68 33.99Z" fill="#002E3C"/>
<path d="M145.78 48.23C145.78 48.23 138.44 46.28 137.75 54.72C137.06 63.16 146.82 70.72 153.39 67.03C153.39 67.03 149.74 51.26 145.78 48.22V48.23Z" fill="#FD9680"/>
<path d="M151.19 64.18C150.76 64.22 150.35 63.96 150.22 63.54C148.37 57.59 143.33 54.99 143.28 54.97C142.83 54.74 142.64 54.19 142.87 53.73C143.1 53.28 143.65 53.09 144.1 53.32C144.34 53.44 149.88 56.27 151.98 62.99C152.13 63.48 151.86 63.99 151.37 64.14C151.31 64.16 151.25 64.17 151.19 64.18Z" fill="#FD6C5B"/>
<path d="M143.59 60.62C143.27 60.65 142.94 60.51 142.74 60.23C142.45 59.81 142.55 59.24 142.97 58.95C143.09 58.87 145.85 56.96 148.32 57.1C148.83 57.13 149.22 57.56 149.19 58.07C149.16 58.58 148.73 58.97 148.22 58.94C146.71 58.85 144.68 60.01 144.03 60.46C143.9 60.55 143.75 60.6 143.6 60.62H143.59Z" fill="#FD6C5B"/>
<path d="M166.62 98.12C166.62 98.12 173.58 101.84 181.7 98.92C189.82 96 193.61 91.23 193.61 91.23L191.03 84.7L182.08 64.63L159.91 72.6L163.15 84.92L166.62 98.12Z" fill="#FD9680"/>
<path d="M163.14 84.92C166.98 87.66 176.79 92.53 191.02 84.7L182.07 64.63L159.9 72.6L163.14 84.92Z" fill="#002E3C"/>
<path d="M146.94 56.4C147.91 59.19 149.04 62.03 150.32 64.81C156.35 77.92 165.69 89.45 177.62 85.44C187.56 82.09 192.4 70.75 194.71 59.11C195.3 56.11 195.73 53.09 196.04 50.19C196.7 43.78 196.77 37.91 196.69 34C196.63 30.77 194.84 27.81 191.99 26.29C169.66 14.39 143.45 27.4 142.63 35.9C142.31 39.16 143.83 47.46 146.96 56.4H146.94Z" fill="#FD9680"/>
<path d="M171.98 77.98C170.07 77.98 168.71 77.53 168.6 77.5C168.21 77.37 168 76.94 168.13 76.55C168.26 76.16 168.69 75.95 169.08 76.08C169.13 76.1 173.62 77.55 177.58 74.75C177.92 74.51 178.38 74.59 178.62 74.93C178.86 75.27 178.78 75.73 178.44 75.97C176.19 77.57 173.83 77.98 171.98 77.98Z" fill="#FD6C5B"/>
<path d="M181.57 70.57C181.57 70.57 178.13 67.84 173.09 67.71C164.34 67.48 165.09 73.37 165.09 73.37C170.15 74.68 175.58 74.08 181.57 70.58V70.57Z" fill="#EAEFF5"/>
<path d="M184.87 40.54L173.41 35.61C173.41 35.61 170.93 35.67 173.12 39.2C175.44 42.95 182.73 42.71 182.73 42.71C182.73 42.71 186.08 43.49 184.87 40.54Z" fill="#002E3C"/>
<path d="M149.28 44.54L159.74 37.75C159.74 37.75 162.2 37.39 160.63 41.24C158.97 45.33 151.74 46.32 151.74 46.32C151.74 46.32 148.57 47.65 149.27 44.54H149.28Z" fill="#002E3C"/>
<path d="M179.18 54.61C179.34 56.06 181.77 56.97 184.6 56.65C187.43 56.33 189.59 54.9 189.43 53.45C189.27 52 186.84 51.09 184.01 51.41C181.18 51.73 179.02 53.16 179.18 54.61Z" fill="#FD6C5B"/>
<path d="M148.88 58.45C149.04 59.9 151.47 60.81 154.3 60.49C157.13 60.17 159.29 58.74 159.13 57.29C158.97 55.84 156.54 54.93 153.71 55.25C150.88 55.57 148.72 57 148.88 58.45Z" fill="#FD6C5B"/>
<path d="M177.02 49.03C177.18 50.46 177.94 51.55 178.73 51.46C179.52 51.37 180.03 50.15 179.88 48.72C179.72 47.29 178.96 46.2 178.17 46.29C177.38 46.38 176.87 47.6 177.02 49.03Z" fill="#002E3C"/>
<path d="M160.1 51.17C160.31 52.59 159.84 53.84 159.05 53.95C158.26 54.06 157.46 53 157.25 51.58C157.04 50.16 157.51 48.91 158.3 48.8C159.09 48.69 159.89 49.75 160.1 51.17Z" fill="#002E3C"/>
<path d="M169.43 65.06C170.39 64.94 171.42 64.58 171.97 64.37C172.4 64.21 172.61 63.73 172.45 63.3C172.29 62.87 171.81 62.66 171.38 62.82C170.35 63.21 169.17 63.48 168.69 63.45C168.58 62.09 168.71 55.81 168.9 50.22C168.92 49.76 168.56 49.38 168.1 49.36C167.64 49.34 167.26 49.7 167.24 50.16C167.14 53.14 166.82 62.95 167.1 64.06C167.19 64.42 167.43 64.72 167.78 64.9C168.21 65.12 168.81 65.14 169.43 65.06Z" fill="#FD6C5B"/>
<path d="M192.92 41.78C193.32 42.9 195.08 41.99 195.75 41.68C197.06 41.07 196.96 34.87 197.58 32.1C198.2 29.33 199.91 21.88 179.03 17.84C158.15 13.81 143.14 26.75 141.98 33.5C140.82 40.25 144.45 50.39 145.82 49.49C147.19 48.59 145.76 38.61 146.25 37.63C146.75 36.65 145.85 32.07 148.82 31.11C151.79 30.15 155.01 28.75 161.46 26.17C167.91 23.59 179.43 24.02 183.36 25.48C183.36 25.48 181.35 29.44 184.38 33.04C187.41 36.65 191.03 36.44 192.92 41.78Z" fill="#002E3C"/>
<path d="M195.12 41.98C195.12 41.98 201.74 38.26 204.52 46.26C207.29 54.27 199.73 64.02 192.45 62.08C192.45 62.08 192.05 45.9 195.12 41.97V41.98Z" fill="#FD9680"/>
<path d="M193.86 58.77C194.28 58.71 194.62 58.35 194.64 57.9C194.95 51.68 199.18 47.9 199.22 47.87C199.6 47.53 199.64 46.95 199.31 46.57C198.98 46.19 198.4 46.15 198.01 46.48C197.81 46.65 193.15 50.78 192.8 57.81C192.77 58.32 193.17 58.75 193.67 58.78C193.73 58.78 193.79 58.78 193.85 58.78L193.86 58.77Z" fill="#FD6C5B"/>
<path d="M200.33 53.43C200.65 53.38 200.94 53.16 201.06 52.84C201.24 52.36 200.99 51.83 200.52 51.66C200.39 51.61 197.23 50.45 194.88 51.2C194.4 51.35 194.13 51.87 194.28 52.36C194.43 52.85 194.95 53.11 195.44 52.96C196.88 52.5 199.13 53.11 199.88 53.39C200.03 53.45 200.19 53.46 200.34 53.44L200.33 53.43Z" fill="#FD6C5B"/>
<path d="M184.41 62.91C181.23 63.65 177.95 63.11 175.18 61.38C172.41 59.66 170.47 56.95 169.73 53.77C168.99 50.59 169.53 47.31 171.25 44.54C172.97 41.77 175.67 39.83 178.86 39.09C182.04 38.35 185.32 38.89 188.09 40.62C190.86 42.34 192.8 45.05 193.54 48.23C194.28 51.41 193.74 54.69 192.01 57.46C190.5 59.88 188.25 61.66 185.59 62.57C185.2 62.7 184.81 62.81 184.41 62.91ZM172.35 45.23C170.81 47.71 170.32 50.64 170.99 53.49C171.65 56.34 173.38 58.75 175.86 60.29C178.34 61.83 181.27 62.32 184.12 61.65C186.97 60.99 189.38 59.26 190.92 56.77C192.46 54.29 192.95 51.36 192.28 48.51C191.62 45.67 189.89 43.25 187.41 41.71C184.93 40.17 182 39.68 179.15 40.35C178.79 40.43 178.44 40.53 178.09 40.65C175.71 41.46 173.69 43.06 172.35 45.22V45.23Z" fill="#EAEFF5"/>
<path d="M157.82 65.3C151.61 66.75 145.39 62.87 143.94 56.67C142.49 50.46 146.37 44.24 152.57 42.79C155.58 42.09 158.68 42.6 161.3 44.23C163.92 45.86 165.75 48.41 166.45 51.42C167.15 54.43 166.64 57.53 165.01 60.15C163.59 62.44 161.46 64.12 158.94 64.98C158.57 65.1 158.2 65.21 157.82 65.3ZM145.2 56.38C146.49 61.89 152.02 65.33 157.53 64.05C160.2 63.43 162.47 61.8 163.92 59.47C165.37 57.14 165.82 54.39 165.2 51.72C164.58 49.05 162.95 46.78 160.62 45.33C158.29 43.88 155.54 43.43 152.87 44.05C152.53 44.13 152.21 44.22 151.89 44.33C146.96 46.01 144 51.2 145.2 56.38Z" fill="#EAEFF5"/>
<path d="M170.33 51.67C170.52 51.6 170.69 51.47 170.8 51.28C171.03 50.87 170.89 50.35 170.48 50.12C170.38 50.06 167.89 48.69 165.3 50.75C164.93 51.05 164.87 51.59 165.16 51.96C165.46 52.33 166 52.39 166.37 52.1C168.03 50.77 169.57 51.59 169.64 51.62C169.86 51.74 170.11 51.75 170.33 51.68V51.67Z" fill="#EAEFF5"/>
<path d="M214 177.68C214.04 178.52 214.08 179.46 214.13 180.49C214.13 180.74 214.15 180.99 214.16 181.24C214.43 187.35 214.79 195.93 215.21 201.46C215.55 205.87 215.95 210.38 216.4 214.61C216.49 215.44 216.58 216.27 216.67 217.08C216.67 217.11 216.67 217.15 216.67 217.18C216.78 218.13 216.89 219.06 217.01 219.97C217.4 223.05 217.82 225.88 218.29 228.27C220.2 238.17 225.85 243.98 231.05 243.17C234.65 242.61 238.04 238.86 239.82 231.1C242.79 218.1 242.55 196.41 241.29 184.12C241.21 183.33 240.97 180.34 240.78 178.09C240.69 177.03 240.61 176.14 240.57 175.72C240.57 175.69 240.57 175.66 240.57 175.63L214 177.69V177.68Z" fill="#FD9680"/>
<path d="M213.98 177.68C214.02 178.72 214.07 179.93 214.12 181.25H214.15L240.78 178.46C240.69 177.22 240.61 176.19 240.57 175.71C240.57 175.68 240.57 175.65 240.57 175.62L214 177.68H213.99H213.98Z" fill="#002E3C"/>
<path d="M168.53 243.95C168.53 243.95 196.88 244.16 219.05 243.91C219.24 243.91 227.94 243.92 228.13 243.91C229.1 243.84 230.09 243.59 231.06 243.17C234.66 241.61 238 237.63 239.32 231.22L239.7 229.37C240.63 224.87 238.52 220.23 234.43 218.11C234.3 218.04 234.16 217.98 234.03 217.91C232.66 217.25 232.65 217.44 231.28 217.09C227.89 216.2 224.6 215.99 221.38 216.29C221.1 216.32 220.81 216.35 220.53 216.38C220.31 216.4 220.09 216.44 219.86 216.47C218.79 216.62 217.73 216.83 216.67 217.09C216.57 217.11 216.47 217.14 216.38 217.16C210.67 218.59 205.12 221.4 199.56 224.56C188.09 231.08 168.02 234.53 168.02 234.53C163.34 239.58 168.52 243.95 168.52 243.95H168.53Z" fill="#FD9680"/>
<path d="M216.38 217.16C216.48 217.16 216.58 217.17 216.68 217.18C219.3 217.42 222.97 218.13 226.71 220.11C226.71 220.11 224.42 217.91 221.38 216.28C219.84 215.46 218.12 214.78 216.4 214.61C216.49 215.44 216.58 216.27 216.67 217.08C216.57 217.1 216.47 217.13 216.38 217.15V217.16Z" fill="#002E3C"/>
<path d="M168.03 233.96C168.03 233.96 155.6 229.41 147.07 231.28C138.54 233.14 135.14 243.63 135.14 243.63L168.17 243.24C168.17 243.24 172.61 235.35 168.03 233.96Z" fill="#FD9680"/>
<path d="M80.5097 243.98L206.08 243.98C207.228 243.98 208.16 243.049 208.16 241.9V238.31C208.16 237.161 207.228 236.23 206.08 236.23L80.5097 236.23C79.3609 236.23 78.4297 237.161 78.4297 238.31V241.9C78.4297 243.049 79.3609 243.98 80.5097 243.98Z" fill="#044F5B"/>
<path d="M35.9898 172.88L52.0498 240.81C52.4798 242.62 54.0898 243.9 55.9498 243.9H154.9C157.49 243.9 159.4 241.48 158.8 238.97L142.74 171.04C142.31 169.23 140.7 167.95 138.83 167.95H39.8898C37.2998 167.95 35.3898 170.37 35.9898 172.88Z" fill="#002E3C"/>
<path d="M134.92 167.95L152.02 243.91H154.9C157.49 243.91 159.4 241.49 158.8 238.98L142.74 171.05C142.31 169.24 140.7 167.96 138.83 167.96H134.91L134.92 167.95Z" fill="#044F5B"/>
<path d="M97.8851 215.127C100.725 212.096 100.57 207.337 97.5399 204.498C94.5094 201.658 89.7505 201.812 86.9106 204.843C84.0707 207.873 84.2253 212.632 87.2558 215.472C90.2863 218.312 95.0452 218.157 97.8851 215.127Z" fill="#044F5B"/>
<path d="M95.9001 92.43C95.6301 90.67 93.8001 90.02 91.7101 90.34C89.2801 90.71 87.2301 92.52 86.4001 95.08L75.5601 91.57C77.6301 85.7 82.7801 81.1 91.8401 79.73C100.73 78.39 107.92 81.12 108.99 88.2C110.3 96.86 101.47 99.76 102.13 104.12L90.4701 105.88C89.4301 99.03 96.4301 95.89 95.9001 92.43ZM90.1801 115.07C89.6101 111.28 92.2301 107.93 96.6401 107.26C101.06 106.59 104.55 109.01 105.12 112.81C105.69 116.55 103.09 120.07 98.6801 120.74C94.2601 121.41 90.7401 118.81 90.1801 115.08V115.07Z" fill="#FD6447"/>
<path d="M73.74 131.16C74.24 132.87 76.14 133.26 78.17 132.67C80.53 131.98 82.32 129.91 82.8 127.26L94.01 129.3C92.74 135.4 88.25 140.64 79.46 143.21C70.83 145.73 63.34 143.98 61.34 137.1C58.89 128.69 67.25 124.64 66.01 120.41L77.33 117.11C79.27 123.76 72.76 127.81 73.74 131.16ZM76.39 107.96C77.46 111.64 75.31 115.31 71.03 116.56C66.74 117.81 62.96 115.87 61.88 112.19C60.82 108.56 62.92 104.73 67.21 103.48C71.5 102.23 75.33 104.33 76.39 107.96Z" fill="#FD6447"/>
</g>
<defs>
<clipPath id="clip0_144_85">
<rect width="449.89" height="249.28" fill="white"/>
</clipPath>
</defs>
</svg>
