<svg width="57" height="45" viewBox="0 0 57 45" fill="none" xmlns="http://www.w3.org/2000/svg">
<g clip-path="url(#clip0_84_404)">
<path d="M38.0334 29.8333L28.7 22.5L19.3667 29.8333" stroke="#070606" stroke-width="5" stroke-linecap="round" stroke-linejoin="round"/>
<path d="M28.7002 22.5V39" stroke="#070606" stroke-width="5" stroke-linecap="round" stroke-linejoin="round"/>
<path d="M48.2768 34.215C50.5526 33.2402 52.3504 31.6976 53.3865 29.8308C54.4226 27.964 54.6379 25.8793 53.9986 23.9056C53.3592 21.9319 51.9016 20.1818 49.8557 18.9313C47.8098 17.6809 45.2921 17.0013 42.7001 17H39.7601C39.0538 14.8536 37.7375 12.8609 35.91 11.1718C34.0825 9.48269 31.7914 8.14105 29.209 7.24778C26.6266 6.3545 23.8201 5.93282 21.0004 6.01445C18.1807 6.09607 15.4213 6.67888 12.9295 7.71905C10.4378 8.75922 8.27856 10.2297 6.61422 12.0199C4.94988 13.8101 3.82371 15.8735 3.32039 18.0549C2.81707 20.2363 2.94968 22.479 3.70827 24.6143C4.46685 26.7496 5.83167 28.7221 7.7001 30.3833" stroke="#070606" stroke-width="5" stroke-linecap="round" stroke-linejoin="round"/>
<path d="M38.0334 29.8333L28.7 22.5L19.3667 29.8333" stroke="#070606" stroke-width="5" stroke-linecap="round" stroke-linejoin="round"/>
</g>
<defs>
<clipPath id="clip0_84_404">
<rect width="56" height="44" fill="white" transform="translate(0.700195 0.5)"/>
</clipPath>
</defs>
</svg>
